%TF.GenerationSoftware,KiCad,Pcbnew,8.0.8*%
%TF.CreationDate,2025-02-03T11:25:15-05:00*%
%TF.ProjectId,keyboard_pcb,6b657962-6f61-4726-945f-7063622e6b69,rev?*%
%TF.SameCoordinates,Original*%
%TF.FileFunction,Soldermask,Top*%
%TF.FilePolarity,Negative*%
%FSLAX46Y46*%
G04 Gerber Fmt 4.6, Leading zero omitted, Abs format (unit mm)*
G04 Created by KiCad (PCBNEW 8.0.8) date 2025-02-03 11:25:15*
%MOMM*%
%LPD*%
G01*
G04 APERTURE LIST*
G04 Aperture macros list*
%AMRoundRect*
0 Rectangle with rounded corners*
0 $1 Rounding radius*
0 $2 $3 $4 $5 $6 $7 $8 $9 X,Y pos of 4 corners*
0 Add a 4 corners polygon primitive as box body*
4,1,4,$2,$3,$4,$5,$6,$7,$8,$9,$2,$3,0*
0 Add four circle primitives for the rounded corners*
1,1,$1+$1,$2,$3*
1,1,$1+$1,$4,$5*
1,1,$1+$1,$6,$7*
1,1,$1+$1,$8,$9*
0 Add four rect primitives between the rounded corners*
20,1,$1+$1,$2,$3,$4,$5,0*
20,1,$1+$1,$4,$5,$6,$7,0*
20,1,$1+$1,$6,$7,$8,$9,0*
20,1,$1+$1,$8,$9,$2,$3,0*%
G04 Aperture macros list end*
%ADD10C,3.987800*%
%ADD11C,1.750000*%
%ADD12C,3.300000*%
%ADD13R,1.700000X1.700000*%
%ADD14O,1.700000X1.700000*%
%ADD15RoundRect,0.250000X0.600000X0.750000X-0.600000X0.750000X-0.600000X-0.750000X0.600000X-0.750000X0*%
%ADD16O,1.700000X2.000000*%
%ADD17O,1.000000X2.100000*%
%ADD18O,1.000000X1.800000*%
%ADD19C,0.650000*%
G04 APERTURE END LIST*
D10*
%TO.C,S5*%
X209518250Y-134623050D03*
X109505750Y-134623050D03*
%TD*%
%TO.C,S4*%
X304800000Y-96520000D03*
X280987500Y-96520000D03*
%TD*%
%TO.C,S3*%
X300037500Y-115570000D03*
X276225000Y-115570000D03*
%TD*%
%TO.C,S2*%
X61976000Y-115570000D03*
X38163500Y-115570000D03*
%TD*%
%TO.C,S1*%
X307181250Y-58420000D03*
X283368750Y-58420000D03*
%TD*%
D11*
%TO.C,MX17*%
X33020000Y-66675000D03*
D10*
X38100000Y-66675000D03*
D11*
X43180000Y-66675000D03*
D12*
X41910000Y-69215000D03*
X35560000Y-71755000D03*
%TD*%
D11*
%TO.C,MX7*%
X175895000Y-38100000D03*
D10*
X180975000Y-38100000D03*
D11*
X186055000Y-38100000D03*
D12*
X184785000Y-40640000D03*
X178435000Y-43180000D03*
%TD*%
D11*
%TO.C,MX24*%
X166370000Y-66675000D03*
D10*
X171450000Y-66675000D03*
D11*
X176530000Y-66675000D03*
D12*
X175260000Y-69215000D03*
X168910000Y-71755000D03*
%TD*%
D11*
%TO.C,MX10*%
X242570000Y-38100000D03*
D10*
X247650000Y-38100000D03*
D11*
X252730000Y-38100000D03*
D12*
X251460000Y-40640000D03*
X245110000Y-43180000D03*
%TD*%
D11*
%TO.C,MX75*%
X283051250Y-123825000D03*
D10*
X288131250Y-123825000D03*
D11*
X293211250Y-123825000D03*
D12*
X291941250Y-126365000D03*
X285591250Y-128905000D03*
%TD*%
D11*
%TO.C,MX71*%
X190182500Y-123825000D03*
D10*
X195262500Y-123825000D03*
D11*
X200342500Y-123825000D03*
D12*
X199072500Y-126365000D03*
X192722500Y-128905000D03*
%TD*%
D11*
%TO.C,MX74*%
X247332500Y-123825000D03*
D10*
X252412500Y-123825000D03*
D11*
X257492500Y-123825000D03*
D12*
X256222500Y-126365000D03*
X249872500Y-128905000D03*
%TD*%
D11*
%TO.C,MX68*%
X133032500Y-123825000D03*
D10*
X138112500Y-123825000D03*
D11*
X143192500Y-123825000D03*
D12*
X141922500Y-126365000D03*
X135572500Y-128905000D03*
%TD*%
D11*
%TO.C,MX44*%
X233045000Y-85725000D03*
D10*
X238125000Y-85725000D03*
D11*
X243205000Y-85725000D03*
D12*
X241935000Y-88265000D03*
X235585000Y-90805000D03*
%TD*%
D11*
%TO.C,MX85*%
X323532500Y-142875000D03*
D10*
X328612500Y-142875000D03*
D11*
X333692500Y-142875000D03*
D12*
X332422500Y-145415000D03*
X326072500Y-147955000D03*
%TD*%
D11*
%TO.C,MX61*%
X237807500Y-104775000D03*
D10*
X242887500Y-104775000D03*
D11*
X247967500Y-104775000D03*
D12*
X246697500Y-107315000D03*
X240347500Y-109855000D03*
%TD*%
D11*
%TO.C,MX28*%
X242570000Y-66675000D03*
D10*
X247650000Y-66675000D03*
D11*
X252730000Y-66675000D03*
D12*
X251460000Y-69215000D03*
X245110000Y-71755000D03*
%TD*%
D11*
%TO.C,MX39*%
X137795000Y-85725000D03*
D10*
X142875000Y-85725000D03*
D11*
X147955000Y-85725000D03*
D12*
X146685000Y-88265000D03*
X140335000Y-90805000D03*
%TD*%
D11*
%TO.C,MX25*%
X185420000Y-66675000D03*
D10*
X190500000Y-66675000D03*
D11*
X195580000Y-66675000D03*
D12*
X194310000Y-69215000D03*
X187960000Y-71755000D03*
%TD*%
D11*
%TO.C,MX26*%
X204470000Y-66675000D03*
D10*
X209550000Y-66675000D03*
D11*
X214630000Y-66675000D03*
D12*
X213360000Y-69215000D03*
X207010000Y-71755000D03*
%TD*%
D11*
%TO.C,MX56*%
X142557500Y-104775000D03*
D10*
X147637500Y-104775000D03*
D11*
X152717500Y-104775000D03*
D12*
X151447500Y-107315000D03*
X145097500Y-109855000D03*
%TD*%
D11*
%TO.C,MX70*%
X171132500Y-123825000D03*
D10*
X176212500Y-123825000D03*
D11*
X181292500Y-123825000D03*
D12*
X180022500Y-126365000D03*
X173672500Y-128905000D03*
%TD*%
D11*
%TO.C,MX59*%
X199707500Y-104775000D03*
D10*
X204787500Y-104775000D03*
D11*
X209867500Y-104775000D03*
D12*
X208597500Y-107315000D03*
X202247500Y-109855000D03*
%TD*%
D11*
%TO.C,MX40*%
X156845000Y-85725000D03*
D10*
X161925000Y-85725000D03*
D11*
X167005000Y-85725000D03*
D12*
X165735000Y-88265000D03*
X159385000Y-90805000D03*
%TD*%
D11*
%TO.C,MX41*%
X175895000Y-85725000D03*
D10*
X180975000Y-85725000D03*
D11*
X186055000Y-85725000D03*
D12*
X184785000Y-88265000D03*
X178435000Y-90805000D03*
%TD*%
D13*
%TO.C,J3*%
X172525000Y-51450000D03*
D14*
X169985000Y-51450000D03*
X167445000Y-51450000D03*
X164905000Y-51450000D03*
X162365000Y-51450000D03*
%TD*%
D11*
%TO.C,MX42*%
X194945000Y-85725000D03*
D10*
X200025000Y-85725000D03*
D11*
X205105000Y-85725000D03*
D12*
X203835000Y-88265000D03*
X197485000Y-90805000D03*
%TD*%
D11*
%TO.C,MX38*%
X118745000Y-85725000D03*
D10*
X123825000Y-85725000D03*
D11*
X128905000Y-85725000D03*
D12*
X127635000Y-88265000D03*
X121285000Y-90805000D03*
%TD*%
D11*
%TO.C,MX15*%
X342582500Y-38100000D03*
D10*
X347662500Y-38100000D03*
D11*
X352742500Y-38100000D03*
D12*
X351472500Y-40640000D03*
X345122500Y-43180000D03*
%TD*%
D11*
%TO.C,MX76*%
X342582500Y-123825000D03*
D10*
X347662500Y-123825000D03*
D11*
X352742500Y-123825000D03*
D12*
X351472500Y-126365000D03*
X345122500Y-128905000D03*
%TD*%
D11*
%TO.C,MX66*%
X94932500Y-123825000D03*
D10*
X100012500Y-123825000D03*
D11*
X105092500Y-123825000D03*
D12*
X103822500Y-126365000D03*
X97472500Y-128905000D03*
%TD*%
D11*
%TO.C,MX52*%
X66357500Y-104775000D03*
D10*
X71437500Y-104775000D03*
D11*
X76517500Y-104775000D03*
D12*
X75247500Y-107315000D03*
X68897500Y-109855000D03*
%TD*%
D11*
%TO.C,MX35*%
X61595000Y-85725000D03*
D10*
X66675000Y-85725000D03*
D11*
X71755000Y-85725000D03*
D12*
X70485000Y-88265000D03*
X64135000Y-90805000D03*
%TD*%
D11*
%TO.C,MX55*%
X123507500Y-104775000D03*
D10*
X128587500Y-104775000D03*
D11*
X133667500Y-104775000D03*
D12*
X132397500Y-107315000D03*
X126047500Y-109855000D03*
%TD*%
D11*
%TO.C,MX80*%
X154463750Y-142875000D03*
D10*
X159543750Y-142875000D03*
D11*
X164623750Y-142875000D03*
D12*
X163353750Y-145415000D03*
X157003750Y-147955000D03*
%TD*%
D11*
%TO.C,MX51*%
X40163750Y-104775000D03*
D10*
X45243750Y-104775000D03*
D11*
X50323750Y-104775000D03*
D12*
X49053750Y-107315000D03*
X42703750Y-109855000D03*
%TD*%
D11*
%TO.C,MX50*%
X361632500Y-85725000D03*
D10*
X366712500Y-85725000D03*
D11*
X371792500Y-85725000D03*
D12*
X370522500Y-88265000D03*
X364172500Y-90805000D03*
%TD*%
D11*
%TO.C,MX73*%
X228282500Y-123825000D03*
D10*
X233362500Y-123825000D03*
D11*
X238442500Y-123825000D03*
D12*
X237172500Y-126365000D03*
X230822500Y-128905000D03*
%TD*%
D11*
%TO.C,MX8*%
X194945000Y-38100000D03*
D10*
X200025000Y-38100000D03*
D11*
X205105000Y-38100000D03*
D12*
X203835000Y-40640000D03*
X197485000Y-43180000D03*
%TD*%
D11*
%TO.C,MX53*%
X85407500Y-104775000D03*
D10*
X90487500Y-104775000D03*
D11*
X95567500Y-104775000D03*
D12*
X94297500Y-107315000D03*
X87947500Y-109855000D03*
%TD*%
D11*
%TO.C,MX81*%
X225901250Y-142875000D03*
D10*
X230981250Y-142875000D03*
D11*
X236061250Y-142875000D03*
D12*
X234791250Y-145415000D03*
X228441250Y-147955000D03*
%TD*%
D11*
%TO.C,MX84*%
X297338750Y-142875000D03*
D10*
X302418750Y-142875000D03*
D11*
X307498750Y-142875000D03*
D12*
X306228750Y-145415000D03*
X299878750Y-147955000D03*
%TD*%
D11*
%TO.C,MX3*%
X90170000Y-38100000D03*
D10*
X95250000Y-38100000D03*
D11*
X100330000Y-38100000D03*
D12*
X99060000Y-40640000D03*
X92710000Y-43180000D03*
%TD*%
D11*
%TO.C,MX5*%
X128270000Y-38100000D03*
D10*
X133350000Y-38100000D03*
D11*
X138430000Y-38100000D03*
D12*
X137160000Y-40640000D03*
X130810000Y-43180000D03*
%TD*%
D11*
%TO.C,MX77*%
X35401250Y-142875000D03*
D10*
X40481250Y-142875000D03*
D11*
X45561250Y-142875000D03*
D12*
X44291250Y-145415000D03*
X37941250Y-147955000D03*
%TD*%
D11*
%TO.C,MX29*%
X261620000Y-66675000D03*
D10*
X266700000Y-66675000D03*
D11*
X271780000Y-66675000D03*
D12*
X270510000Y-69215000D03*
X264160000Y-71755000D03*
%TD*%
D11*
%TO.C,MX32*%
X342582500Y-66675000D03*
D10*
X347662500Y-66675000D03*
D11*
X352742500Y-66675000D03*
D12*
X351472500Y-69215000D03*
X345122500Y-71755000D03*
%TD*%
D11*
%TO.C,MX14*%
X323532500Y-38100000D03*
D10*
X328612500Y-38100000D03*
D11*
X333692500Y-38100000D03*
D12*
X332422500Y-40640000D03*
X326072500Y-43180000D03*
%TD*%
D11*
%TO.C,MX4*%
X109220000Y-38100000D03*
D10*
X114300000Y-38100000D03*
D11*
X119380000Y-38100000D03*
D12*
X118110000Y-40640000D03*
X111760000Y-43180000D03*
%TD*%
D11*
%TO.C,MX82*%
X249713750Y-142875000D03*
D10*
X254793750Y-142875000D03*
D11*
X259873750Y-142875000D03*
D12*
X258603750Y-145415000D03*
X252253750Y-147955000D03*
%TD*%
D11*
%TO.C,MX78*%
X59213750Y-142875000D03*
D10*
X64293750Y-142875000D03*
D11*
X69373750Y-142875000D03*
D12*
X68103750Y-145415000D03*
X61753750Y-147955000D03*
%TD*%
D11*
%TO.C,MX72*%
X209232500Y-123825000D03*
D10*
X214312500Y-123825000D03*
D11*
X219392500Y-123825000D03*
D12*
X218122500Y-126365000D03*
X211772500Y-128905000D03*
%TD*%
D11*
%TO.C,MX13*%
X299720000Y-38100000D03*
D10*
X304800000Y-38100000D03*
D11*
X309880000Y-38100000D03*
D12*
X308610000Y-40640000D03*
X302260000Y-43180000D03*
%TD*%
D11*
%TO.C,MX19*%
X71120000Y-66675000D03*
D10*
X76200000Y-66675000D03*
D11*
X81280000Y-66675000D03*
D12*
X80010000Y-69215000D03*
X73660000Y-71755000D03*
%TD*%
D11*
%TO.C,MX54*%
X104457500Y-104775000D03*
D10*
X109537500Y-104775000D03*
D11*
X114617500Y-104775000D03*
D12*
X113347500Y-107315000D03*
X106997500Y-109855000D03*
%TD*%
D15*
%TO.C,J2*%
X118325000Y-51975000D03*
D16*
X115825000Y-51975000D03*
%TD*%
D11*
%TO.C,MX79*%
X83026250Y-142875000D03*
D10*
X88106250Y-142875000D03*
D11*
X93186250Y-142875000D03*
D12*
X91916250Y-145415000D03*
X85566250Y-147955000D03*
%TD*%
D11*
%TO.C,MX49*%
X342582500Y-85725000D03*
D10*
X347662500Y-85725000D03*
D11*
X352742500Y-85725000D03*
D12*
X351472500Y-88265000D03*
X345122500Y-90805000D03*
%TD*%
D11*
%TO.C,MX43*%
X213995000Y-85725000D03*
D10*
X219075000Y-85725000D03*
D11*
X224155000Y-85725000D03*
D12*
X222885000Y-88265000D03*
X216535000Y-90805000D03*
%TD*%
D11*
%TO.C,MX2*%
X71120000Y-38100000D03*
D10*
X76200000Y-38100000D03*
D11*
X81280000Y-38100000D03*
D12*
X80010000Y-40640000D03*
X73660000Y-43180000D03*
%TD*%
D11*
%TO.C,MX87*%
X361632500Y-142875000D03*
D10*
X366712500Y-142875000D03*
D11*
X371792500Y-142875000D03*
D12*
X370522500Y-145415000D03*
X364172500Y-147955000D03*
%TD*%
D11*
%TO.C,MX18*%
X52070000Y-66675000D03*
D10*
X57150000Y-66675000D03*
D11*
X62230000Y-66675000D03*
D12*
X60960000Y-69215000D03*
X54610000Y-71755000D03*
%TD*%
D11*
%TO.C,MX64*%
X44926250Y-123825000D03*
D10*
X50006250Y-123825000D03*
D11*
X55086250Y-123825000D03*
D12*
X53816250Y-126365000D03*
X47466250Y-128905000D03*
%TD*%
D11*
%TO.C,MX83*%
X273526250Y-142875000D03*
D10*
X278606250Y-142875000D03*
D11*
X283686250Y-142875000D03*
D12*
X282416250Y-145415000D03*
X276066250Y-147955000D03*
%TD*%
D11*
%TO.C,MX47*%
X294957500Y-85725000D03*
D10*
X300037500Y-85725000D03*
D11*
X305117500Y-85725000D03*
D12*
X303847500Y-88265000D03*
X297497500Y-90805000D03*
%TD*%
D11*
%TO.C,MX20*%
X90170000Y-66675000D03*
D10*
X95250000Y-66675000D03*
D11*
X100330000Y-66675000D03*
D12*
X99060000Y-69215000D03*
X92710000Y-71755000D03*
%TD*%
D11*
%TO.C,MX9*%
X213995000Y-38100000D03*
D10*
X219075000Y-38100000D03*
D11*
X224155000Y-38100000D03*
D12*
X222885000Y-40640000D03*
X216535000Y-43180000D03*
%TD*%
D11*
%TO.C,MX1*%
X33020000Y-38100000D03*
D10*
X38100000Y-38100000D03*
D11*
X43180000Y-38100000D03*
D12*
X41910000Y-40640000D03*
X35560000Y-43180000D03*
%TD*%
D11*
%TO.C,MX23*%
X147320000Y-66675000D03*
D10*
X152400000Y-66675000D03*
D11*
X157480000Y-66675000D03*
D12*
X156210000Y-69215000D03*
X149860000Y-71755000D03*
%TD*%
D11*
%TO.C,MX30*%
X290195000Y-66675000D03*
D10*
X295275000Y-66675000D03*
D11*
X300355000Y-66675000D03*
D12*
X299085000Y-69215000D03*
X292735000Y-71755000D03*
%TD*%
D11*
%TO.C,MX45*%
X252095000Y-85725000D03*
D10*
X257175000Y-85725000D03*
D11*
X262255000Y-85725000D03*
D12*
X260985000Y-88265000D03*
X254635000Y-90805000D03*
%TD*%
D11*
%TO.C,MX46*%
X271145000Y-85725000D03*
D10*
X276225000Y-85725000D03*
D11*
X281305000Y-85725000D03*
D12*
X280035000Y-88265000D03*
X273685000Y-90805000D03*
%TD*%
D11*
%TO.C,MX65*%
X75882500Y-123825000D03*
D10*
X80962500Y-123825000D03*
D11*
X86042500Y-123825000D03*
D12*
X84772500Y-126365000D03*
X78422500Y-128905000D03*
%TD*%
D11*
%TO.C,MX6*%
X156845000Y-38100000D03*
D10*
X161925000Y-38100000D03*
D11*
X167005000Y-38100000D03*
D12*
X165735000Y-40640000D03*
X159385000Y-43180000D03*
%TD*%
D11*
%TO.C,MX58*%
X180657500Y-104775000D03*
D10*
X185737500Y-104775000D03*
D11*
X190817500Y-104775000D03*
D12*
X189547500Y-107315000D03*
X183197500Y-109855000D03*
%TD*%
D11*
%TO.C,MX36*%
X80645000Y-85725000D03*
D10*
X85725000Y-85725000D03*
D11*
X90805000Y-85725000D03*
D12*
X89535000Y-88265000D03*
X83185000Y-90805000D03*
%TD*%
D11*
%TO.C,MX31*%
X323532500Y-66675000D03*
D10*
X328612500Y-66675000D03*
D11*
X333692500Y-66675000D03*
D12*
X332422500Y-69215000D03*
X326072500Y-71755000D03*
%TD*%
D11*
%TO.C,MX27*%
X223520000Y-66675000D03*
D10*
X228600000Y-66675000D03*
D11*
X233680000Y-66675000D03*
D12*
X232410000Y-69215000D03*
X226060000Y-71755000D03*
%TD*%
D11*
%TO.C,MX69*%
X152082500Y-123825000D03*
D10*
X157162500Y-123825000D03*
D11*
X162242500Y-123825000D03*
D12*
X160972500Y-126365000D03*
X154622500Y-128905000D03*
%TD*%
D11*
%TO.C,MX67*%
X113982500Y-123825000D03*
D10*
X119062500Y-123825000D03*
D11*
X124142500Y-123825000D03*
D12*
X122872500Y-126365000D03*
X116522500Y-128905000D03*
%TD*%
D11*
%TO.C,MX48*%
X323532500Y-85725000D03*
D10*
X328612500Y-85725000D03*
D11*
X333692500Y-85725000D03*
D12*
X332422500Y-88265000D03*
X326072500Y-90805000D03*
%TD*%
D11*
%TO.C,MX37*%
X99695000Y-85725000D03*
D10*
X104775000Y-85725000D03*
D11*
X109855000Y-85725000D03*
D12*
X108585000Y-88265000D03*
X102235000Y-90805000D03*
%TD*%
D11*
%TO.C,MX22*%
X128270000Y-66675000D03*
D10*
X133350000Y-66675000D03*
D11*
X138430000Y-66675000D03*
D12*
X137160000Y-69215000D03*
X130810000Y-71755000D03*
%TD*%
D11*
%TO.C,MX21*%
X109220000Y-66675000D03*
D10*
X114300000Y-66675000D03*
D11*
X119380000Y-66675000D03*
D12*
X118110000Y-69215000D03*
X111760000Y-71755000D03*
%TD*%
D11*
%TO.C,MX33*%
X361632500Y-66675000D03*
D10*
X366712500Y-66675000D03*
D11*
X371792500Y-66675000D03*
D12*
X370522500Y-69215000D03*
X364172500Y-71755000D03*
%TD*%
D11*
%TO.C,MX11*%
X261620000Y-38100000D03*
D10*
X266700000Y-38100000D03*
D11*
X271780000Y-38100000D03*
D12*
X270510000Y-40640000D03*
X264160000Y-43180000D03*
%TD*%
D11*
%TO.C,MX63*%
X287813750Y-104775000D03*
D10*
X292893750Y-104775000D03*
D11*
X297973750Y-104775000D03*
D12*
X296703750Y-107315000D03*
X290353750Y-109855000D03*
%TD*%
D17*
%TO.C,J1*%
X62723764Y-25290764D03*
D18*
X62723764Y-21110764D03*
D17*
X54083764Y-25290764D03*
D18*
X54083764Y-21110764D03*
D19*
X61293764Y-24790764D03*
X55513764Y-24790764D03*
%TD*%
D11*
%TO.C,MX57*%
X161607500Y-104775000D03*
D10*
X166687500Y-104775000D03*
D11*
X171767500Y-104775000D03*
D12*
X170497500Y-107315000D03*
X164147500Y-109855000D03*
%TD*%
D11*
%TO.C,MX34*%
X37782500Y-85725000D03*
D10*
X42862500Y-85725000D03*
D11*
X47942500Y-85725000D03*
D12*
X46672500Y-88265000D03*
X40322500Y-90805000D03*
%TD*%
D11*
%TO.C,MX62*%
X256857500Y-104775000D03*
D10*
X261937500Y-104775000D03*
D11*
X267017500Y-104775000D03*
D12*
X265747500Y-107315000D03*
X259397500Y-109855000D03*
%TD*%
D11*
%TO.C,MX60*%
X218757500Y-104775000D03*
D10*
X223837500Y-104775000D03*
D11*
X228917500Y-104775000D03*
D12*
X227647500Y-107315000D03*
X221297500Y-109855000D03*
%TD*%
D11*
%TO.C,MX12*%
X280670000Y-38100000D03*
D10*
X285750000Y-38100000D03*
D11*
X290830000Y-38100000D03*
D12*
X289560000Y-40640000D03*
X283210000Y-43180000D03*
%TD*%
D11*
%TO.C,MX16*%
X361632500Y-38100000D03*
D10*
X366712500Y-38100000D03*
D11*
X371792500Y-38100000D03*
D12*
X370522500Y-40640000D03*
X364172500Y-43180000D03*
%TD*%
D11*
%TO.C,MX86*%
X342582500Y-142875000D03*
D10*
X347662500Y-142875000D03*
D11*
X352742500Y-142875000D03*
D12*
X351472500Y-145415000D03*
X345122500Y-147955000D03*
%TD*%
M02*
