%TF.GenerationSoftware,KiCad,Pcbnew,8.0.8*%
%TF.CreationDate,2025-02-03T20:21:24-05:00*%
%TF.ProjectId,OakSpring,4f616b53-7072-4696-9e67-2e6b69636164,rev?*%
%TF.SameCoordinates,Original*%
%TF.FileFunction,Paste,Bot*%
%TF.FilePolarity,Positive*%
%FSLAX46Y46*%
G04 Gerber Fmt 4.6, Leading zero omitted, Abs format (unit mm)*
G04 Created by KiCad (PCBNEW 8.0.8) date 2025-02-03 20:21:24*
%MOMM*%
%LPD*%
G01*
G04 APERTURE LIST*
G04 Aperture macros list*
%AMRoundRect*
0 Rectangle with rounded corners*
0 $1 Rounding radius*
0 $2 $3 $4 $5 $6 $7 $8 $9 X,Y pos of 4 corners*
0 Add a 4 corners polygon primitive as box body*
4,1,4,$2,$3,$4,$5,$6,$7,$8,$9,$2,$3,0*
0 Add four circle primitives for the rounded corners*
1,1,$1+$1,$2,$3*
1,1,$1+$1,$4,$5*
1,1,$1+$1,$6,$7*
1,1,$1+$1,$8,$9*
0 Add four rect primitives between the rounded corners*
20,1,$1+$1,$2,$3,$4,$5,0*
20,1,$1+$1,$4,$5,$6,$7,0*
20,1,$1+$1,$6,$7,$8,$9,0*
20,1,$1+$1,$8,$9,$2,$3,0*%
%AMFreePoly0*
4,1,18,-0.410000,0.593000,-0.403758,0.624380,-0.385983,0.650983,-0.359380,0.668758,-0.328000,0.675000,0.328000,0.675000,0.359380,0.668758,0.385983,0.650983,0.403758,0.624380,0.410000,0.593000,0.410000,-0.593000,0.403758,-0.624380,0.385983,-0.650983,0.359380,-0.668758,0.328000,-0.675000,0.000000,-0.675000,-0.410000,-0.265000,-0.410000,0.593000,-0.410000,0.593000,$1*%
G04 Aperture macros list end*
%ADD10RoundRect,0.250000X-1.025000X-1.000000X1.025000X-1.000000X1.025000X1.000000X-1.025000X1.000000X0*%
%ADD11RoundRect,0.225000X-0.375000X0.225000X-0.375000X-0.225000X0.375000X-0.225000X0.375000X0.225000X0*%
%ADD12RoundRect,0.155000X-0.212500X-0.155000X0.212500X-0.155000X0.212500X0.155000X-0.212500X0.155000X0*%
%ADD13RoundRect,0.082000X-0.593000X0.328000X-0.593000X-0.328000X0.593000X-0.328000X0.593000X0.328000X0*%
%ADD14FreePoly0,270.000000*%
%ADD15RoundRect,0.250000X-0.625000X0.375000X-0.625000X-0.375000X0.625000X-0.375000X0.625000X0.375000X0*%
%ADD16RoundRect,0.155000X-0.155000X0.212500X-0.155000X-0.212500X0.155000X-0.212500X0.155000X0.212500X0*%
%ADD17RoundRect,0.155000X0.212500X0.155000X-0.212500X0.155000X-0.212500X-0.155000X0.212500X-0.155000X0*%
%ADD18RoundRect,0.237500X-0.237500X0.250000X-0.237500X-0.250000X0.237500X-0.250000X0.237500X0.250000X0*%
%ADD19RoundRect,0.150000X-0.150000X0.512500X-0.150000X-0.512500X0.150000X-0.512500X0.150000X0.512500X0*%
%ADD20RoundRect,0.155000X0.155000X-0.212500X0.155000X0.212500X-0.155000X0.212500X-0.155000X-0.212500X0*%
%ADD21R,1.600000X1.400000*%
%ADD22RoundRect,0.237500X0.250000X0.237500X-0.250000X0.237500X-0.250000X-0.237500X0.250000X-0.237500X0*%
%ADD23RoundRect,0.237500X0.287500X0.237500X-0.287500X0.237500X-0.287500X-0.237500X0.287500X-0.237500X0*%
%ADD24RoundRect,0.237500X-0.250000X-0.237500X0.250000X-0.237500X0.250000X0.237500X-0.250000X0.237500X0*%
%ADD25RoundRect,0.150000X0.650000X0.150000X-0.650000X0.150000X-0.650000X-0.150000X0.650000X-0.150000X0*%
%ADD26RoundRect,0.150000X-0.150000X-0.425000X0.150000X-0.425000X0.150000X0.425000X-0.150000X0.425000X0*%
%ADD27RoundRect,0.075000X-0.075000X-0.500000X0.075000X-0.500000X0.075000X0.500000X-0.075000X0.500000X0*%
%ADD28O,1.000000X1.800000*%
%ADD29O,1.000000X2.100000*%
%ADD30RoundRect,0.162500X0.837500X0.162500X-0.837500X0.162500X-0.837500X-0.162500X0.837500X-0.162500X0*%
%ADD31R,1.400000X1.200000*%
%ADD32RoundRect,0.249999X-0.395001X0.395001X-0.395001X-0.395001X0.395001X-0.395001X0.395001X0.395001X0*%
%ADD33RoundRect,0.050000X-0.050000X0.387500X-0.050000X-0.387500X0.050000X-0.387500X0.050000X0.387500X0*%
%ADD34RoundRect,0.050000X-0.387500X0.050000X-0.387500X-0.050000X0.387500X-0.050000X0.387500X0.050000X0*%
%ADD35RoundRect,0.150000X0.150000X-0.512500X0.150000X0.512500X-0.150000X0.512500X-0.150000X-0.512500X0*%
G04 APERTURE END LIST*
D10*
%TO.C,MX17*%
X45460000Y-69215000D03*
X32010000Y-71755000D03*
%TD*%
D11*
%TO.C,D60*%
X215587500Y-103375000D03*
X215587500Y-106675000D03*
%TD*%
D12*
%TO.C,C65*%
X86395000Y-119575000D03*
X87530000Y-119575000D03*
%TD*%
D10*
%TO.C,MX7*%
X188335000Y-40640000D03*
X174885000Y-43180000D03*
%TD*%
D11*
%TO.C,D34*%
X34612500Y-84325000D03*
X34612500Y-87625000D03*
%TD*%
D13*
%TO.C,LED23*%
X155125000Y-61925000D03*
X155125000Y-60425000D03*
X149675000Y-61925000D03*
D14*
X149675000Y-60425000D03*
%TD*%
D11*
%TO.C,D29*%
X258450000Y-65275000D03*
X258450000Y-68575000D03*
%TD*%
D10*
%TO.C,MX24*%
X178810000Y-69215000D03*
X165360000Y-71755000D03*
%TD*%
D13*
%TO.C,LED17*%
X40825000Y-61925000D03*
X40825000Y-60425000D03*
X35375000Y-61925000D03*
D14*
X35375000Y-60425000D03*
%TD*%
D11*
%TO.C,D62*%
X253687500Y-103375000D03*
X253687500Y-106675000D03*
%TD*%
D12*
%TO.C,C68*%
X143545000Y-119575000D03*
X144680000Y-119575000D03*
%TD*%
D11*
%TO.C,D22*%
X125100000Y-65275000D03*
X125100000Y-68575000D03*
%TD*%
D10*
%TO.C,MX10*%
X255010000Y-40640000D03*
X241560000Y-43180000D03*
%TD*%
D11*
%TO.C,D64*%
X41756250Y-122425000D03*
X41756250Y-125725000D03*
%TD*%
%TO.C,D23*%
X144150000Y-65275000D03*
X144150000Y-68575000D03*
%TD*%
D13*
%TO.C,LED43*%
X221800000Y-80975000D03*
X221800000Y-79475000D03*
X216350000Y-80975000D03*
D14*
X216350000Y-79475000D03*
%TD*%
D10*
%TO.C,MX75*%
X295491250Y-126365000D03*
X282041250Y-128905000D03*
%TD*%
%TO.C,MX71*%
X202622500Y-126365000D03*
X189172500Y-128905000D03*
%TD*%
D13*
%TO.C,LED79*%
X90831250Y-138125000D03*
X90831250Y-136625000D03*
X85381250Y-138125000D03*
D14*
X85381250Y-136625000D03*
%TD*%
D13*
%TO.C,LED29*%
X269425000Y-61925000D03*
X269425000Y-60425000D03*
X263975000Y-61925000D03*
D14*
X263975000Y-60425000D03*
%TD*%
D15*
%TO.C,F1*%
X64475000Y-32150000D03*
X64475000Y-34950000D03*
%TD*%
D10*
%TO.C,MX74*%
X259772500Y-126365000D03*
X246322500Y-128905000D03*
%TD*%
D13*
%TO.C,LED20*%
X97975000Y-61925000D03*
X97975000Y-60425000D03*
X92525000Y-61925000D03*
D14*
X92525000Y-60425000D03*
%TD*%
D11*
%TO.C,D1*%
X29850000Y-36700000D03*
X29850000Y-40000000D03*
%TD*%
D16*
%TO.C,C99*%
X64575000Y-36907500D03*
X64575000Y-38042500D03*
%TD*%
D12*
%TO.C,C45*%
X262607500Y-81475000D03*
X263742500Y-81475000D03*
%TD*%
D13*
%TO.C,LED1*%
X40825000Y-33350000D03*
X40825000Y-31850000D03*
X35375000Y-33350000D03*
D14*
X35375000Y-31850000D03*
%TD*%
D11*
%TO.C,D74*%
X244162500Y-122425000D03*
X244162500Y-125725000D03*
%TD*%
D12*
%TO.C,C24*%
X176882500Y-62425000D03*
X178017500Y-62425000D03*
%TD*%
D13*
%TO.C,LED69*%
X159887500Y-119075000D03*
X159887500Y-117575000D03*
X154437500Y-119075000D03*
D14*
X154437500Y-117575000D03*
%TD*%
D10*
%TO.C,MX68*%
X145472500Y-126365000D03*
X132022500Y-128905000D03*
%TD*%
D17*
%TO.C,C103*%
X159242500Y-53300000D03*
X158107500Y-53300000D03*
%TD*%
D12*
%TO.C,C3*%
X100682500Y-33528000D03*
X101817500Y-33528000D03*
%TD*%
D13*
%TO.C,LED77*%
X43206250Y-138125000D03*
X43206250Y-136625000D03*
X37756250Y-138125000D03*
D14*
X37756250Y-136625000D03*
%TD*%
D13*
%TO.C,LED87*%
X369437500Y-138125000D03*
X369437500Y-136625000D03*
X363987500Y-138125000D03*
D14*
X363987500Y-136625000D03*
%TD*%
D11*
%TO.C,D32*%
X339412500Y-65275000D03*
X339412500Y-68575000D03*
%TD*%
D10*
%TO.C,MX44*%
X245485000Y-88265000D03*
X232035000Y-90805000D03*
%TD*%
D11*
%TO.C,D70*%
X167962500Y-122425000D03*
X167962500Y-125725000D03*
%TD*%
D13*
%TO.C,LED34*%
X45587500Y-80975000D03*
X45587500Y-79475000D03*
X40137500Y-80975000D03*
D14*
X40137500Y-79475000D03*
%TD*%
D10*
%TO.C,MX85*%
X335972500Y-145415000D03*
X322522500Y-147955000D03*
%TD*%
%TO.C,MX61*%
X250247500Y-107315000D03*
X236797500Y-109855000D03*
%TD*%
%TO.C,MX28*%
X255010000Y-69215000D03*
X241560000Y-71755000D03*
%TD*%
D17*
%TO.C,C89*%
X140317500Y-52350000D03*
X139182500Y-52350000D03*
%TD*%
D13*
%TO.C,LED53*%
X93212500Y-100025000D03*
X93212500Y-98525000D03*
X87762500Y-100025000D03*
D14*
X87762500Y-98525000D03*
%TD*%
D13*
%TO.C,LED28*%
X250375000Y-61925000D03*
X250375000Y-60425000D03*
X244925000Y-61925000D03*
D14*
X244925000Y-60425000D03*
%TD*%
D10*
%TO.C,MX39*%
X150235000Y-88265000D03*
X136785000Y-90805000D03*
%TD*%
D11*
%TO.C,D63*%
X284643750Y-103375000D03*
X284643750Y-106675000D03*
%TD*%
D10*
%TO.C,MX25*%
X197860000Y-69215000D03*
X184410000Y-71755000D03*
%TD*%
D11*
%TO.C,D43*%
X210825000Y-84325000D03*
X210825000Y-87625000D03*
%TD*%
D12*
%TO.C,C80*%
X164976250Y-138625000D03*
X166111250Y-138625000D03*
%TD*%
D11*
%TO.C,D68*%
X129862500Y-122425000D03*
X129862500Y-125725000D03*
%TD*%
D13*
%TO.C,LED32*%
X350387500Y-61925000D03*
X350387500Y-60425000D03*
X344937500Y-61925000D03*
D14*
X344937500Y-60425000D03*
%TD*%
D10*
%TO.C,MX26*%
X216910000Y-69215000D03*
X203460000Y-71755000D03*
%TD*%
D12*
%TO.C,C69*%
X162595000Y-119575000D03*
X163730000Y-119575000D03*
%TD*%
D13*
%TO.C,LED76*%
X350387500Y-119075000D03*
X350387500Y-117575000D03*
X344937500Y-119075000D03*
D14*
X344937500Y-117575000D03*
%TD*%
D13*
%TO.C,LED75*%
X290856250Y-119075000D03*
X290856250Y-117575000D03*
X285406250Y-119075000D03*
D14*
X285406250Y-117575000D03*
%TD*%
D13*
%TO.C,LED78*%
X67018750Y-138125000D03*
X67018750Y-136625000D03*
X61568750Y-138125000D03*
D14*
X61568750Y-136625000D03*
%TD*%
D11*
%TO.C,D67*%
X110812500Y-122425000D03*
X110812500Y-125725000D03*
%TD*%
D10*
%TO.C,MX56*%
X154997500Y-107315000D03*
X141547500Y-109855000D03*
%TD*%
D13*
%TO.C,LED70*%
X178937500Y-119075000D03*
X178937500Y-117575000D03*
X173487500Y-119075000D03*
D14*
X173487500Y-117575000D03*
%TD*%
D11*
%TO.C,D65*%
X72712500Y-122425000D03*
X72712500Y-125725000D03*
%TD*%
D13*
%TO.C,LED50*%
X369437500Y-80975000D03*
X369437500Y-79475000D03*
X363987500Y-80975000D03*
D14*
X363987500Y-79475000D03*
%TD*%
D12*
%TO.C,C14*%
X334045000Y-33528000D03*
X335180000Y-33528000D03*
%TD*%
D10*
%TO.C,MX70*%
X183572500Y-126365000D03*
X170122500Y-128905000D03*
%TD*%
D11*
%TO.C,D18*%
X48900000Y-65275000D03*
X48900000Y-68575000D03*
%TD*%
%TO.C,D3*%
X87000000Y-36700000D03*
X87000000Y-40000000D03*
%TD*%
D10*
%TO.C,MX59*%
X212147500Y-107315000D03*
X198697500Y-109855000D03*
%TD*%
D18*
%TO.C,R5*%
X62425000Y-32037500D03*
X62425000Y-33862500D03*
%TD*%
D10*
%TO.C,MX40*%
X169285000Y-88265000D03*
X155835000Y-90805000D03*
%TD*%
D12*
%TO.C,C79*%
X93538750Y-138625000D03*
X94673750Y-138625000D03*
%TD*%
D13*
%TO.C,LED16*%
X369437500Y-33350000D03*
X369437500Y-31850000D03*
X363987500Y-33350000D03*
D14*
X363987500Y-31850000D03*
%TD*%
D10*
%TO.C,MX41*%
X188335000Y-88265000D03*
X174885000Y-90805000D03*
%TD*%
D11*
%TO.C,D79*%
X79856250Y-141475000D03*
X79856250Y-144775000D03*
%TD*%
%TO.C,D14*%
X320362500Y-36700000D03*
X320362500Y-40000000D03*
%TD*%
D13*
%TO.C,LED33*%
X369437500Y-61925000D03*
X369437500Y-60425000D03*
X363987500Y-61925000D03*
D14*
X363987500Y-60425000D03*
%TD*%
D12*
%TO.C,C71*%
X200695000Y-119575000D03*
X201830000Y-119575000D03*
%TD*%
D10*
%TO.C,MX42*%
X207385000Y-88265000D03*
X193935000Y-90805000D03*
%TD*%
%TO.C,MX38*%
X131185000Y-88265000D03*
X117735000Y-90805000D03*
%TD*%
D13*
%TO.C,LED42*%
X202750000Y-80975000D03*
X202750000Y-79475000D03*
X197300000Y-80975000D03*
D14*
X197300000Y-79475000D03*
%TD*%
D11*
%TO.C,D81*%
X222731250Y-141475000D03*
X222731250Y-144775000D03*
%TD*%
%TO.C,D59*%
X196537500Y-103375000D03*
X196537500Y-106675000D03*
%TD*%
D13*
%TO.C,LED30*%
X298000000Y-61925000D03*
X298000000Y-60425000D03*
X292550000Y-61925000D03*
D14*
X292550000Y-60425000D03*
%TD*%
D12*
%TO.C,C26*%
X214982500Y-62425000D03*
X216117500Y-62425000D03*
%TD*%
%TO.C,C10*%
X253082500Y-33528000D03*
X254217500Y-33528000D03*
%TD*%
%TO.C,C72*%
X219745000Y-119575000D03*
X220880000Y-119575000D03*
%TD*%
%TO.C,C94*%
X154482500Y-54525000D03*
X155617500Y-54525000D03*
%TD*%
D13*
%TO.C,LED60*%
X226562500Y-100025000D03*
X226562500Y-98525000D03*
X221112500Y-100025000D03*
D14*
X221112500Y-98525000D03*
%TD*%
D10*
%TO.C,MX15*%
X355022500Y-40640000D03*
X341572500Y-43180000D03*
%TD*%
%TO.C,MX76*%
X355022500Y-126365000D03*
X341572500Y-128905000D03*
%TD*%
D13*
%TO.C,LED6*%
X164650000Y-33350000D03*
X164650000Y-31850000D03*
X159200000Y-33350000D03*
D14*
X159200000Y-31850000D03*
%TD*%
D10*
%TO.C,MX66*%
X107372500Y-126365000D03*
X93922500Y-128905000D03*
%TD*%
D11*
%TO.C,D21*%
X106050000Y-65275000D03*
X106050000Y-68575000D03*
%TD*%
D13*
%TO.C,LED71*%
X197987500Y-119075000D03*
X197987500Y-117575000D03*
X192537500Y-119075000D03*
D14*
X192537500Y-117575000D03*
%TD*%
D10*
%TO.C,MX52*%
X78797500Y-107315000D03*
X65347500Y-109855000D03*
%TD*%
D12*
%TO.C,C12*%
X291182500Y-33528000D03*
X292317500Y-33528000D03*
%TD*%
D11*
%TO.C,D87*%
X358462500Y-141475000D03*
X358462500Y-144775000D03*
%TD*%
D12*
%TO.C,C40*%
X167357500Y-81475000D03*
X168492500Y-81475000D03*
%TD*%
%TO.C,C60*%
X229270000Y-100525000D03*
X230405000Y-100525000D03*
%TD*%
D13*
%TO.C,LED11*%
X269425000Y-33350000D03*
X269425000Y-31850000D03*
X263975000Y-33350000D03*
D14*
X263975000Y-31850000D03*
%TD*%
D12*
%TO.C,C64*%
X55438750Y-119575000D03*
X56573750Y-119575000D03*
%TD*%
D11*
%TO.C,D20*%
X87000000Y-65275000D03*
X87000000Y-68575000D03*
%TD*%
D12*
%TO.C,C42*%
X205457500Y-81475000D03*
X206592500Y-81475000D03*
%TD*%
D11*
%TO.C,D6*%
X153675000Y-36700000D03*
X153675000Y-40000000D03*
%TD*%
D12*
%TO.C,C4*%
X119732500Y-33528000D03*
X120867500Y-33528000D03*
%TD*%
D10*
%TO.C,MX35*%
X74035000Y-88265000D03*
X60585000Y-90805000D03*
%TD*%
%TO.C,MX55*%
X135947500Y-107315000D03*
X122497500Y-109855000D03*
%TD*%
%TO.C,MX80*%
X166903750Y-145415000D03*
X153453750Y-147955000D03*
%TD*%
%TO.C,MX51*%
X52603750Y-107315000D03*
X39153750Y-109855000D03*
%TD*%
D12*
%TO.C,C23*%
X157832500Y-62425000D03*
X158967500Y-62425000D03*
%TD*%
D13*
%TO.C,LED51*%
X47968750Y-100025000D03*
X47968750Y-98525000D03*
X42518750Y-100025000D03*
D14*
X42518750Y-98525000D03*
%TD*%
D11*
%TO.C,D36*%
X77475000Y-84325000D03*
X77475000Y-87625000D03*
%TD*%
D13*
%TO.C,LED63*%
X295618750Y-100025000D03*
X295618750Y-98525000D03*
X290168750Y-100025000D03*
D14*
X290168750Y-98525000D03*
%TD*%
D11*
%TO.C,D80*%
X151293750Y-141475000D03*
X151293750Y-144775000D03*
%TD*%
%TO.C,D37*%
X96525000Y-84325000D03*
X96525000Y-87625000D03*
%TD*%
%TO.C,D41*%
X172725000Y-84325000D03*
X172725000Y-87625000D03*
%TD*%
D12*
%TO.C,C85*%
X334045000Y-138625000D03*
X335180000Y-138625000D03*
%TD*%
D11*
%TO.C,D82*%
X246543750Y-141475000D03*
X246543750Y-144775000D03*
%TD*%
D10*
%TO.C,MX50*%
X374072500Y-88265000D03*
X360622500Y-90805000D03*
%TD*%
D18*
%TO.C,R8*%
X65150000Y-44512500D03*
X65150000Y-46337500D03*
%TD*%
D10*
%TO.C,MX73*%
X240722500Y-126365000D03*
X227272500Y-128905000D03*
%TD*%
D13*
%TO.C,LED15*%
X350387500Y-33350000D03*
X350387500Y-31850000D03*
X344937500Y-33350000D03*
D14*
X344937500Y-31850000D03*
%TD*%
D12*
%TO.C,C76*%
X353095000Y-119575000D03*
X354230000Y-119575000D03*
%TD*%
D13*
%TO.C,LED19*%
X78925000Y-61925000D03*
X78925000Y-60425000D03*
X73475000Y-61925000D03*
D14*
X73475000Y-60425000D03*
%TD*%
D11*
%TO.C,D44*%
X229875000Y-84325000D03*
X229875000Y-87625000D03*
%TD*%
%TO.C,D38*%
X115575000Y-84325000D03*
X115575000Y-87625000D03*
%TD*%
D13*
%TO.C,LED7*%
X183700000Y-33350000D03*
X183700000Y-31850000D03*
X178250000Y-33350000D03*
D14*
X178250000Y-31850000D03*
%TD*%
D12*
%TO.C,C51*%
X50676250Y-100525000D03*
X51811250Y-100525000D03*
%TD*%
%TO.C,C57*%
X172120000Y-100525000D03*
X173255000Y-100525000D03*
%TD*%
D11*
%TO.C,D56*%
X139387500Y-103375000D03*
X139387500Y-106675000D03*
%TD*%
D12*
%TO.C,C15*%
X353095000Y-33528000D03*
X354230000Y-33528000D03*
%TD*%
D13*
%TO.C,LED85*%
X331337500Y-138125000D03*
X331337500Y-136625000D03*
X325887500Y-138125000D03*
D14*
X325887500Y-136625000D03*
%TD*%
D13*
%TO.C,LED18*%
X59875000Y-61925000D03*
X59875000Y-60425000D03*
X54425000Y-61925000D03*
D14*
X54425000Y-60425000D03*
%TD*%
D13*
%TO.C,LED80*%
X162268750Y-138125000D03*
X162268750Y-136625000D03*
X156818750Y-138125000D03*
D14*
X156818750Y-136625000D03*
%TD*%
D10*
%TO.C,MX8*%
X207385000Y-40640000D03*
X193935000Y-43180000D03*
%TD*%
D13*
%TO.C,LED36*%
X88450000Y-80975000D03*
X88450000Y-79475000D03*
X83000000Y-80975000D03*
D14*
X83000000Y-79475000D03*
%TD*%
D11*
%TO.C,D72*%
X206062500Y-122425000D03*
X206062500Y-125725000D03*
%TD*%
D12*
%TO.C,C78*%
X69726250Y-138625000D03*
X70861250Y-138625000D03*
%TD*%
%TO.C,C29*%
X272132500Y-62425000D03*
X273267500Y-62425000D03*
%TD*%
D10*
%TO.C,MX53*%
X97847500Y-107315000D03*
X84397500Y-109855000D03*
%TD*%
%TO.C,MX81*%
X238341250Y-145415000D03*
X224891250Y-147955000D03*
%TD*%
D12*
%TO.C,C70*%
X181645000Y-119575000D03*
X182780000Y-119575000D03*
%TD*%
D11*
%TO.C,D27*%
X220350000Y-65275000D03*
X220350000Y-68575000D03*
%TD*%
D12*
%TO.C,C5*%
X138782500Y-33528000D03*
X139917500Y-33528000D03*
%TD*%
D19*
%TO.C,U4*%
X30317500Y-31652500D03*
X31267500Y-31652500D03*
X32217500Y-31652500D03*
X32217500Y-33927500D03*
X30317500Y-33927500D03*
%TD*%
D13*
%TO.C,LED47*%
X302762500Y-80975000D03*
X302762500Y-79475000D03*
X297312500Y-80975000D03*
D14*
X297312500Y-79475000D03*
%TD*%
D10*
%TO.C,MX84*%
X309778750Y-145415000D03*
X296328750Y-147955000D03*
%TD*%
D12*
%TO.C,C6*%
X167357500Y-33528000D03*
X168492500Y-33528000D03*
%TD*%
%TO.C,C37*%
X110207500Y-81475000D03*
X111342500Y-81475000D03*
%TD*%
D16*
%TO.C,C96*%
X148150000Y-57307500D03*
X148150000Y-58442500D03*
%TD*%
D13*
%TO.C,LED58*%
X188462500Y-100025000D03*
X188462500Y-98525000D03*
X183012500Y-100025000D03*
D14*
X183012500Y-98525000D03*
%TD*%
D20*
%TO.C,C95*%
X149225000Y-45817500D03*
X149225000Y-44682500D03*
%TD*%
D11*
%TO.C,D8*%
X191775000Y-36700000D03*
X191775000Y-40000000D03*
%TD*%
D10*
%TO.C,MX3*%
X102610000Y-40640000D03*
X89160000Y-43180000D03*
%TD*%
%TO.C,MX5*%
X140710000Y-40640000D03*
X127260000Y-43180000D03*
%TD*%
D13*
%TO.C,LED86*%
X350387500Y-138125000D03*
X350387500Y-136625000D03*
X344937500Y-138125000D03*
D14*
X344937500Y-136625000D03*
%TD*%
D12*
%TO.C,C101*%
X61632500Y-41700000D03*
X62767500Y-41700000D03*
%TD*%
D10*
%TO.C,MX77*%
X47841250Y-145415000D03*
X34391250Y-147955000D03*
%TD*%
D12*
%TO.C,C61*%
X248320000Y-100525000D03*
X249455000Y-100525000D03*
%TD*%
D10*
%TO.C,MX29*%
X274060000Y-69215000D03*
X260610000Y-71755000D03*
%TD*%
D11*
%TO.C,D10*%
X239400000Y-36700000D03*
X239400000Y-40000000D03*
%TD*%
D13*
%TO.C,LED57*%
X169412500Y-100025000D03*
X169412500Y-98525000D03*
X163962500Y-100025000D03*
D14*
X163962500Y-98525000D03*
%TD*%
D12*
%TO.C,C35*%
X72107500Y-81475000D03*
X73242500Y-81475000D03*
%TD*%
D10*
%TO.C,MX32*%
X355022500Y-69215000D03*
X341572500Y-71755000D03*
%TD*%
D12*
%TO.C,C18*%
X62582500Y-62425000D03*
X63717500Y-62425000D03*
%TD*%
%TO.C,C75*%
X293563750Y-119575000D03*
X294698750Y-119575000D03*
%TD*%
%TO.C,C52*%
X76870000Y-100525000D03*
X78005000Y-100525000D03*
%TD*%
D13*
%TO.C,LED26*%
X212275000Y-61925000D03*
X212275000Y-60425000D03*
X206825000Y-61925000D03*
D14*
X206825000Y-60425000D03*
%TD*%
D13*
%TO.C,LED55*%
X131312500Y-100025000D03*
X131312500Y-98525000D03*
X125862500Y-100025000D03*
D14*
X125862500Y-98525000D03*
%TD*%
D11*
%TO.C,D48*%
X320362500Y-84325000D03*
X320362500Y-87625000D03*
%TD*%
D12*
%TO.C,C28*%
X253082500Y-62425000D03*
X254217500Y-62425000D03*
%TD*%
D10*
%TO.C,MX14*%
X335972500Y-40640000D03*
X322522500Y-43180000D03*
%TD*%
D12*
%TO.C,C63*%
X298326250Y-100525000D03*
X299461250Y-100525000D03*
%TD*%
D11*
%TO.C,D58*%
X177487500Y-103375000D03*
X177487500Y-106675000D03*
%TD*%
D10*
%TO.C,MX4*%
X121660000Y-40640000D03*
X108210000Y-43180000D03*
%TD*%
D11*
%TO.C,D78*%
X56043750Y-141475000D03*
X56043750Y-144775000D03*
%TD*%
D13*
%TO.C,LED54*%
X112262500Y-100025000D03*
X112262500Y-98525000D03*
X106812500Y-100025000D03*
D14*
X106812500Y-98525000D03*
%TD*%
D10*
%TO.C,MX82*%
X262153750Y-145415000D03*
X248703750Y-147955000D03*
%TD*%
D11*
%TO.C,D31*%
X320362500Y-65275000D03*
X320362500Y-68575000D03*
%TD*%
%TO.C,D75*%
X279881250Y-122425000D03*
X279881250Y-125725000D03*
%TD*%
%TO.C,D61*%
X234637500Y-103375000D03*
X234637500Y-106675000D03*
%TD*%
%TO.C,D9*%
X210825000Y-36700000D03*
X210825000Y-40000000D03*
%TD*%
%TO.C,D17*%
X29850000Y-65275000D03*
X29850000Y-68575000D03*
%TD*%
D10*
%TO.C,MX78*%
X71653750Y-145415000D03*
X58203750Y-147955000D03*
%TD*%
D11*
%TO.C,D86*%
X339412500Y-141475000D03*
X339412500Y-144775000D03*
%TD*%
D10*
%TO.C,MX72*%
X221672500Y-126365000D03*
X208222500Y-128905000D03*
%TD*%
%TO.C,MX13*%
X312160000Y-40640000D03*
X298710000Y-43180000D03*
%TD*%
D11*
%TO.C,D4*%
X106050000Y-36700000D03*
X106050000Y-40000000D03*
%TD*%
D10*
%TO.C,MX19*%
X83560000Y-69215000D03*
X70110000Y-71755000D03*
%TD*%
D13*
%TO.C,LED12*%
X288475000Y-33350000D03*
X288475000Y-31850000D03*
X283025000Y-33350000D03*
D14*
X283025000Y-31850000D03*
%TD*%
D12*
%TO.C,C86*%
X353095000Y-138625000D03*
X354230000Y-138625000D03*
%TD*%
D11*
%TO.C,D5*%
X125100000Y-36700000D03*
X125100000Y-40000000D03*
%TD*%
D12*
%TO.C,C47*%
X305470000Y-81475000D03*
X306605000Y-81475000D03*
%TD*%
D13*
%TO.C,LED4*%
X117025000Y-33350000D03*
X117025000Y-31850000D03*
X111575000Y-33350000D03*
D14*
X111575000Y-31850000D03*
%TD*%
D12*
%TO.C,C62*%
X267370000Y-100525000D03*
X268505000Y-100525000D03*
%TD*%
D10*
%TO.C,MX54*%
X116897500Y-107315000D03*
X103447500Y-109855000D03*
%TD*%
D11*
%TO.C,D73*%
X225112500Y-122425000D03*
X225112500Y-125725000D03*
%TD*%
D13*
%TO.C,LED52*%
X74162500Y-100025000D03*
X74162500Y-98525000D03*
X68712500Y-100025000D03*
D14*
X68712500Y-98525000D03*
%TD*%
D13*
%TO.C,LED38*%
X126550000Y-80975000D03*
X126550000Y-79475000D03*
X121100000Y-80975000D03*
D14*
X121100000Y-79475000D03*
%TD*%
D13*
%TO.C,LED5*%
X136075000Y-33350000D03*
X136075000Y-31850000D03*
X130625000Y-33350000D03*
D14*
X130625000Y-31850000D03*
%TD*%
D10*
%TO.C,MX79*%
X95466250Y-145415000D03*
X82016250Y-147955000D03*
%TD*%
D11*
%TO.C,D39*%
X134625000Y-84325000D03*
X134625000Y-87625000D03*
%TD*%
D13*
%TO.C,LED25*%
X193225000Y-61925000D03*
X193225000Y-60425000D03*
X187775000Y-61925000D03*
D14*
X187775000Y-60425000D03*
%TD*%
D13*
%TO.C,LED61*%
X245612500Y-100025000D03*
X245612500Y-98525000D03*
X240162500Y-100025000D03*
D14*
X240162500Y-98525000D03*
%TD*%
D11*
%TO.C,D42*%
X191775000Y-84325000D03*
X191775000Y-87625000D03*
%TD*%
%TO.C,D33*%
X358462500Y-65275000D03*
X358462500Y-68575000D03*
%TD*%
D10*
%TO.C,MX49*%
X355022500Y-88265000D03*
X341572500Y-90805000D03*
%TD*%
D12*
%TO.C,C38*%
X129257500Y-81475000D03*
X130392500Y-81475000D03*
%TD*%
D10*
%TO.C,MX43*%
X226435000Y-88265000D03*
X212985000Y-90805000D03*
%TD*%
D21*
%TO.C,SW1*%
X182992500Y-55475000D03*
X190992500Y-55475000D03*
X182992500Y-50975000D03*
X190992500Y-50975000D03*
%TD*%
D10*
%TO.C,MX2*%
X83560000Y-40640000D03*
X70110000Y-43180000D03*
%TD*%
D13*
%TO.C,LED41*%
X183700000Y-80975000D03*
X183700000Y-79475000D03*
X178250000Y-80975000D03*
D14*
X178250000Y-79475000D03*
%TD*%
D20*
%TO.C,C100*%
X177200000Y-51942500D03*
X177200000Y-50807500D03*
%TD*%
D12*
%TO.C,C88*%
X154457500Y-55975000D03*
X155592500Y-55975000D03*
%TD*%
D10*
%TO.C,MX87*%
X374072500Y-145415000D03*
X360622500Y-147955000D03*
%TD*%
D12*
%TO.C,C98*%
X140382500Y-54375000D03*
X141517500Y-54375000D03*
%TD*%
D22*
%TO.C,R4*%
X130137500Y-54125000D03*
X128312500Y-54125000D03*
%TD*%
D10*
%TO.C,MX18*%
X64510000Y-69215000D03*
X51060000Y-71755000D03*
%TD*%
%TO.C,MX64*%
X57366250Y-126365000D03*
X43916250Y-128905000D03*
%TD*%
D13*
%TO.C,LED83*%
X281331250Y-138125000D03*
X281331250Y-136625000D03*
X275881250Y-138125000D03*
D14*
X275881250Y-136625000D03*
%TD*%
D13*
%TO.C,LED44*%
X240850000Y-80975000D03*
X240850000Y-79475000D03*
X235400000Y-80975000D03*
D14*
X235400000Y-79475000D03*
%TD*%
D11*
%TO.C,D16*%
X358462500Y-36700000D03*
X358462500Y-40000000D03*
%TD*%
D12*
%TO.C,C27*%
X234032500Y-62425000D03*
X235167500Y-62425000D03*
%TD*%
%TO.C,C77*%
X45913750Y-138625000D03*
X47048750Y-138625000D03*
%TD*%
D13*
%TO.C,LED9*%
X221800000Y-33350000D03*
X221800000Y-31850000D03*
X216350000Y-33350000D03*
D14*
X216350000Y-31850000D03*
%TD*%
D11*
%TO.C,D84*%
X294168750Y-141475000D03*
X294168750Y-144775000D03*
%TD*%
D12*
%TO.C,C50*%
X372145000Y-81475000D03*
X373280000Y-81475000D03*
%TD*%
D11*
%TO.C,D25*%
X182250000Y-65275000D03*
X182250000Y-68575000D03*
%TD*%
%TO.C,D45*%
X248925000Y-84325000D03*
X248925000Y-87625000D03*
%TD*%
D13*
%TO.C,LED45*%
X259900000Y-80975000D03*
X259900000Y-79475000D03*
X254450000Y-80975000D03*
D14*
X254450000Y-79475000D03*
%TD*%
D10*
%TO.C,MX83*%
X285966250Y-145415000D03*
X272516250Y-147955000D03*
%TD*%
D11*
%TO.C,D52*%
X63187500Y-103375000D03*
X63187500Y-106675000D03*
%TD*%
D12*
%TO.C,C58*%
X191170000Y-100525000D03*
X192305000Y-100525000D03*
%TD*%
D11*
%TO.C,D71*%
X187012500Y-122425000D03*
X187012500Y-125725000D03*
%TD*%
D12*
%TO.C,C74*%
X257845000Y-119575000D03*
X258980000Y-119575000D03*
%TD*%
D18*
%TO.C,R3*%
X50425000Y-32112500D03*
X50425000Y-33937500D03*
%TD*%
D10*
%TO.C,MX47*%
X307397500Y-88265000D03*
X293947500Y-90805000D03*
%TD*%
%TO.C,MX20*%
X102610000Y-69215000D03*
X89160000Y-71755000D03*
%TD*%
D12*
%TO.C,C48*%
X334045000Y-81475000D03*
X335180000Y-81475000D03*
%TD*%
D17*
%TO.C,C93*%
X134617500Y-52375000D03*
X133482500Y-52375000D03*
%TD*%
D12*
%TO.C,C22*%
X138782500Y-62425000D03*
X139917500Y-62425000D03*
%TD*%
D13*
%TO.C,LED14*%
X331337500Y-33350000D03*
X331337500Y-31850000D03*
X325887500Y-33350000D03*
D14*
X325887500Y-31850000D03*
%TD*%
D12*
%TO.C,C17*%
X43532500Y-62425000D03*
X44667500Y-62425000D03*
%TD*%
%TO.C,C43*%
X224507500Y-81475000D03*
X225642500Y-81475000D03*
%TD*%
D10*
%TO.C,MX9*%
X226435000Y-40640000D03*
X212985000Y-43180000D03*
%TD*%
D23*
%TO.C,D88*%
X63375000Y-44500000D03*
X61625000Y-44500000D03*
%TD*%
D10*
%TO.C,MX1*%
X45460000Y-40640000D03*
X32010000Y-43180000D03*
%TD*%
D11*
%TO.C,D7*%
X172725000Y-36700000D03*
X172725000Y-40000000D03*
%TD*%
D13*
%TO.C,LED2*%
X78925000Y-33350000D03*
X78925000Y-31850000D03*
X73475000Y-33350000D03*
D14*
X73475000Y-31850000D03*
%TD*%
D12*
%TO.C,C41*%
X186407500Y-81475000D03*
X187542500Y-81475000D03*
%TD*%
D18*
%TO.C,R1*%
X175500000Y-50237500D03*
X175500000Y-52062500D03*
%TD*%
D11*
%TO.C,D83*%
X270356250Y-141475000D03*
X270356250Y-144775000D03*
%TD*%
D12*
%TO.C,C9*%
X224507500Y-33528000D03*
X225642500Y-33528000D03*
%TD*%
D13*
%TO.C,LED13*%
X307525000Y-33350000D03*
X307525000Y-31850000D03*
X302075000Y-33350000D03*
D14*
X302075000Y-31850000D03*
%TD*%
D12*
%TO.C,C8*%
X205457500Y-33528000D03*
X206592500Y-33528000D03*
%TD*%
%TO.C,C25*%
X195932500Y-62425000D03*
X197067500Y-62425000D03*
%TD*%
%TO.C,C1*%
X43532500Y-33528000D03*
X44667500Y-33528000D03*
%TD*%
D11*
%TO.C,D69*%
X148912500Y-122425000D03*
X148912500Y-125725000D03*
%TD*%
%TO.C,D11*%
X258450000Y-36700000D03*
X258450000Y-40000000D03*
%TD*%
%TO.C,D85*%
X320362500Y-141475000D03*
X320362500Y-144775000D03*
%TD*%
D12*
%TO.C,C56*%
X153070000Y-100525000D03*
X154205000Y-100525000D03*
%TD*%
%TO.C,C36*%
X91157500Y-81475000D03*
X92292500Y-81475000D03*
%TD*%
D13*
%TO.C,LED72*%
X217037500Y-119075000D03*
X217037500Y-117575000D03*
X211587500Y-119075000D03*
D14*
X211587500Y-117575000D03*
%TD*%
D10*
%TO.C,MX23*%
X159760000Y-69215000D03*
X146310000Y-71755000D03*
%TD*%
D12*
%TO.C,C11*%
X272132500Y-33528000D03*
X273267500Y-33528000D03*
%TD*%
D10*
%TO.C,MX30*%
X302635000Y-69215000D03*
X289185000Y-71755000D03*
%TD*%
D16*
%TO.C,C102*%
X153250000Y-49607500D03*
X153250000Y-50742500D03*
%TD*%
D11*
%TO.C,D54*%
X101287500Y-103375000D03*
X101287500Y-106675000D03*
%TD*%
%TO.C,D30*%
X287025000Y-65275000D03*
X287025000Y-68575000D03*
%TD*%
D17*
%TO.C,C90*%
X141542500Y-56500000D03*
X140407500Y-56500000D03*
%TD*%
D13*
%TO.C,LED10*%
X250375000Y-33350000D03*
X250375000Y-31850000D03*
X244925000Y-33350000D03*
D14*
X244925000Y-31850000D03*
%TD*%
D11*
%TO.C,D77*%
X32231250Y-141475000D03*
X32231250Y-144775000D03*
%TD*%
D12*
%TO.C,C83*%
X284038750Y-138625000D03*
X285173750Y-138625000D03*
%TD*%
D10*
%TO.C,MX45*%
X264535000Y-88265000D03*
X251085000Y-90805000D03*
%TD*%
D12*
%TO.C,C32*%
X353095000Y-62425000D03*
X354230000Y-62425000D03*
%TD*%
D10*
%TO.C,MX46*%
X283585000Y-88265000D03*
X270135000Y-90805000D03*
%TD*%
D12*
%TO.C,C20*%
X100682500Y-62425000D03*
X101817500Y-62425000D03*
%TD*%
D13*
%TO.C,LED39*%
X145600000Y-80975000D03*
X145600000Y-79475000D03*
X140150000Y-80975000D03*
D14*
X140150000Y-79475000D03*
%TD*%
D11*
%TO.C,D53*%
X82237500Y-103375000D03*
X82237500Y-106675000D03*
%TD*%
%TO.C,D15*%
X339412500Y-36700000D03*
X339412500Y-40000000D03*
%TD*%
D12*
%TO.C,C33*%
X372145000Y-62425000D03*
X373280000Y-62425000D03*
%TD*%
%TO.C,C73*%
X238795000Y-119575000D03*
X239930000Y-119575000D03*
%TD*%
D11*
%TO.C,D57*%
X158437500Y-103375000D03*
X158437500Y-106675000D03*
%TD*%
D12*
%TO.C,C2*%
X81632500Y-33528000D03*
X82767500Y-33528000D03*
%TD*%
D10*
%TO.C,MX65*%
X88322500Y-126365000D03*
X74872500Y-128905000D03*
%TD*%
D13*
%TO.C,LED49*%
X350387500Y-80975000D03*
X350387500Y-79475000D03*
X344937500Y-80975000D03*
D14*
X344937500Y-79475000D03*
%TD*%
D10*
%TO.C,MX6*%
X169285000Y-40640000D03*
X155835000Y-43180000D03*
%TD*%
D11*
%TO.C,D28*%
X239400000Y-65275000D03*
X239400000Y-68575000D03*
%TD*%
D24*
%TO.C,R2*%
X128312500Y-52600000D03*
X130137500Y-52600000D03*
%TD*%
D13*
%TO.C,LED37*%
X107500000Y-80975000D03*
X107500000Y-79475000D03*
X102050000Y-80975000D03*
D14*
X102050000Y-79475000D03*
%TD*%
D12*
%TO.C,C7*%
X186407500Y-33528000D03*
X187542500Y-33528000D03*
%TD*%
D11*
%TO.C,D47*%
X291787500Y-84325000D03*
X291787500Y-87625000D03*
%TD*%
D13*
%TO.C,LED82*%
X257518750Y-138125000D03*
X257518750Y-136625000D03*
X252068750Y-138125000D03*
D14*
X252068750Y-136625000D03*
%TD*%
D12*
%TO.C,C104*%
X135857500Y-52375000D03*
X136992500Y-52375000D03*
%TD*%
D10*
%TO.C,MX58*%
X193097500Y-107315000D03*
X179647500Y-109855000D03*
%TD*%
D11*
%TO.C,D2*%
X67950000Y-36700000D03*
X67950000Y-40000000D03*
%TD*%
D13*
%TO.C,LED73*%
X236087500Y-119075000D03*
X236087500Y-117575000D03*
X230637500Y-119075000D03*
D14*
X230637500Y-117575000D03*
%TD*%
D11*
%TO.C,D46*%
X267975000Y-84325000D03*
X267975000Y-87625000D03*
%TD*%
D10*
%TO.C,MX36*%
X93085000Y-88265000D03*
X79635000Y-90805000D03*
%TD*%
D11*
%TO.C,D35*%
X58425000Y-84325000D03*
X58425000Y-87625000D03*
%TD*%
D10*
%TO.C,MX31*%
X335972500Y-69215000D03*
X322522500Y-71755000D03*
%TD*%
D22*
%TO.C,R6*%
X156537500Y-53250000D03*
X154712500Y-53250000D03*
%TD*%
D10*
%TO.C,MX27*%
X235960000Y-69215000D03*
X222510000Y-71755000D03*
%TD*%
D13*
%TO.C,LED59*%
X207512500Y-100025000D03*
X207512500Y-98525000D03*
X202062500Y-100025000D03*
D14*
X202062500Y-98525000D03*
%TD*%
D11*
%TO.C,D50*%
X358462500Y-84325000D03*
X358462500Y-87625000D03*
%TD*%
D10*
%TO.C,MX69*%
X164522500Y-126365000D03*
X151072500Y-128905000D03*
%TD*%
%TO.C,MX67*%
X126422500Y-126365000D03*
X112972500Y-128905000D03*
%TD*%
%TO.C,MX48*%
X335972500Y-88265000D03*
X322522500Y-90805000D03*
%TD*%
D13*
%TO.C,LED67*%
X121787500Y-119075000D03*
X121787500Y-117575000D03*
X116337500Y-119075000D03*
D14*
X116337500Y-117575000D03*
%TD*%
D12*
%TO.C,C30*%
X300707500Y-62425000D03*
X301842500Y-62425000D03*
%TD*%
D11*
%TO.C,D49*%
X339412500Y-84325000D03*
X339412500Y-87625000D03*
%TD*%
D13*
%TO.C,LED46*%
X278950000Y-80975000D03*
X278950000Y-79475000D03*
X273500000Y-80975000D03*
D14*
X273500000Y-79475000D03*
%TD*%
D10*
%TO.C,MX37*%
X112135000Y-88265000D03*
X98685000Y-90805000D03*
%TD*%
D12*
%TO.C,C67*%
X124495000Y-119575000D03*
X125630000Y-119575000D03*
%TD*%
%TO.C,C53*%
X95920000Y-100525000D03*
X97055000Y-100525000D03*
%TD*%
D13*
%TO.C,LED65*%
X83687500Y-119075000D03*
X83687500Y-117575000D03*
X78237500Y-119075000D03*
D14*
X78237500Y-117575000D03*
%TD*%
D13*
%TO.C,LED8*%
X202750000Y-33350000D03*
X202750000Y-31850000D03*
X197300000Y-33350000D03*
D14*
X197300000Y-31850000D03*
%TD*%
D11*
%TO.C,D55*%
X120337500Y-103375000D03*
X120337500Y-106675000D03*
%TD*%
D13*
%TO.C,LED56*%
X150362500Y-100025000D03*
X150362500Y-98525000D03*
X144912500Y-100025000D03*
D14*
X144912500Y-98525000D03*
%TD*%
D12*
%TO.C,C34*%
X48295000Y-81475000D03*
X49430000Y-81475000D03*
%TD*%
%TO.C,C49*%
X353095000Y-81475000D03*
X354230000Y-81475000D03*
%TD*%
%TO.C,C13*%
X310232500Y-33528000D03*
X311367500Y-33528000D03*
%TD*%
%TO.C,C82*%
X260226250Y-138625000D03*
X261361250Y-138625000D03*
%TD*%
D10*
%TO.C,MX22*%
X140710000Y-69215000D03*
X127260000Y-71755000D03*
%TD*%
D12*
%TO.C,C84*%
X307851250Y-138625000D03*
X308986250Y-138625000D03*
%TD*%
%TO.C,C44*%
X243557500Y-81475000D03*
X244692500Y-81475000D03*
%TD*%
D10*
%TO.C,MX21*%
X121660000Y-69215000D03*
X108210000Y-71755000D03*
%TD*%
D12*
%TO.C,C81*%
X236413750Y-138625000D03*
X237548750Y-138625000D03*
%TD*%
D11*
%TO.C,D12*%
X277500000Y-36700000D03*
X277500000Y-40000000D03*
%TD*%
D25*
%TO.C,U3*%
X140075000Y-46295000D03*
X140075000Y-47565000D03*
X140075000Y-48835000D03*
X140075000Y-50105000D03*
X132875000Y-50105000D03*
X132875000Y-48835000D03*
X132875000Y-47565000D03*
X132875000Y-46295000D03*
%TD*%
D10*
%TO.C,MX33*%
X374072500Y-69215000D03*
X360622500Y-71755000D03*
%TD*%
D13*
%TO.C,LED3*%
X97975000Y-33350000D03*
X97975000Y-31850000D03*
X92525000Y-33350000D03*
D14*
X92525000Y-31850000D03*
%TD*%
D24*
%TO.C,R7*%
X122712500Y-51900000D03*
X124537500Y-51900000D03*
%TD*%
D12*
%TO.C,C59*%
X210220000Y-100525000D03*
X211355000Y-100525000D03*
%TD*%
D13*
%TO.C,LED84*%
X305143750Y-138125000D03*
X305143750Y-136625000D03*
X299693750Y-138125000D03*
D14*
X299693750Y-136625000D03*
%TD*%
D13*
%TO.C,LED64*%
X52731250Y-119075000D03*
X52731250Y-117575000D03*
X47281250Y-119075000D03*
D14*
X47281250Y-117575000D03*
%TD*%
D10*
%TO.C,MX11*%
X274060000Y-40640000D03*
X260610000Y-43180000D03*
%TD*%
%TO.C,MX63*%
X300253750Y-107315000D03*
X286803750Y-109855000D03*
%TD*%
D13*
%TO.C,LED21*%
X117025000Y-61925000D03*
X117025000Y-60425000D03*
X111575000Y-61925000D03*
D14*
X111575000Y-60425000D03*
%TD*%
D26*
%TO.C,J1*%
X55203764Y-25865764D03*
X56003764Y-25865764D03*
D27*
X57153764Y-25865764D03*
X58153764Y-25865764D03*
X58653764Y-25865764D03*
X59653764Y-25865764D03*
D26*
X60803764Y-25865764D03*
X61603764Y-25865764D03*
X61603764Y-25865764D03*
X60803764Y-25865764D03*
D27*
X60153764Y-25865764D03*
X59153764Y-25865764D03*
X57653764Y-25865764D03*
X56653764Y-25865764D03*
D26*
X56003764Y-25865764D03*
X55203764Y-25865764D03*
D28*
X54083764Y-21110764D03*
D29*
X54083764Y-25290764D03*
D28*
X62723764Y-21110764D03*
D29*
X62723764Y-25290764D03*
%TD*%
D13*
%TO.C,LED27*%
X231325000Y-61925000D03*
X231325000Y-60425000D03*
X225875000Y-61925000D03*
D14*
X225875000Y-60425000D03*
%TD*%
D17*
%TO.C,C92*%
X141542500Y-57550000D03*
X140407500Y-57550000D03*
%TD*%
D13*
%TO.C,LED68*%
X140837500Y-119075000D03*
X140837500Y-117575000D03*
X135387500Y-119075000D03*
D14*
X135387500Y-117575000D03*
%TD*%
D13*
%TO.C,LED66*%
X102737500Y-119075000D03*
X102737500Y-117575000D03*
X97287500Y-119075000D03*
D14*
X97287500Y-117575000D03*
%TD*%
D11*
%TO.C,D26*%
X201300000Y-65275000D03*
X201300000Y-68575000D03*
%TD*%
D13*
%TO.C,LED31*%
X331337500Y-61925000D03*
X331337500Y-60425000D03*
X325887500Y-61925000D03*
D14*
X325887500Y-60425000D03*
%TD*%
D13*
%TO.C,LED81*%
X233706250Y-138125000D03*
X233706250Y-136625000D03*
X228256250Y-138125000D03*
D14*
X228256250Y-136625000D03*
%TD*%
D13*
%TO.C,LED24*%
X174175000Y-61925000D03*
X174175000Y-60425000D03*
X168725000Y-61925000D03*
D14*
X168725000Y-60425000D03*
%TD*%
D30*
%TO.C,U5*%
X59660000Y-30900000D03*
X59660000Y-31850000D03*
X59660000Y-32800000D03*
X56240000Y-32800000D03*
X56240000Y-31850000D03*
X56240000Y-30900000D03*
%TD*%
D13*
%TO.C,LED48*%
X331337500Y-80975000D03*
X331337500Y-79475000D03*
X325887500Y-80975000D03*
D14*
X325887500Y-79475000D03*
%TD*%
D12*
%TO.C,C54*%
X114970000Y-100525000D03*
X116105000Y-100525000D03*
%TD*%
D10*
%TO.C,MX57*%
X174047500Y-107315000D03*
X160597500Y-109855000D03*
%TD*%
D12*
%TO.C,C39*%
X148307500Y-81475000D03*
X149442500Y-81475000D03*
%TD*%
D13*
%TO.C,LED40*%
X164650000Y-80975000D03*
X164650000Y-79475000D03*
X159200000Y-80975000D03*
D14*
X159200000Y-79475000D03*
%TD*%
D12*
%TO.C,C66*%
X105445000Y-119575000D03*
X106580000Y-119575000D03*
%TD*%
D31*
%TO.C,Y1*%
X157150000Y-51625000D03*
X154950000Y-51625000D03*
X154950000Y-49925000D03*
X157150000Y-49925000D03*
%TD*%
D12*
%TO.C,C46*%
X281657500Y-81475000D03*
X282792500Y-81475000D03*
%TD*%
D13*
%TO.C,LED35*%
X69400000Y-80975000D03*
X69400000Y-79475000D03*
X63950000Y-80975000D03*
D14*
X63950000Y-79475000D03*
%TD*%
D11*
%TO.C,D13*%
X296550000Y-36700000D03*
X296550000Y-40000000D03*
%TD*%
D10*
%TO.C,MX34*%
X50222500Y-88265000D03*
X36772500Y-90805000D03*
%TD*%
%TO.C,MX62*%
X269297500Y-107315000D03*
X255847500Y-109855000D03*
%TD*%
%TO.C,MX60*%
X231197500Y-107315000D03*
X217747500Y-109855000D03*
%TD*%
%TO.C,MX12*%
X293110000Y-40640000D03*
X279660000Y-43180000D03*
%TD*%
D32*
%TO.C,U2*%
X148037500Y-51450000D03*
X146437500Y-51450000D03*
X148037500Y-53050000D03*
X146437500Y-53050000D03*
D33*
X144637500Y-48812500D03*
X145037500Y-48812500D03*
X145437500Y-48812500D03*
X145837500Y-48812500D03*
X146237500Y-48812500D03*
X146637500Y-48812500D03*
X147037500Y-48812500D03*
X147437500Y-48812500D03*
X147837500Y-48812500D03*
X148237500Y-48812500D03*
X148637500Y-48812500D03*
X149037500Y-48812500D03*
X149437500Y-48812500D03*
X149837500Y-48812500D03*
D34*
X150675000Y-49650000D03*
X150675000Y-50050000D03*
X150675000Y-50450000D03*
X150675000Y-50850000D03*
X150675000Y-51250000D03*
X150675000Y-51650000D03*
X150675000Y-52050000D03*
X150675000Y-52450000D03*
X150675000Y-52850000D03*
X150675000Y-53250000D03*
X150675000Y-53650000D03*
X150675000Y-54050000D03*
X150675000Y-54450000D03*
X150675000Y-54850000D03*
D33*
X149837500Y-55687500D03*
X149437500Y-55687500D03*
X149037500Y-55687500D03*
X148637500Y-55687500D03*
X148237500Y-55687500D03*
X147837500Y-55687500D03*
X147437500Y-55687500D03*
X147037500Y-55687500D03*
X146637500Y-55687500D03*
X146237500Y-55687500D03*
X145837500Y-55687500D03*
X145437500Y-55687500D03*
X145037500Y-55687500D03*
X144637500Y-55687500D03*
D34*
X143800000Y-54850000D03*
X143800000Y-54450000D03*
X143800000Y-54050000D03*
X143800000Y-53650000D03*
X143800000Y-53250000D03*
X143800000Y-52850000D03*
X143800000Y-52450000D03*
X143800000Y-52050000D03*
X143800000Y-51650000D03*
X143800000Y-51250000D03*
X143800000Y-50850000D03*
X143800000Y-50450000D03*
X143800000Y-50050000D03*
X143800000Y-49650000D03*
%TD*%
D11*
%TO.C,D24*%
X163200000Y-65275000D03*
X163200000Y-68575000D03*
%TD*%
%TO.C,D40*%
X153675000Y-84325000D03*
X153675000Y-87625000D03*
%TD*%
D20*
%TO.C,C91*%
X144300000Y-46867500D03*
X144300000Y-45732500D03*
%TD*%
D12*
%TO.C,C21*%
X119732500Y-62425000D03*
X120867500Y-62425000D03*
%TD*%
D10*
%TO.C,MX16*%
X374072500Y-40640000D03*
X360622500Y-43180000D03*
%TD*%
D12*
%TO.C,C31*%
X334045000Y-62425000D03*
X335180000Y-62425000D03*
%TD*%
D13*
%TO.C,LED62*%
X264662500Y-100025000D03*
X264662500Y-98525000D03*
X259212500Y-100025000D03*
D14*
X259212500Y-98525000D03*
%TD*%
D11*
%TO.C,D76*%
X339412500Y-122425000D03*
X339412500Y-125725000D03*
%TD*%
D12*
%TO.C,C87*%
X372145000Y-138625000D03*
X373280000Y-138625000D03*
%TD*%
D13*
%TO.C,LED22*%
X136075000Y-61925000D03*
X136075000Y-60425000D03*
X130625000Y-61925000D03*
D14*
X130625000Y-60425000D03*
%TD*%
D17*
%TO.C,C97*%
X141542500Y-55475000D03*
X140407500Y-55475000D03*
%TD*%
D11*
%TO.C,D66*%
X91762500Y-122425000D03*
X91762500Y-125725000D03*
%TD*%
D12*
%TO.C,C16*%
X372145000Y-33528000D03*
X373280000Y-33528000D03*
%TD*%
D35*
%TO.C,U1*%
X63112500Y-39487500D03*
X61212500Y-39487500D03*
X62162500Y-37212500D03*
%TD*%
D10*
%TO.C,MX86*%
X355022500Y-145415000D03*
X341572500Y-147955000D03*
%TD*%
D12*
%TO.C,C55*%
X134020000Y-100525000D03*
X135155000Y-100525000D03*
%TD*%
D11*
%TO.C,D19*%
X67950000Y-65275000D03*
X67950000Y-68575000D03*
%TD*%
%TO.C,D51*%
X36993750Y-103375000D03*
X36993750Y-106675000D03*
%TD*%
D12*
%TO.C,C19*%
X81632500Y-62425000D03*
X82767500Y-62425000D03*
%TD*%
D13*
%TO.C,LED74*%
X255137500Y-119075000D03*
X255137500Y-117575000D03*
X249687500Y-119075000D03*
D14*
X249687500Y-117575000D03*
%TD*%
M02*
