%TF.GenerationSoftware,KiCad,Pcbnew,8.0.8*%
%TF.CreationDate,2025-02-03T20:21:25-05:00*%
%TF.ProjectId,OakSpring,4f616b53-7072-4696-9e67-2e6b69636164,rev?*%
%TF.SameCoordinates,Original*%
%TF.FileFunction,Profile,NP*%
%FSLAX46Y46*%
G04 Gerber Fmt 4.6, Leading zero omitted, Abs format (unit mm)*
G04 Created by KiCad (PCBNEW 8.0.8) date 2025-02-03 20:21:25*
%MOMM*%
%LPD*%
G01*
G04 APERTURE LIST*
%TA.AperFunction,Profile*%
%ADD10C,0.400000*%
%TD*%
%TA.AperFunction,Profile*%
%ADD11C,0.100000*%
%TD*%
G04 APERTURE END LIST*
D10*
X65997603Y-28275000D02*
X374659918Y-28275000D01*
X52399927Y-19229987D02*
G75*
G02*
X53110000Y-18530000I699973J87D01*
G01*
X30126678Y-153350000D02*
X374543174Y-153350000D01*
X376250000Y-151650000D02*
G75*
G02*
X374543174Y-153350000I-1703400J3400D01*
G01*
X30206826Y-28275000D02*
X50698498Y-28275000D01*
X374659918Y-28275000D02*
G75*
G02*
X376249998Y-29939798I-37318J-1627400D01*
G01*
X63710000Y-18530000D02*
G75*
G02*
X64410000Y-19230001I100J-699900D01*
G01*
X376250000Y-151650000D02*
X376250000Y-29939798D01*
X28525000Y-29876678D02*
G75*
G02*
X30206826Y-28278100I1640200J-41622D01*
G01*
X30126678Y-153350000D02*
G75*
G02*
X28525002Y-151650000I49122J1650800D01*
G01*
X52400000Y-26676430D02*
X52400000Y-19229987D01*
X63710000Y-18530000D02*
X53110000Y-18530000D01*
X64410000Y-26603012D02*
X64410000Y-19230001D01*
X52400000Y-26676430D02*
G75*
G02*
X50698498Y-28274998I-1650000J51430D01*
G01*
X65997603Y-28275000D02*
G75*
G02*
X64410000Y-26603012I42197J1629800D01*
G01*
X28525000Y-29876678D02*
X28525000Y-151650000D01*
D11*
%TO.C,LED23*%
X150700001Y-60472159D02*
X150700001Y-61877843D01*
X151605547Y-62675000D02*
X153194452Y-62675000D01*
X153194452Y-59675001D02*
X151605548Y-59675001D01*
X154099999Y-61877843D02*
X154099999Y-60472159D01*
X150650516Y-60255281D02*
G75*
G02*
X150700001Y-60472159I-450505J-216876D01*
G01*
X150650516Y-60255282D02*
G75*
G02*
X151353289Y-59606702I450514J216880D01*
G01*
X150700001Y-61877844D02*
G75*
G02*
X150650516Y-62094721I-499990J-1D01*
G01*
X151353289Y-62743299D02*
G75*
G02*
X150650517Y-62094721I-252258J431700D01*
G01*
X151353289Y-62743299D02*
G75*
G02*
X151605547Y-62675000I252261J-431710D01*
G01*
X151605548Y-59675001D02*
G75*
G02*
X151353289Y-59606702I2J500009D01*
G01*
X153194453Y-62675001D02*
G75*
G02*
X153446711Y-62743300I-3J-500009D01*
G01*
X153446710Y-59606702D02*
G75*
G02*
X153194452Y-59675000I-252260J431712D01*
G01*
X153446711Y-59606704D02*
G75*
G02*
X154149480Y-60255279I252259J-431696D01*
G01*
X154099999Y-60472158D02*
G75*
G02*
X154149484Y-60255281I500351J-82D01*
G01*
X154149484Y-62094721D02*
G75*
G02*
X153446711Y-62743300I-450514J-216879D01*
G01*
X154149484Y-62094721D02*
G75*
G02*
X154099987Y-61877843I451016J217021D01*
G01*
%TO.C,LED17*%
X36400001Y-60472159D02*
X36400001Y-61877843D01*
X37305547Y-62675000D02*
X38894452Y-62675000D01*
X38894452Y-59675001D02*
X37305548Y-59675001D01*
X39799999Y-61877843D02*
X39799999Y-60472159D01*
X36350516Y-60255281D02*
G75*
G02*
X36400001Y-60472159I-450505J-216876D01*
G01*
X36350516Y-60255282D02*
G75*
G02*
X37053289Y-59606702I450514J216880D01*
G01*
X36400001Y-61877844D02*
G75*
G02*
X36350516Y-62094721I-499990J-1D01*
G01*
X37053289Y-62743299D02*
G75*
G02*
X36350517Y-62094721I-252258J431700D01*
G01*
X37053289Y-62743299D02*
G75*
G02*
X37305547Y-62675000I252261J-431710D01*
G01*
X37305548Y-59675001D02*
G75*
G02*
X37053289Y-59606702I2J500009D01*
G01*
X38894453Y-62675001D02*
G75*
G02*
X39146711Y-62743300I-3J-500009D01*
G01*
X39146710Y-59606702D02*
G75*
G02*
X38894452Y-59675000I-252260J431712D01*
G01*
X39146711Y-59606704D02*
G75*
G02*
X39849480Y-60255279I252259J-431696D01*
G01*
X39799999Y-60472158D02*
G75*
G02*
X39849484Y-60255281I500351J-82D01*
G01*
X39849484Y-62094721D02*
G75*
G02*
X39146711Y-62743300I-450514J-216879D01*
G01*
X39849484Y-62094721D02*
G75*
G02*
X39799987Y-61877843I451016J217021D01*
G01*
%TO.C,LED43*%
X217375001Y-79522159D02*
X217375001Y-80927843D01*
X218280547Y-81725000D02*
X219869452Y-81725000D01*
X219869452Y-78725001D02*
X218280548Y-78725001D01*
X220774999Y-80927843D02*
X220774999Y-79522159D01*
X217325516Y-79305281D02*
G75*
G02*
X217375001Y-79522159I-450505J-216876D01*
G01*
X217325516Y-79305282D02*
G75*
G02*
X218028289Y-78656702I450514J216880D01*
G01*
X217375001Y-80927844D02*
G75*
G02*
X217325516Y-81144721I-499990J-1D01*
G01*
X218028289Y-81793299D02*
G75*
G02*
X217325517Y-81144721I-252258J431700D01*
G01*
X218028289Y-81793299D02*
G75*
G02*
X218280547Y-81725000I252261J-431710D01*
G01*
X218280548Y-78725001D02*
G75*
G02*
X218028289Y-78656702I2J500009D01*
G01*
X219869453Y-81725001D02*
G75*
G02*
X220121711Y-81793300I-3J-500009D01*
G01*
X220121710Y-78656702D02*
G75*
G02*
X219869452Y-78725000I-252260J431712D01*
G01*
X220121711Y-78656704D02*
G75*
G02*
X220824480Y-79305279I252259J-431696D01*
G01*
X220774999Y-79522158D02*
G75*
G02*
X220824484Y-79305281I500351J-82D01*
G01*
X220824484Y-81144721D02*
G75*
G02*
X220121711Y-81793300I-450514J-216879D01*
G01*
X220824484Y-81144721D02*
G75*
G02*
X220774987Y-80927843I451016J217021D01*
G01*
%TO.C,LED79*%
X86406251Y-136672159D02*
X86406251Y-138077843D01*
X87311797Y-138875000D02*
X88900702Y-138875000D01*
X88900702Y-135875001D02*
X87311798Y-135875001D01*
X89806249Y-138077843D02*
X89806249Y-136672159D01*
X86356766Y-136455281D02*
G75*
G02*
X86406251Y-136672159I-450505J-216876D01*
G01*
X86356766Y-136455282D02*
G75*
G02*
X87059539Y-135806702I450514J216880D01*
G01*
X86406251Y-138077844D02*
G75*
G02*
X86356766Y-138294721I-499990J-1D01*
G01*
X87059539Y-138943299D02*
G75*
G02*
X86356767Y-138294721I-252258J431700D01*
G01*
X87059539Y-138943299D02*
G75*
G02*
X87311797Y-138875000I252261J-431710D01*
G01*
X87311798Y-135875001D02*
G75*
G02*
X87059539Y-135806702I2J500009D01*
G01*
X88900703Y-138875001D02*
G75*
G02*
X89152961Y-138943300I-3J-500009D01*
G01*
X89152960Y-135806702D02*
G75*
G02*
X88900702Y-135875000I-252260J431712D01*
G01*
X89152961Y-135806704D02*
G75*
G02*
X89855730Y-136455279I252259J-431696D01*
G01*
X89806249Y-136672158D02*
G75*
G02*
X89855734Y-136455281I500351J-82D01*
G01*
X89855734Y-138294721D02*
G75*
G02*
X89152961Y-138943300I-450514J-216879D01*
G01*
X89855734Y-138294721D02*
G75*
G02*
X89806237Y-138077843I451016J217021D01*
G01*
%TO.C,LED29*%
X265000001Y-60472159D02*
X265000001Y-61877843D01*
X265905547Y-62675000D02*
X267494452Y-62675000D01*
X267494452Y-59675001D02*
X265905548Y-59675001D01*
X268399999Y-61877843D02*
X268399999Y-60472159D01*
X264950516Y-60255281D02*
G75*
G02*
X265000001Y-60472159I-450505J-216876D01*
G01*
X264950516Y-60255282D02*
G75*
G02*
X265653289Y-59606702I450514J216880D01*
G01*
X265000001Y-61877844D02*
G75*
G02*
X264950516Y-62094721I-499990J-1D01*
G01*
X265653289Y-62743299D02*
G75*
G02*
X264950517Y-62094721I-252258J431700D01*
G01*
X265653289Y-62743299D02*
G75*
G02*
X265905547Y-62675000I252261J-431710D01*
G01*
X265905548Y-59675001D02*
G75*
G02*
X265653289Y-59606702I2J500009D01*
G01*
X267494453Y-62675001D02*
G75*
G02*
X267746711Y-62743300I-3J-500009D01*
G01*
X267746710Y-59606702D02*
G75*
G02*
X267494452Y-59675000I-252260J431712D01*
G01*
X267746711Y-59606704D02*
G75*
G02*
X268449480Y-60255279I252259J-431696D01*
G01*
X268399999Y-60472158D02*
G75*
G02*
X268449484Y-60255281I500351J-82D01*
G01*
X268449484Y-62094721D02*
G75*
G02*
X267746711Y-62743300I-450514J-216879D01*
G01*
X268449484Y-62094721D02*
G75*
G02*
X268399987Y-61877843I451016J217021D01*
G01*
%TO.C,LED20*%
X93550001Y-60472159D02*
X93550001Y-61877843D01*
X94455547Y-62675000D02*
X96044452Y-62675000D01*
X96044452Y-59675001D02*
X94455548Y-59675001D01*
X96949999Y-61877843D02*
X96949999Y-60472159D01*
X93500516Y-60255281D02*
G75*
G02*
X93550001Y-60472159I-450505J-216876D01*
G01*
X93500516Y-60255282D02*
G75*
G02*
X94203289Y-59606702I450514J216880D01*
G01*
X93550001Y-61877844D02*
G75*
G02*
X93500516Y-62094721I-499990J-1D01*
G01*
X94203289Y-62743299D02*
G75*
G02*
X93500517Y-62094721I-252258J431700D01*
G01*
X94203289Y-62743299D02*
G75*
G02*
X94455547Y-62675000I252261J-431710D01*
G01*
X94455548Y-59675001D02*
G75*
G02*
X94203289Y-59606702I2J500009D01*
G01*
X96044453Y-62675001D02*
G75*
G02*
X96296711Y-62743300I-3J-500009D01*
G01*
X96296710Y-59606702D02*
G75*
G02*
X96044452Y-59675000I-252260J431712D01*
G01*
X96296711Y-59606704D02*
G75*
G02*
X96999480Y-60255279I252259J-431696D01*
G01*
X96949999Y-60472158D02*
G75*
G02*
X96999484Y-60255281I500351J-82D01*
G01*
X96999484Y-62094721D02*
G75*
G02*
X96296711Y-62743300I-450514J-216879D01*
G01*
X96999484Y-62094721D02*
G75*
G02*
X96949987Y-61877843I451016J217021D01*
G01*
%TO.C,LED1*%
X36400001Y-31897159D02*
X36400001Y-33302843D01*
X37305547Y-34100000D02*
X38894452Y-34100000D01*
X38894452Y-31100001D02*
X37305548Y-31100001D01*
X39799999Y-33302843D02*
X39799999Y-31897159D01*
X36350516Y-31680281D02*
G75*
G02*
X36400001Y-31897159I-450505J-216876D01*
G01*
X36350516Y-31680282D02*
G75*
G02*
X37053289Y-31031702I450514J216880D01*
G01*
X36400001Y-33302844D02*
G75*
G02*
X36350516Y-33519721I-499990J-1D01*
G01*
X37053289Y-34168299D02*
G75*
G02*
X36350517Y-33519721I-252258J431700D01*
G01*
X37053289Y-34168299D02*
G75*
G02*
X37305547Y-34100000I252261J-431710D01*
G01*
X37305548Y-31100001D02*
G75*
G02*
X37053289Y-31031702I2J500009D01*
G01*
X38894453Y-34100001D02*
G75*
G02*
X39146711Y-34168300I-3J-500009D01*
G01*
X39146710Y-31031702D02*
G75*
G02*
X38894452Y-31100000I-252260J431712D01*
G01*
X39146711Y-31031704D02*
G75*
G02*
X39849480Y-31680279I252259J-431696D01*
G01*
X39799999Y-31897158D02*
G75*
G02*
X39849484Y-31680281I500351J-82D01*
G01*
X39849484Y-33519721D02*
G75*
G02*
X39146711Y-34168300I-450514J-216879D01*
G01*
X39849484Y-33519721D02*
G75*
G02*
X39799987Y-33302843I451016J217021D01*
G01*
%TO.C,LED69*%
X155462501Y-117622159D02*
X155462501Y-119027843D01*
X156368047Y-119825000D02*
X157956952Y-119825000D01*
X157956952Y-116825001D02*
X156368048Y-116825001D01*
X158862499Y-119027843D02*
X158862499Y-117622159D01*
X155413016Y-117405281D02*
G75*
G02*
X155462501Y-117622159I-450505J-216876D01*
G01*
X155413016Y-117405282D02*
G75*
G02*
X156115789Y-116756702I450514J216880D01*
G01*
X155462501Y-119027844D02*
G75*
G02*
X155413016Y-119244721I-499990J-1D01*
G01*
X156115789Y-119893299D02*
G75*
G02*
X155413017Y-119244721I-252258J431700D01*
G01*
X156115789Y-119893299D02*
G75*
G02*
X156368047Y-119825000I252261J-431710D01*
G01*
X156368048Y-116825001D02*
G75*
G02*
X156115789Y-116756702I2J500009D01*
G01*
X157956953Y-119825001D02*
G75*
G02*
X158209211Y-119893300I-3J-500009D01*
G01*
X158209210Y-116756702D02*
G75*
G02*
X157956952Y-116825000I-252260J431712D01*
G01*
X158209211Y-116756704D02*
G75*
G02*
X158911980Y-117405279I252259J-431696D01*
G01*
X158862499Y-117622158D02*
G75*
G02*
X158911984Y-117405281I500351J-82D01*
G01*
X158911984Y-119244721D02*
G75*
G02*
X158209211Y-119893300I-450514J-216879D01*
G01*
X158911984Y-119244721D02*
G75*
G02*
X158862487Y-119027843I451016J217021D01*
G01*
%TO.C,LED77*%
X38781251Y-136672159D02*
X38781251Y-138077843D01*
X39686797Y-138875000D02*
X41275702Y-138875000D01*
X41275702Y-135875001D02*
X39686798Y-135875001D01*
X42181249Y-138077843D02*
X42181249Y-136672159D01*
X38731766Y-136455281D02*
G75*
G02*
X38781251Y-136672159I-450505J-216876D01*
G01*
X38731766Y-136455282D02*
G75*
G02*
X39434539Y-135806702I450514J216880D01*
G01*
X38781251Y-138077844D02*
G75*
G02*
X38731766Y-138294721I-499990J-1D01*
G01*
X39434539Y-138943299D02*
G75*
G02*
X38731767Y-138294721I-252258J431700D01*
G01*
X39434539Y-138943299D02*
G75*
G02*
X39686797Y-138875000I252261J-431710D01*
G01*
X39686798Y-135875001D02*
G75*
G02*
X39434539Y-135806702I2J500009D01*
G01*
X41275703Y-138875001D02*
G75*
G02*
X41527961Y-138943300I-3J-500009D01*
G01*
X41527960Y-135806702D02*
G75*
G02*
X41275702Y-135875000I-252260J431712D01*
G01*
X41527961Y-135806704D02*
G75*
G02*
X42230730Y-136455279I252259J-431696D01*
G01*
X42181249Y-136672158D02*
G75*
G02*
X42230734Y-136455281I500351J-82D01*
G01*
X42230734Y-138294721D02*
G75*
G02*
X41527961Y-138943300I-450514J-216879D01*
G01*
X42230734Y-138294721D02*
G75*
G02*
X42181237Y-138077843I451016J217021D01*
G01*
%TO.C,LED87*%
X365012501Y-136672159D02*
X365012501Y-138077843D01*
X365918047Y-138875000D02*
X367506952Y-138875000D01*
X367506952Y-135875001D02*
X365918048Y-135875001D01*
X368412499Y-138077843D02*
X368412499Y-136672159D01*
X364963016Y-136455281D02*
G75*
G02*
X365012501Y-136672159I-450505J-216876D01*
G01*
X364963016Y-136455282D02*
G75*
G02*
X365665789Y-135806702I450514J216880D01*
G01*
X365012501Y-138077844D02*
G75*
G02*
X364963016Y-138294721I-499990J-1D01*
G01*
X365665789Y-138943299D02*
G75*
G02*
X364963017Y-138294721I-252258J431700D01*
G01*
X365665789Y-138943299D02*
G75*
G02*
X365918047Y-138875000I252261J-431710D01*
G01*
X365918048Y-135875001D02*
G75*
G02*
X365665789Y-135806702I2J500009D01*
G01*
X367506953Y-138875001D02*
G75*
G02*
X367759211Y-138943300I-3J-500009D01*
G01*
X367759210Y-135806702D02*
G75*
G02*
X367506952Y-135875000I-252260J431712D01*
G01*
X367759211Y-135806704D02*
G75*
G02*
X368461980Y-136455279I252259J-431696D01*
G01*
X368412499Y-136672158D02*
G75*
G02*
X368461984Y-136455281I500351J-82D01*
G01*
X368461984Y-138294721D02*
G75*
G02*
X367759211Y-138943300I-450514J-216879D01*
G01*
X368461984Y-138294721D02*
G75*
G02*
X368412487Y-138077843I451016J217021D01*
G01*
%TO.C,LED34*%
X41162501Y-79522159D02*
X41162501Y-80927843D01*
X42068047Y-81725000D02*
X43656952Y-81725000D01*
X43656952Y-78725001D02*
X42068048Y-78725001D01*
X44562499Y-80927843D02*
X44562499Y-79522159D01*
X41113016Y-79305281D02*
G75*
G02*
X41162501Y-79522159I-450505J-216876D01*
G01*
X41113016Y-79305282D02*
G75*
G02*
X41815789Y-78656702I450514J216880D01*
G01*
X41162501Y-80927844D02*
G75*
G02*
X41113016Y-81144721I-499990J-1D01*
G01*
X41815789Y-81793299D02*
G75*
G02*
X41113017Y-81144721I-252258J431700D01*
G01*
X41815789Y-81793299D02*
G75*
G02*
X42068047Y-81725000I252261J-431710D01*
G01*
X42068048Y-78725001D02*
G75*
G02*
X41815789Y-78656702I2J500009D01*
G01*
X43656953Y-81725001D02*
G75*
G02*
X43909211Y-81793300I-3J-500009D01*
G01*
X43909210Y-78656702D02*
G75*
G02*
X43656952Y-78725000I-252260J431712D01*
G01*
X43909211Y-78656704D02*
G75*
G02*
X44611980Y-79305279I252259J-431696D01*
G01*
X44562499Y-79522158D02*
G75*
G02*
X44611984Y-79305281I500351J-82D01*
G01*
X44611984Y-81144721D02*
G75*
G02*
X43909211Y-81793300I-450514J-216879D01*
G01*
X44611984Y-81144721D02*
G75*
G02*
X44562487Y-80927843I451016J217021D01*
G01*
%TO.C,LED53*%
X88787501Y-98572159D02*
X88787501Y-99977843D01*
X89693047Y-100775000D02*
X91281952Y-100775000D01*
X91281952Y-97775001D02*
X89693048Y-97775001D01*
X92187499Y-99977843D02*
X92187499Y-98572159D01*
X88738016Y-98355281D02*
G75*
G02*
X88787501Y-98572159I-450505J-216876D01*
G01*
X88738016Y-98355282D02*
G75*
G02*
X89440789Y-97706702I450514J216880D01*
G01*
X88787501Y-99977844D02*
G75*
G02*
X88738016Y-100194721I-499990J-1D01*
G01*
X89440789Y-100843299D02*
G75*
G02*
X88738017Y-100194721I-252258J431700D01*
G01*
X89440789Y-100843299D02*
G75*
G02*
X89693047Y-100775000I252261J-431710D01*
G01*
X89693048Y-97775001D02*
G75*
G02*
X89440789Y-97706702I2J500009D01*
G01*
X91281953Y-100775001D02*
G75*
G02*
X91534211Y-100843300I-3J-500009D01*
G01*
X91534210Y-97706702D02*
G75*
G02*
X91281952Y-97775000I-252260J431712D01*
G01*
X91534211Y-97706704D02*
G75*
G02*
X92236980Y-98355279I252259J-431696D01*
G01*
X92187499Y-98572158D02*
G75*
G02*
X92236984Y-98355281I500351J-82D01*
G01*
X92236984Y-100194721D02*
G75*
G02*
X91534211Y-100843300I-450514J-216879D01*
G01*
X92236984Y-100194721D02*
G75*
G02*
X92187487Y-99977843I451016J217021D01*
G01*
%TO.C,LED28*%
X245950001Y-60472159D02*
X245950001Y-61877843D01*
X246855547Y-62675000D02*
X248444452Y-62675000D01*
X248444452Y-59675001D02*
X246855548Y-59675001D01*
X249349999Y-61877843D02*
X249349999Y-60472159D01*
X245900516Y-60255281D02*
G75*
G02*
X245950001Y-60472159I-450505J-216876D01*
G01*
X245900516Y-60255282D02*
G75*
G02*
X246603289Y-59606702I450514J216880D01*
G01*
X245950001Y-61877844D02*
G75*
G02*
X245900516Y-62094721I-499990J-1D01*
G01*
X246603289Y-62743299D02*
G75*
G02*
X245900517Y-62094721I-252258J431700D01*
G01*
X246603289Y-62743299D02*
G75*
G02*
X246855547Y-62675000I252261J-431710D01*
G01*
X246855548Y-59675001D02*
G75*
G02*
X246603289Y-59606702I2J500009D01*
G01*
X248444453Y-62675001D02*
G75*
G02*
X248696711Y-62743300I-3J-500009D01*
G01*
X248696710Y-59606702D02*
G75*
G02*
X248444452Y-59675000I-252260J431712D01*
G01*
X248696711Y-59606704D02*
G75*
G02*
X249399480Y-60255279I252259J-431696D01*
G01*
X249349999Y-60472158D02*
G75*
G02*
X249399484Y-60255281I500351J-82D01*
G01*
X249399484Y-62094721D02*
G75*
G02*
X248696711Y-62743300I-450514J-216879D01*
G01*
X249399484Y-62094721D02*
G75*
G02*
X249349987Y-61877843I451016J217021D01*
G01*
%TO.C,LED32*%
X345962501Y-60472159D02*
X345962501Y-61877843D01*
X346868047Y-62675000D02*
X348456952Y-62675000D01*
X348456952Y-59675001D02*
X346868048Y-59675001D01*
X349362499Y-61877843D02*
X349362499Y-60472159D01*
X345913016Y-60255281D02*
G75*
G02*
X345962501Y-60472159I-450505J-216876D01*
G01*
X345913016Y-60255282D02*
G75*
G02*
X346615789Y-59606702I450514J216880D01*
G01*
X345962501Y-61877844D02*
G75*
G02*
X345913016Y-62094721I-499990J-1D01*
G01*
X346615789Y-62743299D02*
G75*
G02*
X345913017Y-62094721I-252258J431700D01*
G01*
X346615789Y-62743299D02*
G75*
G02*
X346868047Y-62675000I252261J-431710D01*
G01*
X346868048Y-59675001D02*
G75*
G02*
X346615789Y-59606702I2J500009D01*
G01*
X348456953Y-62675001D02*
G75*
G02*
X348709211Y-62743300I-3J-500009D01*
G01*
X348709210Y-59606702D02*
G75*
G02*
X348456952Y-59675000I-252260J431712D01*
G01*
X348709211Y-59606704D02*
G75*
G02*
X349411980Y-60255279I252259J-431696D01*
G01*
X349362499Y-60472158D02*
G75*
G02*
X349411984Y-60255281I500351J-82D01*
G01*
X349411984Y-62094721D02*
G75*
G02*
X348709211Y-62743300I-450514J-216879D01*
G01*
X349411984Y-62094721D02*
G75*
G02*
X349362487Y-61877843I451016J217021D01*
G01*
%TO.C,LED76*%
X345962501Y-117622159D02*
X345962501Y-119027843D01*
X346868047Y-119825000D02*
X348456952Y-119825000D01*
X348456952Y-116825001D02*
X346868048Y-116825001D01*
X349362499Y-119027843D02*
X349362499Y-117622159D01*
X345913016Y-117405281D02*
G75*
G02*
X345962501Y-117622159I-450505J-216876D01*
G01*
X345913016Y-117405282D02*
G75*
G02*
X346615789Y-116756702I450514J216880D01*
G01*
X345962501Y-119027844D02*
G75*
G02*
X345913016Y-119244721I-499990J-1D01*
G01*
X346615789Y-119893299D02*
G75*
G02*
X345913017Y-119244721I-252258J431700D01*
G01*
X346615789Y-119893299D02*
G75*
G02*
X346868047Y-119825000I252261J-431710D01*
G01*
X346868048Y-116825001D02*
G75*
G02*
X346615789Y-116756702I2J500009D01*
G01*
X348456953Y-119825001D02*
G75*
G02*
X348709211Y-119893300I-3J-500009D01*
G01*
X348709210Y-116756702D02*
G75*
G02*
X348456952Y-116825000I-252260J431712D01*
G01*
X348709211Y-116756704D02*
G75*
G02*
X349411980Y-117405279I252259J-431696D01*
G01*
X349362499Y-117622158D02*
G75*
G02*
X349411984Y-117405281I500351J-82D01*
G01*
X349411984Y-119244721D02*
G75*
G02*
X348709211Y-119893300I-450514J-216879D01*
G01*
X349411984Y-119244721D02*
G75*
G02*
X349362487Y-119027843I451016J217021D01*
G01*
%TO.C,LED75*%
X286431251Y-117622159D02*
X286431251Y-119027843D01*
X287336797Y-119825000D02*
X288925702Y-119825000D01*
X288925702Y-116825001D02*
X287336798Y-116825001D01*
X289831249Y-119027843D02*
X289831249Y-117622159D01*
X286381766Y-117405281D02*
G75*
G02*
X286431251Y-117622159I-450505J-216876D01*
G01*
X286381766Y-117405282D02*
G75*
G02*
X287084539Y-116756702I450514J216880D01*
G01*
X286431251Y-119027844D02*
G75*
G02*
X286381766Y-119244721I-499990J-1D01*
G01*
X287084539Y-119893299D02*
G75*
G02*
X286381767Y-119244721I-252258J431700D01*
G01*
X287084539Y-119893299D02*
G75*
G02*
X287336797Y-119825000I252261J-431710D01*
G01*
X287336798Y-116825001D02*
G75*
G02*
X287084539Y-116756702I2J500009D01*
G01*
X288925703Y-119825001D02*
G75*
G02*
X289177961Y-119893300I-3J-500009D01*
G01*
X289177960Y-116756702D02*
G75*
G02*
X288925702Y-116825000I-252260J431712D01*
G01*
X289177961Y-116756704D02*
G75*
G02*
X289880730Y-117405279I252259J-431696D01*
G01*
X289831249Y-117622158D02*
G75*
G02*
X289880734Y-117405281I500351J-82D01*
G01*
X289880734Y-119244721D02*
G75*
G02*
X289177961Y-119893300I-450514J-216879D01*
G01*
X289880734Y-119244721D02*
G75*
G02*
X289831237Y-119027843I451016J217021D01*
G01*
%TO.C,LED78*%
X62593751Y-136672159D02*
X62593751Y-138077843D01*
X63499297Y-138875000D02*
X65088202Y-138875000D01*
X65088202Y-135875001D02*
X63499298Y-135875001D01*
X65993749Y-138077843D02*
X65993749Y-136672159D01*
X62544266Y-136455281D02*
G75*
G02*
X62593751Y-136672159I-450505J-216876D01*
G01*
X62544266Y-136455282D02*
G75*
G02*
X63247039Y-135806702I450514J216880D01*
G01*
X62593751Y-138077844D02*
G75*
G02*
X62544266Y-138294721I-499990J-1D01*
G01*
X63247039Y-138943299D02*
G75*
G02*
X62544267Y-138294721I-252258J431700D01*
G01*
X63247039Y-138943299D02*
G75*
G02*
X63499297Y-138875000I252261J-431710D01*
G01*
X63499298Y-135875001D02*
G75*
G02*
X63247039Y-135806702I2J500009D01*
G01*
X65088203Y-138875001D02*
G75*
G02*
X65340461Y-138943300I-3J-500009D01*
G01*
X65340460Y-135806702D02*
G75*
G02*
X65088202Y-135875000I-252260J431712D01*
G01*
X65340461Y-135806704D02*
G75*
G02*
X66043230Y-136455279I252259J-431696D01*
G01*
X65993749Y-136672158D02*
G75*
G02*
X66043234Y-136455281I500351J-82D01*
G01*
X66043234Y-138294721D02*
G75*
G02*
X65340461Y-138943300I-450514J-216879D01*
G01*
X66043234Y-138294721D02*
G75*
G02*
X65993737Y-138077843I451016J217021D01*
G01*
%TO.C,LED70*%
X174512501Y-117622159D02*
X174512501Y-119027843D01*
X175418047Y-119825000D02*
X177006952Y-119825000D01*
X177006952Y-116825001D02*
X175418048Y-116825001D01*
X177912499Y-119027843D02*
X177912499Y-117622159D01*
X174463016Y-117405281D02*
G75*
G02*
X174512501Y-117622159I-450505J-216876D01*
G01*
X174463016Y-117405282D02*
G75*
G02*
X175165789Y-116756702I450514J216880D01*
G01*
X174512501Y-119027844D02*
G75*
G02*
X174463016Y-119244721I-499990J-1D01*
G01*
X175165789Y-119893299D02*
G75*
G02*
X174463017Y-119244721I-252258J431700D01*
G01*
X175165789Y-119893299D02*
G75*
G02*
X175418047Y-119825000I252261J-431710D01*
G01*
X175418048Y-116825001D02*
G75*
G02*
X175165789Y-116756702I2J500009D01*
G01*
X177006953Y-119825001D02*
G75*
G02*
X177259211Y-119893300I-3J-500009D01*
G01*
X177259210Y-116756702D02*
G75*
G02*
X177006952Y-116825000I-252260J431712D01*
G01*
X177259211Y-116756704D02*
G75*
G02*
X177961980Y-117405279I252259J-431696D01*
G01*
X177912499Y-117622158D02*
G75*
G02*
X177961984Y-117405281I500351J-82D01*
G01*
X177961984Y-119244721D02*
G75*
G02*
X177259211Y-119893300I-450514J-216879D01*
G01*
X177961984Y-119244721D02*
G75*
G02*
X177912487Y-119027843I451016J217021D01*
G01*
%TO.C,LED50*%
X365012501Y-79522159D02*
X365012501Y-80927843D01*
X365918047Y-81725000D02*
X367506952Y-81725000D01*
X367506952Y-78725001D02*
X365918048Y-78725001D01*
X368412499Y-80927843D02*
X368412499Y-79522159D01*
X364963016Y-79305281D02*
G75*
G02*
X365012501Y-79522159I-450505J-216876D01*
G01*
X364963016Y-79305282D02*
G75*
G02*
X365665789Y-78656702I450514J216880D01*
G01*
X365012501Y-80927844D02*
G75*
G02*
X364963016Y-81144721I-499990J-1D01*
G01*
X365665789Y-81793299D02*
G75*
G02*
X364963017Y-81144721I-252258J431700D01*
G01*
X365665789Y-81793299D02*
G75*
G02*
X365918047Y-81725000I252261J-431710D01*
G01*
X365918048Y-78725001D02*
G75*
G02*
X365665789Y-78656702I2J500009D01*
G01*
X367506953Y-81725001D02*
G75*
G02*
X367759211Y-81793300I-3J-500009D01*
G01*
X367759210Y-78656702D02*
G75*
G02*
X367506952Y-78725000I-252260J431712D01*
G01*
X367759211Y-78656704D02*
G75*
G02*
X368461980Y-79305279I252259J-431696D01*
G01*
X368412499Y-79522158D02*
G75*
G02*
X368461984Y-79305281I500351J-82D01*
G01*
X368461984Y-81144721D02*
G75*
G02*
X367759211Y-81793300I-450514J-216879D01*
G01*
X368461984Y-81144721D02*
G75*
G02*
X368412487Y-80927843I451016J217021D01*
G01*
%TO.C,LED16*%
X365012501Y-31897159D02*
X365012501Y-33302843D01*
X365918047Y-34100000D02*
X367506952Y-34100000D01*
X367506952Y-31100001D02*
X365918048Y-31100001D01*
X368412499Y-33302843D02*
X368412499Y-31897159D01*
X364963016Y-31680281D02*
G75*
G02*
X365012501Y-31897159I-450505J-216876D01*
G01*
X364963016Y-31680282D02*
G75*
G02*
X365665789Y-31031702I450514J216880D01*
G01*
X365012501Y-33302844D02*
G75*
G02*
X364963016Y-33519721I-499990J-1D01*
G01*
X365665789Y-34168299D02*
G75*
G02*
X364963017Y-33519721I-252258J431700D01*
G01*
X365665789Y-34168299D02*
G75*
G02*
X365918047Y-34100000I252261J-431710D01*
G01*
X365918048Y-31100001D02*
G75*
G02*
X365665789Y-31031702I2J500009D01*
G01*
X367506953Y-34100001D02*
G75*
G02*
X367759211Y-34168300I-3J-500009D01*
G01*
X367759210Y-31031702D02*
G75*
G02*
X367506952Y-31100000I-252260J431712D01*
G01*
X367759211Y-31031704D02*
G75*
G02*
X368461980Y-31680279I252259J-431696D01*
G01*
X368412499Y-31897158D02*
G75*
G02*
X368461984Y-31680281I500351J-82D01*
G01*
X368461984Y-33519721D02*
G75*
G02*
X367759211Y-34168300I-450514J-216879D01*
G01*
X368461984Y-33519721D02*
G75*
G02*
X368412487Y-33302843I451016J217021D01*
G01*
%TO.C,LED33*%
X365012501Y-60472159D02*
X365012501Y-61877843D01*
X365918047Y-62675000D02*
X367506952Y-62675000D01*
X367506952Y-59675001D02*
X365918048Y-59675001D01*
X368412499Y-61877843D02*
X368412499Y-60472159D01*
X364963016Y-60255281D02*
G75*
G02*
X365012501Y-60472159I-450505J-216876D01*
G01*
X364963016Y-60255282D02*
G75*
G02*
X365665789Y-59606702I450514J216880D01*
G01*
X365012501Y-61877844D02*
G75*
G02*
X364963016Y-62094721I-499990J-1D01*
G01*
X365665789Y-62743299D02*
G75*
G02*
X364963017Y-62094721I-252258J431700D01*
G01*
X365665789Y-62743299D02*
G75*
G02*
X365918047Y-62675000I252261J-431710D01*
G01*
X365918048Y-59675001D02*
G75*
G02*
X365665789Y-59606702I2J500009D01*
G01*
X367506953Y-62675001D02*
G75*
G02*
X367759211Y-62743300I-3J-500009D01*
G01*
X367759210Y-59606702D02*
G75*
G02*
X367506952Y-59675000I-252260J431712D01*
G01*
X367759211Y-59606704D02*
G75*
G02*
X368461980Y-60255279I252259J-431696D01*
G01*
X368412499Y-60472158D02*
G75*
G02*
X368461984Y-60255281I500351J-82D01*
G01*
X368461984Y-62094721D02*
G75*
G02*
X367759211Y-62743300I-450514J-216879D01*
G01*
X368461984Y-62094721D02*
G75*
G02*
X368412487Y-61877843I451016J217021D01*
G01*
%TO.C,LED42*%
X198325001Y-79522159D02*
X198325001Y-80927843D01*
X199230547Y-81725000D02*
X200819452Y-81725000D01*
X200819452Y-78725001D02*
X199230548Y-78725001D01*
X201724999Y-80927843D02*
X201724999Y-79522159D01*
X198275516Y-79305281D02*
G75*
G02*
X198325001Y-79522159I-450505J-216876D01*
G01*
X198275516Y-79305282D02*
G75*
G02*
X198978289Y-78656702I450514J216880D01*
G01*
X198325001Y-80927844D02*
G75*
G02*
X198275516Y-81144721I-499990J-1D01*
G01*
X198978289Y-81793299D02*
G75*
G02*
X198275517Y-81144721I-252258J431700D01*
G01*
X198978289Y-81793299D02*
G75*
G02*
X199230547Y-81725000I252261J-431710D01*
G01*
X199230548Y-78725001D02*
G75*
G02*
X198978289Y-78656702I2J500009D01*
G01*
X200819453Y-81725001D02*
G75*
G02*
X201071711Y-81793300I-3J-500009D01*
G01*
X201071710Y-78656702D02*
G75*
G02*
X200819452Y-78725000I-252260J431712D01*
G01*
X201071711Y-78656704D02*
G75*
G02*
X201774480Y-79305279I252259J-431696D01*
G01*
X201724999Y-79522158D02*
G75*
G02*
X201774484Y-79305281I500351J-82D01*
G01*
X201774484Y-81144721D02*
G75*
G02*
X201071711Y-81793300I-450514J-216879D01*
G01*
X201774484Y-81144721D02*
G75*
G02*
X201724987Y-80927843I451016J217021D01*
G01*
%TO.C,LED30*%
X293575001Y-60472159D02*
X293575001Y-61877843D01*
X294480547Y-62675000D02*
X296069452Y-62675000D01*
X296069452Y-59675001D02*
X294480548Y-59675001D01*
X296974999Y-61877843D02*
X296974999Y-60472159D01*
X293525516Y-60255281D02*
G75*
G02*
X293575001Y-60472159I-450505J-216876D01*
G01*
X293525516Y-60255282D02*
G75*
G02*
X294228289Y-59606702I450514J216880D01*
G01*
X293575001Y-61877844D02*
G75*
G02*
X293525516Y-62094721I-499990J-1D01*
G01*
X294228289Y-62743299D02*
G75*
G02*
X293525517Y-62094721I-252258J431700D01*
G01*
X294228289Y-62743299D02*
G75*
G02*
X294480547Y-62675000I252261J-431710D01*
G01*
X294480548Y-59675001D02*
G75*
G02*
X294228289Y-59606702I2J500009D01*
G01*
X296069453Y-62675001D02*
G75*
G02*
X296321711Y-62743300I-3J-500009D01*
G01*
X296321710Y-59606702D02*
G75*
G02*
X296069452Y-59675000I-252260J431712D01*
G01*
X296321711Y-59606704D02*
G75*
G02*
X297024480Y-60255279I252259J-431696D01*
G01*
X296974999Y-60472158D02*
G75*
G02*
X297024484Y-60255281I500351J-82D01*
G01*
X297024484Y-62094721D02*
G75*
G02*
X296321711Y-62743300I-450514J-216879D01*
G01*
X297024484Y-62094721D02*
G75*
G02*
X296974987Y-61877843I451016J217021D01*
G01*
%TO.C,LED60*%
X222137501Y-98572159D02*
X222137501Y-99977843D01*
X223043047Y-100775000D02*
X224631952Y-100775000D01*
X224631952Y-97775001D02*
X223043048Y-97775001D01*
X225537499Y-99977843D02*
X225537499Y-98572159D01*
X222088016Y-98355281D02*
G75*
G02*
X222137501Y-98572159I-450505J-216876D01*
G01*
X222088016Y-98355282D02*
G75*
G02*
X222790789Y-97706702I450514J216880D01*
G01*
X222137501Y-99977844D02*
G75*
G02*
X222088016Y-100194721I-499990J-1D01*
G01*
X222790789Y-100843299D02*
G75*
G02*
X222088017Y-100194721I-252258J431700D01*
G01*
X222790789Y-100843299D02*
G75*
G02*
X223043047Y-100775000I252261J-431710D01*
G01*
X223043048Y-97775001D02*
G75*
G02*
X222790789Y-97706702I2J500009D01*
G01*
X224631953Y-100775001D02*
G75*
G02*
X224884211Y-100843300I-3J-500009D01*
G01*
X224884210Y-97706702D02*
G75*
G02*
X224631952Y-97775000I-252260J431712D01*
G01*
X224884211Y-97706704D02*
G75*
G02*
X225586980Y-98355279I252259J-431696D01*
G01*
X225537499Y-98572158D02*
G75*
G02*
X225586984Y-98355281I500351J-82D01*
G01*
X225586984Y-100194721D02*
G75*
G02*
X224884211Y-100843300I-450514J-216879D01*
G01*
X225586984Y-100194721D02*
G75*
G02*
X225537487Y-99977843I451016J217021D01*
G01*
%TO.C,LED6*%
X160225001Y-31897159D02*
X160225001Y-33302843D01*
X161130547Y-34100000D02*
X162719452Y-34100000D01*
X162719452Y-31100001D02*
X161130548Y-31100001D01*
X163624999Y-33302843D02*
X163624999Y-31897159D01*
X160175516Y-31680281D02*
G75*
G02*
X160225001Y-31897159I-450505J-216876D01*
G01*
X160175516Y-31680282D02*
G75*
G02*
X160878289Y-31031702I450514J216880D01*
G01*
X160225001Y-33302844D02*
G75*
G02*
X160175516Y-33519721I-499990J-1D01*
G01*
X160878289Y-34168299D02*
G75*
G02*
X160175517Y-33519721I-252258J431700D01*
G01*
X160878289Y-34168299D02*
G75*
G02*
X161130547Y-34100000I252261J-431710D01*
G01*
X161130548Y-31100001D02*
G75*
G02*
X160878289Y-31031702I2J500009D01*
G01*
X162719453Y-34100001D02*
G75*
G02*
X162971711Y-34168300I-3J-500009D01*
G01*
X162971710Y-31031702D02*
G75*
G02*
X162719452Y-31100000I-252260J431712D01*
G01*
X162971711Y-31031704D02*
G75*
G02*
X163674480Y-31680279I252259J-431696D01*
G01*
X163624999Y-31897158D02*
G75*
G02*
X163674484Y-31680281I500351J-82D01*
G01*
X163674484Y-33519721D02*
G75*
G02*
X162971711Y-34168300I-450514J-216879D01*
G01*
X163674484Y-33519721D02*
G75*
G02*
X163624987Y-33302843I451016J217021D01*
G01*
%TO.C,LED71*%
X193562501Y-117622159D02*
X193562501Y-119027843D01*
X194468047Y-119825000D02*
X196056952Y-119825000D01*
X196056952Y-116825001D02*
X194468048Y-116825001D01*
X196962499Y-119027843D02*
X196962499Y-117622159D01*
X193513016Y-117405281D02*
G75*
G02*
X193562501Y-117622159I-450505J-216876D01*
G01*
X193513016Y-117405282D02*
G75*
G02*
X194215789Y-116756702I450514J216880D01*
G01*
X193562501Y-119027844D02*
G75*
G02*
X193513016Y-119244721I-499990J-1D01*
G01*
X194215789Y-119893299D02*
G75*
G02*
X193513017Y-119244721I-252258J431700D01*
G01*
X194215789Y-119893299D02*
G75*
G02*
X194468047Y-119825000I252261J-431710D01*
G01*
X194468048Y-116825001D02*
G75*
G02*
X194215789Y-116756702I2J500009D01*
G01*
X196056953Y-119825001D02*
G75*
G02*
X196309211Y-119893300I-3J-500009D01*
G01*
X196309210Y-116756702D02*
G75*
G02*
X196056952Y-116825000I-252260J431712D01*
G01*
X196309211Y-116756704D02*
G75*
G02*
X197011980Y-117405279I252259J-431696D01*
G01*
X196962499Y-117622158D02*
G75*
G02*
X197011984Y-117405281I500351J-82D01*
G01*
X197011984Y-119244721D02*
G75*
G02*
X196309211Y-119893300I-450514J-216879D01*
G01*
X197011984Y-119244721D02*
G75*
G02*
X196962487Y-119027843I451016J217021D01*
G01*
%TO.C,LED11*%
X265000001Y-31897159D02*
X265000001Y-33302843D01*
X265905547Y-34100000D02*
X267494452Y-34100000D01*
X267494452Y-31100001D02*
X265905548Y-31100001D01*
X268399999Y-33302843D02*
X268399999Y-31897159D01*
X264950516Y-31680281D02*
G75*
G02*
X265000001Y-31897159I-450505J-216876D01*
G01*
X264950516Y-31680282D02*
G75*
G02*
X265653289Y-31031702I450514J216880D01*
G01*
X265000001Y-33302844D02*
G75*
G02*
X264950516Y-33519721I-499990J-1D01*
G01*
X265653289Y-34168299D02*
G75*
G02*
X264950517Y-33519721I-252258J431700D01*
G01*
X265653289Y-34168299D02*
G75*
G02*
X265905547Y-34100000I252261J-431710D01*
G01*
X265905548Y-31100001D02*
G75*
G02*
X265653289Y-31031702I2J500009D01*
G01*
X267494453Y-34100001D02*
G75*
G02*
X267746711Y-34168300I-3J-500009D01*
G01*
X267746710Y-31031702D02*
G75*
G02*
X267494452Y-31100000I-252260J431712D01*
G01*
X267746711Y-31031704D02*
G75*
G02*
X268449480Y-31680279I252259J-431696D01*
G01*
X268399999Y-31897158D02*
G75*
G02*
X268449484Y-31680281I500351J-82D01*
G01*
X268449484Y-33519721D02*
G75*
G02*
X267746711Y-34168300I-450514J-216879D01*
G01*
X268449484Y-33519721D02*
G75*
G02*
X268399987Y-33302843I451016J217021D01*
G01*
%TO.C,LED51*%
X43543751Y-98572159D02*
X43543751Y-99977843D01*
X44449297Y-100775000D02*
X46038202Y-100775000D01*
X46038202Y-97775001D02*
X44449298Y-97775001D01*
X46943749Y-99977843D02*
X46943749Y-98572159D01*
X43494266Y-98355281D02*
G75*
G02*
X43543751Y-98572159I-450505J-216876D01*
G01*
X43494266Y-98355282D02*
G75*
G02*
X44197039Y-97706702I450514J216880D01*
G01*
X43543751Y-99977844D02*
G75*
G02*
X43494266Y-100194721I-499990J-1D01*
G01*
X44197039Y-100843299D02*
G75*
G02*
X43494267Y-100194721I-252258J431700D01*
G01*
X44197039Y-100843299D02*
G75*
G02*
X44449297Y-100775000I252261J-431710D01*
G01*
X44449298Y-97775001D02*
G75*
G02*
X44197039Y-97706702I2J500009D01*
G01*
X46038203Y-100775001D02*
G75*
G02*
X46290461Y-100843300I-3J-500009D01*
G01*
X46290460Y-97706702D02*
G75*
G02*
X46038202Y-97775000I-252260J431712D01*
G01*
X46290461Y-97706704D02*
G75*
G02*
X46993230Y-98355279I252259J-431696D01*
G01*
X46943749Y-98572158D02*
G75*
G02*
X46993234Y-98355281I500351J-82D01*
G01*
X46993234Y-100194721D02*
G75*
G02*
X46290461Y-100843300I-450514J-216879D01*
G01*
X46993234Y-100194721D02*
G75*
G02*
X46943737Y-99977843I451016J217021D01*
G01*
%TO.C,LED63*%
X291193751Y-98572159D02*
X291193751Y-99977843D01*
X292099297Y-100775000D02*
X293688202Y-100775000D01*
X293688202Y-97775001D02*
X292099298Y-97775001D01*
X294593749Y-99977843D02*
X294593749Y-98572159D01*
X291144266Y-98355281D02*
G75*
G02*
X291193751Y-98572159I-450505J-216876D01*
G01*
X291144266Y-98355282D02*
G75*
G02*
X291847039Y-97706702I450514J216880D01*
G01*
X291193751Y-99977844D02*
G75*
G02*
X291144266Y-100194721I-499990J-1D01*
G01*
X291847039Y-100843299D02*
G75*
G02*
X291144267Y-100194721I-252258J431700D01*
G01*
X291847039Y-100843299D02*
G75*
G02*
X292099297Y-100775000I252261J-431710D01*
G01*
X292099298Y-97775001D02*
G75*
G02*
X291847039Y-97706702I2J500009D01*
G01*
X293688203Y-100775001D02*
G75*
G02*
X293940461Y-100843300I-3J-500009D01*
G01*
X293940460Y-97706702D02*
G75*
G02*
X293688202Y-97775000I-252260J431712D01*
G01*
X293940461Y-97706704D02*
G75*
G02*
X294643230Y-98355279I252259J-431696D01*
G01*
X294593749Y-98572158D02*
G75*
G02*
X294643234Y-98355281I500351J-82D01*
G01*
X294643234Y-100194721D02*
G75*
G02*
X293940461Y-100843300I-450514J-216879D01*
G01*
X294643234Y-100194721D02*
G75*
G02*
X294593737Y-99977843I451016J217021D01*
G01*
%TO.C,LED15*%
X345962501Y-31897159D02*
X345962501Y-33302843D01*
X346868047Y-34100000D02*
X348456952Y-34100000D01*
X348456952Y-31100001D02*
X346868048Y-31100001D01*
X349362499Y-33302843D02*
X349362499Y-31897159D01*
X345913016Y-31680281D02*
G75*
G02*
X345962501Y-31897159I-450505J-216876D01*
G01*
X345913016Y-31680282D02*
G75*
G02*
X346615789Y-31031702I450514J216880D01*
G01*
X345962501Y-33302844D02*
G75*
G02*
X345913016Y-33519721I-499990J-1D01*
G01*
X346615789Y-34168299D02*
G75*
G02*
X345913017Y-33519721I-252258J431700D01*
G01*
X346615789Y-34168299D02*
G75*
G02*
X346868047Y-34100000I252261J-431710D01*
G01*
X346868048Y-31100001D02*
G75*
G02*
X346615789Y-31031702I2J500009D01*
G01*
X348456953Y-34100001D02*
G75*
G02*
X348709211Y-34168300I-3J-500009D01*
G01*
X348709210Y-31031702D02*
G75*
G02*
X348456952Y-31100000I-252260J431712D01*
G01*
X348709211Y-31031704D02*
G75*
G02*
X349411980Y-31680279I252259J-431696D01*
G01*
X349362499Y-31897158D02*
G75*
G02*
X349411984Y-31680281I500351J-82D01*
G01*
X349411984Y-33519721D02*
G75*
G02*
X348709211Y-34168300I-450514J-216879D01*
G01*
X349411984Y-33519721D02*
G75*
G02*
X349362487Y-33302843I451016J217021D01*
G01*
%TO.C,LED19*%
X74500001Y-60472159D02*
X74500001Y-61877843D01*
X75405547Y-62675000D02*
X76994452Y-62675000D01*
X76994452Y-59675001D02*
X75405548Y-59675001D01*
X77899999Y-61877843D02*
X77899999Y-60472159D01*
X74450516Y-60255281D02*
G75*
G02*
X74500001Y-60472159I-450505J-216876D01*
G01*
X74450516Y-60255282D02*
G75*
G02*
X75153289Y-59606702I450514J216880D01*
G01*
X74500001Y-61877844D02*
G75*
G02*
X74450516Y-62094721I-499990J-1D01*
G01*
X75153289Y-62743299D02*
G75*
G02*
X74450517Y-62094721I-252258J431700D01*
G01*
X75153289Y-62743299D02*
G75*
G02*
X75405547Y-62675000I252261J-431710D01*
G01*
X75405548Y-59675001D02*
G75*
G02*
X75153289Y-59606702I2J500009D01*
G01*
X76994453Y-62675001D02*
G75*
G02*
X77246711Y-62743300I-3J-500009D01*
G01*
X77246710Y-59606702D02*
G75*
G02*
X76994452Y-59675000I-252260J431712D01*
G01*
X77246711Y-59606704D02*
G75*
G02*
X77949480Y-60255279I252259J-431696D01*
G01*
X77899999Y-60472158D02*
G75*
G02*
X77949484Y-60255281I500351J-82D01*
G01*
X77949484Y-62094721D02*
G75*
G02*
X77246711Y-62743300I-450514J-216879D01*
G01*
X77949484Y-62094721D02*
G75*
G02*
X77899987Y-61877843I451016J217021D01*
G01*
%TO.C,LED7*%
X179275001Y-31897159D02*
X179275001Y-33302843D01*
X180180547Y-34100000D02*
X181769452Y-34100000D01*
X181769452Y-31100001D02*
X180180548Y-31100001D01*
X182674999Y-33302843D02*
X182674999Y-31897159D01*
X179225516Y-31680281D02*
G75*
G02*
X179275001Y-31897159I-450505J-216876D01*
G01*
X179225516Y-31680282D02*
G75*
G02*
X179928289Y-31031702I450514J216880D01*
G01*
X179275001Y-33302844D02*
G75*
G02*
X179225516Y-33519721I-499990J-1D01*
G01*
X179928289Y-34168299D02*
G75*
G02*
X179225517Y-33519721I-252258J431700D01*
G01*
X179928289Y-34168299D02*
G75*
G02*
X180180547Y-34100000I252261J-431710D01*
G01*
X180180548Y-31100001D02*
G75*
G02*
X179928289Y-31031702I2J500009D01*
G01*
X181769453Y-34100001D02*
G75*
G02*
X182021711Y-34168300I-3J-500009D01*
G01*
X182021710Y-31031702D02*
G75*
G02*
X181769452Y-31100000I-252260J431712D01*
G01*
X182021711Y-31031704D02*
G75*
G02*
X182724480Y-31680279I252259J-431696D01*
G01*
X182674999Y-31897158D02*
G75*
G02*
X182724484Y-31680281I500351J-82D01*
G01*
X182724484Y-33519721D02*
G75*
G02*
X182021711Y-34168300I-450514J-216879D01*
G01*
X182724484Y-33519721D02*
G75*
G02*
X182674987Y-33302843I451016J217021D01*
G01*
%TO.C,LED85*%
X326912501Y-136672159D02*
X326912501Y-138077843D01*
X327818047Y-138875000D02*
X329406952Y-138875000D01*
X329406952Y-135875001D02*
X327818048Y-135875001D01*
X330312499Y-138077843D02*
X330312499Y-136672159D01*
X326863016Y-136455281D02*
G75*
G02*
X326912501Y-136672159I-450505J-216876D01*
G01*
X326863016Y-136455282D02*
G75*
G02*
X327565789Y-135806702I450514J216880D01*
G01*
X326912501Y-138077844D02*
G75*
G02*
X326863016Y-138294721I-499990J-1D01*
G01*
X327565789Y-138943299D02*
G75*
G02*
X326863017Y-138294721I-252258J431700D01*
G01*
X327565789Y-138943299D02*
G75*
G02*
X327818047Y-138875000I252261J-431710D01*
G01*
X327818048Y-135875001D02*
G75*
G02*
X327565789Y-135806702I2J500009D01*
G01*
X329406953Y-138875001D02*
G75*
G02*
X329659211Y-138943300I-3J-500009D01*
G01*
X329659210Y-135806702D02*
G75*
G02*
X329406952Y-135875000I-252260J431712D01*
G01*
X329659211Y-135806704D02*
G75*
G02*
X330361980Y-136455279I252259J-431696D01*
G01*
X330312499Y-136672158D02*
G75*
G02*
X330361984Y-136455281I500351J-82D01*
G01*
X330361984Y-138294721D02*
G75*
G02*
X329659211Y-138943300I-450514J-216879D01*
G01*
X330361984Y-138294721D02*
G75*
G02*
X330312487Y-138077843I451016J217021D01*
G01*
%TO.C,LED18*%
X55450001Y-60472159D02*
X55450001Y-61877843D01*
X56355547Y-62675000D02*
X57944452Y-62675000D01*
X57944452Y-59675001D02*
X56355548Y-59675001D01*
X58849999Y-61877843D02*
X58849999Y-60472159D01*
X55400516Y-60255281D02*
G75*
G02*
X55450001Y-60472159I-450505J-216876D01*
G01*
X55400516Y-60255282D02*
G75*
G02*
X56103289Y-59606702I450514J216880D01*
G01*
X55450001Y-61877844D02*
G75*
G02*
X55400516Y-62094721I-499990J-1D01*
G01*
X56103289Y-62743299D02*
G75*
G02*
X55400517Y-62094721I-252258J431700D01*
G01*
X56103289Y-62743299D02*
G75*
G02*
X56355547Y-62675000I252261J-431710D01*
G01*
X56355548Y-59675001D02*
G75*
G02*
X56103289Y-59606702I2J500009D01*
G01*
X57944453Y-62675001D02*
G75*
G02*
X58196711Y-62743300I-3J-500009D01*
G01*
X58196710Y-59606702D02*
G75*
G02*
X57944452Y-59675000I-252260J431712D01*
G01*
X58196711Y-59606704D02*
G75*
G02*
X58899480Y-60255279I252259J-431696D01*
G01*
X58849999Y-60472158D02*
G75*
G02*
X58899484Y-60255281I500351J-82D01*
G01*
X58899484Y-62094721D02*
G75*
G02*
X58196711Y-62743300I-450514J-216879D01*
G01*
X58899484Y-62094721D02*
G75*
G02*
X58849987Y-61877843I451016J217021D01*
G01*
%TO.C,LED80*%
X157843751Y-136672159D02*
X157843751Y-138077843D01*
X158749297Y-138875000D02*
X160338202Y-138875000D01*
X160338202Y-135875001D02*
X158749298Y-135875001D01*
X161243749Y-138077843D02*
X161243749Y-136672159D01*
X157794266Y-136455281D02*
G75*
G02*
X157843751Y-136672159I-450505J-216876D01*
G01*
X157794266Y-136455282D02*
G75*
G02*
X158497039Y-135806702I450514J216880D01*
G01*
X157843751Y-138077844D02*
G75*
G02*
X157794266Y-138294721I-499990J-1D01*
G01*
X158497039Y-138943299D02*
G75*
G02*
X157794267Y-138294721I-252258J431700D01*
G01*
X158497039Y-138943299D02*
G75*
G02*
X158749297Y-138875000I252261J-431710D01*
G01*
X158749298Y-135875001D02*
G75*
G02*
X158497039Y-135806702I2J500009D01*
G01*
X160338203Y-138875001D02*
G75*
G02*
X160590461Y-138943300I-3J-500009D01*
G01*
X160590460Y-135806702D02*
G75*
G02*
X160338202Y-135875000I-252260J431712D01*
G01*
X160590461Y-135806704D02*
G75*
G02*
X161293230Y-136455279I252259J-431696D01*
G01*
X161243749Y-136672158D02*
G75*
G02*
X161293234Y-136455281I500351J-82D01*
G01*
X161293234Y-138294721D02*
G75*
G02*
X160590461Y-138943300I-450514J-216879D01*
G01*
X161293234Y-138294721D02*
G75*
G02*
X161243737Y-138077843I451016J217021D01*
G01*
%TO.C,LED36*%
X84025001Y-79522159D02*
X84025001Y-80927843D01*
X84930547Y-81725000D02*
X86519452Y-81725000D01*
X86519452Y-78725001D02*
X84930548Y-78725001D01*
X87424999Y-80927843D02*
X87424999Y-79522159D01*
X83975516Y-79305281D02*
G75*
G02*
X84025001Y-79522159I-450505J-216876D01*
G01*
X83975516Y-79305282D02*
G75*
G02*
X84678289Y-78656702I450514J216880D01*
G01*
X84025001Y-80927844D02*
G75*
G02*
X83975516Y-81144721I-499990J-1D01*
G01*
X84678289Y-81793299D02*
G75*
G02*
X83975517Y-81144721I-252258J431700D01*
G01*
X84678289Y-81793299D02*
G75*
G02*
X84930547Y-81725000I252261J-431710D01*
G01*
X84930548Y-78725001D02*
G75*
G02*
X84678289Y-78656702I2J500009D01*
G01*
X86519453Y-81725001D02*
G75*
G02*
X86771711Y-81793300I-3J-500009D01*
G01*
X86771710Y-78656702D02*
G75*
G02*
X86519452Y-78725000I-252260J431712D01*
G01*
X86771711Y-78656704D02*
G75*
G02*
X87474480Y-79305279I252259J-431696D01*
G01*
X87424999Y-79522158D02*
G75*
G02*
X87474484Y-79305281I500351J-82D01*
G01*
X87474484Y-81144721D02*
G75*
G02*
X86771711Y-81793300I-450514J-216879D01*
G01*
X87474484Y-81144721D02*
G75*
G02*
X87424987Y-80927843I451016J217021D01*
G01*
%TO.C,LED47*%
X298337501Y-79522159D02*
X298337501Y-80927843D01*
X299243047Y-81725000D02*
X300831952Y-81725000D01*
X300831952Y-78725001D02*
X299243048Y-78725001D01*
X301737499Y-80927843D02*
X301737499Y-79522159D01*
X298288016Y-79305281D02*
G75*
G02*
X298337501Y-79522159I-450505J-216876D01*
G01*
X298288016Y-79305282D02*
G75*
G02*
X298990789Y-78656702I450514J216880D01*
G01*
X298337501Y-80927844D02*
G75*
G02*
X298288016Y-81144721I-499990J-1D01*
G01*
X298990789Y-81793299D02*
G75*
G02*
X298288017Y-81144721I-252258J431700D01*
G01*
X298990789Y-81793299D02*
G75*
G02*
X299243047Y-81725000I252261J-431710D01*
G01*
X299243048Y-78725001D02*
G75*
G02*
X298990789Y-78656702I2J500009D01*
G01*
X300831953Y-81725001D02*
G75*
G02*
X301084211Y-81793300I-3J-500009D01*
G01*
X301084210Y-78656702D02*
G75*
G02*
X300831952Y-78725000I-252260J431712D01*
G01*
X301084211Y-78656704D02*
G75*
G02*
X301786980Y-79305279I252259J-431696D01*
G01*
X301737499Y-79522158D02*
G75*
G02*
X301786984Y-79305281I500351J-82D01*
G01*
X301786984Y-81144721D02*
G75*
G02*
X301084211Y-81793300I-450514J-216879D01*
G01*
X301786984Y-81144721D02*
G75*
G02*
X301737487Y-80927843I451016J217021D01*
G01*
%TO.C,LED58*%
X184037501Y-98572159D02*
X184037501Y-99977843D01*
X184943047Y-100775000D02*
X186531952Y-100775000D01*
X186531952Y-97775001D02*
X184943048Y-97775001D01*
X187437499Y-99977843D02*
X187437499Y-98572159D01*
X183988016Y-98355281D02*
G75*
G02*
X184037501Y-98572159I-450505J-216876D01*
G01*
X183988016Y-98355282D02*
G75*
G02*
X184690789Y-97706702I450514J216880D01*
G01*
X184037501Y-99977844D02*
G75*
G02*
X183988016Y-100194721I-499990J-1D01*
G01*
X184690789Y-100843299D02*
G75*
G02*
X183988017Y-100194721I-252258J431700D01*
G01*
X184690789Y-100843299D02*
G75*
G02*
X184943047Y-100775000I252261J-431710D01*
G01*
X184943048Y-97775001D02*
G75*
G02*
X184690789Y-97706702I2J500009D01*
G01*
X186531953Y-100775001D02*
G75*
G02*
X186784211Y-100843300I-3J-500009D01*
G01*
X186784210Y-97706702D02*
G75*
G02*
X186531952Y-97775000I-252260J431712D01*
G01*
X186784211Y-97706704D02*
G75*
G02*
X187486980Y-98355279I252259J-431696D01*
G01*
X187437499Y-98572158D02*
G75*
G02*
X187486984Y-98355281I500351J-82D01*
G01*
X187486984Y-100194721D02*
G75*
G02*
X186784211Y-100843300I-450514J-216879D01*
G01*
X187486984Y-100194721D02*
G75*
G02*
X187437487Y-99977843I451016J217021D01*
G01*
%TO.C,LED86*%
X345962501Y-136672159D02*
X345962501Y-138077843D01*
X346868047Y-138875000D02*
X348456952Y-138875000D01*
X348456952Y-135875001D02*
X346868048Y-135875001D01*
X349362499Y-138077843D02*
X349362499Y-136672159D01*
X345913016Y-136455281D02*
G75*
G02*
X345962501Y-136672159I-450505J-216876D01*
G01*
X345913016Y-136455282D02*
G75*
G02*
X346615789Y-135806702I450514J216880D01*
G01*
X345962501Y-138077844D02*
G75*
G02*
X345913016Y-138294721I-499990J-1D01*
G01*
X346615789Y-138943299D02*
G75*
G02*
X345913017Y-138294721I-252258J431700D01*
G01*
X346615789Y-138943299D02*
G75*
G02*
X346868047Y-138875000I252261J-431710D01*
G01*
X346868048Y-135875001D02*
G75*
G02*
X346615789Y-135806702I2J500009D01*
G01*
X348456953Y-138875001D02*
G75*
G02*
X348709211Y-138943300I-3J-500009D01*
G01*
X348709210Y-135806702D02*
G75*
G02*
X348456952Y-135875000I-252260J431712D01*
G01*
X348709211Y-135806704D02*
G75*
G02*
X349411980Y-136455279I252259J-431696D01*
G01*
X349362499Y-136672158D02*
G75*
G02*
X349411984Y-136455281I500351J-82D01*
G01*
X349411984Y-138294721D02*
G75*
G02*
X348709211Y-138943300I-450514J-216879D01*
G01*
X349411984Y-138294721D02*
G75*
G02*
X349362487Y-138077843I451016J217021D01*
G01*
%TO.C,LED57*%
X164987501Y-98572159D02*
X164987501Y-99977843D01*
X165893047Y-100775000D02*
X167481952Y-100775000D01*
X167481952Y-97775001D02*
X165893048Y-97775001D01*
X168387499Y-99977843D02*
X168387499Y-98572159D01*
X164938016Y-98355281D02*
G75*
G02*
X164987501Y-98572159I-450505J-216876D01*
G01*
X164938016Y-98355282D02*
G75*
G02*
X165640789Y-97706702I450514J216880D01*
G01*
X164987501Y-99977844D02*
G75*
G02*
X164938016Y-100194721I-499990J-1D01*
G01*
X165640789Y-100843299D02*
G75*
G02*
X164938017Y-100194721I-252258J431700D01*
G01*
X165640789Y-100843299D02*
G75*
G02*
X165893047Y-100775000I252261J-431710D01*
G01*
X165893048Y-97775001D02*
G75*
G02*
X165640789Y-97706702I2J500009D01*
G01*
X167481953Y-100775001D02*
G75*
G02*
X167734211Y-100843300I-3J-500009D01*
G01*
X167734210Y-97706702D02*
G75*
G02*
X167481952Y-97775000I-252260J431712D01*
G01*
X167734211Y-97706704D02*
G75*
G02*
X168436980Y-98355279I252259J-431696D01*
G01*
X168387499Y-98572158D02*
G75*
G02*
X168436984Y-98355281I500351J-82D01*
G01*
X168436984Y-100194721D02*
G75*
G02*
X167734211Y-100843300I-450514J-216879D01*
G01*
X168436984Y-100194721D02*
G75*
G02*
X168387487Y-99977843I451016J217021D01*
G01*
%TO.C,LED26*%
X207850001Y-60472159D02*
X207850001Y-61877843D01*
X208755547Y-62675000D02*
X210344452Y-62675000D01*
X210344452Y-59675001D02*
X208755548Y-59675001D01*
X211249999Y-61877843D02*
X211249999Y-60472159D01*
X207800516Y-60255281D02*
G75*
G02*
X207850001Y-60472159I-450505J-216876D01*
G01*
X207800516Y-60255282D02*
G75*
G02*
X208503289Y-59606702I450514J216880D01*
G01*
X207850001Y-61877844D02*
G75*
G02*
X207800516Y-62094721I-499990J-1D01*
G01*
X208503289Y-62743299D02*
G75*
G02*
X207800517Y-62094721I-252258J431700D01*
G01*
X208503289Y-62743299D02*
G75*
G02*
X208755547Y-62675000I252261J-431710D01*
G01*
X208755548Y-59675001D02*
G75*
G02*
X208503289Y-59606702I2J500009D01*
G01*
X210344453Y-62675001D02*
G75*
G02*
X210596711Y-62743300I-3J-500009D01*
G01*
X210596710Y-59606702D02*
G75*
G02*
X210344452Y-59675000I-252260J431712D01*
G01*
X210596711Y-59606704D02*
G75*
G02*
X211299480Y-60255279I252259J-431696D01*
G01*
X211249999Y-60472158D02*
G75*
G02*
X211299484Y-60255281I500351J-82D01*
G01*
X211299484Y-62094721D02*
G75*
G02*
X210596711Y-62743300I-450514J-216879D01*
G01*
X211299484Y-62094721D02*
G75*
G02*
X211249987Y-61877843I451016J217021D01*
G01*
%TO.C,LED55*%
X126887501Y-98572159D02*
X126887501Y-99977843D01*
X127793047Y-100775000D02*
X129381952Y-100775000D01*
X129381952Y-97775001D02*
X127793048Y-97775001D01*
X130287499Y-99977843D02*
X130287499Y-98572159D01*
X126838016Y-98355281D02*
G75*
G02*
X126887501Y-98572159I-450505J-216876D01*
G01*
X126838016Y-98355282D02*
G75*
G02*
X127540789Y-97706702I450514J216880D01*
G01*
X126887501Y-99977844D02*
G75*
G02*
X126838016Y-100194721I-499990J-1D01*
G01*
X127540789Y-100843299D02*
G75*
G02*
X126838017Y-100194721I-252258J431700D01*
G01*
X127540789Y-100843299D02*
G75*
G02*
X127793047Y-100775000I252261J-431710D01*
G01*
X127793048Y-97775001D02*
G75*
G02*
X127540789Y-97706702I2J500009D01*
G01*
X129381953Y-100775001D02*
G75*
G02*
X129634211Y-100843300I-3J-500009D01*
G01*
X129634210Y-97706702D02*
G75*
G02*
X129381952Y-97775000I-252260J431712D01*
G01*
X129634211Y-97706704D02*
G75*
G02*
X130336980Y-98355279I252259J-431696D01*
G01*
X130287499Y-98572158D02*
G75*
G02*
X130336984Y-98355281I500351J-82D01*
G01*
X130336984Y-100194721D02*
G75*
G02*
X129634211Y-100843300I-450514J-216879D01*
G01*
X130336984Y-100194721D02*
G75*
G02*
X130287487Y-99977843I451016J217021D01*
G01*
%TO.C,LED54*%
X107837501Y-98572159D02*
X107837501Y-99977843D01*
X108743047Y-100775000D02*
X110331952Y-100775000D01*
X110331952Y-97775001D02*
X108743048Y-97775001D01*
X111237499Y-99977843D02*
X111237499Y-98572159D01*
X107788016Y-98355281D02*
G75*
G02*
X107837501Y-98572159I-450505J-216876D01*
G01*
X107788016Y-98355282D02*
G75*
G02*
X108490789Y-97706702I450514J216880D01*
G01*
X107837501Y-99977844D02*
G75*
G02*
X107788016Y-100194721I-499990J-1D01*
G01*
X108490789Y-100843299D02*
G75*
G02*
X107788017Y-100194721I-252258J431700D01*
G01*
X108490789Y-100843299D02*
G75*
G02*
X108743047Y-100775000I252261J-431710D01*
G01*
X108743048Y-97775001D02*
G75*
G02*
X108490789Y-97706702I2J500009D01*
G01*
X110331953Y-100775001D02*
G75*
G02*
X110584211Y-100843300I-3J-500009D01*
G01*
X110584210Y-97706702D02*
G75*
G02*
X110331952Y-97775000I-252260J431712D01*
G01*
X110584211Y-97706704D02*
G75*
G02*
X111286980Y-98355279I252259J-431696D01*
G01*
X111237499Y-98572158D02*
G75*
G02*
X111286984Y-98355281I500351J-82D01*
G01*
X111286984Y-100194721D02*
G75*
G02*
X110584211Y-100843300I-450514J-216879D01*
G01*
X111286984Y-100194721D02*
G75*
G02*
X111237487Y-99977843I451016J217021D01*
G01*
%TO.C,LED12*%
X284050001Y-31897159D02*
X284050001Y-33302843D01*
X284955547Y-34100000D02*
X286544452Y-34100000D01*
X286544452Y-31100001D02*
X284955548Y-31100001D01*
X287449999Y-33302843D02*
X287449999Y-31897159D01*
X284000516Y-31680281D02*
G75*
G02*
X284050001Y-31897159I-450505J-216876D01*
G01*
X284000516Y-31680282D02*
G75*
G02*
X284703289Y-31031702I450514J216880D01*
G01*
X284050001Y-33302844D02*
G75*
G02*
X284000516Y-33519721I-499990J-1D01*
G01*
X284703289Y-34168299D02*
G75*
G02*
X284000517Y-33519721I-252258J431700D01*
G01*
X284703289Y-34168299D02*
G75*
G02*
X284955547Y-34100000I252261J-431710D01*
G01*
X284955548Y-31100001D02*
G75*
G02*
X284703289Y-31031702I2J500009D01*
G01*
X286544453Y-34100001D02*
G75*
G02*
X286796711Y-34168300I-3J-500009D01*
G01*
X286796710Y-31031702D02*
G75*
G02*
X286544452Y-31100000I-252260J431712D01*
G01*
X286796711Y-31031704D02*
G75*
G02*
X287499480Y-31680279I252259J-431696D01*
G01*
X287449999Y-31897158D02*
G75*
G02*
X287499484Y-31680281I500351J-82D01*
G01*
X287499484Y-33519721D02*
G75*
G02*
X286796711Y-34168300I-450514J-216879D01*
G01*
X287499484Y-33519721D02*
G75*
G02*
X287449987Y-33302843I451016J217021D01*
G01*
%TO.C,LED4*%
X112600001Y-31897159D02*
X112600001Y-33302843D01*
X113505547Y-34100000D02*
X115094452Y-34100000D01*
X115094452Y-31100001D02*
X113505548Y-31100001D01*
X115999999Y-33302843D02*
X115999999Y-31897159D01*
X112550516Y-31680281D02*
G75*
G02*
X112600001Y-31897159I-450505J-216876D01*
G01*
X112550516Y-31680282D02*
G75*
G02*
X113253289Y-31031702I450514J216880D01*
G01*
X112600001Y-33302844D02*
G75*
G02*
X112550516Y-33519721I-499990J-1D01*
G01*
X113253289Y-34168299D02*
G75*
G02*
X112550517Y-33519721I-252258J431700D01*
G01*
X113253289Y-34168299D02*
G75*
G02*
X113505547Y-34100000I252261J-431710D01*
G01*
X113505548Y-31100001D02*
G75*
G02*
X113253289Y-31031702I2J500009D01*
G01*
X115094453Y-34100001D02*
G75*
G02*
X115346711Y-34168300I-3J-500009D01*
G01*
X115346710Y-31031702D02*
G75*
G02*
X115094452Y-31100000I-252260J431712D01*
G01*
X115346711Y-31031704D02*
G75*
G02*
X116049480Y-31680279I252259J-431696D01*
G01*
X115999999Y-31897158D02*
G75*
G02*
X116049484Y-31680281I500351J-82D01*
G01*
X116049484Y-33519721D02*
G75*
G02*
X115346711Y-34168300I-450514J-216879D01*
G01*
X116049484Y-33519721D02*
G75*
G02*
X115999987Y-33302843I451016J217021D01*
G01*
%TO.C,LED52*%
X69737501Y-98572159D02*
X69737501Y-99977843D01*
X70643047Y-100775000D02*
X72231952Y-100775000D01*
X72231952Y-97775001D02*
X70643048Y-97775001D01*
X73137499Y-99977843D02*
X73137499Y-98572159D01*
X69688016Y-98355281D02*
G75*
G02*
X69737501Y-98572159I-450505J-216876D01*
G01*
X69688016Y-98355282D02*
G75*
G02*
X70390789Y-97706702I450514J216880D01*
G01*
X69737501Y-99977844D02*
G75*
G02*
X69688016Y-100194721I-499990J-1D01*
G01*
X70390789Y-100843299D02*
G75*
G02*
X69688017Y-100194721I-252258J431700D01*
G01*
X70390789Y-100843299D02*
G75*
G02*
X70643047Y-100775000I252261J-431710D01*
G01*
X70643048Y-97775001D02*
G75*
G02*
X70390789Y-97706702I2J500009D01*
G01*
X72231953Y-100775001D02*
G75*
G02*
X72484211Y-100843300I-3J-500009D01*
G01*
X72484210Y-97706702D02*
G75*
G02*
X72231952Y-97775000I-252260J431712D01*
G01*
X72484211Y-97706704D02*
G75*
G02*
X73186980Y-98355279I252259J-431696D01*
G01*
X73137499Y-98572158D02*
G75*
G02*
X73186984Y-98355281I500351J-82D01*
G01*
X73186984Y-100194721D02*
G75*
G02*
X72484211Y-100843300I-450514J-216879D01*
G01*
X73186984Y-100194721D02*
G75*
G02*
X73137487Y-99977843I451016J217021D01*
G01*
%TO.C,LED38*%
X122125001Y-79522159D02*
X122125001Y-80927843D01*
X123030547Y-81725000D02*
X124619452Y-81725000D01*
X124619452Y-78725001D02*
X123030548Y-78725001D01*
X125524999Y-80927843D02*
X125524999Y-79522159D01*
X122075516Y-79305281D02*
G75*
G02*
X122125001Y-79522159I-450505J-216876D01*
G01*
X122075516Y-79305282D02*
G75*
G02*
X122778289Y-78656702I450514J216880D01*
G01*
X122125001Y-80927844D02*
G75*
G02*
X122075516Y-81144721I-499990J-1D01*
G01*
X122778289Y-81793299D02*
G75*
G02*
X122075517Y-81144721I-252258J431700D01*
G01*
X122778289Y-81793299D02*
G75*
G02*
X123030547Y-81725000I252261J-431710D01*
G01*
X123030548Y-78725001D02*
G75*
G02*
X122778289Y-78656702I2J500009D01*
G01*
X124619453Y-81725001D02*
G75*
G02*
X124871711Y-81793300I-3J-500009D01*
G01*
X124871710Y-78656702D02*
G75*
G02*
X124619452Y-78725000I-252260J431712D01*
G01*
X124871711Y-78656704D02*
G75*
G02*
X125574480Y-79305279I252259J-431696D01*
G01*
X125524999Y-79522158D02*
G75*
G02*
X125574484Y-79305281I500351J-82D01*
G01*
X125574484Y-81144721D02*
G75*
G02*
X124871711Y-81793300I-450514J-216879D01*
G01*
X125574484Y-81144721D02*
G75*
G02*
X125524987Y-80927843I451016J217021D01*
G01*
%TO.C,LED5*%
X131650001Y-31897159D02*
X131650001Y-33302843D01*
X132555547Y-34100000D02*
X134144452Y-34100000D01*
X134144452Y-31100001D02*
X132555548Y-31100001D01*
X135049999Y-33302843D02*
X135049999Y-31897159D01*
X131600516Y-31680281D02*
G75*
G02*
X131650001Y-31897159I-450505J-216876D01*
G01*
X131600516Y-31680282D02*
G75*
G02*
X132303289Y-31031702I450514J216880D01*
G01*
X131650001Y-33302844D02*
G75*
G02*
X131600516Y-33519721I-499990J-1D01*
G01*
X132303289Y-34168299D02*
G75*
G02*
X131600517Y-33519721I-252258J431700D01*
G01*
X132303289Y-34168299D02*
G75*
G02*
X132555547Y-34100000I252261J-431710D01*
G01*
X132555548Y-31100001D02*
G75*
G02*
X132303289Y-31031702I2J500009D01*
G01*
X134144453Y-34100001D02*
G75*
G02*
X134396711Y-34168300I-3J-500009D01*
G01*
X134396710Y-31031702D02*
G75*
G02*
X134144452Y-31100000I-252260J431712D01*
G01*
X134396711Y-31031704D02*
G75*
G02*
X135099480Y-31680279I252259J-431696D01*
G01*
X135049999Y-31897158D02*
G75*
G02*
X135099484Y-31680281I500351J-82D01*
G01*
X135099484Y-33519721D02*
G75*
G02*
X134396711Y-34168300I-450514J-216879D01*
G01*
X135099484Y-33519721D02*
G75*
G02*
X135049987Y-33302843I451016J217021D01*
G01*
%TO.C,LED25*%
X188800001Y-60472159D02*
X188800001Y-61877843D01*
X189705547Y-62675000D02*
X191294452Y-62675000D01*
X191294452Y-59675001D02*
X189705548Y-59675001D01*
X192199999Y-61877843D02*
X192199999Y-60472159D01*
X188750516Y-60255281D02*
G75*
G02*
X188800001Y-60472159I-450505J-216876D01*
G01*
X188750516Y-60255282D02*
G75*
G02*
X189453289Y-59606702I450514J216880D01*
G01*
X188800001Y-61877844D02*
G75*
G02*
X188750516Y-62094721I-499990J-1D01*
G01*
X189453289Y-62743299D02*
G75*
G02*
X188750517Y-62094721I-252258J431700D01*
G01*
X189453289Y-62743299D02*
G75*
G02*
X189705547Y-62675000I252261J-431710D01*
G01*
X189705548Y-59675001D02*
G75*
G02*
X189453289Y-59606702I2J500009D01*
G01*
X191294453Y-62675001D02*
G75*
G02*
X191546711Y-62743300I-3J-500009D01*
G01*
X191546710Y-59606702D02*
G75*
G02*
X191294452Y-59675000I-252260J431712D01*
G01*
X191546711Y-59606704D02*
G75*
G02*
X192249480Y-60255279I252259J-431696D01*
G01*
X192199999Y-60472158D02*
G75*
G02*
X192249484Y-60255281I500351J-82D01*
G01*
X192249484Y-62094721D02*
G75*
G02*
X191546711Y-62743300I-450514J-216879D01*
G01*
X192249484Y-62094721D02*
G75*
G02*
X192199987Y-61877843I451016J217021D01*
G01*
%TO.C,LED61*%
X241187501Y-98572159D02*
X241187501Y-99977843D01*
X242093047Y-100775000D02*
X243681952Y-100775000D01*
X243681952Y-97775001D02*
X242093048Y-97775001D01*
X244587499Y-99977843D02*
X244587499Y-98572159D01*
X241138016Y-98355281D02*
G75*
G02*
X241187501Y-98572159I-450505J-216876D01*
G01*
X241138016Y-98355282D02*
G75*
G02*
X241840789Y-97706702I450514J216880D01*
G01*
X241187501Y-99977844D02*
G75*
G02*
X241138016Y-100194721I-499990J-1D01*
G01*
X241840789Y-100843299D02*
G75*
G02*
X241138017Y-100194721I-252258J431700D01*
G01*
X241840789Y-100843299D02*
G75*
G02*
X242093047Y-100775000I252261J-431710D01*
G01*
X242093048Y-97775001D02*
G75*
G02*
X241840789Y-97706702I2J500009D01*
G01*
X243681953Y-100775001D02*
G75*
G02*
X243934211Y-100843300I-3J-500009D01*
G01*
X243934210Y-97706702D02*
G75*
G02*
X243681952Y-97775000I-252260J431712D01*
G01*
X243934211Y-97706704D02*
G75*
G02*
X244636980Y-98355279I252259J-431696D01*
G01*
X244587499Y-98572158D02*
G75*
G02*
X244636984Y-98355281I500351J-82D01*
G01*
X244636984Y-100194721D02*
G75*
G02*
X243934211Y-100843300I-450514J-216879D01*
G01*
X244636984Y-100194721D02*
G75*
G02*
X244587487Y-99977843I451016J217021D01*
G01*
%TO.C,LED41*%
X179275001Y-79522159D02*
X179275001Y-80927843D01*
X180180547Y-81725000D02*
X181769452Y-81725000D01*
X181769452Y-78725001D02*
X180180548Y-78725001D01*
X182674999Y-80927843D02*
X182674999Y-79522159D01*
X179225516Y-79305281D02*
G75*
G02*
X179275001Y-79522159I-450505J-216876D01*
G01*
X179225516Y-79305282D02*
G75*
G02*
X179928289Y-78656702I450514J216880D01*
G01*
X179275001Y-80927844D02*
G75*
G02*
X179225516Y-81144721I-499990J-1D01*
G01*
X179928289Y-81793299D02*
G75*
G02*
X179225517Y-81144721I-252258J431700D01*
G01*
X179928289Y-81793299D02*
G75*
G02*
X180180547Y-81725000I252261J-431710D01*
G01*
X180180548Y-78725001D02*
G75*
G02*
X179928289Y-78656702I2J500009D01*
G01*
X181769453Y-81725001D02*
G75*
G02*
X182021711Y-81793300I-3J-500009D01*
G01*
X182021710Y-78656702D02*
G75*
G02*
X181769452Y-78725000I-252260J431712D01*
G01*
X182021711Y-78656704D02*
G75*
G02*
X182724480Y-79305279I252259J-431696D01*
G01*
X182674999Y-79522158D02*
G75*
G02*
X182724484Y-79305281I500351J-82D01*
G01*
X182724484Y-81144721D02*
G75*
G02*
X182021711Y-81793300I-450514J-216879D01*
G01*
X182724484Y-81144721D02*
G75*
G02*
X182674987Y-80927843I451016J217021D01*
G01*
%TO.C,LED83*%
X276906251Y-136672159D02*
X276906251Y-138077843D01*
X277811797Y-138875000D02*
X279400702Y-138875000D01*
X279400702Y-135875001D02*
X277811798Y-135875001D01*
X280306249Y-138077843D02*
X280306249Y-136672159D01*
X276856766Y-136455281D02*
G75*
G02*
X276906251Y-136672159I-450505J-216876D01*
G01*
X276856766Y-136455282D02*
G75*
G02*
X277559539Y-135806702I450514J216880D01*
G01*
X276906251Y-138077844D02*
G75*
G02*
X276856766Y-138294721I-499990J-1D01*
G01*
X277559539Y-138943299D02*
G75*
G02*
X276856767Y-138294721I-252258J431700D01*
G01*
X277559539Y-138943299D02*
G75*
G02*
X277811797Y-138875000I252261J-431710D01*
G01*
X277811798Y-135875001D02*
G75*
G02*
X277559539Y-135806702I2J500009D01*
G01*
X279400703Y-138875001D02*
G75*
G02*
X279652961Y-138943300I-3J-500009D01*
G01*
X279652960Y-135806702D02*
G75*
G02*
X279400702Y-135875000I-252260J431712D01*
G01*
X279652961Y-135806704D02*
G75*
G02*
X280355730Y-136455279I252259J-431696D01*
G01*
X280306249Y-136672158D02*
G75*
G02*
X280355734Y-136455281I500351J-82D01*
G01*
X280355734Y-138294721D02*
G75*
G02*
X279652961Y-138943300I-450514J-216879D01*
G01*
X280355734Y-138294721D02*
G75*
G02*
X280306237Y-138077843I451016J217021D01*
G01*
%TO.C,LED44*%
X236425001Y-79522159D02*
X236425001Y-80927843D01*
X237330547Y-81725000D02*
X238919452Y-81725000D01*
X238919452Y-78725001D02*
X237330548Y-78725001D01*
X239824999Y-80927843D02*
X239824999Y-79522159D01*
X236375516Y-79305281D02*
G75*
G02*
X236425001Y-79522159I-450505J-216876D01*
G01*
X236375516Y-79305282D02*
G75*
G02*
X237078289Y-78656702I450514J216880D01*
G01*
X236425001Y-80927844D02*
G75*
G02*
X236375516Y-81144721I-499990J-1D01*
G01*
X237078289Y-81793299D02*
G75*
G02*
X236375517Y-81144721I-252258J431700D01*
G01*
X237078289Y-81793299D02*
G75*
G02*
X237330547Y-81725000I252261J-431710D01*
G01*
X237330548Y-78725001D02*
G75*
G02*
X237078289Y-78656702I2J500009D01*
G01*
X238919453Y-81725001D02*
G75*
G02*
X239171711Y-81793300I-3J-500009D01*
G01*
X239171710Y-78656702D02*
G75*
G02*
X238919452Y-78725000I-252260J431712D01*
G01*
X239171711Y-78656704D02*
G75*
G02*
X239874480Y-79305279I252259J-431696D01*
G01*
X239824999Y-79522158D02*
G75*
G02*
X239874484Y-79305281I500351J-82D01*
G01*
X239874484Y-81144721D02*
G75*
G02*
X239171711Y-81793300I-450514J-216879D01*
G01*
X239874484Y-81144721D02*
G75*
G02*
X239824987Y-80927843I451016J217021D01*
G01*
%TO.C,LED9*%
X217375001Y-31897159D02*
X217375001Y-33302843D01*
X218280547Y-34100000D02*
X219869452Y-34100000D01*
X219869452Y-31100001D02*
X218280548Y-31100001D01*
X220774999Y-33302843D02*
X220774999Y-31897159D01*
X217325516Y-31680281D02*
G75*
G02*
X217375001Y-31897159I-450505J-216876D01*
G01*
X217325516Y-31680282D02*
G75*
G02*
X218028289Y-31031702I450514J216880D01*
G01*
X217375001Y-33302844D02*
G75*
G02*
X217325516Y-33519721I-499990J-1D01*
G01*
X218028289Y-34168299D02*
G75*
G02*
X217325517Y-33519721I-252258J431700D01*
G01*
X218028289Y-34168299D02*
G75*
G02*
X218280547Y-34100000I252261J-431710D01*
G01*
X218280548Y-31100001D02*
G75*
G02*
X218028289Y-31031702I2J500009D01*
G01*
X219869453Y-34100001D02*
G75*
G02*
X220121711Y-34168300I-3J-500009D01*
G01*
X220121710Y-31031702D02*
G75*
G02*
X219869452Y-31100000I-252260J431712D01*
G01*
X220121711Y-31031704D02*
G75*
G02*
X220824480Y-31680279I252259J-431696D01*
G01*
X220774999Y-31897158D02*
G75*
G02*
X220824484Y-31680281I500351J-82D01*
G01*
X220824484Y-33519721D02*
G75*
G02*
X220121711Y-34168300I-450514J-216879D01*
G01*
X220824484Y-33519721D02*
G75*
G02*
X220774987Y-33302843I451016J217021D01*
G01*
%TO.C,LED45*%
X255475001Y-79522159D02*
X255475001Y-80927843D01*
X256380547Y-81725000D02*
X257969452Y-81725000D01*
X257969452Y-78725001D02*
X256380548Y-78725001D01*
X258874999Y-80927843D02*
X258874999Y-79522159D01*
X255425516Y-79305281D02*
G75*
G02*
X255475001Y-79522159I-450505J-216876D01*
G01*
X255425516Y-79305282D02*
G75*
G02*
X256128289Y-78656702I450514J216880D01*
G01*
X255475001Y-80927844D02*
G75*
G02*
X255425516Y-81144721I-499990J-1D01*
G01*
X256128289Y-81793299D02*
G75*
G02*
X255425517Y-81144721I-252258J431700D01*
G01*
X256128289Y-81793299D02*
G75*
G02*
X256380547Y-81725000I252261J-431710D01*
G01*
X256380548Y-78725001D02*
G75*
G02*
X256128289Y-78656702I2J500009D01*
G01*
X257969453Y-81725001D02*
G75*
G02*
X258221711Y-81793300I-3J-500009D01*
G01*
X258221710Y-78656702D02*
G75*
G02*
X257969452Y-78725000I-252260J431712D01*
G01*
X258221711Y-78656704D02*
G75*
G02*
X258924480Y-79305279I252259J-431696D01*
G01*
X258874999Y-79522158D02*
G75*
G02*
X258924484Y-79305281I500351J-82D01*
G01*
X258924484Y-81144721D02*
G75*
G02*
X258221711Y-81793300I-450514J-216879D01*
G01*
X258924484Y-81144721D02*
G75*
G02*
X258874987Y-80927843I451016J217021D01*
G01*
%TO.C,LED14*%
X326912501Y-31897159D02*
X326912501Y-33302843D01*
X327818047Y-34100000D02*
X329406952Y-34100000D01*
X329406952Y-31100001D02*
X327818048Y-31100001D01*
X330312499Y-33302843D02*
X330312499Y-31897159D01*
X326863016Y-31680281D02*
G75*
G02*
X326912501Y-31897159I-450505J-216876D01*
G01*
X326863016Y-31680282D02*
G75*
G02*
X327565789Y-31031702I450514J216880D01*
G01*
X326912501Y-33302844D02*
G75*
G02*
X326863016Y-33519721I-499990J-1D01*
G01*
X327565789Y-34168299D02*
G75*
G02*
X326863017Y-33519721I-252258J431700D01*
G01*
X327565789Y-34168299D02*
G75*
G02*
X327818047Y-34100000I252261J-431710D01*
G01*
X327818048Y-31100001D02*
G75*
G02*
X327565789Y-31031702I2J500009D01*
G01*
X329406953Y-34100001D02*
G75*
G02*
X329659211Y-34168300I-3J-500009D01*
G01*
X329659210Y-31031702D02*
G75*
G02*
X329406952Y-31100000I-252260J431712D01*
G01*
X329659211Y-31031704D02*
G75*
G02*
X330361980Y-31680279I252259J-431696D01*
G01*
X330312499Y-31897158D02*
G75*
G02*
X330361984Y-31680281I500351J-82D01*
G01*
X330361984Y-33519721D02*
G75*
G02*
X329659211Y-34168300I-450514J-216879D01*
G01*
X330361984Y-33519721D02*
G75*
G02*
X330312487Y-33302843I451016J217021D01*
G01*
%TO.C,LED2*%
X74500001Y-31897159D02*
X74500001Y-33302843D01*
X75405547Y-34100000D02*
X76994452Y-34100000D01*
X76994452Y-31100001D02*
X75405548Y-31100001D01*
X77899999Y-33302843D02*
X77899999Y-31897159D01*
X74450516Y-31680281D02*
G75*
G02*
X74500001Y-31897159I-450505J-216876D01*
G01*
X74450516Y-31680282D02*
G75*
G02*
X75153289Y-31031702I450514J216880D01*
G01*
X74500001Y-33302844D02*
G75*
G02*
X74450516Y-33519721I-499990J-1D01*
G01*
X75153289Y-34168299D02*
G75*
G02*
X74450517Y-33519721I-252258J431700D01*
G01*
X75153289Y-34168299D02*
G75*
G02*
X75405547Y-34100000I252261J-431710D01*
G01*
X75405548Y-31100001D02*
G75*
G02*
X75153289Y-31031702I2J500009D01*
G01*
X76994453Y-34100001D02*
G75*
G02*
X77246711Y-34168300I-3J-500009D01*
G01*
X77246710Y-31031702D02*
G75*
G02*
X76994452Y-31100000I-252260J431712D01*
G01*
X77246711Y-31031704D02*
G75*
G02*
X77949480Y-31680279I252259J-431696D01*
G01*
X77899999Y-31897158D02*
G75*
G02*
X77949484Y-31680281I500351J-82D01*
G01*
X77949484Y-33519721D02*
G75*
G02*
X77246711Y-34168300I-450514J-216879D01*
G01*
X77949484Y-33519721D02*
G75*
G02*
X77899987Y-33302843I451016J217021D01*
G01*
%TO.C,LED13*%
X303100001Y-31897159D02*
X303100001Y-33302843D01*
X304005547Y-34100000D02*
X305594452Y-34100000D01*
X305594452Y-31100001D02*
X304005548Y-31100001D01*
X306499999Y-33302843D02*
X306499999Y-31897159D01*
X303050516Y-31680281D02*
G75*
G02*
X303100001Y-31897159I-450505J-216876D01*
G01*
X303050516Y-31680282D02*
G75*
G02*
X303753289Y-31031702I450514J216880D01*
G01*
X303100001Y-33302844D02*
G75*
G02*
X303050516Y-33519721I-499990J-1D01*
G01*
X303753289Y-34168299D02*
G75*
G02*
X303050517Y-33519721I-252258J431700D01*
G01*
X303753289Y-34168299D02*
G75*
G02*
X304005547Y-34100000I252261J-431710D01*
G01*
X304005548Y-31100001D02*
G75*
G02*
X303753289Y-31031702I2J500009D01*
G01*
X305594453Y-34100001D02*
G75*
G02*
X305846711Y-34168300I-3J-500009D01*
G01*
X305846710Y-31031702D02*
G75*
G02*
X305594452Y-31100000I-252260J431712D01*
G01*
X305846711Y-31031704D02*
G75*
G02*
X306549480Y-31680279I252259J-431696D01*
G01*
X306499999Y-31897158D02*
G75*
G02*
X306549484Y-31680281I500351J-82D01*
G01*
X306549484Y-33519721D02*
G75*
G02*
X305846711Y-34168300I-450514J-216879D01*
G01*
X306549484Y-33519721D02*
G75*
G02*
X306499987Y-33302843I451016J217021D01*
G01*
%TO.C,LED72*%
X212612501Y-117622159D02*
X212612501Y-119027843D01*
X213518047Y-119825000D02*
X215106952Y-119825000D01*
X215106952Y-116825001D02*
X213518048Y-116825001D01*
X216012499Y-119027843D02*
X216012499Y-117622159D01*
X212563016Y-117405281D02*
G75*
G02*
X212612501Y-117622159I-450505J-216876D01*
G01*
X212563016Y-117405282D02*
G75*
G02*
X213265789Y-116756702I450514J216880D01*
G01*
X212612501Y-119027844D02*
G75*
G02*
X212563016Y-119244721I-499990J-1D01*
G01*
X213265789Y-119893299D02*
G75*
G02*
X212563017Y-119244721I-252258J431700D01*
G01*
X213265789Y-119893299D02*
G75*
G02*
X213518047Y-119825000I252261J-431710D01*
G01*
X213518048Y-116825001D02*
G75*
G02*
X213265789Y-116756702I2J500009D01*
G01*
X215106953Y-119825001D02*
G75*
G02*
X215359211Y-119893300I-3J-500009D01*
G01*
X215359210Y-116756702D02*
G75*
G02*
X215106952Y-116825000I-252260J431712D01*
G01*
X215359211Y-116756704D02*
G75*
G02*
X216061980Y-117405279I252259J-431696D01*
G01*
X216012499Y-117622158D02*
G75*
G02*
X216061984Y-117405281I500351J-82D01*
G01*
X216061984Y-119244721D02*
G75*
G02*
X215359211Y-119893300I-450514J-216879D01*
G01*
X216061984Y-119244721D02*
G75*
G02*
X216012487Y-119027843I451016J217021D01*
G01*
%TO.C,LED10*%
X245950001Y-31897159D02*
X245950001Y-33302843D01*
X246855547Y-34100000D02*
X248444452Y-34100000D01*
X248444452Y-31100001D02*
X246855548Y-31100001D01*
X249349999Y-33302843D02*
X249349999Y-31897159D01*
X245900516Y-31680281D02*
G75*
G02*
X245950001Y-31897159I-450505J-216876D01*
G01*
X245900516Y-31680282D02*
G75*
G02*
X246603289Y-31031702I450514J216880D01*
G01*
X245950001Y-33302844D02*
G75*
G02*
X245900516Y-33519721I-499990J-1D01*
G01*
X246603289Y-34168299D02*
G75*
G02*
X245900517Y-33519721I-252258J431700D01*
G01*
X246603289Y-34168299D02*
G75*
G02*
X246855547Y-34100000I252261J-431710D01*
G01*
X246855548Y-31100001D02*
G75*
G02*
X246603289Y-31031702I2J500009D01*
G01*
X248444453Y-34100001D02*
G75*
G02*
X248696711Y-34168300I-3J-500009D01*
G01*
X248696710Y-31031702D02*
G75*
G02*
X248444452Y-31100000I-252260J431712D01*
G01*
X248696711Y-31031704D02*
G75*
G02*
X249399480Y-31680279I252259J-431696D01*
G01*
X249349999Y-31897158D02*
G75*
G02*
X249399484Y-31680281I500351J-82D01*
G01*
X249399484Y-33519721D02*
G75*
G02*
X248696711Y-34168300I-450514J-216879D01*
G01*
X249399484Y-33519721D02*
G75*
G02*
X249349987Y-33302843I451016J217021D01*
G01*
%TO.C,LED39*%
X141175001Y-79522159D02*
X141175001Y-80927843D01*
X142080547Y-81725000D02*
X143669452Y-81725000D01*
X143669452Y-78725001D02*
X142080548Y-78725001D01*
X144574999Y-80927843D02*
X144574999Y-79522159D01*
X141125516Y-79305281D02*
G75*
G02*
X141175001Y-79522159I-450505J-216876D01*
G01*
X141125516Y-79305282D02*
G75*
G02*
X141828289Y-78656702I450514J216880D01*
G01*
X141175001Y-80927844D02*
G75*
G02*
X141125516Y-81144721I-499990J-1D01*
G01*
X141828289Y-81793299D02*
G75*
G02*
X141125517Y-81144721I-252258J431700D01*
G01*
X141828289Y-81793299D02*
G75*
G02*
X142080547Y-81725000I252261J-431710D01*
G01*
X142080548Y-78725001D02*
G75*
G02*
X141828289Y-78656702I2J500009D01*
G01*
X143669453Y-81725001D02*
G75*
G02*
X143921711Y-81793300I-3J-500009D01*
G01*
X143921710Y-78656702D02*
G75*
G02*
X143669452Y-78725000I-252260J431712D01*
G01*
X143921711Y-78656704D02*
G75*
G02*
X144624480Y-79305279I252259J-431696D01*
G01*
X144574999Y-79522158D02*
G75*
G02*
X144624484Y-79305281I500351J-82D01*
G01*
X144624484Y-81144721D02*
G75*
G02*
X143921711Y-81793300I-450514J-216879D01*
G01*
X144624484Y-81144721D02*
G75*
G02*
X144574987Y-80927843I451016J217021D01*
G01*
%TO.C,LED49*%
X345962501Y-79522159D02*
X345962501Y-80927843D01*
X346868047Y-81725000D02*
X348456952Y-81725000D01*
X348456952Y-78725001D02*
X346868048Y-78725001D01*
X349362499Y-80927843D02*
X349362499Y-79522159D01*
X345913016Y-79305281D02*
G75*
G02*
X345962501Y-79522159I-450505J-216876D01*
G01*
X345913016Y-79305282D02*
G75*
G02*
X346615789Y-78656702I450514J216880D01*
G01*
X345962501Y-80927844D02*
G75*
G02*
X345913016Y-81144721I-499990J-1D01*
G01*
X346615789Y-81793299D02*
G75*
G02*
X345913017Y-81144721I-252258J431700D01*
G01*
X346615789Y-81793299D02*
G75*
G02*
X346868047Y-81725000I252261J-431710D01*
G01*
X346868048Y-78725001D02*
G75*
G02*
X346615789Y-78656702I2J500009D01*
G01*
X348456953Y-81725001D02*
G75*
G02*
X348709211Y-81793300I-3J-500009D01*
G01*
X348709210Y-78656702D02*
G75*
G02*
X348456952Y-78725000I-252260J431712D01*
G01*
X348709211Y-78656704D02*
G75*
G02*
X349411980Y-79305279I252259J-431696D01*
G01*
X349362499Y-79522158D02*
G75*
G02*
X349411984Y-79305281I500351J-82D01*
G01*
X349411984Y-81144721D02*
G75*
G02*
X348709211Y-81793300I-450514J-216879D01*
G01*
X349411984Y-81144721D02*
G75*
G02*
X349362487Y-80927843I451016J217021D01*
G01*
%TO.C,LED37*%
X103075001Y-79522159D02*
X103075001Y-80927843D01*
X103980547Y-81725000D02*
X105569452Y-81725000D01*
X105569452Y-78725001D02*
X103980548Y-78725001D01*
X106474999Y-80927843D02*
X106474999Y-79522159D01*
X103025516Y-79305281D02*
G75*
G02*
X103075001Y-79522159I-450505J-216876D01*
G01*
X103025516Y-79305282D02*
G75*
G02*
X103728289Y-78656702I450514J216880D01*
G01*
X103075001Y-80927844D02*
G75*
G02*
X103025516Y-81144721I-499990J-1D01*
G01*
X103728289Y-81793299D02*
G75*
G02*
X103025517Y-81144721I-252258J431700D01*
G01*
X103728289Y-81793299D02*
G75*
G02*
X103980547Y-81725000I252261J-431710D01*
G01*
X103980548Y-78725001D02*
G75*
G02*
X103728289Y-78656702I2J500009D01*
G01*
X105569453Y-81725001D02*
G75*
G02*
X105821711Y-81793300I-3J-500009D01*
G01*
X105821710Y-78656702D02*
G75*
G02*
X105569452Y-78725000I-252260J431712D01*
G01*
X105821711Y-78656704D02*
G75*
G02*
X106524480Y-79305279I252259J-431696D01*
G01*
X106474999Y-79522158D02*
G75*
G02*
X106524484Y-79305281I500351J-82D01*
G01*
X106524484Y-81144721D02*
G75*
G02*
X105821711Y-81793300I-450514J-216879D01*
G01*
X106524484Y-81144721D02*
G75*
G02*
X106474987Y-80927843I451016J217021D01*
G01*
%TO.C,LED82*%
X253093751Y-136672159D02*
X253093751Y-138077843D01*
X253999297Y-138875000D02*
X255588202Y-138875000D01*
X255588202Y-135875001D02*
X253999298Y-135875001D01*
X256493749Y-138077843D02*
X256493749Y-136672159D01*
X253044266Y-136455281D02*
G75*
G02*
X253093751Y-136672159I-450505J-216876D01*
G01*
X253044266Y-136455282D02*
G75*
G02*
X253747039Y-135806702I450514J216880D01*
G01*
X253093751Y-138077844D02*
G75*
G02*
X253044266Y-138294721I-499990J-1D01*
G01*
X253747039Y-138943299D02*
G75*
G02*
X253044267Y-138294721I-252258J431700D01*
G01*
X253747039Y-138943299D02*
G75*
G02*
X253999297Y-138875000I252261J-431710D01*
G01*
X253999298Y-135875001D02*
G75*
G02*
X253747039Y-135806702I2J500009D01*
G01*
X255588203Y-138875001D02*
G75*
G02*
X255840461Y-138943300I-3J-500009D01*
G01*
X255840460Y-135806702D02*
G75*
G02*
X255588202Y-135875000I-252260J431712D01*
G01*
X255840461Y-135806704D02*
G75*
G02*
X256543230Y-136455279I252259J-431696D01*
G01*
X256493749Y-136672158D02*
G75*
G02*
X256543234Y-136455281I500351J-82D01*
G01*
X256543234Y-138294721D02*
G75*
G02*
X255840461Y-138943300I-450514J-216879D01*
G01*
X256543234Y-138294721D02*
G75*
G02*
X256493737Y-138077843I451016J217021D01*
G01*
%TO.C,LED73*%
X231662501Y-117622159D02*
X231662501Y-119027843D01*
X232568047Y-119825000D02*
X234156952Y-119825000D01*
X234156952Y-116825001D02*
X232568048Y-116825001D01*
X235062499Y-119027843D02*
X235062499Y-117622159D01*
X231613016Y-117405281D02*
G75*
G02*
X231662501Y-117622159I-450505J-216876D01*
G01*
X231613016Y-117405282D02*
G75*
G02*
X232315789Y-116756702I450514J216880D01*
G01*
X231662501Y-119027844D02*
G75*
G02*
X231613016Y-119244721I-499990J-1D01*
G01*
X232315789Y-119893299D02*
G75*
G02*
X231613017Y-119244721I-252258J431700D01*
G01*
X232315789Y-119893299D02*
G75*
G02*
X232568047Y-119825000I252261J-431710D01*
G01*
X232568048Y-116825001D02*
G75*
G02*
X232315789Y-116756702I2J500009D01*
G01*
X234156953Y-119825001D02*
G75*
G02*
X234409211Y-119893300I-3J-500009D01*
G01*
X234409210Y-116756702D02*
G75*
G02*
X234156952Y-116825000I-252260J431712D01*
G01*
X234409211Y-116756704D02*
G75*
G02*
X235111980Y-117405279I252259J-431696D01*
G01*
X235062499Y-117622158D02*
G75*
G02*
X235111984Y-117405281I500351J-82D01*
G01*
X235111984Y-119244721D02*
G75*
G02*
X234409211Y-119893300I-450514J-216879D01*
G01*
X235111984Y-119244721D02*
G75*
G02*
X235062487Y-119027843I451016J217021D01*
G01*
%TO.C,LED59*%
X203087501Y-98572159D02*
X203087501Y-99977843D01*
X203993047Y-100775000D02*
X205581952Y-100775000D01*
X205581952Y-97775001D02*
X203993048Y-97775001D01*
X206487499Y-99977843D02*
X206487499Y-98572159D01*
X203038016Y-98355281D02*
G75*
G02*
X203087501Y-98572159I-450505J-216876D01*
G01*
X203038016Y-98355282D02*
G75*
G02*
X203740789Y-97706702I450514J216880D01*
G01*
X203087501Y-99977844D02*
G75*
G02*
X203038016Y-100194721I-499990J-1D01*
G01*
X203740789Y-100843299D02*
G75*
G02*
X203038017Y-100194721I-252258J431700D01*
G01*
X203740789Y-100843299D02*
G75*
G02*
X203993047Y-100775000I252261J-431710D01*
G01*
X203993048Y-97775001D02*
G75*
G02*
X203740789Y-97706702I2J500009D01*
G01*
X205581953Y-100775001D02*
G75*
G02*
X205834211Y-100843300I-3J-500009D01*
G01*
X205834210Y-97706702D02*
G75*
G02*
X205581952Y-97775000I-252260J431712D01*
G01*
X205834211Y-97706704D02*
G75*
G02*
X206536980Y-98355279I252259J-431696D01*
G01*
X206487499Y-98572158D02*
G75*
G02*
X206536984Y-98355281I500351J-82D01*
G01*
X206536984Y-100194721D02*
G75*
G02*
X205834211Y-100843300I-450514J-216879D01*
G01*
X206536984Y-100194721D02*
G75*
G02*
X206487487Y-99977843I451016J217021D01*
G01*
%TO.C,LED67*%
X117362501Y-117622159D02*
X117362501Y-119027843D01*
X118268047Y-119825000D02*
X119856952Y-119825000D01*
X119856952Y-116825001D02*
X118268048Y-116825001D01*
X120762499Y-119027843D02*
X120762499Y-117622159D01*
X117313016Y-117405281D02*
G75*
G02*
X117362501Y-117622159I-450505J-216876D01*
G01*
X117313016Y-117405282D02*
G75*
G02*
X118015789Y-116756702I450514J216880D01*
G01*
X117362501Y-119027844D02*
G75*
G02*
X117313016Y-119244721I-499990J-1D01*
G01*
X118015789Y-119893299D02*
G75*
G02*
X117313017Y-119244721I-252258J431700D01*
G01*
X118015789Y-119893299D02*
G75*
G02*
X118268047Y-119825000I252261J-431710D01*
G01*
X118268048Y-116825001D02*
G75*
G02*
X118015789Y-116756702I2J500009D01*
G01*
X119856953Y-119825001D02*
G75*
G02*
X120109211Y-119893300I-3J-500009D01*
G01*
X120109210Y-116756702D02*
G75*
G02*
X119856952Y-116825000I-252260J431712D01*
G01*
X120109211Y-116756704D02*
G75*
G02*
X120811980Y-117405279I252259J-431696D01*
G01*
X120762499Y-117622158D02*
G75*
G02*
X120811984Y-117405281I500351J-82D01*
G01*
X120811984Y-119244721D02*
G75*
G02*
X120109211Y-119893300I-450514J-216879D01*
G01*
X120811984Y-119244721D02*
G75*
G02*
X120762487Y-119027843I451016J217021D01*
G01*
%TO.C,LED46*%
X274525001Y-79522159D02*
X274525001Y-80927843D01*
X275430547Y-81725000D02*
X277019452Y-81725000D01*
X277019452Y-78725001D02*
X275430548Y-78725001D01*
X277924999Y-80927843D02*
X277924999Y-79522159D01*
X274475516Y-79305281D02*
G75*
G02*
X274525001Y-79522159I-450505J-216876D01*
G01*
X274475516Y-79305282D02*
G75*
G02*
X275178289Y-78656702I450514J216880D01*
G01*
X274525001Y-80927844D02*
G75*
G02*
X274475516Y-81144721I-499990J-1D01*
G01*
X275178289Y-81793299D02*
G75*
G02*
X274475517Y-81144721I-252258J431700D01*
G01*
X275178289Y-81793299D02*
G75*
G02*
X275430547Y-81725000I252261J-431710D01*
G01*
X275430548Y-78725001D02*
G75*
G02*
X275178289Y-78656702I2J500009D01*
G01*
X277019453Y-81725001D02*
G75*
G02*
X277271711Y-81793300I-3J-500009D01*
G01*
X277271710Y-78656702D02*
G75*
G02*
X277019452Y-78725000I-252260J431712D01*
G01*
X277271711Y-78656704D02*
G75*
G02*
X277974480Y-79305279I252259J-431696D01*
G01*
X277924999Y-79522158D02*
G75*
G02*
X277974484Y-79305281I500351J-82D01*
G01*
X277974484Y-81144721D02*
G75*
G02*
X277271711Y-81793300I-450514J-216879D01*
G01*
X277974484Y-81144721D02*
G75*
G02*
X277924987Y-80927843I451016J217021D01*
G01*
%TO.C,LED65*%
X79262501Y-117622159D02*
X79262501Y-119027843D01*
X80168047Y-119825000D02*
X81756952Y-119825000D01*
X81756952Y-116825001D02*
X80168048Y-116825001D01*
X82662499Y-119027843D02*
X82662499Y-117622159D01*
X79213016Y-117405281D02*
G75*
G02*
X79262501Y-117622159I-450505J-216876D01*
G01*
X79213016Y-117405282D02*
G75*
G02*
X79915789Y-116756702I450514J216880D01*
G01*
X79262501Y-119027844D02*
G75*
G02*
X79213016Y-119244721I-499990J-1D01*
G01*
X79915789Y-119893299D02*
G75*
G02*
X79213017Y-119244721I-252258J431700D01*
G01*
X79915789Y-119893299D02*
G75*
G02*
X80168047Y-119825000I252261J-431710D01*
G01*
X80168048Y-116825001D02*
G75*
G02*
X79915789Y-116756702I2J500009D01*
G01*
X81756953Y-119825001D02*
G75*
G02*
X82009211Y-119893300I-3J-500009D01*
G01*
X82009210Y-116756702D02*
G75*
G02*
X81756952Y-116825000I-252260J431712D01*
G01*
X82009211Y-116756704D02*
G75*
G02*
X82711980Y-117405279I252259J-431696D01*
G01*
X82662499Y-117622158D02*
G75*
G02*
X82711984Y-117405281I500351J-82D01*
G01*
X82711984Y-119244721D02*
G75*
G02*
X82009211Y-119893300I-450514J-216879D01*
G01*
X82711984Y-119244721D02*
G75*
G02*
X82662487Y-119027843I451016J217021D01*
G01*
%TO.C,LED8*%
X198325001Y-31897159D02*
X198325001Y-33302843D01*
X199230547Y-34100000D02*
X200819452Y-34100000D01*
X200819452Y-31100001D02*
X199230548Y-31100001D01*
X201724999Y-33302843D02*
X201724999Y-31897159D01*
X198275516Y-31680281D02*
G75*
G02*
X198325001Y-31897159I-450505J-216876D01*
G01*
X198275516Y-31680282D02*
G75*
G02*
X198978289Y-31031702I450514J216880D01*
G01*
X198325001Y-33302844D02*
G75*
G02*
X198275516Y-33519721I-499990J-1D01*
G01*
X198978289Y-34168299D02*
G75*
G02*
X198275517Y-33519721I-252258J431700D01*
G01*
X198978289Y-34168299D02*
G75*
G02*
X199230547Y-34100000I252261J-431710D01*
G01*
X199230548Y-31100001D02*
G75*
G02*
X198978289Y-31031702I2J500009D01*
G01*
X200819453Y-34100001D02*
G75*
G02*
X201071711Y-34168300I-3J-500009D01*
G01*
X201071710Y-31031702D02*
G75*
G02*
X200819452Y-31100000I-252260J431712D01*
G01*
X201071711Y-31031704D02*
G75*
G02*
X201774480Y-31680279I252259J-431696D01*
G01*
X201724999Y-31897158D02*
G75*
G02*
X201774484Y-31680281I500351J-82D01*
G01*
X201774484Y-33519721D02*
G75*
G02*
X201071711Y-34168300I-450514J-216879D01*
G01*
X201774484Y-33519721D02*
G75*
G02*
X201724987Y-33302843I451016J217021D01*
G01*
%TO.C,LED56*%
X145937501Y-98572159D02*
X145937501Y-99977843D01*
X146843047Y-100775000D02*
X148431952Y-100775000D01*
X148431952Y-97775001D02*
X146843048Y-97775001D01*
X149337499Y-99977843D02*
X149337499Y-98572159D01*
X145888016Y-98355281D02*
G75*
G02*
X145937501Y-98572159I-450505J-216876D01*
G01*
X145888016Y-98355282D02*
G75*
G02*
X146590789Y-97706702I450514J216880D01*
G01*
X145937501Y-99977844D02*
G75*
G02*
X145888016Y-100194721I-499990J-1D01*
G01*
X146590789Y-100843299D02*
G75*
G02*
X145888017Y-100194721I-252258J431700D01*
G01*
X146590789Y-100843299D02*
G75*
G02*
X146843047Y-100775000I252261J-431710D01*
G01*
X146843048Y-97775001D02*
G75*
G02*
X146590789Y-97706702I2J500009D01*
G01*
X148431953Y-100775001D02*
G75*
G02*
X148684211Y-100843300I-3J-500009D01*
G01*
X148684210Y-97706702D02*
G75*
G02*
X148431952Y-97775000I-252260J431712D01*
G01*
X148684211Y-97706704D02*
G75*
G02*
X149386980Y-98355279I252259J-431696D01*
G01*
X149337499Y-98572158D02*
G75*
G02*
X149386984Y-98355281I500351J-82D01*
G01*
X149386984Y-100194721D02*
G75*
G02*
X148684211Y-100843300I-450514J-216879D01*
G01*
X149386984Y-100194721D02*
G75*
G02*
X149337487Y-99977843I451016J217021D01*
G01*
%TO.C,LED3*%
X93550001Y-31897159D02*
X93550001Y-33302843D01*
X94455547Y-34100000D02*
X96044452Y-34100000D01*
X96044452Y-31100001D02*
X94455548Y-31100001D01*
X96949999Y-33302843D02*
X96949999Y-31897159D01*
X93500516Y-31680281D02*
G75*
G02*
X93550001Y-31897159I-450505J-216876D01*
G01*
X93500516Y-31680282D02*
G75*
G02*
X94203289Y-31031702I450514J216880D01*
G01*
X93550001Y-33302844D02*
G75*
G02*
X93500516Y-33519721I-499990J-1D01*
G01*
X94203289Y-34168299D02*
G75*
G02*
X93500517Y-33519721I-252258J431700D01*
G01*
X94203289Y-34168299D02*
G75*
G02*
X94455547Y-34100000I252261J-431710D01*
G01*
X94455548Y-31100001D02*
G75*
G02*
X94203289Y-31031702I2J500009D01*
G01*
X96044453Y-34100001D02*
G75*
G02*
X96296711Y-34168300I-3J-500009D01*
G01*
X96296710Y-31031702D02*
G75*
G02*
X96044452Y-31100000I-252260J431712D01*
G01*
X96296711Y-31031704D02*
G75*
G02*
X96999480Y-31680279I252259J-431696D01*
G01*
X96949999Y-31897158D02*
G75*
G02*
X96999484Y-31680281I500351J-82D01*
G01*
X96999484Y-33519721D02*
G75*
G02*
X96296711Y-34168300I-450514J-216879D01*
G01*
X96999484Y-33519721D02*
G75*
G02*
X96949987Y-33302843I451016J217021D01*
G01*
%TO.C,LED84*%
X300718751Y-136672159D02*
X300718751Y-138077843D01*
X301624297Y-138875000D02*
X303213202Y-138875000D01*
X303213202Y-135875001D02*
X301624298Y-135875001D01*
X304118749Y-138077843D02*
X304118749Y-136672159D01*
X300669266Y-136455281D02*
G75*
G02*
X300718751Y-136672159I-450505J-216876D01*
G01*
X300669266Y-136455282D02*
G75*
G02*
X301372039Y-135806702I450514J216880D01*
G01*
X300718751Y-138077844D02*
G75*
G02*
X300669266Y-138294721I-499990J-1D01*
G01*
X301372039Y-138943299D02*
G75*
G02*
X300669267Y-138294721I-252258J431700D01*
G01*
X301372039Y-138943299D02*
G75*
G02*
X301624297Y-138875000I252261J-431710D01*
G01*
X301624298Y-135875001D02*
G75*
G02*
X301372039Y-135806702I2J500009D01*
G01*
X303213203Y-138875001D02*
G75*
G02*
X303465461Y-138943300I-3J-500009D01*
G01*
X303465460Y-135806702D02*
G75*
G02*
X303213202Y-135875000I-252260J431712D01*
G01*
X303465461Y-135806704D02*
G75*
G02*
X304168230Y-136455279I252259J-431696D01*
G01*
X304118749Y-136672158D02*
G75*
G02*
X304168234Y-136455281I500351J-82D01*
G01*
X304168234Y-138294721D02*
G75*
G02*
X303465461Y-138943300I-450514J-216879D01*
G01*
X304168234Y-138294721D02*
G75*
G02*
X304118737Y-138077843I451016J217021D01*
G01*
%TO.C,LED64*%
X48306251Y-117622159D02*
X48306251Y-119027843D01*
X49211797Y-119825000D02*
X50800702Y-119825000D01*
X50800702Y-116825001D02*
X49211798Y-116825001D01*
X51706249Y-119027843D02*
X51706249Y-117622159D01*
X48256766Y-117405281D02*
G75*
G02*
X48306251Y-117622159I-450505J-216876D01*
G01*
X48256766Y-117405282D02*
G75*
G02*
X48959539Y-116756702I450514J216880D01*
G01*
X48306251Y-119027844D02*
G75*
G02*
X48256766Y-119244721I-499990J-1D01*
G01*
X48959539Y-119893299D02*
G75*
G02*
X48256767Y-119244721I-252258J431700D01*
G01*
X48959539Y-119893299D02*
G75*
G02*
X49211797Y-119825000I252261J-431710D01*
G01*
X49211798Y-116825001D02*
G75*
G02*
X48959539Y-116756702I2J500009D01*
G01*
X50800703Y-119825001D02*
G75*
G02*
X51052961Y-119893300I-3J-500009D01*
G01*
X51052960Y-116756702D02*
G75*
G02*
X50800702Y-116825000I-252260J431712D01*
G01*
X51052961Y-116756704D02*
G75*
G02*
X51755730Y-117405279I252259J-431696D01*
G01*
X51706249Y-117622158D02*
G75*
G02*
X51755734Y-117405281I500351J-82D01*
G01*
X51755734Y-119244721D02*
G75*
G02*
X51052961Y-119893300I-450514J-216879D01*
G01*
X51755734Y-119244721D02*
G75*
G02*
X51706237Y-119027843I451016J217021D01*
G01*
%TO.C,LED21*%
X112600001Y-60472159D02*
X112600001Y-61877843D01*
X113505547Y-62675000D02*
X115094452Y-62675000D01*
X115094452Y-59675001D02*
X113505548Y-59675001D01*
X115999999Y-61877843D02*
X115999999Y-60472159D01*
X112550516Y-60255281D02*
G75*
G02*
X112600001Y-60472159I-450505J-216876D01*
G01*
X112550516Y-60255282D02*
G75*
G02*
X113253289Y-59606702I450514J216880D01*
G01*
X112600001Y-61877844D02*
G75*
G02*
X112550516Y-62094721I-499990J-1D01*
G01*
X113253289Y-62743299D02*
G75*
G02*
X112550517Y-62094721I-252258J431700D01*
G01*
X113253289Y-62743299D02*
G75*
G02*
X113505547Y-62675000I252261J-431710D01*
G01*
X113505548Y-59675001D02*
G75*
G02*
X113253289Y-59606702I2J500009D01*
G01*
X115094453Y-62675001D02*
G75*
G02*
X115346711Y-62743300I-3J-500009D01*
G01*
X115346710Y-59606702D02*
G75*
G02*
X115094452Y-59675000I-252260J431712D01*
G01*
X115346711Y-59606704D02*
G75*
G02*
X116049480Y-60255279I252259J-431696D01*
G01*
X115999999Y-60472158D02*
G75*
G02*
X116049484Y-60255281I500351J-82D01*
G01*
X116049484Y-62094721D02*
G75*
G02*
X115346711Y-62743300I-450514J-216879D01*
G01*
X116049484Y-62094721D02*
G75*
G02*
X115999987Y-61877843I451016J217021D01*
G01*
%TO.C,LED27*%
X226900001Y-60472159D02*
X226900001Y-61877843D01*
X227805547Y-62675000D02*
X229394452Y-62675000D01*
X229394452Y-59675001D02*
X227805548Y-59675001D01*
X230299999Y-61877843D02*
X230299999Y-60472159D01*
X226850516Y-60255281D02*
G75*
G02*
X226900001Y-60472159I-450505J-216876D01*
G01*
X226850516Y-60255282D02*
G75*
G02*
X227553289Y-59606702I450514J216880D01*
G01*
X226900001Y-61877844D02*
G75*
G02*
X226850516Y-62094721I-499990J-1D01*
G01*
X227553289Y-62743299D02*
G75*
G02*
X226850517Y-62094721I-252258J431700D01*
G01*
X227553289Y-62743299D02*
G75*
G02*
X227805547Y-62675000I252261J-431710D01*
G01*
X227805548Y-59675001D02*
G75*
G02*
X227553289Y-59606702I2J500009D01*
G01*
X229394453Y-62675001D02*
G75*
G02*
X229646711Y-62743300I-3J-500009D01*
G01*
X229646710Y-59606702D02*
G75*
G02*
X229394452Y-59675000I-252260J431712D01*
G01*
X229646711Y-59606704D02*
G75*
G02*
X230349480Y-60255279I252259J-431696D01*
G01*
X230299999Y-60472158D02*
G75*
G02*
X230349484Y-60255281I500351J-82D01*
G01*
X230349484Y-62094721D02*
G75*
G02*
X229646711Y-62743300I-450514J-216879D01*
G01*
X230349484Y-62094721D02*
G75*
G02*
X230299987Y-61877843I451016J217021D01*
G01*
%TO.C,LED68*%
X136412501Y-117622159D02*
X136412501Y-119027843D01*
X137318047Y-119825000D02*
X138906952Y-119825000D01*
X138906952Y-116825001D02*
X137318048Y-116825001D01*
X139812499Y-119027843D02*
X139812499Y-117622159D01*
X136363016Y-117405281D02*
G75*
G02*
X136412501Y-117622159I-450505J-216876D01*
G01*
X136363016Y-117405282D02*
G75*
G02*
X137065789Y-116756702I450514J216880D01*
G01*
X136412501Y-119027844D02*
G75*
G02*
X136363016Y-119244721I-499990J-1D01*
G01*
X137065789Y-119893299D02*
G75*
G02*
X136363017Y-119244721I-252258J431700D01*
G01*
X137065789Y-119893299D02*
G75*
G02*
X137318047Y-119825000I252261J-431710D01*
G01*
X137318048Y-116825001D02*
G75*
G02*
X137065789Y-116756702I2J500009D01*
G01*
X138906953Y-119825001D02*
G75*
G02*
X139159211Y-119893300I-3J-500009D01*
G01*
X139159210Y-116756702D02*
G75*
G02*
X138906952Y-116825000I-252260J431712D01*
G01*
X139159211Y-116756704D02*
G75*
G02*
X139861980Y-117405279I252259J-431696D01*
G01*
X139812499Y-117622158D02*
G75*
G02*
X139861984Y-117405281I500351J-82D01*
G01*
X139861984Y-119244721D02*
G75*
G02*
X139159211Y-119893300I-450514J-216879D01*
G01*
X139861984Y-119244721D02*
G75*
G02*
X139812487Y-119027843I451016J217021D01*
G01*
%TO.C,LED66*%
X98312501Y-117622159D02*
X98312501Y-119027843D01*
X99218047Y-119825000D02*
X100806952Y-119825000D01*
X100806952Y-116825001D02*
X99218048Y-116825001D01*
X101712499Y-119027843D02*
X101712499Y-117622159D01*
X98263016Y-117405281D02*
G75*
G02*
X98312501Y-117622159I-450505J-216876D01*
G01*
X98263016Y-117405282D02*
G75*
G02*
X98965789Y-116756702I450514J216880D01*
G01*
X98312501Y-119027844D02*
G75*
G02*
X98263016Y-119244721I-499990J-1D01*
G01*
X98965789Y-119893299D02*
G75*
G02*
X98263017Y-119244721I-252258J431700D01*
G01*
X98965789Y-119893299D02*
G75*
G02*
X99218047Y-119825000I252261J-431710D01*
G01*
X99218048Y-116825001D02*
G75*
G02*
X98965789Y-116756702I2J500009D01*
G01*
X100806953Y-119825001D02*
G75*
G02*
X101059211Y-119893300I-3J-500009D01*
G01*
X101059210Y-116756702D02*
G75*
G02*
X100806952Y-116825000I-252260J431712D01*
G01*
X101059211Y-116756704D02*
G75*
G02*
X101761980Y-117405279I252259J-431696D01*
G01*
X101712499Y-117622158D02*
G75*
G02*
X101761984Y-117405281I500351J-82D01*
G01*
X101761984Y-119244721D02*
G75*
G02*
X101059211Y-119893300I-450514J-216879D01*
G01*
X101761984Y-119244721D02*
G75*
G02*
X101712487Y-119027843I451016J217021D01*
G01*
%TO.C,LED31*%
X326912501Y-60472159D02*
X326912501Y-61877843D01*
X327818047Y-62675000D02*
X329406952Y-62675000D01*
X329406952Y-59675001D02*
X327818048Y-59675001D01*
X330312499Y-61877843D02*
X330312499Y-60472159D01*
X326863016Y-60255281D02*
G75*
G02*
X326912501Y-60472159I-450505J-216876D01*
G01*
X326863016Y-60255282D02*
G75*
G02*
X327565789Y-59606702I450514J216880D01*
G01*
X326912501Y-61877844D02*
G75*
G02*
X326863016Y-62094721I-499990J-1D01*
G01*
X327565789Y-62743299D02*
G75*
G02*
X326863017Y-62094721I-252258J431700D01*
G01*
X327565789Y-62743299D02*
G75*
G02*
X327818047Y-62675000I252261J-431710D01*
G01*
X327818048Y-59675001D02*
G75*
G02*
X327565789Y-59606702I2J500009D01*
G01*
X329406953Y-62675001D02*
G75*
G02*
X329659211Y-62743300I-3J-500009D01*
G01*
X329659210Y-59606702D02*
G75*
G02*
X329406952Y-59675000I-252260J431712D01*
G01*
X329659211Y-59606704D02*
G75*
G02*
X330361980Y-60255279I252259J-431696D01*
G01*
X330312499Y-60472158D02*
G75*
G02*
X330361984Y-60255281I500351J-82D01*
G01*
X330361984Y-62094721D02*
G75*
G02*
X329659211Y-62743300I-450514J-216879D01*
G01*
X330361984Y-62094721D02*
G75*
G02*
X330312487Y-61877843I451016J217021D01*
G01*
%TO.C,LED81*%
X229281251Y-136672159D02*
X229281251Y-138077843D01*
X230186797Y-138875000D02*
X231775702Y-138875000D01*
X231775702Y-135875001D02*
X230186798Y-135875001D01*
X232681249Y-138077843D02*
X232681249Y-136672159D01*
X229231766Y-136455281D02*
G75*
G02*
X229281251Y-136672159I-450505J-216876D01*
G01*
X229231766Y-136455282D02*
G75*
G02*
X229934539Y-135806702I450514J216880D01*
G01*
X229281251Y-138077844D02*
G75*
G02*
X229231766Y-138294721I-499990J-1D01*
G01*
X229934539Y-138943299D02*
G75*
G02*
X229231767Y-138294721I-252258J431700D01*
G01*
X229934539Y-138943299D02*
G75*
G02*
X230186797Y-138875000I252261J-431710D01*
G01*
X230186798Y-135875001D02*
G75*
G02*
X229934539Y-135806702I2J500009D01*
G01*
X231775703Y-138875001D02*
G75*
G02*
X232027961Y-138943300I-3J-500009D01*
G01*
X232027960Y-135806702D02*
G75*
G02*
X231775702Y-135875000I-252260J431712D01*
G01*
X232027961Y-135806704D02*
G75*
G02*
X232730730Y-136455279I252259J-431696D01*
G01*
X232681249Y-136672158D02*
G75*
G02*
X232730734Y-136455281I500351J-82D01*
G01*
X232730734Y-138294721D02*
G75*
G02*
X232027961Y-138943300I-450514J-216879D01*
G01*
X232730734Y-138294721D02*
G75*
G02*
X232681237Y-138077843I451016J217021D01*
G01*
%TO.C,LED24*%
X169750001Y-60472159D02*
X169750001Y-61877843D01*
X170655547Y-62675000D02*
X172244452Y-62675000D01*
X172244452Y-59675001D02*
X170655548Y-59675001D01*
X173149999Y-61877843D02*
X173149999Y-60472159D01*
X169700516Y-60255281D02*
G75*
G02*
X169750001Y-60472159I-450505J-216876D01*
G01*
X169700516Y-60255282D02*
G75*
G02*
X170403289Y-59606702I450514J216880D01*
G01*
X169750001Y-61877844D02*
G75*
G02*
X169700516Y-62094721I-499990J-1D01*
G01*
X170403289Y-62743299D02*
G75*
G02*
X169700517Y-62094721I-252258J431700D01*
G01*
X170403289Y-62743299D02*
G75*
G02*
X170655547Y-62675000I252261J-431710D01*
G01*
X170655548Y-59675001D02*
G75*
G02*
X170403289Y-59606702I2J500009D01*
G01*
X172244453Y-62675001D02*
G75*
G02*
X172496711Y-62743300I-3J-500009D01*
G01*
X172496710Y-59606702D02*
G75*
G02*
X172244452Y-59675000I-252260J431712D01*
G01*
X172496711Y-59606704D02*
G75*
G02*
X173199480Y-60255279I252259J-431696D01*
G01*
X173149999Y-60472158D02*
G75*
G02*
X173199484Y-60255281I500351J-82D01*
G01*
X173199484Y-62094721D02*
G75*
G02*
X172496711Y-62743300I-450514J-216879D01*
G01*
X173199484Y-62094721D02*
G75*
G02*
X173149987Y-61877843I451016J217021D01*
G01*
%TO.C,LED48*%
X326912501Y-79522159D02*
X326912501Y-80927843D01*
X327818047Y-81725000D02*
X329406952Y-81725000D01*
X329406952Y-78725001D02*
X327818048Y-78725001D01*
X330312499Y-80927843D02*
X330312499Y-79522159D01*
X326863016Y-79305281D02*
G75*
G02*
X326912501Y-79522159I-450505J-216876D01*
G01*
X326863016Y-79305282D02*
G75*
G02*
X327565789Y-78656702I450514J216880D01*
G01*
X326912501Y-80927844D02*
G75*
G02*
X326863016Y-81144721I-499990J-1D01*
G01*
X327565789Y-81793299D02*
G75*
G02*
X326863017Y-81144721I-252258J431700D01*
G01*
X327565789Y-81793299D02*
G75*
G02*
X327818047Y-81725000I252261J-431710D01*
G01*
X327818048Y-78725001D02*
G75*
G02*
X327565789Y-78656702I2J500009D01*
G01*
X329406953Y-81725001D02*
G75*
G02*
X329659211Y-81793300I-3J-500009D01*
G01*
X329659210Y-78656702D02*
G75*
G02*
X329406952Y-78725000I-252260J431712D01*
G01*
X329659211Y-78656704D02*
G75*
G02*
X330361980Y-79305279I252259J-431696D01*
G01*
X330312499Y-79522158D02*
G75*
G02*
X330361984Y-79305281I500351J-82D01*
G01*
X330361984Y-81144721D02*
G75*
G02*
X329659211Y-81793300I-450514J-216879D01*
G01*
X330361984Y-81144721D02*
G75*
G02*
X330312487Y-80927843I451016J217021D01*
G01*
%TO.C,LED40*%
X160225001Y-79522159D02*
X160225001Y-80927843D01*
X161130547Y-81725000D02*
X162719452Y-81725000D01*
X162719452Y-78725001D02*
X161130548Y-78725001D01*
X163624999Y-80927843D02*
X163624999Y-79522159D01*
X160175516Y-79305281D02*
G75*
G02*
X160225001Y-79522159I-450505J-216876D01*
G01*
X160175516Y-79305282D02*
G75*
G02*
X160878289Y-78656702I450514J216880D01*
G01*
X160225001Y-80927844D02*
G75*
G02*
X160175516Y-81144721I-499990J-1D01*
G01*
X160878289Y-81793299D02*
G75*
G02*
X160175517Y-81144721I-252258J431700D01*
G01*
X160878289Y-81793299D02*
G75*
G02*
X161130547Y-81725000I252261J-431710D01*
G01*
X161130548Y-78725001D02*
G75*
G02*
X160878289Y-78656702I2J500009D01*
G01*
X162719453Y-81725001D02*
G75*
G02*
X162971711Y-81793300I-3J-500009D01*
G01*
X162971710Y-78656702D02*
G75*
G02*
X162719452Y-78725000I-252260J431712D01*
G01*
X162971711Y-78656704D02*
G75*
G02*
X163674480Y-79305279I252259J-431696D01*
G01*
X163624999Y-79522158D02*
G75*
G02*
X163674484Y-79305281I500351J-82D01*
G01*
X163674484Y-81144721D02*
G75*
G02*
X162971711Y-81793300I-450514J-216879D01*
G01*
X163674484Y-81144721D02*
G75*
G02*
X163624987Y-80927843I451016J217021D01*
G01*
%TO.C,LED35*%
X64975001Y-79522159D02*
X64975001Y-80927843D01*
X65880547Y-81725000D02*
X67469452Y-81725000D01*
X67469452Y-78725001D02*
X65880548Y-78725001D01*
X68374999Y-80927843D02*
X68374999Y-79522159D01*
X64925516Y-79305281D02*
G75*
G02*
X64975001Y-79522159I-450505J-216876D01*
G01*
X64925516Y-79305282D02*
G75*
G02*
X65628289Y-78656702I450514J216880D01*
G01*
X64975001Y-80927844D02*
G75*
G02*
X64925516Y-81144721I-499990J-1D01*
G01*
X65628289Y-81793299D02*
G75*
G02*
X64925517Y-81144721I-252258J431700D01*
G01*
X65628289Y-81793299D02*
G75*
G02*
X65880547Y-81725000I252261J-431710D01*
G01*
X65880548Y-78725001D02*
G75*
G02*
X65628289Y-78656702I2J500009D01*
G01*
X67469453Y-81725001D02*
G75*
G02*
X67721711Y-81793300I-3J-500009D01*
G01*
X67721710Y-78656702D02*
G75*
G02*
X67469452Y-78725000I-252260J431712D01*
G01*
X67721711Y-78656704D02*
G75*
G02*
X68424480Y-79305279I252259J-431696D01*
G01*
X68374999Y-79522158D02*
G75*
G02*
X68424484Y-79305281I500351J-82D01*
G01*
X68424484Y-81144721D02*
G75*
G02*
X67721711Y-81793300I-450514J-216879D01*
G01*
X68424484Y-81144721D02*
G75*
G02*
X68374987Y-80927843I451016J217021D01*
G01*
%TO.C,LED62*%
X260237501Y-98572159D02*
X260237501Y-99977843D01*
X261143047Y-100775000D02*
X262731952Y-100775000D01*
X262731952Y-97775001D02*
X261143048Y-97775001D01*
X263637499Y-99977843D02*
X263637499Y-98572159D01*
X260188016Y-98355281D02*
G75*
G02*
X260237501Y-98572159I-450505J-216876D01*
G01*
X260188016Y-98355282D02*
G75*
G02*
X260890789Y-97706702I450514J216880D01*
G01*
X260237501Y-99977844D02*
G75*
G02*
X260188016Y-100194721I-499990J-1D01*
G01*
X260890789Y-100843299D02*
G75*
G02*
X260188017Y-100194721I-252258J431700D01*
G01*
X260890789Y-100843299D02*
G75*
G02*
X261143047Y-100775000I252261J-431710D01*
G01*
X261143048Y-97775001D02*
G75*
G02*
X260890789Y-97706702I2J500009D01*
G01*
X262731953Y-100775001D02*
G75*
G02*
X262984211Y-100843300I-3J-500009D01*
G01*
X262984210Y-97706702D02*
G75*
G02*
X262731952Y-97775000I-252260J431712D01*
G01*
X262984211Y-97706704D02*
G75*
G02*
X263686980Y-98355279I252259J-431696D01*
G01*
X263637499Y-98572158D02*
G75*
G02*
X263686984Y-98355281I500351J-82D01*
G01*
X263686984Y-100194721D02*
G75*
G02*
X262984211Y-100843300I-450514J-216879D01*
G01*
X263686984Y-100194721D02*
G75*
G02*
X263637487Y-99977843I451016J217021D01*
G01*
%TO.C,LED22*%
X131650001Y-60472159D02*
X131650001Y-61877843D01*
X132555547Y-62675000D02*
X134144452Y-62675000D01*
X134144452Y-59675001D02*
X132555548Y-59675001D01*
X135049999Y-61877843D02*
X135049999Y-60472159D01*
X131600516Y-60255281D02*
G75*
G02*
X131650001Y-60472159I-450505J-216876D01*
G01*
X131600516Y-60255282D02*
G75*
G02*
X132303289Y-59606702I450514J216880D01*
G01*
X131650001Y-61877844D02*
G75*
G02*
X131600516Y-62094721I-499990J-1D01*
G01*
X132303289Y-62743299D02*
G75*
G02*
X131600517Y-62094721I-252258J431700D01*
G01*
X132303289Y-62743299D02*
G75*
G02*
X132555547Y-62675000I252261J-431710D01*
G01*
X132555548Y-59675001D02*
G75*
G02*
X132303289Y-59606702I2J500009D01*
G01*
X134144453Y-62675001D02*
G75*
G02*
X134396711Y-62743300I-3J-500009D01*
G01*
X134396710Y-59606702D02*
G75*
G02*
X134144452Y-59675000I-252260J431712D01*
G01*
X134396711Y-59606704D02*
G75*
G02*
X135099480Y-60255279I252259J-431696D01*
G01*
X135049999Y-60472158D02*
G75*
G02*
X135099484Y-60255281I500351J-82D01*
G01*
X135099484Y-62094721D02*
G75*
G02*
X134396711Y-62743300I-450514J-216879D01*
G01*
X135099484Y-62094721D02*
G75*
G02*
X135049987Y-61877843I451016J217021D01*
G01*
%TO.C,LED74*%
X250712501Y-117622159D02*
X250712501Y-119027843D01*
X251618047Y-119825000D02*
X253206952Y-119825000D01*
X253206952Y-116825001D02*
X251618048Y-116825001D01*
X254112499Y-119027843D02*
X254112499Y-117622159D01*
X250663016Y-117405281D02*
G75*
G02*
X250712501Y-117622159I-450505J-216876D01*
G01*
X250663016Y-117405282D02*
G75*
G02*
X251365789Y-116756702I450514J216880D01*
G01*
X250712501Y-119027844D02*
G75*
G02*
X250663016Y-119244721I-499990J-1D01*
G01*
X251365789Y-119893299D02*
G75*
G02*
X250663017Y-119244721I-252258J431700D01*
G01*
X251365789Y-119893299D02*
G75*
G02*
X251618047Y-119825000I252261J-431710D01*
G01*
X251618048Y-116825001D02*
G75*
G02*
X251365789Y-116756702I2J500009D01*
G01*
X253206953Y-119825001D02*
G75*
G02*
X253459211Y-119893300I-3J-500009D01*
G01*
X253459210Y-116756702D02*
G75*
G02*
X253206952Y-116825000I-252260J431712D01*
G01*
X253459211Y-116756704D02*
G75*
G02*
X254161980Y-117405279I252259J-431696D01*
G01*
X254112499Y-117622158D02*
G75*
G02*
X254161984Y-117405281I500351J-82D01*
G01*
X254161984Y-119244721D02*
G75*
G02*
X253459211Y-119893300I-450514J-216879D01*
G01*
X254161984Y-119244721D02*
G75*
G02*
X254112487Y-119027843I451016J217021D01*
G01*
%TD*%
M02*
