%TF.GenerationSoftware,KiCad,Pcbnew,8.0.8*%
%TF.CreationDate,2025-02-03T20:21:26-05:00*%
%TF.ProjectId,OakSpring,4f616b53-7072-4696-9e67-2e6b69636164,rev?*%
%TF.SameCoordinates,Original*%
%TF.FileFunction,Drillmap*%
%TF.FilePolarity,Positive*%
%FSLAX45Y45*%
G04 Gerber Fmt 4.5, Leading zero omitted, Abs format (unit mm)*
G04 Created by KiCad (PCBNEW 8.0.8) date 2025-02-03 20:21:26*
%MOMM*%
%LPD*%
G01*
G04 APERTURE LIST*
%ADD10C,0.400000*%
%ADD11C,0.100000*%
%ADD12C,0.200000*%
%ADD13C,0.175000*%
%ADD14C,0.398780*%
G04 APERTURE END LIST*
D10*
X6599760Y-2827500D02*
X37465992Y-2827500D01*
X5239993Y-1922999D02*
G75*
G02*
X5311000Y-1853000I69997J9D01*
G01*
X3012668Y-15335000D02*
X37454317Y-15335000D01*
X37625000Y-15165000D02*
G75*
G02*
X37454317Y-15335000I-170340J340D01*
G01*
X3020683Y-2827500D02*
X5069850Y-2827500D01*
X37465992Y-2827500D02*
G75*
G02*
X37625000Y-2993980I-3732J-162740D01*
G01*
X6371000Y-1853000D02*
G75*
G02*
X6441000Y-1923000I10J-69990D01*
G01*
X37625000Y-15165000D02*
X37625000Y-2993980D01*
X2852500Y-2987668D02*
G75*
G02*
X3020683Y-2827810I164020J-4162D01*
G01*
X3012668Y-15335000D02*
G75*
G02*
X2852500Y-15165000I4912J165080D01*
G01*
X5240000Y-2667643D02*
X5240000Y-1922999D01*
X6371000Y-1853000D02*
X5311000Y-1853000D01*
X6441000Y-2660301D02*
X6441000Y-1923000D01*
X5240000Y-2667643D02*
G75*
G02*
X5069850Y-2827500I-165000J5143D01*
G01*
X6599760Y-2827500D02*
G75*
G02*
X6441000Y-2660301I4220J162980D01*
G01*
X2852500Y-2987668D02*
X2852500Y-15165000D01*
D11*
X15070000Y-6047216D02*
X15070000Y-6187784D01*
X15160555Y-6267500D02*
X15319445Y-6267500D01*
X15319445Y-5967500D02*
X15160555Y-5967500D01*
X15410000Y-6187784D02*
X15410000Y-6047216D01*
X15065052Y-6025528D02*
G75*
G02*
X15070000Y-6047216I-45051J-21688D01*
G01*
X15065052Y-6025528D02*
G75*
G02*
X15135329Y-5960670I45051J21688D01*
G01*
X15070000Y-6187784D02*
G75*
G02*
X15065052Y-6209472I-49999J0D01*
G01*
X15135329Y-6274330D02*
G75*
G02*
X15065052Y-6209472I-25226J43170D01*
G01*
X15135329Y-6274330D02*
G75*
G02*
X15160555Y-6267500I25226J-43171D01*
G01*
X15160555Y-5967500D02*
G75*
G02*
X15135329Y-5960670I0J50001D01*
G01*
X15319445Y-6267500D02*
G75*
G02*
X15344671Y-6274330I0J-50001D01*
G01*
X15344671Y-5960670D02*
G75*
G02*
X15319445Y-5967500I-25226J43171D01*
G01*
X15344671Y-5960670D02*
G75*
G02*
X15414948Y-6025528I25226J-43170D01*
G01*
X15410000Y-6047216D02*
G75*
G02*
X15414948Y-6025528I50035J-8D01*
G01*
X15414948Y-6209472D02*
G75*
G02*
X15344671Y-6274330I-45051J-21688D01*
G01*
X15414948Y-6209472D02*
G75*
G02*
X15409999Y-6187784I45102J21702D01*
G01*
X3640000Y-6047216D02*
X3640000Y-6187784D01*
X3730555Y-6267500D02*
X3889445Y-6267500D01*
X3889445Y-5967500D02*
X3730555Y-5967500D01*
X3980000Y-6187784D02*
X3980000Y-6047216D01*
X3635052Y-6025528D02*
G75*
G02*
X3640000Y-6047216I-45051J-21688D01*
G01*
X3635052Y-6025528D02*
G75*
G02*
X3705329Y-5960670I45051J21688D01*
G01*
X3640000Y-6187784D02*
G75*
G02*
X3635052Y-6209472I-49999J0D01*
G01*
X3705329Y-6274330D02*
G75*
G02*
X3635052Y-6209472I-25226J43170D01*
G01*
X3705329Y-6274330D02*
G75*
G02*
X3730555Y-6267500I25226J-43171D01*
G01*
X3730555Y-5967500D02*
G75*
G02*
X3705329Y-5960670I0J50001D01*
G01*
X3889445Y-6267500D02*
G75*
G02*
X3914671Y-6274330I0J-50001D01*
G01*
X3914671Y-5960670D02*
G75*
G02*
X3889445Y-5967500I-25226J43171D01*
G01*
X3914671Y-5960670D02*
G75*
G02*
X3984948Y-6025528I25226J-43170D01*
G01*
X3980000Y-6047216D02*
G75*
G02*
X3984948Y-6025528I50035J-8D01*
G01*
X3984948Y-6209472D02*
G75*
G02*
X3914671Y-6274330I-45051J-21688D01*
G01*
X3984948Y-6209472D02*
G75*
G02*
X3979999Y-6187784I45102J21702D01*
G01*
X21737500Y-7952216D02*
X21737500Y-8092784D01*
X21828055Y-8172500D02*
X21986945Y-8172500D01*
X21986945Y-7872500D02*
X21828055Y-7872500D01*
X22077500Y-8092784D02*
X22077500Y-7952216D01*
X21732552Y-7930528D02*
G75*
G02*
X21737500Y-7952216I-45051J-21688D01*
G01*
X21732552Y-7930528D02*
G75*
G02*
X21802829Y-7865670I45051J21688D01*
G01*
X21737500Y-8092784D02*
G75*
G02*
X21732552Y-8114472I-49999J0D01*
G01*
X21802829Y-8179330D02*
G75*
G02*
X21732552Y-8114472I-25226J43170D01*
G01*
X21802829Y-8179330D02*
G75*
G02*
X21828055Y-8172500I25226J-43171D01*
G01*
X21828055Y-7872500D02*
G75*
G02*
X21802829Y-7865670I0J50001D01*
G01*
X21986945Y-8172500D02*
G75*
G02*
X22012171Y-8179330I0J-50001D01*
G01*
X22012171Y-7865670D02*
G75*
G02*
X21986945Y-7872500I-25226J43171D01*
G01*
X22012171Y-7865670D02*
G75*
G02*
X22082448Y-7930528I25226J-43170D01*
G01*
X22077500Y-7952216D02*
G75*
G02*
X22082448Y-7930528I50035J-8D01*
G01*
X22082448Y-8114472D02*
G75*
G02*
X22012171Y-8179330I-45051J-21688D01*
G01*
X22082448Y-8114472D02*
G75*
G02*
X22077499Y-8092784I45102J21702D01*
G01*
X8640625Y-13667216D02*
X8640625Y-13807784D01*
X8731180Y-13887500D02*
X8890070Y-13887500D01*
X8890070Y-13587500D02*
X8731180Y-13587500D01*
X8980625Y-13807784D02*
X8980625Y-13667216D01*
X8635677Y-13645528D02*
G75*
G02*
X8640625Y-13667216I-45051J-21688D01*
G01*
X8635677Y-13645528D02*
G75*
G02*
X8705954Y-13580670I45051J21688D01*
G01*
X8640625Y-13807784D02*
G75*
G02*
X8635677Y-13829472I-49999J0D01*
G01*
X8705954Y-13894330D02*
G75*
G02*
X8635677Y-13829472I-25226J43170D01*
G01*
X8705954Y-13894330D02*
G75*
G02*
X8731180Y-13887500I25226J-43171D01*
G01*
X8731180Y-13587500D02*
G75*
G02*
X8705954Y-13580670I0J50001D01*
G01*
X8890070Y-13887500D02*
G75*
G02*
X8915296Y-13894330I0J-50001D01*
G01*
X8915296Y-13580670D02*
G75*
G02*
X8890070Y-13587500I-25226J43171D01*
G01*
X8915296Y-13580670D02*
G75*
G02*
X8985573Y-13645528I25226J-43170D01*
G01*
X8980625Y-13667216D02*
G75*
G02*
X8985573Y-13645528I50035J-8D01*
G01*
X8985573Y-13829472D02*
G75*
G02*
X8915296Y-13894330I-45051J-21688D01*
G01*
X8985573Y-13829472D02*
G75*
G02*
X8980624Y-13807784I45102J21702D01*
G01*
X26500000Y-6047216D02*
X26500000Y-6187784D01*
X26590555Y-6267500D02*
X26749445Y-6267500D01*
X26749445Y-5967500D02*
X26590555Y-5967500D01*
X26840000Y-6187784D02*
X26840000Y-6047216D01*
X26495052Y-6025528D02*
G75*
G02*
X26500000Y-6047216I-45051J-21688D01*
G01*
X26495052Y-6025528D02*
G75*
G02*
X26565329Y-5960670I45051J21688D01*
G01*
X26500000Y-6187784D02*
G75*
G02*
X26495052Y-6209472I-49999J0D01*
G01*
X26565329Y-6274330D02*
G75*
G02*
X26495052Y-6209472I-25226J43170D01*
G01*
X26565329Y-6274330D02*
G75*
G02*
X26590555Y-6267500I25226J-43171D01*
G01*
X26590555Y-5967500D02*
G75*
G02*
X26565329Y-5960670I0J50001D01*
G01*
X26749445Y-6267500D02*
G75*
G02*
X26774671Y-6274330I0J-50001D01*
G01*
X26774671Y-5960670D02*
G75*
G02*
X26749445Y-5967500I-25226J43171D01*
G01*
X26774671Y-5960670D02*
G75*
G02*
X26844948Y-6025528I25226J-43170D01*
G01*
X26840000Y-6047216D02*
G75*
G02*
X26844948Y-6025528I50035J-8D01*
G01*
X26844948Y-6209472D02*
G75*
G02*
X26774671Y-6274330I-45051J-21688D01*
G01*
X26844948Y-6209472D02*
G75*
G02*
X26839999Y-6187784I45102J21702D01*
G01*
X9355000Y-6047216D02*
X9355000Y-6187784D01*
X9445555Y-6267500D02*
X9604445Y-6267500D01*
X9604445Y-5967500D02*
X9445555Y-5967500D01*
X9695000Y-6187784D02*
X9695000Y-6047216D01*
X9350052Y-6025528D02*
G75*
G02*
X9355000Y-6047216I-45051J-21688D01*
G01*
X9350052Y-6025528D02*
G75*
G02*
X9420329Y-5960670I45051J21688D01*
G01*
X9355000Y-6187784D02*
G75*
G02*
X9350052Y-6209472I-49999J0D01*
G01*
X9420329Y-6274330D02*
G75*
G02*
X9350052Y-6209472I-25226J43170D01*
G01*
X9420329Y-6274330D02*
G75*
G02*
X9445555Y-6267500I25226J-43171D01*
G01*
X9445555Y-5967500D02*
G75*
G02*
X9420329Y-5960670I0J50001D01*
G01*
X9604445Y-6267500D02*
G75*
G02*
X9629671Y-6274330I0J-50001D01*
G01*
X9629671Y-5960670D02*
G75*
G02*
X9604445Y-5967500I-25226J43171D01*
G01*
X9629671Y-5960670D02*
G75*
G02*
X9699948Y-6025528I25226J-43170D01*
G01*
X9695000Y-6047216D02*
G75*
G02*
X9699948Y-6025528I50035J-8D01*
G01*
X9699948Y-6209472D02*
G75*
G02*
X9629671Y-6274330I-45051J-21688D01*
G01*
X9699948Y-6209472D02*
G75*
G02*
X9694999Y-6187784I45102J21702D01*
G01*
X3640000Y-3189716D02*
X3640000Y-3330284D01*
X3730555Y-3410000D02*
X3889445Y-3410000D01*
X3889445Y-3110000D02*
X3730555Y-3110000D01*
X3980000Y-3330284D02*
X3980000Y-3189716D01*
X3635052Y-3168028D02*
G75*
G02*
X3640000Y-3189716I-45051J-21688D01*
G01*
X3635052Y-3168028D02*
G75*
G02*
X3705329Y-3103170I45051J21688D01*
G01*
X3640000Y-3330284D02*
G75*
G02*
X3635052Y-3351972I-49999J0D01*
G01*
X3705329Y-3416830D02*
G75*
G02*
X3635052Y-3351972I-25226J43170D01*
G01*
X3705329Y-3416830D02*
G75*
G02*
X3730555Y-3410000I25226J-43171D01*
G01*
X3730555Y-3110000D02*
G75*
G02*
X3705329Y-3103170I0J50001D01*
G01*
X3889445Y-3410000D02*
G75*
G02*
X3914671Y-3416830I0J-50001D01*
G01*
X3914671Y-3103170D02*
G75*
G02*
X3889445Y-3110000I-25226J43171D01*
G01*
X3914671Y-3103170D02*
G75*
G02*
X3984948Y-3168028I25226J-43170D01*
G01*
X3980000Y-3189716D02*
G75*
G02*
X3984948Y-3168028I50035J-8D01*
G01*
X3984948Y-3351972D02*
G75*
G02*
X3914671Y-3416830I-45051J-21688D01*
G01*
X3984948Y-3351972D02*
G75*
G02*
X3979999Y-3330284I45102J21702D01*
G01*
X15546250Y-11762216D02*
X15546250Y-11902784D01*
X15636805Y-11982500D02*
X15795695Y-11982500D01*
X15795695Y-11682500D02*
X15636805Y-11682500D01*
X15886250Y-11902784D02*
X15886250Y-11762216D01*
X15541302Y-11740528D02*
G75*
G02*
X15546250Y-11762216I-45051J-21688D01*
G01*
X15541302Y-11740528D02*
G75*
G02*
X15611579Y-11675670I45051J21688D01*
G01*
X15546250Y-11902784D02*
G75*
G02*
X15541302Y-11924472I-49999J0D01*
G01*
X15611579Y-11989330D02*
G75*
G02*
X15541302Y-11924472I-25226J43170D01*
G01*
X15611579Y-11989330D02*
G75*
G02*
X15636805Y-11982500I25226J-43171D01*
G01*
X15636805Y-11682500D02*
G75*
G02*
X15611579Y-11675670I0J50001D01*
G01*
X15795695Y-11982500D02*
G75*
G02*
X15820921Y-11989330I0J-50001D01*
G01*
X15820921Y-11675670D02*
G75*
G02*
X15795695Y-11682500I-25226J43171D01*
G01*
X15820921Y-11675670D02*
G75*
G02*
X15891198Y-11740528I25226J-43170D01*
G01*
X15886250Y-11762216D02*
G75*
G02*
X15891198Y-11740528I50035J-8D01*
G01*
X15891198Y-11924472D02*
G75*
G02*
X15820921Y-11989330I-45051J-21688D01*
G01*
X15891198Y-11924472D02*
G75*
G02*
X15886249Y-11902784I45102J21702D01*
G01*
X3878125Y-13667216D02*
X3878125Y-13807784D01*
X3968680Y-13887500D02*
X4127570Y-13887500D01*
X4127570Y-13587500D02*
X3968680Y-13587500D01*
X4218125Y-13807784D02*
X4218125Y-13667216D01*
X3873177Y-13645528D02*
G75*
G02*
X3878125Y-13667216I-45051J-21688D01*
G01*
X3873177Y-13645528D02*
G75*
G02*
X3943454Y-13580670I45051J21688D01*
G01*
X3878125Y-13807784D02*
G75*
G02*
X3873177Y-13829472I-49999J0D01*
G01*
X3943454Y-13894330D02*
G75*
G02*
X3873177Y-13829472I-25226J43170D01*
G01*
X3943454Y-13894330D02*
G75*
G02*
X3968680Y-13887500I25226J-43171D01*
G01*
X3968680Y-13587500D02*
G75*
G02*
X3943454Y-13580670I0J50001D01*
G01*
X4127570Y-13887500D02*
G75*
G02*
X4152796Y-13894330I0J-50001D01*
G01*
X4152796Y-13580670D02*
G75*
G02*
X4127570Y-13587500I-25226J43171D01*
G01*
X4152796Y-13580670D02*
G75*
G02*
X4223073Y-13645528I25226J-43170D01*
G01*
X4218125Y-13667216D02*
G75*
G02*
X4223073Y-13645528I50035J-8D01*
G01*
X4223073Y-13829472D02*
G75*
G02*
X4152796Y-13894330I-45051J-21688D01*
G01*
X4223073Y-13829472D02*
G75*
G02*
X4218124Y-13807784I45102J21702D01*
G01*
X36501250Y-13667216D02*
X36501250Y-13807784D01*
X36591805Y-13887500D02*
X36750695Y-13887500D01*
X36750695Y-13587500D02*
X36591805Y-13587500D01*
X36841250Y-13807784D02*
X36841250Y-13667216D01*
X36496302Y-13645528D02*
G75*
G02*
X36501250Y-13667216I-45051J-21688D01*
G01*
X36496302Y-13645528D02*
G75*
G02*
X36566579Y-13580670I45051J21688D01*
G01*
X36501250Y-13807784D02*
G75*
G02*
X36496302Y-13829472I-49999J0D01*
G01*
X36566579Y-13894330D02*
G75*
G02*
X36496302Y-13829472I-25226J43170D01*
G01*
X36566579Y-13894330D02*
G75*
G02*
X36591805Y-13887500I25226J-43171D01*
G01*
X36591805Y-13587500D02*
G75*
G02*
X36566579Y-13580670I0J50001D01*
G01*
X36750695Y-13887500D02*
G75*
G02*
X36775921Y-13894330I0J-50001D01*
G01*
X36775921Y-13580670D02*
G75*
G02*
X36750695Y-13587500I-25226J43171D01*
G01*
X36775921Y-13580670D02*
G75*
G02*
X36846198Y-13645528I25226J-43170D01*
G01*
X36841250Y-13667216D02*
G75*
G02*
X36846198Y-13645528I50035J-8D01*
G01*
X36846198Y-13829472D02*
G75*
G02*
X36775921Y-13894330I-45051J-21688D01*
G01*
X36846198Y-13829472D02*
G75*
G02*
X36841249Y-13807784I45102J21702D01*
G01*
X4116250Y-7952216D02*
X4116250Y-8092784D01*
X4206805Y-8172500D02*
X4365695Y-8172500D01*
X4365695Y-7872500D02*
X4206805Y-7872500D01*
X4456250Y-8092784D02*
X4456250Y-7952216D01*
X4111302Y-7930528D02*
G75*
G02*
X4116250Y-7952216I-45051J-21688D01*
G01*
X4111302Y-7930528D02*
G75*
G02*
X4181579Y-7865670I45051J21688D01*
G01*
X4116250Y-8092784D02*
G75*
G02*
X4111302Y-8114472I-49999J0D01*
G01*
X4181579Y-8179330D02*
G75*
G02*
X4111302Y-8114472I-25226J43170D01*
G01*
X4181579Y-8179330D02*
G75*
G02*
X4206805Y-8172500I25226J-43171D01*
G01*
X4206805Y-7872500D02*
G75*
G02*
X4181579Y-7865670I0J50001D01*
G01*
X4365695Y-8172500D02*
G75*
G02*
X4390921Y-8179330I0J-50001D01*
G01*
X4390921Y-7865670D02*
G75*
G02*
X4365695Y-7872500I-25226J43171D01*
G01*
X4390921Y-7865670D02*
G75*
G02*
X4461198Y-7930528I25226J-43170D01*
G01*
X4456250Y-7952216D02*
G75*
G02*
X4461198Y-7930528I50035J-8D01*
G01*
X4461198Y-8114472D02*
G75*
G02*
X4390921Y-8179330I-45051J-21688D01*
G01*
X4461198Y-8114472D02*
G75*
G02*
X4456249Y-8092784I45102J21702D01*
G01*
X8878750Y-9857216D02*
X8878750Y-9997784D01*
X8969305Y-10077500D02*
X9128195Y-10077500D01*
X9128195Y-9777500D02*
X8969305Y-9777500D01*
X9218750Y-9997784D02*
X9218750Y-9857216D01*
X8873802Y-9835528D02*
G75*
G02*
X8878750Y-9857216I-45051J-21688D01*
G01*
X8873802Y-9835528D02*
G75*
G02*
X8944079Y-9770670I45051J21688D01*
G01*
X8878750Y-9997784D02*
G75*
G02*
X8873802Y-10019472I-49999J0D01*
G01*
X8944079Y-10084330D02*
G75*
G02*
X8873802Y-10019472I-25226J43170D01*
G01*
X8944079Y-10084330D02*
G75*
G02*
X8969305Y-10077500I25226J-43171D01*
G01*
X8969305Y-9777500D02*
G75*
G02*
X8944079Y-9770670I0J50001D01*
G01*
X9128195Y-10077500D02*
G75*
G02*
X9153421Y-10084330I0J-50001D01*
G01*
X9153421Y-9770670D02*
G75*
G02*
X9128195Y-9777500I-25226J43171D01*
G01*
X9153421Y-9770670D02*
G75*
G02*
X9223698Y-9835528I25226J-43170D01*
G01*
X9218750Y-9857216D02*
G75*
G02*
X9223698Y-9835528I50035J-8D01*
G01*
X9223698Y-10019472D02*
G75*
G02*
X9153421Y-10084330I-45051J-21688D01*
G01*
X9223698Y-10019472D02*
G75*
G02*
X9218749Y-9997784I45102J21702D01*
G01*
X24595000Y-6047216D02*
X24595000Y-6187784D01*
X24685555Y-6267500D02*
X24844445Y-6267500D01*
X24844445Y-5967500D02*
X24685555Y-5967500D01*
X24935000Y-6187784D02*
X24935000Y-6047216D01*
X24590052Y-6025528D02*
G75*
G02*
X24595000Y-6047216I-45051J-21688D01*
G01*
X24590052Y-6025528D02*
G75*
G02*
X24660329Y-5960670I45051J21688D01*
G01*
X24595000Y-6187784D02*
G75*
G02*
X24590052Y-6209472I-49999J0D01*
G01*
X24660329Y-6274330D02*
G75*
G02*
X24590052Y-6209472I-25226J43170D01*
G01*
X24660329Y-6274330D02*
G75*
G02*
X24685555Y-6267500I25226J-43171D01*
G01*
X24685555Y-5967500D02*
G75*
G02*
X24660329Y-5960670I0J50001D01*
G01*
X24844445Y-6267500D02*
G75*
G02*
X24869671Y-6274330I0J-50001D01*
G01*
X24869671Y-5960670D02*
G75*
G02*
X24844445Y-5967500I-25226J43171D01*
G01*
X24869671Y-5960670D02*
G75*
G02*
X24939948Y-6025528I25226J-43170D01*
G01*
X24935000Y-6047216D02*
G75*
G02*
X24939948Y-6025528I50035J-8D01*
G01*
X24939948Y-6209472D02*
G75*
G02*
X24869671Y-6274330I-45051J-21688D01*
G01*
X24939948Y-6209472D02*
G75*
G02*
X24934999Y-6187784I45102J21702D01*
G01*
X34596250Y-6047216D02*
X34596250Y-6187784D01*
X34686805Y-6267500D02*
X34845695Y-6267500D01*
X34845695Y-5967500D02*
X34686805Y-5967500D01*
X34936250Y-6187784D02*
X34936250Y-6047216D01*
X34591302Y-6025528D02*
G75*
G02*
X34596250Y-6047216I-45051J-21688D01*
G01*
X34591302Y-6025528D02*
G75*
G02*
X34661579Y-5960670I45051J21688D01*
G01*
X34596250Y-6187784D02*
G75*
G02*
X34591302Y-6209472I-49999J0D01*
G01*
X34661579Y-6274330D02*
G75*
G02*
X34591302Y-6209472I-25226J43170D01*
G01*
X34661579Y-6274330D02*
G75*
G02*
X34686805Y-6267500I25226J-43171D01*
G01*
X34686805Y-5967500D02*
G75*
G02*
X34661579Y-5960670I0J50001D01*
G01*
X34845695Y-6267500D02*
G75*
G02*
X34870921Y-6274330I0J-50001D01*
G01*
X34870921Y-5960670D02*
G75*
G02*
X34845695Y-5967500I-25226J43171D01*
G01*
X34870921Y-5960670D02*
G75*
G02*
X34941198Y-6025528I25226J-43170D01*
G01*
X34936250Y-6047216D02*
G75*
G02*
X34941198Y-6025528I50035J-8D01*
G01*
X34941198Y-6209472D02*
G75*
G02*
X34870921Y-6274330I-45051J-21688D01*
G01*
X34941198Y-6209472D02*
G75*
G02*
X34936249Y-6187784I45102J21702D01*
G01*
X34596250Y-11762216D02*
X34596250Y-11902784D01*
X34686805Y-11982500D02*
X34845695Y-11982500D01*
X34845695Y-11682500D02*
X34686805Y-11682500D01*
X34936250Y-11902784D02*
X34936250Y-11762216D01*
X34591302Y-11740528D02*
G75*
G02*
X34596250Y-11762216I-45051J-21688D01*
G01*
X34591302Y-11740528D02*
G75*
G02*
X34661579Y-11675670I45051J21688D01*
G01*
X34596250Y-11902784D02*
G75*
G02*
X34591302Y-11924472I-49999J0D01*
G01*
X34661579Y-11989330D02*
G75*
G02*
X34591302Y-11924472I-25226J43170D01*
G01*
X34661579Y-11989330D02*
G75*
G02*
X34686805Y-11982500I25226J-43171D01*
G01*
X34686805Y-11682500D02*
G75*
G02*
X34661579Y-11675670I0J50001D01*
G01*
X34845695Y-11982500D02*
G75*
G02*
X34870921Y-11989330I0J-50001D01*
G01*
X34870921Y-11675670D02*
G75*
G02*
X34845695Y-11682500I-25226J43171D01*
G01*
X34870921Y-11675670D02*
G75*
G02*
X34941198Y-11740528I25226J-43170D01*
G01*
X34936250Y-11762216D02*
G75*
G02*
X34941198Y-11740528I50035J-8D01*
G01*
X34941198Y-11924472D02*
G75*
G02*
X34870921Y-11989330I-45051J-21688D01*
G01*
X34941198Y-11924472D02*
G75*
G02*
X34936249Y-11902784I45102J21702D01*
G01*
X28643125Y-11762216D02*
X28643125Y-11902784D01*
X28733680Y-11982500D02*
X28892570Y-11982500D01*
X28892570Y-11682500D02*
X28733680Y-11682500D01*
X28983125Y-11902784D02*
X28983125Y-11762216D01*
X28638177Y-11740528D02*
G75*
G02*
X28643125Y-11762216I-45051J-21688D01*
G01*
X28638177Y-11740528D02*
G75*
G02*
X28708454Y-11675670I45051J21688D01*
G01*
X28643125Y-11902784D02*
G75*
G02*
X28638177Y-11924472I-49999J0D01*
G01*
X28708454Y-11989330D02*
G75*
G02*
X28638177Y-11924472I-25226J43170D01*
G01*
X28708454Y-11989330D02*
G75*
G02*
X28733680Y-11982500I25226J-43171D01*
G01*
X28733680Y-11682500D02*
G75*
G02*
X28708454Y-11675670I0J50001D01*
G01*
X28892570Y-11982500D02*
G75*
G02*
X28917796Y-11989330I0J-50001D01*
G01*
X28917796Y-11675670D02*
G75*
G02*
X28892570Y-11682500I-25226J43171D01*
G01*
X28917796Y-11675670D02*
G75*
G02*
X28988073Y-11740528I25226J-43170D01*
G01*
X28983125Y-11762216D02*
G75*
G02*
X28988073Y-11740528I50035J-8D01*
G01*
X28988073Y-11924472D02*
G75*
G02*
X28917796Y-11989330I-45051J-21688D01*
G01*
X28988073Y-11924472D02*
G75*
G02*
X28983124Y-11902784I45102J21702D01*
G01*
X6259375Y-13667216D02*
X6259375Y-13807784D01*
X6349930Y-13887500D02*
X6508820Y-13887500D01*
X6508820Y-13587500D02*
X6349930Y-13587500D01*
X6599375Y-13807784D02*
X6599375Y-13667216D01*
X6254427Y-13645528D02*
G75*
G02*
X6259375Y-13667216I-45051J-21688D01*
G01*
X6254427Y-13645528D02*
G75*
G02*
X6324704Y-13580670I45051J21688D01*
G01*
X6259375Y-13807784D02*
G75*
G02*
X6254427Y-13829472I-49999J0D01*
G01*
X6324704Y-13894330D02*
G75*
G02*
X6254427Y-13829472I-25226J43170D01*
G01*
X6324704Y-13894330D02*
G75*
G02*
X6349930Y-13887500I25226J-43171D01*
G01*
X6349930Y-13587500D02*
G75*
G02*
X6324704Y-13580670I0J50001D01*
G01*
X6508820Y-13887500D02*
G75*
G02*
X6534046Y-13894330I0J-50001D01*
G01*
X6534046Y-13580670D02*
G75*
G02*
X6508820Y-13587500I-25226J43171D01*
G01*
X6534046Y-13580670D02*
G75*
G02*
X6604323Y-13645528I25226J-43170D01*
G01*
X6599375Y-13667216D02*
G75*
G02*
X6604323Y-13645528I50035J-8D01*
G01*
X6604323Y-13829472D02*
G75*
G02*
X6534046Y-13894330I-45051J-21688D01*
G01*
X6604323Y-13829472D02*
G75*
G02*
X6599374Y-13807784I45102J21702D01*
G01*
X17451250Y-11762216D02*
X17451250Y-11902784D01*
X17541805Y-11982500D02*
X17700695Y-11982500D01*
X17700695Y-11682500D02*
X17541805Y-11682500D01*
X17791250Y-11902784D02*
X17791250Y-11762216D01*
X17446302Y-11740528D02*
G75*
G02*
X17451250Y-11762216I-45051J-21688D01*
G01*
X17446302Y-11740528D02*
G75*
G02*
X17516579Y-11675670I45051J21688D01*
G01*
X17451250Y-11902784D02*
G75*
G02*
X17446302Y-11924472I-49999J0D01*
G01*
X17516579Y-11989330D02*
G75*
G02*
X17446302Y-11924472I-25226J43170D01*
G01*
X17516579Y-11989330D02*
G75*
G02*
X17541805Y-11982500I25226J-43171D01*
G01*
X17541805Y-11682500D02*
G75*
G02*
X17516579Y-11675670I0J50001D01*
G01*
X17700695Y-11982500D02*
G75*
G02*
X17725921Y-11989330I0J-50001D01*
G01*
X17725921Y-11675670D02*
G75*
G02*
X17700695Y-11682500I-25226J43171D01*
G01*
X17725921Y-11675670D02*
G75*
G02*
X17796198Y-11740528I25226J-43170D01*
G01*
X17791250Y-11762216D02*
G75*
G02*
X17796198Y-11740528I50035J-8D01*
G01*
X17796198Y-11924472D02*
G75*
G02*
X17725921Y-11989330I-45051J-21688D01*
G01*
X17796198Y-11924472D02*
G75*
G02*
X17791249Y-11902784I45102J21702D01*
G01*
X36501250Y-7952216D02*
X36501250Y-8092784D01*
X36591805Y-8172500D02*
X36750695Y-8172500D01*
X36750695Y-7872500D02*
X36591805Y-7872500D01*
X36841250Y-8092784D02*
X36841250Y-7952216D01*
X36496302Y-7930528D02*
G75*
G02*
X36501250Y-7952216I-45051J-21688D01*
G01*
X36496302Y-7930528D02*
G75*
G02*
X36566579Y-7865670I45051J21688D01*
G01*
X36501250Y-8092784D02*
G75*
G02*
X36496302Y-8114472I-49999J0D01*
G01*
X36566579Y-8179330D02*
G75*
G02*
X36496302Y-8114472I-25226J43170D01*
G01*
X36566579Y-8179330D02*
G75*
G02*
X36591805Y-8172500I25226J-43171D01*
G01*
X36591805Y-7872500D02*
G75*
G02*
X36566579Y-7865670I0J50001D01*
G01*
X36750695Y-8172500D02*
G75*
G02*
X36775921Y-8179330I0J-50001D01*
G01*
X36775921Y-7865670D02*
G75*
G02*
X36750695Y-7872500I-25226J43171D01*
G01*
X36775921Y-7865670D02*
G75*
G02*
X36846198Y-7930528I25226J-43170D01*
G01*
X36841250Y-7952216D02*
G75*
G02*
X36846198Y-7930528I50035J-8D01*
G01*
X36846198Y-8114472D02*
G75*
G02*
X36775921Y-8179330I-45051J-21688D01*
G01*
X36846198Y-8114472D02*
G75*
G02*
X36841249Y-8092784I45102J21702D01*
G01*
X36501250Y-3189716D02*
X36501250Y-3330284D01*
X36591805Y-3410000D02*
X36750695Y-3410000D01*
X36750695Y-3110000D02*
X36591805Y-3110000D01*
X36841250Y-3330284D02*
X36841250Y-3189716D01*
X36496302Y-3168028D02*
G75*
G02*
X36501250Y-3189716I-45051J-21688D01*
G01*
X36496302Y-3168028D02*
G75*
G02*
X36566579Y-3103170I45051J21688D01*
G01*
X36501250Y-3330284D02*
G75*
G02*
X36496302Y-3351972I-49999J0D01*
G01*
X36566579Y-3416830D02*
G75*
G02*
X36496302Y-3351972I-25226J43170D01*
G01*
X36566579Y-3416830D02*
G75*
G02*
X36591805Y-3410000I25226J-43171D01*
G01*
X36591805Y-3110000D02*
G75*
G02*
X36566579Y-3103170I0J50001D01*
G01*
X36750695Y-3410000D02*
G75*
G02*
X36775921Y-3416830I0J-50001D01*
G01*
X36775921Y-3103170D02*
G75*
G02*
X36750695Y-3110000I-25226J43171D01*
G01*
X36775921Y-3103170D02*
G75*
G02*
X36846198Y-3168028I25226J-43170D01*
G01*
X36841250Y-3189716D02*
G75*
G02*
X36846198Y-3168028I50035J-8D01*
G01*
X36846198Y-3351972D02*
G75*
G02*
X36775921Y-3416830I-45051J-21688D01*
G01*
X36846198Y-3351972D02*
G75*
G02*
X36841249Y-3330284I45102J21702D01*
G01*
X36501250Y-6047216D02*
X36501250Y-6187784D01*
X36591805Y-6267500D02*
X36750695Y-6267500D01*
X36750695Y-5967500D02*
X36591805Y-5967500D01*
X36841250Y-6187784D02*
X36841250Y-6047216D01*
X36496302Y-6025528D02*
G75*
G02*
X36501250Y-6047216I-45051J-21688D01*
G01*
X36496302Y-6025528D02*
G75*
G02*
X36566579Y-5960670I45051J21688D01*
G01*
X36501250Y-6187784D02*
G75*
G02*
X36496302Y-6209472I-49999J0D01*
G01*
X36566579Y-6274330D02*
G75*
G02*
X36496302Y-6209472I-25226J43170D01*
G01*
X36566579Y-6274330D02*
G75*
G02*
X36591805Y-6267500I25226J-43171D01*
G01*
X36591805Y-5967500D02*
G75*
G02*
X36566579Y-5960670I0J50001D01*
G01*
X36750695Y-6267500D02*
G75*
G02*
X36775921Y-6274330I0J-50001D01*
G01*
X36775921Y-5960670D02*
G75*
G02*
X36750695Y-5967500I-25226J43171D01*
G01*
X36775921Y-5960670D02*
G75*
G02*
X36846198Y-6025528I25226J-43170D01*
G01*
X36841250Y-6047216D02*
G75*
G02*
X36846198Y-6025528I50035J-8D01*
G01*
X36846198Y-6209472D02*
G75*
G02*
X36775921Y-6274330I-45051J-21688D01*
G01*
X36846198Y-6209472D02*
G75*
G02*
X36841249Y-6187784I45102J21702D01*
G01*
X19832500Y-7952216D02*
X19832500Y-8092784D01*
X19923055Y-8172500D02*
X20081945Y-8172500D01*
X20081945Y-7872500D02*
X19923055Y-7872500D01*
X20172500Y-8092784D02*
X20172500Y-7952216D01*
X19827552Y-7930528D02*
G75*
G02*
X19832500Y-7952216I-45051J-21688D01*
G01*
X19827552Y-7930528D02*
G75*
G02*
X19897829Y-7865670I45051J21688D01*
G01*
X19832500Y-8092784D02*
G75*
G02*
X19827552Y-8114472I-49999J0D01*
G01*
X19897829Y-8179330D02*
G75*
G02*
X19827552Y-8114472I-25226J43170D01*
G01*
X19897829Y-8179330D02*
G75*
G02*
X19923055Y-8172500I25226J-43171D01*
G01*
X19923055Y-7872500D02*
G75*
G02*
X19897829Y-7865670I0J50001D01*
G01*
X20081945Y-8172500D02*
G75*
G02*
X20107171Y-8179330I0J-50001D01*
G01*
X20107171Y-7865670D02*
G75*
G02*
X20081945Y-7872500I-25226J43171D01*
G01*
X20107171Y-7865670D02*
G75*
G02*
X20177448Y-7930528I25226J-43170D01*
G01*
X20172500Y-7952216D02*
G75*
G02*
X20177448Y-7930528I50035J-8D01*
G01*
X20177448Y-8114472D02*
G75*
G02*
X20107171Y-8179330I-45051J-21688D01*
G01*
X20177448Y-8114472D02*
G75*
G02*
X20172499Y-8092784I45102J21702D01*
G01*
X29357500Y-6047216D02*
X29357500Y-6187784D01*
X29448055Y-6267500D02*
X29606945Y-6267500D01*
X29606945Y-5967500D02*
X29448055Y-5967500D01*
X29697500Y-6187784D02*
X29697500Y-6047216D01*
X29352552Y-6025528D02*
G75*
G02*
X29357500Y-6047216I-45051J-21688D01*
G01*
X29352552Y-6025528D02*
G75*
G02*
X29422829Y-5960670I45051J21688D01*
G01*
X29357500Y-6187784D02*
G75*
G02*
X29352552Y-6209472I-49999J0D01*
G01*
X29422829Y-6274330D02*
G75*
G02*
X29352552Y-6209472I-25226J43170D01*
G01*
X29422829Y-6274330D02*
G75*
G02*
X29448055Y-6267500I25226J-43171D01*
G01*
X29448055Y-5967500D02*
G75*
G02*
X29422829Y-5960670I0J50001D01*
G01*
X29606945Y-6267500D02*
G75*
G02*
X29632171Y-6274330I0J-50001D01*
G01*
X29632171Y-5960670D02*
G75*
G02*
X29606945Y-5967500I-25226J43171D01*
G01*
X29632171Y-5960670D02*
G75*
G02*
X29702448Y-6025528I25226J-43170D01*
G01*
X29697500Y-6047216D02*
G75*
G02*
X29702448Y-6025528I50035J-8D01*
G01*
X29702448Y-6209472D02*
G75*
G02*
X29632171Y-6274330I-45051J-21688D01*
G01*
X29702448Y-6209472D02*
G75*
G02*
X29697499Y-6187784I45102J21702D01*
G01*
X22213750Y-9857216D02*
X22213750Y-9997784D01*
X22304305Y-10077500D02*
X22463195Y-10077500D01*
X22463195Y-9777500D02*
X22304305Y-9777500D01*
X22553750Y-9997784D02*
X22553750Y-9857216D01*
X22208802Y-9835528D02*
G75*
G02*
X22213750Y-9857216I-45051J-21688D01*
G01*
X22208802Y-9835528D02*
G75*
G02*
X22279079Y-9770670I45051J21688D01*
G01*
X22213750Y-9997784D02*
G75*
G02*
X22208802Y-10019472I-49999J0D01*
G01*
X22279079Y-10084330D02*
G75*
G02*
X22208802Y-10019472I-25226J43170D01*
G01*
X22279079Y-10084330D02*
G75*
G02*
X22304305Y-10077500I25226J-43171D01*
G01*
X22304305Y-9777500D02*
G75*
G02*
X22279079Y-9770670I0J50001D01*
G01*
X22463195Y-10077500D02*
G75*
G02*
X22488421Y-10084330I0J-50001D01*
G01*
X22488421Y-9770670D02*
G75*
G02*
X22463195Y-9777500I-25226J43171D01*
G01*
X22488421Y-9770670D02*
G75*
G02*
X22558698Y-9835528I25226J-43170D01*
G01*
X22553750Y-9857216D02*
G75*
G02*
X22558698Y-9835528I50035J-8D01*
G01*
X22558698Y-10019472D02*
G75*
G02*
X22488421Y-10084330I-45051J-21688D01*
G01*
X22558698Y-10019472D02*
G75*
G02*
X22553749Y-9997784I45102J21702D01*
G01*
X16022500Y-3189716D02*
X16022500Y-3330284D01*
X16113055Y-3410000D02*
X16271945Y-3410000D01*
X16271945Y-3110000D02*
X16113055Y-3110000D01*
X16362500Y-3330284D02*
X16362500Y-3189716D01*
X16017552Y-3168028D02*
G75*
G02*
X16022500Y-3189716I-45051J-21688D01*
G01*
X16017552Y-3168028D02*
G75*
G02*
X16087829Y-3103170I45051J21688D01*
G01*
X16022500Y-3330284D02*
G75*
G02*
X16017552Y-3351972I-49999J0D01*
G01*
X16087829Y-3416830D02*
G75*
G02*
X16017552Y-3351972I-25226J43170D01*
G01*
X16087829Y-3416830D02*
G75*
G02*
X16113055Y-3410000I25226J-43171D01*
G01*
X16113055Y-3110000D02*
G75*
G02*
X16087829Y-3103170I0J50001D01*
G01*
X16271945Y-3410000D02*
G75*
G02*
X16297171Y-3416830I0J-50001D01*
G01*
X16297171Y-3103170D02*
G75*
G02*
X16271945Y-3110000I-25226J43171D01*
G01*
X16297171Y-3103170D02*
G75*
G02*
X16367448Y-3168028I25226J-43170D01*
G01*
X16362500Y-3189716D02*
G75*
G02*
X16367448Y-3168028I50035J-8D01*
G01*
X16367448Y-3351972D02*
G75*
G02*
X16297171Y-3416830I-45051J-21688D01*
G01*
X16367448Y-3351972D02*
G75*
G02*
X16362499Y-3330284I45102J21702D01*
G01*
X19356250Y-11762216D02*
X19356250Y-11902784D01*
X19446805Y-11982500D02*
X19605695Y-11982500D01*
X19605695Y-11682500D02*
X19446805Y-11682500D01*
X19696250Y-11902784D02*
X19696250Y-11762216D01*
X19351302Y-11740528D02*
G75*
G02*
X19356250Y-11762216I-45051J-21688D01*
G01*
X19351302Y-11740528D02*
G75*
G02*
X19421579Y-11675670I45051J21688D01*
G01*
X19356250Y-11902784D02*
G75*
G02*
X19351302Y-11924472I-49999J0D01*
G01*
X19421579Y-11989330D02*
G75*
G02*
X19351302Y-11924472I-25226J43170D01*
G01*
X19421579Y-11989330D02*
G75*
G02*
X19446805Y-11982500I25226J-43171D01*
G01*
X19446805Y-11682500D02*
G75*
G02*
X19421579Y-11675670I0J50001D01*
G01*
X19605695Y-11982500D02*
G75*
G02*
X19630921Y-11989330I0J-50001D01*
G01*
X19630921Y-11675670D02*
G75*
G02*
X19605695Y-11682500I-25226J43171D01*
G01*
X19630921Y-11675670D02*
G75*
G02*
X19701198Y-11740528I25226J-43170D01*
G01*
X19696250Y-11762216D02*
G75*
G02*
X19701198Y-11740528I50035J-8D01*
G01*
X19701198Y-11924472D02*
G75*
G02*
X19630921Y-11989330I-45051J-21688D01*
G01*
X19701198Y-11924472D02*
G75*
G02*
X19696249Y-11902784I45102J21702D01*
G01*
X26500000Y-3189716D02*
X26500000Y-3330284D01*
X26590555Y-3410000D02*
X26749445Y-3410000D01*
X26749445Y-3110000D02*
X26590555Y-3110000D01*
X26840000Y-3330284D02*
X26840000Y-3189716D01*
X26495052Y-3168028D02*
G75*
G02*
X26500000Y-3189716I-45051J-21688D01*
G01*
X26495052Y-3168028D02*
G75*
G02*
X26565329Y-3103170I45051J21688D01*
G01*
X26500000Y-3330284D02*
G75*
G02*
X26495052Y-3351972I-49999J0D01*
G01*
X26565329Y-3416830D02*
G75*
G02*
X26495052Y-3351972I-25226J43170D01*
G01*
X26565329Y-3416830D02*
G75*
G02*
X26590555Y-3410000I25226J-43171D01*
G01*
X26590555Y-3110000D02*
G75*
G02*
X26565329Y-3103170I0J50001D01*
G01*
X26749445Y-3410000D02*
G75*
G02*
X26774671Y-3416830I0J-50001D01*
G01*
X26774671Y-3103170D02*
G75*
G02*
X26749445Y-3110000I-25226J43171D01*
G01*
X26774671Y-3103170D02*
G75*
G02*
X26844948Y-3168028I25226J-43170D01*
G01*
X26840000Y-3189716D02*
G75*
G02*
X26844948Y-3168028I50035J-8D01*
G01*
X26844948Y-3351972D02*
G75*
G02*
X26774671Y-3416830I-45051J-21688D01*
G01*
X26844948Y-3351972D02*
G75*
G02*
X26839999Y-3330284I45102J21702D01*
G01*
X4354375Y-9857216D02*
X4354375Y-9997784D01*
X4444930Y-10077500D02*
X4603820Y-10077500D01*
X4603820Y-9777500D02*
X4444930Y-9777500D01*
X4694375Y-9997784D02*
X4694375Y-9857216D01*
X4349427Y-9835528D02*
G75*
G02*
X4354375Y-9857216I-45051J-21688D01*
G01*
X4349427Y-9835528D02*
G75*
G02*
X4419704Y-9770670I45051J21688D01*
G01*
X4354375Y-9997784D02*
G75*
G02*
X4349427Y-10019472I-49999J0D01*
G01*
X4419704Y-10084330D02*
G75*
G02*
X4349427Y-10019472I-25226J43170D01*
G01*
X4419704Y-10084330D02*
G75*
G02*
X4444930Y-10077500I25226J-43171D01*
G01*
X4444930Y-9777500D02*
G75*
G02*
X4419704Y-9770670I0J50001D01*
G01*
X4603820Y-10077500D02*
G75*
G02*
X4629046Y-10084330I0J-50001D01*
G01*
X4629046Y-9770670D02*
G75*
G02*
X4603820Y-9777500I-25226J43171D01*
G01*
X4629046Y-9770670D02*
G75*
G02*
X4699323Y-9835528I25226J-43170D01*
G01*
X4694375Y-9857216D02*
G75*
G02*
X4699323Y-9835528I50035J-8D01*
G01*
X4699323Y-10019472D02*
G75*
G02*
X4629046Y-10084330I-45051J-21688D01*
G01*
X4699323Y-10019472D02*
G75*
G02*
X4694374Y-9997784I45102J21702D01*
G01*
X29119375Y-9857216D02*
X29119375Y-9997784D01*
X29209930Y-10077500D02*
X29368820Y-10077500D01*
X29368820Y-9777500D02*
X29209930Y-9777500D01*
X29459375Y-9997784D02*
X29459375Y-9857216D01*
X29114427Y-9835528D02*
G75*
G02*
X29119375Y-9857216I-45051J-21688D01*
G01*
X29114427Y-9835528D02*
G75*
G02*
X29184704Y-9770670I45051J21688D01*
G01*
X29119375Y-9997784D02*
G75*
G02*
X29114427Y-10019472I-49999J0D01*
G01*
X29184704Y-10084330D02*
G75*
G02*
X29114427Y-10019472I-25226J43170D01*
G01*
X29184704Y-10084330D02*
G75*
G02*
X29209930Y-10077500I25226J-43171D01*
G01*
X29209930Y-9777500D02*
G75*
G02*
X29184704Y-9770670I0J50001D01*
G01*
X29368820Y-10077500D02*
G75*
G02*
X29394046Y-10084330I0J-50001D01*
G01*
X29394046Y-9770670D02*
G75*
G02*
X29368820Y-9777500I-25226J43171D01*
G01*
X29394046Y-9770670D02*
G75*
G02*
X29464323Y-9835528I25226J-43170D01*
G01*
X29459375Y-9857216D02*
G75*
G02*
X29464323Y-9835528I50035J-8D01*
G01*
X29464323Y-10019472D02*
G75*
G02*
X29394046Y-10084330I-45051J-21688D01*
G01*
X29464323Y-10019472D02*
G75*
G02*
X29459374Y-9997784I45102J21702D01*
G01*
X34596250Y-3189716D02*
X34596250Y-3330284D01*
X34686805Y-3410000D02*
X34845695Y-3410000D01*
X34845695Y-3110000D02*
X34686805Y-3110000D01*
X34936250Y-3330284D02*
X34936250Y-3189716D01*
X34591302Y-3168028D02*
G75*
G02*
X34596250Y-3189716I-45051J-21688D01*
G01*
X34591302Y-3168028D02*
G75*
G02*
X34661579Y-3103170I45051J21688D01*
G01*
X34596250Y-3330284D02*
G75*
G02*
X34591302Y-3351972I-49999J0D01*
G01*
X34661579Y-3416830D02*
G75*
G02*
X34591302Y-3351972I-25226J43170D01*
G01*
X34661579Y-3416830D02*
G75*
G02*
X34686805Y-3410000I25226J-43171D01*
G01*
X34686805Y-3110000D02*
G75*
G02*
X34661579Y-3103170I0J50001D01*
G01*
X34845695Y-3410000D02*
G75*
G02*
X34870921Y-3416830I0J-50001D01*
G01*
X34870921Y-3103170D02*
G75*
G02*
X34845695Y-3110000I-25226J43171D01*
G01*
X34870921Y-3103170D02*
G75*
G02*
X34941198Y-3168028I25226J-43170D01*
G01*
X34936250Y-3189716D02*
G75*
G02*
X34941198Y-3168028I50035J-8D01*
G01*
X34941198Y-3351972D02*
G75*
G02*
X34870921Y-3416830I-45051J-21688D01*
G01*
X34941198Y-3351972D02*
G75*
G02*
X34936249Y-3330284I45102J21702D01*
G01*
X7450000Y-6047216D02*
X7450000Y-6187784D01*
X7540555Y-6267500D02*
X7699445Y-6267500D01*
X7699445Y-5967500D02*
X7540555Y-5967500D01*
X7790000Y-6187784D02*
X7790000Y-6047216D01*
X7445052Y-6025528D02*
G75*
G02*
X7450000Y-6047216I-45051J-21688D01*
G01*
X7445052Y-6025528D02*
G75*
G02*
X7515329Y-5960670I45051J21688D01*
G01*
X7450000Y-6187784D02*
G75*
G02*
X7445052Y-6209472I-49999J0D01*
G01*
X7515329Y-6274330D02*
G75*
G02*
X7445052Y-6209472I-25226J43170D01*
G01*
X7515329Y-6274330D02*
G75*
G02*
X7540555Y-6267500I25226J-43171D01*
G01*
X7540555Y-5967500D02*
G75*
G02*
X7515329Y-5960670I0J50001D01*
G01*
X7699445Y-6267500D02*
G75*
G02*
X7724671Y-6274330I0J-50001D01*
G01*
X7724671Y-5960670D02*
G75*
G02*
X7699445Y-5967500I-25226J43171D01*
G01*
X7724671Y-5960670D02*
G75*
G02*
X7794948Y-6025528I25226J-43170D01*
G01*
X7790000Y-6047216D02*
G75*
G02*
X7794948Y-6025528I50035J-8D01*
G01*
X7794948Y-6209472D02*
G75*
G02*
X7724671Y-6274330I-45051J-21688D01*
G01*
X7794948Y-6209472D02*
G75*
G02*
X7789999Y-6187784I45102J21702D01*
G01*
X17927500Y-3189716D02*
X17927500Y-3330284D01*
X18018055Y-3410000D02*
X18176945Y-3410000D01*
X18176945Y-3110000D02*
X18018055Y-3110000D01*
X18267500Y-3330284D02*
X18267500Y-3189716D01*
X17922552Y-3168028D02*
G75*
G02*
X17927500Y-3189716I-45051J-21688D01*
G01*
X17922552Y-3168028D02*
G75*
G02*
X17992829Y-3103170I45051J21688D01*
G01*
X17927500Y-3330284D02*
G75*
G02*
X17922552Y-3351972I-49999J0D01*
G01*
X17992829Y-3416830D02*
G75*
G02*
X17922552Y-3351972I-25226J43170D01*
G01*
X17992829Y-3416830D02*
G75*
G02*
X18018055Y-3410000I25226J-43171D01*
G01*
X18018055Y-3110000D02*
G75*
G02*
X17992829Y-3103170I0J50001D01*
G01*
X18176945Y-3410000D02*
G75*
G02*
X18202171Y-3416830I0J-50001D01*
G01*
X18202171Y-3103170D02*
G75*
G02*
X18176945Y-3110000I-25226J43171D01*
G01*
X18202171Y-3103170D02*
G75*
G02*
X18272448Y-3168028I25226J-43170D01*
G01*
X18267500Y-3189716D02*
G75*
G02*
X18272448Y-3168028I50035J-8D01*
G01*
X18272448Y-3351972D02*
G75*
G02*
X18202171Y-3416830I-45051J-21688D01*
G01*
X18272448Y-3351972D02*
G75*
G02*
X18267499Y-3330284I45102J21702D01*
G01*
X32691250Y-13667216D02*
X32691250Y-13807784D01*
X32781805Y-13887500D02*
X32940695Y-13887500D01*
X32940695Y-13587500D02*
X32781805Y-13587500D01*
X33031250Y-13807784D02*
X33031250Y-13667216D01*
X32686302Y-13645528D02*
G75*
G02*
X32691250Y-13667216I-45051J-21688D01*
G01*
X32686302Y-13645528D02*
G75*
G02*
X32756579Y-13580670I45051J21688D01*
G01*
X32691250Y-13807784D02*
G75*
G02*
X32686302Y-13829472I-49999J0D01*
G01*
X32756579Y-13894330D02*
G75*
G02*
X32686302Y-13829472I-25226J43170D01*
G01*
X32756579Y-13894330D02*
G75*
G02*
X32781805Y-13887500I25226J-43171D01*
G01*
X32781805Y-13587500D02*
G75*
G02*
X32756579Y-13580670I0J50001D01*
G01*
X32940695Y-13887500D02*
G75*
G02*
X32965921Y-13894330I0J-50001D01*
G01*
X32965921Y-13580670D02*
G75*
G02*
X32940695Y-13587500I-25226J43171D01*
G01*
X32965921Y-13580670D02*
G75*
G02*
X33036198Y-13645528I25226J-43170D01*
G01*
X33031250Y-13667216D02*
G75*
G02*
X33036198Y-13645528I50035J-8D01*
G01*
X33036198Y-13829472D02*
G75*
G02*
X32965921Y-13894330I-45051J-21688D01*
G01*
X33036198Y-13829472D02*
G75*
G02*
X33031249Y-13807784I45102J21702D01*
G01*
X5545000Y-6047216D02*
X5545000Y-6187784D01*
X5635555Y-6267500D02*
X5794445Y-6267500D01*
X5794445Y-5967500D02*
X5635555Y-5967500D01*
X5885000Y-6187784D02*
X5885000Y-6047216D01*
X5540052Y-6025528D02*
G75*
G02*
X5545000Y-6047216I-45051J-21688D01*
G01*
X5540052Y-6025528D02*
G75*
G02*
X5610329Y-5960670I45051J21688D01*
G01*
X5545000Y-6187784D02*
G75*
G02*
X5540052Y-6209472I-49999J0D01*
G01*
X5610329Y-6274330D02*
G75*
G02*
X5540052Y-6209472I-25226J43170D01*
G01*
X5610329Y-6274330D02*
G75*
G02*
X5635555Y-6267500I25226J-43171D01*
G01*
X5635555Y-5967500D02*
G75*
G02*
X5610329Y-5960670I0J50001D01*
G01*
X5794445Y-6267500D02*
G75*
G02*
X5819671Y-6274330I0J-50001D01*
G01*
X5819671Y-5960670D02*
G75*
G02*
X5794445Y-5967500I-25226J43171D01*
G01*
X5819671Y-5960670D02*
G75*
G02*
X5889948Y-6025528I25226J-43170D01*
G01*
X5885000Y-6047216D02*
G75*
G02*
X5889948Y-6025528I50035J-8D01*
G01*
X5889948Y-6209472D02*
G75*
G02*
X5819671Y-6274330I-45051J-21688D01*
G01*
X5889948Y-6209472D02*
G75*
G02*
X5884999Y-6187784I45102J21702D01*
G01*
X15784375Y-13667216D02*
X15784375Y-13807784D01*
X15874930Y-13887500D02*
X16033820Y-13887500D01*
X16033820Y-13587500D02*
X15874930Y-13587500D01*
X16124375Y-13807784D02*
X16124375Y-13667216D01*
X15779427Y-13645528D02*
G75*
G02*
X15784375Y-13667216I-45051J-21688D01*
G01*
X15779427Y-13645528D02*
G75*
G02*
X15849704Y-13580670I45051J21688D01*
G01*
X15784375Y-13807784D02*
G75*
G02*
X15779427Y-13829472I-49999J0D01*
G01*
X15849704Y-13894330D02*
G75*
G02*
X15779427Y-13829472I-25226J43170D01*
G01*
X15849704Y-13894330D02*
G75*
G02*
X15874930Y-13887500I25226J-43171D01*
G01*
X15874930Y-13587500D02*
G75*
G02*
X15849704Y-13580670I0J50001D01*
G01*
X16033820Y-13887500D02*
G75*
G02*
X16059046Y-13894330I0J-50001D01*
G01*
X16059046Y-13580670D02*
G75*
G02*
X16033820Y-13587500I-25226J43171D01*
G01*
X16059046Y-13580670D02*
G75*
G02*
X16129323Y-13645528I25226J-43170D01*
G01*
X16124375Y-13667216D02*
G75*
G02*
X16129323Y-13645528I50035J-8D01*
G01*
X16129323Y-13829472D02*
G75*
G02*
X16059046Y-13894330I-45051J-21688D01*
G01*
X16129323Y-13829472D02*
G75*
G02*
X16124374Y-13807784I45102J21702D01*
G01*
X8402500Y-7952216D02*
X8402500Y-8092784D01*
X8493055Y-8172500D02*
X8651945Y-8172500D01*
X8651945Y-7872500D02*
X8493055Y-7872500D01*
X8742500Y-8092784D02*
X8742500Y-7952216D01*
X8397552Y-7930528D02*
G75*
G02*
X8402500Y-7952216I-45051J-21688D01*
G01*
X8397552Y-7930528D02*
G75*
G02*
X8467829Y-7865670I45051J21688D01*
G01*
X8402500Y-8092784D02*
G75*
G02*
X8397552Y-8114472I-49999J0D01*
G01*
X8467829Y-8179330D02*
G75*
G02*
X8397552Y-8114472I-25226J43170D01*
G01*
X8467829Y-8179330D02*
G75*
G02*
X8493055Y-8172500I25226J-43171D01*
G01*
X8493055Y-7872500D02*
G75*
G02*
X8467829Y-7865670I0J50001D01*
G01*
X8651945Y-8172500D02*
G75*
G02*
X8677171Y-8179330I0J-50001D01*
G01*
X8677171Y-7865670D02*
G75*
G02*
X8651945Y-7872500I-25226J43171D01*
G01*
X8677171Y-7865670D02*
G75*
G02*
X8747448Y-7930528I25226J-43170D01*
G01*
X8742500Y-7952216D02*
G75*
G02*
X8747448Y-7930528I50035J-8D01*
G01*
X8747448Y-8114472D02*
G75*
G02*
X8677171Y-8179330I-45051J-21688D01*
G01*
X8747448Y-8114472D02*
G75*
G02*
X8742499Y-8092784I45102J21702D01*
G01*
X29833750Y-7952216D02*
X29833750Y-8092784D01*
X29924305Y-8172500D02*
X30083195Y-8172500D01*
X30083195Y-7872500D02*
X29924305Y-7872500D01*
X30173750Y-8092784D02*
X30173750Y-7952216D01*
X29828802Y-7930528D02*
G75*
G02*
X29833750Y-7952216I-45051J-21688D01*
G01*
X29828802Y-7930528D02*
G75*
G02*
X29899079Y-7865670I45051J21688D01*
G01*
X29833750Y-8092784D02*
G75*
G02*
X29828802Y-8114472I-49999J0D01*
G01*
X29899079Y-8179330D02*
G75*
G02*
X29828802Y-8114472I-25226J43170D01*
G01*
X29899079Y-8179330D02*
G75*
G02*
X29924305Y-8172500I25226J-43171D01*
G01*
X29924305Y-7872500D02*
G75*
G02*
X29899079Y-7865670I0J50001D01*
G01*
X30083195Y-8172500D02*
G75*
G02*
X30108421Y-8179330I0J-50001D01*
G01*
X30108421Y-7865670D02*
G75*
G02*
X30083195Y-7872500I-25226J43171D01*
G01*
X30108421Y-7865670D02*
G75*
G02*
X30178698Y-7930528I25226J-43170D01*
G01*
X30173750Y-7952216D02*
G75*
G02*
X30178698Y-7930528I50035J-8D01*
G01*
X30178698Y-8114472D02*
G75*
G02*
X30108421Y-8179330I-45051J-21688D01*
G01*
X30178698Y-8114472D02*
G75*
G02*
X30173749Y-8092784I45102J21702D01*
G01*
X18403750Y-9857216D02*
X18403750Y-9997784D01*
X18494305Y-10077500D02*
X18653195Y-10077500D01*
X18653195Y-9777500D02*
X18494305Y-9777500D01*
X18743750Y-9997784D02*
X18743750Y-9857216D01*
X18398802Y-9835528D02*
G75*
G02*
X18403750Y-9857216I-45051J-21688D01*
G01*
X18398802Y-9835528D02*
G75*
G02*
X18469079Y-9770670I45051J21688D01*
G01*
X18403750Y-9997784D02*
G75*
G02*
X18398802Y-10019472I-49999J0D01*
G01*
X18469079Y-10084330D02*
G75*
G02*
X18398802Y-10019472I-25226J43170D01*
G01*
X18469079Y-10084330D02*
G75*
G02*
X18494305Y-10077500I25226J-43171D01*
G01*
X18494305Y-9777500D02*
G75*
G02*
X18469079Y-9770670I0J50001D01*
G01*
X18653195Y-10077500D02*
G75*
G02*
X18678421Y-10084330I0J-50001D01*
G01*
X18678421Y-9770670D02*
G75*
G02*
X18653195Y-9777500I-25226J43171D01*
G01*
X18678421Y-9770670D02*
G75*
G02*
X18748698Y-9835528I25226J-43170D01*
G01*
X18743750Y-9857216D02*
G75*
G02*
X18748698Y-9835528I50035J-8D01*
G01*
X18748698Y-10019472D02*
G75*
G02*
X18678421Y-10084330I-45051J-21688D01*
G01*
X18748698Y-10019472D02*
G75*
G02*
X18743749Y-9997784I45102J21702D01*
G01*
X34596250Y-13667216D02*
X34596250Y-13807784D01*
X34686805Y-13887500D02*
X34845695Y-13887500D01*
X34845695Y-13587500D02*
X34686805Y-13587500D01*
X34936250Y-13807784D02*
X34936250Y-13667216D01*
X34591302Y-13645528D02*
G75*
G02*
X34596250Y-13667216I-45051J-21688D01*
G01*
X34591302Y-13645528D02*
G75*
G02*
X34661579Y-13580670I45051J21688D01*
G01*
X34596250Y-13807784D02*
G75*
G02*
X34591302Y-13829472I-49999J0D01*
G01*
X34661579Y-13894330D02*
G75*
G02*
X34591302Y-13829472I-25226J43170D01*
G01*
X34661579Y-13894330D02*
G75*
G02*
X34686805Y-13887500I25226J-43171D01*
G01*
X34686805Y-13587500D02*
G75*
G02*
X34661579Y-13580670I0J50001D01*
G01*
X34845695Y-13887500D02*
G75*
G02*
X34870921Y-13894330I0J-50001D01*
G01*
X34870921Y-13580670D02*
G75*
G02*
X34845695Y-13587500I-25226J43171D01*
G01*
X34870921Y-13580670D02*
G75*
G02*
X34941198Y-13645528I25226J-43170D01*
G01*
X34936250Y-13667216D02*
G75*
G02*
X34941198Y-13645528I50035J-8D01*
G01*
X34941198Y-13829472D02*
G75*
G02*
X34870921Y-13894330I-45051J-21688D01*
G01*
X34941198Y-13829472D02*
G75*
G02*
X34936249Y-13807784I45102J21702D01*
G01*
X16498750Y-9857216D02*
X16498750Y-9997784D01*
X16589305Y-10077500D02*
X16748195Y-10077500D01*
X16748195Y-9777500D02*
X16589305Y-9777500D01*
X16838750Y-9997784D02*
X16838750Y-9857216D01*
X16493802Y-9835528D02*
G75*
G02*
X16498750Y-9857216I-45051J-21688D01*
G01*
X16493802Y-9835528D02*
G75*
G02*
X16564079Y-9770670I45051J21688D01*
G01*
X16498750Y-9997784D02*
G75*
G02*
X16493802Y-10019472I-49999J0D01*
G01*
X16564079Y-10084330D02*
G75*
G02*
X16493802Y-10019472I-25226J43170D01*
G01*
X16564079Y-10084330D02*
G75*
G02*
X16589305Y-10077500I25226J-43171D01*
G01*
X16589305Y-9777500D02*
G75*
G02*
X16564079Y-9770670I0J50001D01*
G01*
X16748195Y-10077500D02*
G75*
G02*
X16773421Y-10084330I0J-50001D01*
G01*
X16773421Y-9770670D02*
G75*
G02*
X16748195Y-9777500I-25226J43171D01*
G01*
X16773421Y-9770670D02*
G75*
G02*
X16843698Y-9835528I25226J-43170D01*
G01*
X16838750Y-9857216D02*
G75*
G02*
X16843698Y-9835528I50035J-8D01*
G01*
X16843698Y-10019472D02*
G75*
G02*
X16773421Y-10084330I-45051J-21688D01*
G01*
X16843698Y-10019472D02*
G75*
G02*
X16838749Y-9997784I45102J21702D01*
G01*
X20785000Y-6047216D02*
X20785000Y-6187784D01*
X20875555Y-6267500D02*
X21034445Y-6267500D01*
X21034445Y-5967500D02*
X20875555Y-5967500D01*
X21125000Y-6187784D02*
X21125000Y-6047216D01*
X20780052Y-6025528D02*
G75*
G02*
X20785000Y-6047216I-45051J-21688D01*
G01*
X20780052Y-6025528D02*
G75*
G02*
X20850329Y-5960670I45051J21688D01*
G01*
X20785000Y-6187784D02*
G75*
G02*
X20780052Y-6209472I-49999J0D01*
G01*
X20850329Y-6274330D02*
G75*
G02*
X20780052Y-6209472I-25226J43170D01*
G01*
X20850329Y-6274330D02*
G75*
G02*
X20875555Y-6267500I25226J-43171D01*
G01*
X20875555Y-5967500D02*
G75*
G02*
X20850329Y-5960670I0J50001D01*
G01*
X21034445Y-6267500D02*
G75*
G02*
X21059671Y-6274330I0J-50001D01*
G01*
X21059671Y-5960670D02*
G75*
G02*
X21034445Y-5967500I-25226J43171D01*
G01*
X21059671Y-5960670D02*
G75*
G02*
X21129948Y-6025528I25226J-43170D01*
G01*
X21125000Y-6047216D02*
G75*
G02*
X21129948Y-6025528I50035J-8D01*
G01*
X21129948Y-6209472D02*
G75*
G02*
X21059671Y-6274330I-45051J-21688D01*
G01*
X21129948Y-6209472D02*
G75*
G02*
X21124999Y-6187784I45102J21702D01*
G01*
X12688750Y-9857216D02*
X12688750Y-9997784D01*
X12779305Y-10077500D02*
X12938195Y-10077500D01*
X12938195Y-9777500D02*
X12779305Y-9777500D01*
X13028750Y-9997784D02*
X13028750Y-9857216D01*
X12683802Y-9835528D02*
G75*
G02*
X12688750Y-9857216I-45051J-21688D01*
G01*
X12683802Y-9835528D02*
G75*
G02*
X12754079Y-9770670I45051J21688D01*
G01*
X12688750Y-9997784D02*
G75*
G02*
X12683802Y-10019472I-49999J0D01*
G01*
X12754079Y-10084330D02*
G75*
G02*
X12683802Y-10019472I-25226J43170D01*
G01*
X12754079Y-10084330D02*
G75*
G02*
X12779305Y-10077500I25226J-43171D01*
G01*
X12779305Y-9777500D02*
G75*
G02*
X12754079Y-9770670I0J50001D01*
G01*
X12938195Y-10077500D02*
G75*
G02*
X12963421Y-10084330I0J-50001D01*
G01*
X12963421Y-9770670D02*
G75*
G02*
X12938195Y-9777500I-25226J43171D01*
G01*
X12963421Y-9770670D02*
G75*
G02*
X13033698Y-9835528I25226J-43170D01*
G01*
X13028750Y-9857216D02*
G75*
G02*
X13033698Y-9835528I50035J-8D01*
G01*
X13033698Y-10019472D02*
G75*
G02*
X12963421Y-10084330I-45051J-21688D01*
G01*
X13033698Y-10019472D02*
G75*
G02*
X13028749Y-9997784I45102J21702D01*
G01*
X10783750Y-9857216D02*
X10783750Y-9997784D01*
X10874305Y-10077500D02*
X11033195Y-10077500D01*
X11033195Y-9777500D02*
X10874305Y-9777500D01*
X11123750Y-9997784D02*
X11123750Y-9857216D01*
X10778802Y-9835528D02*
G75*
G02*
X10783750Y-9857216I-45051J-21688D01*
G01*
X10778802Y-9835528D02*
G75*
G02*
X10849079Y-9770670I45051J21688D01*
G01*
X10783750Y-9997784D02*
G75*
G02*
X10778802Y-10019472I-49999J0D01*
G01*
X10849079Y-10084330D02*
G75*
G02*
X10778802Y-10019472I-25226J43170D01*
G01*
X10849079Y-10084330D02*
G75*
G02*
X10874305Y-10077500I25226J-43171D01*
G01*
X10874305Y-9777500D02*
G75*
G02*
X10849079Y-9770670I0J50001D01*
G01*
X11033195Y-10077500D02*
G75*
G02*
X11058421Y-10084330I0J-50001D01*
G01*
X11058421Y-9770670D02*
G75*
G02*
X11033195Y-9777500I-25226J43171D01*
G01*
X11058421Y-9770670D02*
G75*
G02*
X11128698Y-9835528I25226J-43170D01*
G01*
X11123750Y-9857216D02*
G75*
G02*
X11128698Y-9835528I50035J-8D01*
G01*
X11128698Y-10019472D02*
G75*
G02*
X11058421Y-10084330I-45051J-21688D01*
G01*
X11128698Y-10019472D02*
G75*
G02*
X11123749Y-9997784I45102J21702D01*
G01*
X28405000Y-3189716D02*
X28405000Y-3330284D01*
X28495555Y-3410000D02*
X28654445Y-3410000D01*
X28654445Y-3110000D02*
X28495555Y-3110000D01*
X28745000Y-3330284D02*
X28745000Y-3189716D01*
X28400052Y-3168028D02*
G75*
G02*
X28405000Y-3189716I-45051J-21688D01*
G01*
X28400052Y-3168028D02*
G75*
G02*
X28470329Y-3103170I45051J21688D01*
G01*
X28405000Y-3330284D02*
G75*
G02*
X28400052Y-3351972I-49999J0D01*
G01*
X28470329Y-3416830D02*
G75*
G02*
X28400052Y-3351972I-25226J43170D01*
G01*
X28470329Y-3416830D02*
G75*
G02*
X28495555Y-3410000I25226J-43171D01*
G01*
X28495555Y-3110000D02*
G75*
G02*
X28470329Y-3103170I0J50001D01*
G01*
X28654445Y-3410000D02*
G75*
G02*
X28679671Y-3416830I0J-50001D01*
G01*
X28679671Y-3103170D02*
G75*
G02*
X28654445Y-3110000I-25226J43171D01*
G01*
X28679671Y-3103170D02*
G75*
G02*
X28749948Y-3168028I25226J-43170D01*
G01*
X28745000Y-3189716D02*
G75*
G02*
X28749948Y-3168028I50035J-8D01*
G01*
X28749948Y-3351972D02*
G75*
G02*
X28679671Y-3416830I-45051J-21688D01*
G01*
X28749948Y-3351972D02*
G75*
G02*
X28744999Y-3330284I45102J21702D01*
G01*
X11260000Y-3189716D02*
X11260000Y-3330284D01*
X11350555Y-3410000D02*
X11509445Y-3410000D01*
X11509445Y-3110000D02*
X11350555Y-3110000D01*
X11600000Y-3330284D02*
X11600000Y-3189716D01*
X11255052Y-3168028D02*
G75*
G02*
X11260000Y-3189716I-45051J-21688D01*
G01*
X11255052Y-3168028D02*
G75*
G02*
X11325329Y-3103170I45051J21688D01*
G01*
X11260000Y-3330284D02*
G75*
G02*
X11255052Y-3351972I-49999J0D01*
G01*
X11325329Y-3416830D02*
G75*
G02*
X11255052Y-3351972I-25226J43170D01*
G01*
X11325329Y-3416830D02*
G75*
G02*
X11350555Y-3410000I25226J-43171D01*
G01*
X11350555Y-3110000D02*
G75*
G02*
X11325329Y-3103170I0J50001D01*
G01*
X11509445Y-3410000D02*
G75*
G02*
X11534671Y-3416830I0J-50001D01*
G01*
X11534671Y-3103170D02*
G75*
G02*
X11509445Y-3110000I-25226J43171D01*
G01*
X11534671Y-3103170D02*
G75*
G02*
X11604948Y-3168028I25226J-43170D01*
G01*
X11600000Y-3189716D02*
G75*
G02*
X11604948Y-3168028I50035J-8D01*
G01*
X11604948Y-3351972D02*
G75*
G02*
X11534671Y-3416830I-45051J-21688D01*
G01*
X11604948Y-3351972D02*
G75*
G02*
X11599999Y-3330284I45102J21702D01*
G01*
X6973750Y-9857216D02*
X6973750Y-9997784D01*
X7064305Y-10077500D02*
X7223195Y-10077500D01*
X7223195Y-9777500D02*
X7064305Y-9777500D01*
X7313750Y-9997784D02*
X7313750Y-9857216D01*
X6968802Y-9835528D02*
G75*
G02*
X6973750Y-9857216I-45051J-21688D01*
G01*
X6968802Y-9835528D02*
G75*
G02*
X7039079Y-9770670I45051J21688D01*
G01*
X6973750Y-9997784D02*
G75*
G02*
X6968802Y-10019472I-49999J0D01*
G01*
X7039079Y-10084330D02*
G75*
G02*
X6968802Y-10019472I-25226J43170D01*
G01*
X7039079Y-10084330D02*
G75*
G02*
X7064305Y-10077500I25226J-43171D01*
G01*
X7064305Y-9777500D02*
G75*
G02*
X7039079Y-9770670I0J50001D01*
G01*
X7223195Y-10077500D02*
G75*
G02*
X7248421Y-10084330I0J-50001D01*
G01*
X7248421Y-9770670D02*
G75*
G02*
X7223195Y-9777500I-25226J43171D01*
G01*
X7248421Y-9770670D02*
G75*
G02*
X7318698Y-9835528I25226J-43170D01*
G01*
X7313750Y-9857216D02*
G75*
G02*
X7318698Y-9835528I50035J-8D01*
G01*
X7318698Y-10019472D02*
G75*
G02*
X7248421Y-10084330I-45051J-21688D01*
G01*
X7318698Y-10019472D02*
G75*
G02*
X7313749Y-9997784I45102J21702D01*
G01*
X12212500Y-7952216D02*
X12212500Y-8092784D01*
X12303055Y-8172500D02*
X12461945Y-8172500D01*
X12461945Y-7872500D02*
X12303055Y-7872500D01*
X12552500Y-8092784D02*
X12552500Y-7952216D01*
X12207552Y-7930528D02*
G75*
G02*
X12212500Y-7952216I-45051J-21688D01*
G01*
X12207552Y-7930528D02*
G75*
G02*
X12277829Y-7865670I45051J21688D01*
G01*
X12212500Y-8092784D02*
G75*
G02*
X12207552Y-8114472I-49999J0D01*
G01*
X12277829Y-8179330D02*
G75*
G02*
X12207552Y-8114472I-25226J43170D01*
G01*
X12277829Y-8179330D02*
G75*
G02*
X12303055Y-8172500I25226J-43171D01*
G01*
X12303055Y-7872500D02*
G75*
G02*
X12277829Y-7865670I0J50001D01*
G01*
X12461945Y-8172500D02*
G75*
G02*
X12487171Y-8179330I0J-50001D01*
G01*
X12487171Y-7865670D02*
G75*
G02*
X12461945Y-7872500I-25226J43171D01*
G01*
X12487171Y-7865670D02*
G75*
G02*
X12557448Y-7930528I25226J-43170D01*
G01*
X12552500Y-7952216D02*
G75*
G02*
X12557448Y-7930528I50035J-8D01*
G01*
X12557448Y-8114472D02*
G75*
G02*
X12487171Y-8179330I-45051J-21688D01*
G01*
X12557448Y-8114472D02*
G75*
G02*
X12552499Y-8092784I45102J21702D01*
G01*
X13165000Y-3189716D02*
X13165000Y-3330284D01*
X13255555Y-3410000D02*
X13414445Y-3410000D01*
X13414445Y-3110000D02*
X13255555Y-3110000D01*
X13505000Y-3330284D02*
X13505000Y-3189716D01*
X13160052Y-3168028D02*
G75*
G02*
X13165000Y-3189716I-45051J-21688D01*
G01*
X13160052Y-3168028D02*
G75*
G02*
X13230329Y-3103170I45051J21688D01*
G01*
X13165000Y-3330284D02*
G75*
G02*
X13160052Y-3351972I-49999J0D01*
G01*
X13230329Y-3416830D02*
G75*
G02*
X13160052Y-3351972I-25226J43170D01*
G01*
X13230329Y-3416830D02*
G75*
G02*
X13255555Y-3410000I25226J-43171D01*
G01*
X13255555Y-3110000D02*
G75*
G02*
X13230329Y-3103170I0J50001D01*
G01*
X13414445Y-3410000D02*
G75*
G02*
X13439671Y-3416830I0J-50001D01*
G01*
X13439671Y-3103170D02*
G75*
G02*
X13414445Y-3110000I-25226J43171D01*
G01*
X13439671Y-3103170D02*
G75*
G02*
X13509948Y-3168028I25226J-43170D01*
G01*
X13505000Y-3189716D02*
G75*
G02*
X13509948Y-3168028I50035J-8D01*
G01*
X13509948Y-3351972D02*
G75*
G02*
X13439671Y-3416830I-45051J-21688D01*
G01*
X13509948Y-3351972D02*
G75*
G02*
X13504999Y-3330284I45102J21702D01*
G01*
X18880000Y-6047216D02*
X18880000Y-6187784D01*
X18970555Y-6267500D02*
X19129445Y-6267500D01*
X19129445Y-5967500D02*
X18970555Y-5967500D01*
X19220000Y-6187784D02*
X19220000Y-6047216D01*
X18875052Y-6025528D02*
G75*
G02*
X18880000Y-6047216I-45051J-21688D01*
G01*
X18875052Y-6025528D02*
G75*
G02*
X18945329Y-5960670I45051J21688D01*
G01*
X18880000Y-6187784D02*
G75*
G02*
X18875052Y-6209472I-49999J0D01*
G01*
X18945329Y-6274330D02*
G75*
G02*
X18875052Y-6209472I-25226J43170D01*
G01*
X18945329Y-6274330D02*
G75*
G02*
X18970555Y-6267500I25226J-43171D01*
G01*
X18970555Y-5967500D02*
G75*
G02*
X18945329Y-5960670I0J50001D01*
G01*
X19129445Y-6267500D02*
G75*
G02*
X19154671Y-6274330I0J-50001D01*
G01*
X19154671Y-5960670D02*
G75*
G02*
X19129445Y-5967500I-25226J43171D01*
G01*
X19154671Y-5960670D02*
G75*
G02*
X19224948Y-6025528I25226J-43170D01*
G01*
X19220000Y-6047216D02*
G75*
G02*
X19224948Y-6025528I50035J-8D01*
G01*
X19224948Y-6209472D02*
G75*
G02*
X19154671Y-6274330I-45051J-21688D01*
G01*
X19224948Y-6209472D02*
G75*
G02*
X19219999Y-6187784I45102J21702D01*
G01*
X24118750Y-9857216D02*
X24118750Y-9997784D01*
X24209305Y-10077500D02*
X24368195Y-10077500D01*
X24368195Y-9777500D02*
X24209305Y-9777500D01*
X24458750Y-9997784D02*
X24458750Y-9857216D01*
X24113802Y-9835528D02*
G75*
G02*
X24118750Y-9857216I-45051J-21688D01*
G01*
X24113802Y-9835528D02*
G75*
G02*
X24184079Y-9770670I45051J21688D01*
G01*
X24118750Y-9997784D02*
G75*
G02*
X24113802Y-10019472I-49999J0D01*
G01*
X24184079Y-10084330D02*
G75*
G02*
X24113802Y-10019472I-25226J43170D01*
G01*
X24184079Y-10084330D02*
G75*
G02*
X24209305Y-10077500I25226J-43171D01*
G01*
X24209305Y-9777500D02*
G75*
G02*
X24184079Y-9770670I0J50001D01*
G01*
X24368195Y-10077500D02*
G75*
G02*
X24393421Y-10084330I0J-50001D01*
G01*
X24393421Y-9770670D02*
G75*
G02*
X24368195Y-9777500I-25226J43171D01*
G01*
X24393421Y-9770670D02*
G75*
G02*
X24463698Y-9835528I25226J-43170D01*
G01*
X24458750Y-9857216D02*
G75*
G02*
X24463698Y-9835528I50035J-8D01*
G01*
X24463698Y-10019472D02*
G75*
G02*
X24393421Y-10084330I-45051J-21688D01*
G01*
X24463698Y-10019472D02*
G75*
G02*
X24458749Y-9997784I45102J21702D01*
G01*
X17927500Y-7952216D02*
X17927500Y-8092784D01*
X18018055Y-8172500D02*
X18176945Y-8172500D01*
X18176945Y-7872500D02*
X18018055Y-7872500D01*
X18267500Y-8092784D02*
X18267500Y-7952216D01*
X17922552Y-7930528D02*
G75*
G02*
X17927500Y-7952216I-45051J-21688D01*
G01*
X17922552Y-7930528D02*
G75*
G02*
X17992829Y-7865670I45051J21688D01*
G01*
X17927500Y-8092784D02*
G75*
G02*
X17922552Y-8114472I-49999J0D01*
G01*
X17992829Y-8179330D02*
G75*
G02*
X17922552Y-8114472I-25226J43170D01*
G01*
X17992829Y-8179330D02*
G75*
G02*
X18018055Y-8172500I25226J-43171D01*
G01*
X18018055Y-7872500D02*
G75*
G02*
X17992829Y-7865670I0J50001D01*
G01*
X18176945Y-8172500D02*
G75*
G02*
X18202171Y-8179330I0J-50001D01*
G01*
X18202171Y-7865670D02*
G75*
G02*
X18176945Y-7872500I-25226J43171D01*
G01*
X18202171Y-7865670D02*
G75*
G02*
X18272448Y-7930528I25226J-43170D01*
G01*
X18267500Y-7952216D02*
G75*
G02*
X18272448Y-7930528I50035J-8D01*
G01*
X18272448Y-8114472D02*
G75*
G02*
X18202171Y-8179330I-45051J-21688D01*
G01*
X18272448Y-8114472D02*
G75*
G02*
X18267499Y-8092784I45102J21702D01*
G01*
X27690625Y-13667216D02*
X27690625Y-13807784D01*
X27781180Y-13887500D02*
X27940070Y-13887500D01*
X27940070Y-13587500D02*
X27781180Y-13587500D01*
X28030625Y-13807784D02*
X28030625Y-13667216D01*
X27685677Y-13645528D02*
G75*
G02*
X27690625Y-13667216I-45051J-21688D01*
G01*
X27685677Y-13645528D02*
G75*
G02*
X27755954Y-13580670I45051J21688D01*
G01*
X27690625Y-13807784D02*
G75*
G02*
X27685677Y-13829472I-49999J0D01*
G01*
X27755954Y-13894330D02*
G75*
G02*
X27685677Y-13829472I-25226J43170D01*
G01*
X27755954Y-13894330D02*
G75*
G02*
X27781180Y-13887500I25226J-43171D01*
G01*
X27781180Y-13587500D02*
G75*
G02*
X27755954Y-13580670I0J50001D01*
G01*
X27940070Y-13887500D02*
G75*
G02*
X27965296Y-13894330I0J-50001D01*
G01*
X27965296Y-13580670D02*
G75*
G02*
X27940070Y-13587500I-25226J43171D01*
G01*
X27965296Y-13580670D02*
G75*
G02*
X28035573Y-13645528I25226J-43170D01*
G01*
X28030625Y-13667216D02*
G75*
G02*
X28035573Y-13645528I50035J-8D01*
G01*
X28035573Y-13829472D02*
G75*
G02*
X27965296Y-13894330I-45051J-21688D01*
G01*
X28035573Y-13829472D02*
G75*
G02*
X28030624Y-13807784I45102J21702D01*
G01*
X23642500Y-7952216D02*
X23642500Y-8092784D01*
X23733055Y-8172500D02*
X23891945Y-8172500D01*
X23891945Y-7872500D02*
X23733055Y-7872500D01*
X23982500Y-8092784D02*
X23982500Y-7952216D01*
X23637552Y-7930528D02*
G75*
G02*
X23642500Y-7952216I-45051J-21688D01*
G01*
X23637552Y-7930528D02*
G75*
G02*
X23707829Y-7865670I45051J21688D01*
G01*
X23642500Y-8092784D02*
G75*
G02*
X23637552Y-8114472I-49999J0D01*
G01*
X23707829Y-8179330D02*
G75*
G02*
X23637552Y-8114472I-25226J43170D01*
G01*
X23707829Y-8179330D02*
G75*
G02*
X23733055Y-8172500I25226J-43171D01*
G01*
X23733055Y-7872500D02*
G75*
G02*
X23707829Y-7865670I0J50001D01*
G01*
X23891945Y-8172500D02*
G75*
G02*
X23917171Y-8179330I0J-50001D01*
G01*
X23917171Y-7865670D02*
G75*
G02*
X23891945Y-7872500I-25226J43171D01*
G01*
X23917171Y-7865670D02*
G75*
G02*
X23987448Y-7930528I25226J-43170D01*
G01*
X23982500Y-7952216D02*
G75*
G02*
X23987448Y-7930528I50035J-8D01*
G01*
X23987448Y-8114472D02*
G75*
G02*
X23917171Y-8179330I-45051J-21688D01*
G01*
X23987448Y-8114472D02*
G75*
G02*
X23982499Y-8092784I45102J21702D01*
G01*
X21737500Y-3189716D02*
X21737500Y-3330284D01*
X21828055Y-3410000D02*
X21986945Y-3410000D01*
X21986945Y-3110000D02*
X21828055Y-3110000D01*
X22077500Y-3330284D02*
X22077500Y-3189716D01*
X21732552Y-3168028D02*
G75*
G02*
X21737500Y-3189716I-45051J-21688D01*
G01*
X21732552Y-3168028D02*
G75*
G02*
X21802829Y-3103170I45051J21688D01*
G01*
X21737500Y-3330284D02*
G75*
G02*
X21732552Y-3351972I-49999J0D01*
G01*
X21802829Y-3416830D02*
G75*
G02*
X21732552Y-3351972I-25226J43170D01*
G01*
X21802829Y-3416830D02*
G75*
G02*
X21828055Y-3410000I25226J-43171D01*
G01*
X21828055Y-3110000D02*
G75*
G02*
X21802829Y-3103170I0J50001D01*
G01*
X21986945Y-3410000D02*
G75*
G02*
X22012171Y-3416830I0J-50001D01*
G01*
X22012171Y-3103170D02*
G75*
G02*
X21986945Y-3110000I-25226J43171D01*
G01*
X22012171Y-3103170D02*
G75*
G02*
X22082448Y-3168028I25226J-43170D01*
G01*
X22077500Y-3189716D02*
G75*
G02*
X22082448Y-3168028I50035J-8D01*
G01*
X22082448Y-3351972D02*
G75*
G02*
X22012171Y-3416830I-45051J-21688D01*
G01*
X22082448Y-3351972D02*
G75*
G02*
X22077499Y-3330284I45102J21702D01*
G01*
X25547500Y-7952216D02*
X25547500Y-8092784D01*
X25638055Y-8172500D02*
X25796945Y-8172500D01*
X25796945Y-7872500D02*
X25638055Y-7872500D01*
X25887500Y-8092784D02*
X25887500Y-7952216D01*
X25542552Y-7930528D02*
G75*
G02*
X25547500Y-7952216I-45051J-21688D01*
G01*
X25542552Y-7930528D02*
G75*
G02*
X25612829Y-7865670I45051J21688D01*
G01*
X25547500Y-8092784D02*
G75*
G02*
X25542552Y-8114472I-49999J0D01*
G01*
X25612829Y-8179330D02*
G75*
G02*
X25542552Y-8114472I-25226J43170D01*
G01*
X25612829Y-8179330D02*
G75*
G02*
X25638055Y-8172500I25226J-43171D01*
G01*
X25638055Y-7872500D02*
G75*
G02*
X25612829Y-7865670I0J50001D01*
G01*
X25796945Y-8172500D02*
G75*
G02*
X25822171Y-8179330I0J-50001D01*
G01*
X25822171Y-7865670D02*
G75*
G02*
X25796945Y-7872500I-25226J43171D01*
G01*
X25822171Y-7865670D02*
G75*
G02*
X25892448Y-7930528I25226J-43170D01*
G01*
X25887500Y-7952216D02*
G75*
G02*
X25892448Y-7930528I50035J-8D01*
G01*
X25892448Y-8114472D02*
G75*
G02*
X25822171Y-8179330I-45051J-21688D01*
G01*
X25892448Y-8114472D02*
G75*
G02*
X25887499Y-8092784I45102J21702D01*
G01*
X32691250Y-3189716D02*
X32691250Y-3330284D01*
X32781805Y-3410000D02*
X32940695Y-3410000D01*
X32940695Y-3110000D02*
X32781805Y-3110000D01*
X33031250Y-3330284D02*
X33031250Y-3189716D01*
X32686302Y-3168028D02*
G75*
G02*
X32691250Y-3189716I-45051J-21688D01*
G01*
X32686302Y-3168028D02*
G75*
G02*
X32756579Y-3103170I45051J21688D01*
G01*
X32691250Y-3330284D02*
G75*
G02*
X32686302Y-3351972I-49999J0D01*
G01*
X32756579Y-3416830D02*
G75*
G02*
X32686302Y-3351972I-25226J43170D01*
G01*
X32756579Y-3416830D02*
G75*
G02*
X32781805Y-3410000I25226J-43171D01*
G01*
X32781805Y-3110000D02*
G75*
G02*
X32756579Y-3103170I0J50001D01*
G01*
X32940695Y-3410000D02*
G75*
G02*
X32965921Y-3416830I0J-50001D01*
G01*
X32965921Y-3103170D02*
G75*
G02*
X32940695Y-3110000I-25226J43171D01*
G01*
X32965921Y-3103170D02*
G75*
G02*
X33036198Y-3168028I25226J-43170D01*
G01*
X33031250Y-3189716D02*
G75*
G02*
X33036198Y-3168028I50035J-8D01*
G01*
X33036198Y-3351972D02*
G75*
G02*
X32965921Y-3416830I-45051J-21688D01*
G01*
X33036198Y-3351972D02*
G75*
G02*
X33031249Y-3330284I45102J21702D01*
G01*
X7450000Y-3189716D02*
X7450000Y-3330284D01*
X7540555Y-3410000D02*
X7699445Y-3410000D01*
X7699445Y-3110000D02*
X7540555Y-3110000D01*
X7790000Y-3330284D02*
X7790000Y-3189716D01*
X7445052Y-3168028D02*
G75*
G02*
X7450000Y-3189716I-45051J-21688D01*
G01*
X7445052Y-3168028D02*
G75*
G02*
X7515329Y-3103170I45051J21688D01*
G01*
X7450000Y-3330284D02*
G75*
G02*
X7445052Y-3351972I-49999J0D01*
G01*
X7515329Y-3416830D02*
G75*
G02*
X7445052Y-3351972I-25226J43170D01*
G01*
X7515329Y-3416830D02*
G75*
G02*
X7540555Y-3410000I25226J-43171D01*
G01*
X7540555Y-3110000D02*
G75*
G02*
X7515329Y-3103170I0J50001D01*
G01*
X7699445Y-3410000D02*
G75*
G02*
X7724671Y-3416830I0J-50001D01*
G01*
X7724671Y-3103170D02*
G75*
G02*
X7699445Y-3110000I-25226J43171D01*
G01*
X7724671Y-3103170D02*
G75*
G02*
X7794948Y-3168028I25226J-43170D01*
G01*
X7790000Y-3189716D02*
G75*
G02*
X7794948Y-3168028I50035J-8D01*
G01*
X7794948Y-3351972D02*
G75*
G02*
X7724671Y-3416830I-45051J-21688D01*
G01*
X7794948Y-3351972D02*
G75*
G02*
X7789999Y-3330284I45102J21702D01*
G01*
X30310000Y-3189716D02*
X30310000Y-3330284D01*
X30400555Y-3410000D02*
X30559445Y-3410000D01*
X30559445Y-3110000D02*
X30400555Y-3110000D01*
X30650000Y-3330284D02*
X30650000Y-3189716D01*
X30305052Y-3168028D02*
G75*
G02*
X30310000Y-3189716I-45051J-21688D01*
G01*
X30305052Y-3168028D02*
G75*
G02*
X30375329Y-3103170I45051J21688D01*
G01*
X30310000Y-3330284D02*
G75*
G02*
X30305052Y-3351972I-49999J0D01*
G01*
X30375329Y-3416830D02*
G75*
G02*
X30305052Y-3351972I-25226J43170D01*
G01*
X30375329Y-3416830D02*
G75*
G02*
X30400555Y-3410000I25226J-43171D01*
G01*
X30400555Y-3110000D02*
G75*
G02*
X30375329Y-3103170I0J50001D01*
G01*
X30559445Y-3410000D02*
G75*
G02*
X30584671Y-3416830I0J-50001D01*
G01*
X30584671Y-3103170D02*
G75*
G02*
X30559445Y-3110000I-25226J43171D01*
G01*
X30584671Y-3103170D02*
G75*
G02*
X30654948Y-3168028I25226J-43170D01*
G01*
X30650000Y-3189716D02*
G75*
G02*
X30654948Y-3168028I50035J-8D01*
G01*
X30654948Y-3351972D02*
G75*
G02*
X30584671Y-3416830I-45051J-21688D01*
G01*
X30654948Y-3351972D02*
G75*
G02*
X30649999Y-3330284I45102J21702D01*
G01*
X21261250Y-11762216D02*
X21261250Y-11902784D01*
X21351805Y-11982500D02*
X21510695Y-11982500D01*
X21510695Y-11682500D02*
X21351805Y-11682500D01*
X21601250Y-11902784D02*
X21601250Y-11762216D01*
X21256302Y-11740528D02*
G75*
G02*
X21261250Y-11762216I-45051J-21688D01*
G01*
X21256302Y-11740528D02*
G75*
G02*
X21326579Y-11675670I45051J21688D01*
G01*
X21261250Y-11902784D02*
G75*
G02*
X21256302Y-11924472I-49999J0D01*
G01*
X21326579Y-11989330D02*
G75*
G02*
X21256302Y-11924472I-25226J43170D01*
G01*
X21326579Y-11989330D02*
G75*
G02*
X21351805Y-11982500I25226J-43171D01*
G01*
X21351805Y-11682500D02*
G75*
G02*
X21326579Y-11675670I0J50001D01*
G01*
X21510695Y-11982500D02*
G75*
G02*
X21535921Y-11989330I0J-50001D01*
G01*
X21535921Y-11675670D02*
G75*
G02*
X21510695Y-11682500I-25226J43171D01*
G01*
X21535921Y-11675670D02*
G75*
G02*
X21606198Y-11740528I25226J-43170D01*
G01*
X21601250Y-11762216D02*
G75*
G02*
X21606198Y-11740528I50035J-8D01*
G01*
X21606198Y-11924472D02*
G75*
G02*
X21535921Y-11989330I-45051J-21688D01*
G01*
X21606198Y-11924472D02*
G75*
G02*
X21601249Y-11902784I45102J21702D01*
G01*
X24595000Y-3189716D02*
X24595000Y-3330284D01*
X24685555Y-3410000D02*
X24844445Y-3410000D01*
X24844445Y-3110000D02*
X24685555Y-3110000D01*
X24935000Y-3330284D02*
X24935000Y-3189716D01*
X24590052Y-3168028D02*
G75*
G02*
X24595000Y-3189716I-45051J-21688D01*
G01*
X24590052Y-3168028D02*
G75*
G02*
X24660329Y-3103170I45051J21688D01*
G01*
X24595000Y-3330284D02*
G75*
G02*
X24590052Y-3351972I-49999J0D01*
G01*
X24660329Y-3416830D02*
G75*
G02*
X24590052Y-3351972I-25226J43170D01*
G01*
X24660329Y-3416830D02*
G75*
G02*
X24685555Y-3410000I25226J-43171D01*
G01*
X24685555Y-3110000D02*
G75*
G02*
X24660329Y-3103170I0J50001D01*
G01*
X24844445Y-3410000D02*
G75*
G02*
X24869671Y-3416830I0J-50001D01*
G01*
X24869671Y-3103170D02*
G75*
G02*
X24844445Y-3110000I-25226J43171D01*
G01*
X24869671Y-3103170D02*
G75*
G02*
X24939948Y-3168028I25226J-43170D01*
G01*
X24935000Y-3189716D02*
G75*
G02*
X24939948Y-3168028I50035J-8D01*
G01*
X24939948Y-3351972D02*
G75*
G02*
X24869671Y-3416830I-45051J-21688D01*
G01*
X24939948Y-3351972D02*
G75*
G02*
X24934999Y-3330284I45102J21702D01*
G01*
X14117500Y-7952216D02*
X14117500Y-8092784D01*
X14208055Y-8172500D02*
X14366945Y-8172500D01*
X14366945Y-7872500D02*
X14208055Y-7872500D01*
X14457500Y-8092784D02*
X14457500Y-7952216D01*
X14112552Y-7930528D02*
G75*
G02*
X14117500Y-7952216I-45051J-21688D01*
G01*
X14112552Y-7930528D02*
G75*
G02*
X14182829Y-7865670I45051J21688D01*
G01*
X14117500Y-8092784D02*
G75*
G02*
X14112552Y-8114472I-49999J0D01*
G01*
X14182829Y-8179330D02*
G75*
G02*
X14112552Y-8114472I-25226J43170D01*
G01*
X14182829Y-8179330D02*
G75*
G02*
X14208055Y-8172500I25226J-43171D01*
G01*
X14208055Y-7872500D02*
G75*
G02*
X14182829Y-7865670I0J50001D01*
G01*
X14366945Y-8172500D02*
G75*
G02*
X14392171Y-8179330I0J-50001D01*
G01*
X14392171Y-7865670D02*
G75*
G02*
X14366945Y-7872500I-25226J43171D01*
G01*
X14392171Y-7865670D02*
G75*
G02*
X14462448Y-7930528I25226J-43170D01*
G01*
X14457500Y-7952216D02*
G75*
G02*
X14462448Y-7930528I50035J-8D01*
G01*
X14462448Y-8114472D02*
G75*
G02*
X14392171Y-8179330I-45051J-21688D01*
G01*
X14462448Y-8114472D02*
G75*
G02*
X14457499Y-8092784I45102J21702D01*
G01*
X34596250Y-7952216D02*
X34596250Y-8092784D01*
X34686805Y-8172500D02*
X34845695Y-8172500D01*
X34845695Y-7872500D02*
X34686805Y-7872500D01*
X34936250Y-8092784D02*
X34936250Y-7952216D01*
X34591302Y-7930528D02*
G75*
G02*
X34596250Y-7952216I-45051J-21688D01*
G01*
X34591302Y-7930528D02*
G75*
G02*
X34661579Y-7865670I45051J21688D01*
G01*
X34596250Y-8092784D02*
G75*
G02*
X34591302Y-8114472I-49999J0D01*
G01*
X34661579Y-8179330D02*
G75*
G02*
X34591302Y-8114472I-25226J43170D01*
G01*
X34661579Y-8179330D02*
G75*
G02*
X34686805Y-8172500I25226J-43171D01*
G01*
X34686805Y-7872500D02*
G75*
G02*
X34661579Y-7865670I0J50001D01*
G01*
X34845695Y-8172500D02*
G75*
G02*
X34870921Y-8179330I0J-50001D01*
G01*
X34870921Y-7865670D02*
G75*
G02*
X34845695Y-7872500I-25226J43171D01*
G01*
X34870921Y-7865670D02*
G75*
G02*
X34941198Y-7930528I25226J-43170D01*
G01*
X34936250Y-7952216D02*
G75*
G02*
X34941198Y-7930528I50035J-8D01*
G01*
X34941198Y-8114472D02*
G75*
G02*
X34870921Y-8179330I-45051J-21688D01*
G01*
X34941198Y-8114472D02*
G75*
G02*
X34936249Y-8092784I45102J21702D01*
G01*
X10307500Y-7952216D02*
X10307500Y-8092784D01*
X10398055Y-8172500D02*
X10556945Y-8172500D01*
X10556945Y-7872500D02*
X10398055Y-7872500D01*
X10647500Y-8092784D02*
X10647500Y-7952216D01*
X10302552Y-7930528D02*
G75*
G02*
X10307500Y-7952216I-45051J-21688D01*
G01*
X10302552Y-7930528D02*
G75*
G02*
X10372829Y-7865670I45051J21688D01*
G01*
X10307500Y-8092784D02*
G75*
G02*
X10302552Y-8114472I-49999J0D01*
G01*
X10372829Y-8179330D02*
G75*
G02*
X10302552Y-8114472I-25226J43170D01*
G01*
X10372829Y-8179330D02*
G75*
G02*
X10398055Y-8172500I25226J-43171D01*
G01*
X10398055Y-7872500D02*
G75*
G02*
X10372829Y-7865670I0J50001D01*
G01*
X10556945Y-8172500D02*
G75*
G02*
X10582171Y-8179330I0J-50001D01*
G01*
X10582171Y-7865670D02*
G75*
G02*
X10556945Y-7872500I-25226J43171D01*
G01*
X10582171Y-7865670D02*
G75*
G02*
X10652448Y-7930528I25226J-43170D01*
G01*
X10647500Y-7952216D02*
G75*
G02*
X10652448Y-7930528I50035J-8D01*
G01*
X10652448Y-8114472D02*
G75*
G02*
X10582171Y-8179330I-45051J-21688D01*
G01*
X10652448Y-8114472D02*
G75*
G02*
X10647499Y-8092784I45102J21702D01*
G01*
X25309375Y-13667216D02*
X25309375Y-13807784D01*
X25399930Y-13887500D02*
X25558820Y-13887500D01*
X25558820Y-13587500D02*
X25399930Y-13587500D01*
X25649375Y-13807784D02*
X25649375Y-13667216D01*
X25304427Y-13645528D02*
G75*
G02*
X25309375Y-13667216I-45051J-21688D01*
G01*
X25304427Y-13645528D02*
G75*
G02*
X25374704Y-13580670I45051J21688D01*
G01*
X25309375Y-13807784D02*
G75*
G02*
X25304427Y-13829472I-49999J0D01*
G01*
X25374704Y-13894330D02*
G75*
G02*
X25304427Y-13829472I-25226J43170D01*
G01*
X25374704Y-13894330D02*
G75*
G02*
X25399930Y-13887500I25226J-43171D01*
G01*
X25399930Y-13587500D02*
G75*
G02*
X25374704Y-13580670I0J50001D01*
G01*
X25558820Y-13887500D02*
G75*
G02*
X25584046Y-13894330I0J-50001D01*
G01*
X25584046Y-13580670D02*
G75*
G02*
X25558820Y-13587500I-25226J43171D01*
G01*
X25584046Y-13580670D02*
G75*
G02*
X25654323Y-13645528I25226J-43170D01*
G01*
X25649375Y-13667216D02*
G75*
G02*
X25654323Y-13645528I50035J-8D01*
G01*
X25654323Y-13829472D02*
G75*
G02*
X25584046Y-13894330I-45051J-21688D01*
G01*
X25654323Y-13829472D02*
G75*
G02*
X25649374Y-13807784I45102J21702D01*
G01*
X23166250Y-11762216D02*
X23166250Y-11902784D01*
X23256805Y-11982500D02*
X23415695Y-11982500D01*
X23415695Y-11682500D02*
X23256805Y-11682500D01*
X23506250Y-11902784D02*
X23506250Y-11762216D01*
X23161302Y-11740528D02*
G75*
G02*
X23166250Y-11762216I-45051J-21688D01*
G01*
X23161302Y-11740528D02*
G75*
G02*
X23231579Y-11675670I45051J21688D01*
G01*
X23166250Y-11902784D02*
G75*
G02*
X23161302Y-11924472I-49999J0D01*
G01*
X23231579Y-11989330D02*
G75*
G02*
X23161302Y-11924472I-25226J43170D01*
G01*
X23231579Y-11989330D02*
G75*
G02*
X23256805Y-11982500I25226J-43171D01*
G01*
X23256805Y-11682500D02*
G75*
G02*
X23231579Y-11675670I0J50001D01*
G01*
X23415695Y-11982500D02*
G75*
G02*
X23440921Y-11989330I0J-50001D01*
G01*
X23440921Y-11675670D02*
G75*
G02*
X23415695Y-11682500I-25226J43171D01*
G01*
X23440921Y-11675670D02*
G75*
G02*
X23511198Y-11740528I25226J-43170D01*
G01*
X23506250Y-11762216D02*
G75*
G02*
X23511198Y-11740528I50035J-8D01*
G01*
X23511198Y-11924472D02*
G75*
G02*
X23440921Y-11989330I-45051J-21688D01*
G01*
X23511198Y-11924472D02*
G75*
G02*
X23506249Y-11902784I45102J21702D01*
G01*
X20308750Y-9857216D02*
X20308750Y-9997784D01*
X20399305Y-10077500D02*
X20558195Y-10077500D01*
X20558195Y-9777500D02*
X20399305Y-9777500D01*
X20648750Y-9997784D02*
X20648750Y-9857216D01*
X20303802Y-9835528D02*
G75*
G02*
X20308750Y-9857216I-45051J-21688D01*
G01*
X20303802Y-9835528D02*
G75*
G02*
X20374079Y-9770670I45051J21688D01*
G01*
X20308750Y-9997784D02*
G75*
G02*
X20303802Y-10019472I-49999J0D01*
G01*
X20374079Y-10084330D02*
G75*
G02*
X20303802Y-10019472I-25226J43170D01*
G01*
X20374079Y-10084330D02*
G75*
G02*
X20399305Y-10077500I25226J-43171D01*
G01*
X20399305Y-9777500D02*
G75*
G02*
X20374079Y-9770670I0J50001D01*
G01*
X20558195Y-10077500D02*
G75*
G02*
X20583421Y-10084330I0J-50001D01*
G01*
X20583421Y-9770670D02*
G75*
G02*
X20558195Y-9777500I-25226J43171D01*
G01*
X20583421Y-9770670D02*
G75*
G02*
X20653698Y-9835528I25226J-43170D01*
G01*
X20648750Y-9857216D02*
G75*
G02*
X20653698Y-9835528I50035J-8D01*
G01*
X20653698Y-10019472D02*
G75*
G02*
X20583421Y-10084330I-45051J-21688D01*
G01*
X20653698Y-10019472D02*
G75*
G02*
X20648749Y-9997784I45102J21702D01*
G01*
X11736250Y-11762216D02*
X11736250Y-11902784D01*
X11826805Y-11982500D02*
X11985695Y-11982500D01*
X11985695Y-11682500D02*
X11826805Y-11682500D01*
X12076250Y-11902784D02*
X12076250Y-11762216D01*
X11731302Y-11740528D02*
G75*
G02*
X11736250Y-11762216I-45051J-21688D01*
G01*
X11731302Y-11740528D02*
G75*
G02*
X11801579Y-11675670I45051J21688D01*
G01*
X11736250Y-11902784D02*
G75*
G02*
X11731302Y-11924472I-49999J0D01*
G01*
X11801579Y-11989330D02*
G75*
G02*
X11731302Y-11924472I-25226J43170D01*
G01*
X11801579Y-11989330D02*
G75*
G02*
X11826805Y-11982500I25226J-43171D01*
G01*
X11826805Y-11682500D02*
G75*
G02*
X11801579Y-11675670I0J50001D01*
G01*
X11985695Y-11982500D02*
G75*
G02*
X12010921Y-11989330I0J-50001D01*
G01*
X12010921Y-11675670D02*
G75*
G02*
X11985695Y-11682500I-25226J43171D01*
G01*
X12010921Y-11675670D02*
G75*
G02*
X12081198Y-11740528I25226J-43170D01*
G01*
X12076250Y-11762216D02*
G75*
G02*
X12081198Y-11740528I50035J-8D01*
G01*
X12081198Y-11924472D02*
G75*
G02*
X12010921Y-11989330I-45051J-21688D01*
G01*
X12081198Y-11924472D02*
G75*
G02*
X12076249Y-11902784I45102J21702D01*
G01*
X27452500Y-7952216D02*
X27452500Y-8092784D01*
X27543055Y-8172500D02*
X27701945Y-8172500D01*
X27701945Y-7872500D02*
X27543055Y-7872500D01*
X27792500Y-8092784D02*
X27792500Y-7952216D01*
X27447552Y-7930528D02*
G75*
G02*
X27452500Y-7952216I-45051J-21688D01*
G01*
X27447552Y-7930528D02*
G75*
G02*
X27517829Y-7865670I45051J21688D01*
G01*
X27452500Y-8092784D02*
G75*
G02*
X27447552Y-8114472I-49999J0D01*
G01*
X27517829Y-8179330D02*
G75*
G02*
X27447552Y-8114472I-25226J43170D01*
G01*
X27517829Y-8179330D02*
G75*
G02*
X27543055Y-8172500I25226J-43171D01*
G01*
X27543055Y-7872500D02*
G75*
G02*
X27517829Y-7865670I0J50001D01*
G01*
X27701945Y-8172500D02*
G75*
G02*
X27727171Y-8179330I0J-50001D01*
G01*
X27727171Y-7865670D02*
G75*
G02*
X27701945Y-7872500I-25226J43171D01*
G01*
X27727171Y-7865670D02*
G75*
G02*
X27797448Y-7930528I25226J-43170D01*
G01*
X27792500Y-7952216D02*
G75*
G02*
X27797448Y-7930528I50035J-8D01*
G01*
X27797448Y-8114472D02*
G75*
G02*
X27727171Y-8179330I-45051J-21688D01*
G01*
X27797448Y-8114472D02*
G75*
G02*
X27792499Y-8092784I45102J21702D01*
G01*
X7926250Y-11762216D02*
X7926250Y-11902784D01*
X8016805Y-11982500D02*
X8175695Y-11982500D01*
X8175695Y-11682500D02*
X8016805Y-11682500D01*
X8266250Y-11902784D02*
X8266250Y-11762216D01*
X7921302Y-11740528D02*
G75*
G02*
X7926250Y-11762216I-45051J-21688D01*
G01*
X7921302Y-11740528D02*
G75*
G02*
X7991579Y-11675670I45051J21688D01*
G01*
X7926250Y-11902784D02*
G75*
G02*
X7921302Y-11924472I-49999J0D01*
G01*
X7991579Y-11989330D02*
G75*
G02*
X7921302Y-11924472I-25226J43170D01*
G01*
X7991579Y-11989330D02*
G75*
G02*
X8016805Y-11982500I25226J-43171D01*
G01*
X8016805Y-11682500D02*
G75*
G02*
X7991579Y-11675670I0J50001D01*
G01*
X8175695Y-11982500D02*
G75*
G02*
X8200921Y-11989330I0J-50001D01*
G01*
X8200921Y-11675670D02*
G75*
G02*
X8175695Y-11682500I-25226J43171D01*
G01*
X8200921Y-11675670D02*
G75*
G02*
X8271198Y-11740528I25226J-43170D01*
G01*
X8266250Y-11762216D02*
G75*
G02*
X8271198Y-11740528I50035J-8D01*
G01*
X8271198Y-11924472D02*
G75*
G02*
X8200921Y-11989330I-45051J-21688D01*
G01*
X8271198Y-11924472D02*
G75*
G02*
X8266249Y-11902784I45102J21702D01*
G01*
X19832500Y-3189716D02*
X19832500Y-3330284D01*
X19923055Y-3410000D02*
X20081945Y-3410000D01*
X20081945Y-3110000D02*
X19923055Y-3110000D01*
X20172500Y-3330284D02*
X20172500Y-3189716D01*
X19827552Y-3168028D02*
G75*
G02*
X19832500Y-3189716I-45051J-21688D01*
G01*
X19827552Y-3168028D02*
G75*
G02*
X19897829Y-3103170I45051J21688D01*
G01*
X19832500Y-3330284D02*
G75*
G02*
X19827552Y-3351972I-49999J0D01*
G01*
X19897829Y-3416830D02*
G75*
G02*
X19827552Y-3351972I-25226J43170D01*
G01*
X19897829Y-3416830D02*
G75*
G02*
X19923055Y-3410000I25226J-43171D01*
G01*
X19923055Y-3110000D02*
G75*
G02*
X19897829Y-3103170I0J50001D01*
G01*
X20081945Y-3410000D02*
G75*
G02*
X20107171Y-3416830I0J-50001D01*
G01*
X20107171Y-3103170D02*
G75*
G02*
X20081945Y-3110000I-25226J43171D01*
G01*
X20107171Y-3103170D02*
G75*
G02*
X20177448Y-3168028I25226J-43170D01*
G01*
X20172500Y-3189716D02*
G75*
G02*
X20177448Y-3168028I50035J-8D01*
G01*
X20177448Y-3351972D02*
G75*
G02*
X20107171Y-3416830I-45051J-21688D01*
G01*
X20177448Y-3351972D02*
G75*
G02*
X20172499Y-3330284I45102J21702D01*
G01*
X14593750Y-9857216D02*
X14593750Y-9997784D01*
X14684305Y-10077500D02*
X14843195Y-10077500D01*
X14843195Y-9777500D02*
X14684305Y-9777500D01*
X14933750Y-9997784D02*
X14933750Y-9857216D01*
X14588802Y-9835528D02*
G75*
G02*
X14593750Y-9857216I-45051J-21688D01*
G01*
X14588802Y-9835528D02*
G75*
G02*
X14659079Y-9770670I45051J21688D01*
G01*
X14593750Y-9997784D02*
G75*
G02*
X14588802Y-10019472I-49999J0D01*
G01*
X14659079Y-10084330D02*
G75*
G02*
X14588802Y-10019472I-25226J43170D01*
G01*
X14659079Y-10084330D02*
G75*
G02*
X14684305Y-10077500I25226J-43171D01*
G01*
X14684305Y-9777500D02*
G75*
G02*
X14659079Y-9770670I0J50001D01*
G01*
X14843195Y-10077500D02*
G75*
G02*
X14868421Y-10084330I0J-50001D01*
G01*
X14868421Y-9770670D02*
G75*
G02*
X14843195Y-9777500I-25226J43171D01*
G01*
X14868421Y-9770670D02*
G75*
G02*
X14938698Y-9835528I25226J-43170D01*
G01*
X14933750Y-9857216D02*
G75*
G02*
X14938698Y-9835528I50035J-8D01*
G01*
X14938698Y-10019472D02*
G75*
G02*
X14868421Y-10084330I-45051J-21688D01*
G01*
X14938698Y-10019472D02*
G75*
G02*
X14933749Y-9997784I45102J21702D01*
G01*
X9355000Y-3189716D02*
X9355000Y-3330284D01*
X9445555Y-3410000D02*
X9604445Y-3410000D01*
X9604445Y-3110000D02*
X9445555Y-3110000D01*
X9695000Y-3330284D02*
X9695000Y-3189716D01*
X9350052Y-3168028D02*
G75*
G02*
X9355000Y-3189716I-45051J-21688D01*
G01*
X9350052Y-3168028D02*
G75*
G02*
X9420329Y-3103170I45051J21688D01*
G01*
X9355000Y-3330284D02*
G75*
G02*
X9350052Y-3351972I-49999J0D01*
G01*
X9420329Y-3416830D02*
G75*
G02*
X9350052Y-3351972I-25226J43170D01*
G01*
X9420329Y-3416830D02*
G75*
G02*
X9445555Y-3410000I25226J-43171D01*
G01*
X9445555Y-3110000D02*
G75*
G02*
X9420329Y-3103170I0J50001D01*
G01*
X9604445Y-3410000D02*
G75*
G02*
X9629671Y-3416830I0J-50001D01*
G01*
X9629671Y-3103170D02*
G75*
G02*
X9604445Y-3110000I-25226J43171D01*
G01*
X9629671Y-3103170D02*
G75*
G02*
X9699948Y-3168028I25226J-43170D01*
G01*
X9695000Y-3189716D02*
G75*
G02*
X9699948Y-3168028I50035J-8D01*
G01*
X9699948Y-3351972D02*
G75*
G02*
X9629671Y-3416830I-45051J-21688D01*
G01*
X9699948Y-3351972D02*
G75*
G02*
X9694999Y-3330284I45102J21702D01*
G01*
X30071875Y-13667216D02*
X30071875Y-13807784D01*
X30162430Y-13887500D02*
X30321320Y-13887500D01*
X30321320Y-13587500D02*
X30162430Y-13587500D01*
X30411875Y-13807784D02*
X30411875Y-13667216D01*
X30066927Y-13645528D02*
G75*
G02*
X30071875Y-13667216I-45051J-21688D01*
G01*
X30066927Y-13645528D02*
G75*
G02*
X30137204Y-13580670I45051J21688D01*
G01*
X30071875Y-13807784D02*
G75*
G02*
X30066927Y-13829472I-49999J0D01*
G01*
X30137204Y-13894330D02*
G75*
G02*
X30066927Y-13829472I-25226J43170D01*
G01*
X30137204Y-13894330D02*
G75*
G02*
X30162430Y-13887500I25226J-43171D01*
G01*
X30162430Y-13587500D02*
G75*
G02*
X30137204Y-13580670I0J50001D01*
G01*
X30321320Y-13887500D02*
G75*
G02*
X30346546Y-13894330I0J-50001D01*
G01*
X30346546Y-13580670D02*
G75*
G02*
X30321320Y-13587500I-25226J43171D01*
G01*
X30346546Y-13580670D02*
G75*
G02*
X30416823Y-13645528I25226J-43170D01*
G01*
X30411875Y-13667216D02*
G75*
G02*
X30416823Y-13645528I50035J-8D01*
G01*
X30416823Y-13829472D02*
G75*
G02*
X30346546Y-13894330I-45051J-21688D01*
G01*
X30416823Y-13829472D02*
G75*
G02*
X30411874Y-13807784I45102J21702D01*
G01*
X4830625Y-11762216D02*
X4830625Y-11902784D01*
X4921180Y-11982500D02*
X5080070Y-11982500D01*
X5080070Y-11682500D02*
X4921180Y-11682500D01*
X5170625Y-11902784D02*
X5170625Y-11762216D01*
X4825677Y-11740528D02*
G75*
G02*
X4830625Y-11762216I-45051J-21688D01*
G01*
X4825677Y-11740528D02*
G75*
G02*
X4895954Y-11675670I45051J21688D01*
G01*
X4830625Y-11902784D02*
G75*
G02*
X4825677Y-11924472I-49999J0D01*
G01*
X4895954Y-11989330D02*
G75*
G02*
X4825677Y-11924472I-25226J43170D01*
G01*
X4895954Y-11989330D02*
G75*
G02*
X4921180Y-11982500I25226J-43171D01*
G01*
X4921180Y-11682500D02*
G75*
G02*
X4895954Y-11675670I0J50001D01*
G01*
X5080070Y-11982500D02*
G75*
G02*
X5105296Y-11989330I0J-50001D01*
G01*
X5105296Y-11675670D02*
G75*
G02*
X5080070Y-11682500I-25226J43171D01*
G01*
X5105296Y-11675670D02*
G75*
G02*
X5175573Y-11740528I25226J-43170D01*
G01*
X5170625Y-11762216D02*
G75*
G02*
X5175573Y-11740528I50035J-8D01*
G01*
X5175573Y-11924472D02*
G75*
G02*
X5105296Y-11989330I-45051J-21688D01*
G01*
X5175573Y-11924472D02*
G75*
G02*
X5170624Y-11902784I45102J21702D01*
G01*
X11260000Y-6047216D02*
X11260000Y-6187784D01*
X11350555Y-6267500D02*
X11509445Y-6267500D01*
X11509445Y-5967500D02*
X11350555Y-5967500D01*
X11600000Y-6187784D02*
X11600000Y-6047216D01*
X11255052Y-6025528D02*
G75*
G02*
X11260000Y-6047216I-45051J-21688D01*
G01*
X11255052Y-6025528D02*
G75*
G02*
X11325329Y-5960670I45051J21688D01*
G01*
X11260000Y-6187784D02*
G75*
G02*
X11255052Y-6209472I-49999J0D01*
G01*
X11325329Y-6274330D02*
G75*
G02*
X11255052Y-6209472I-25226J43170D01*
G01*
X11325329Y-6274330D02*
G75*
G02*
X11350555Y-6267500I25226J-43171D01*
G01*
X11350555Y-5967500D02*
G75*
G02*
X11325329Y-5960670I0J50001D01*
G01*
X11509445Y-6267500D02*
G75*
G02*
X11534671Y-6274330I0J-50001D01*
G01*
X11534671Y-5960670D02*
G75*
G02*
X11509445Y-5967500I-25226J43171D01*
G01*
X11534671Y-5960670D02*
G75*
G02*
X11604948Y-6025528I25226J-43170D01*
G01*
X11600000Y-6047216D02*
G75*
G02*
X11604948Y-6025528I50035J-8D01*
G01*
X11604948Y-6209472D02*
G75*
G02*
X11534671Y-6274330I-45051J-21688D01*
G01*
X11604948Y-6209472D02*
G75*
G02*
X11599999Y-6187784I45102J21702D01*
G01*
X22690000Y-6047216D02*
X22690000Y-6187784D01*
X22780555Y-6267500D02*
X22939445Y-6267500D01*
X22939445Y-5967500D02*
X22780555Y-5967500D01*
X23030000Y-6187784D02*
X23030000Y-6047216D01*
X22685052Y-6025528D02*
G75*
G02*
X22690000Y-6047216I-45051J-21688D01*
G01*
X22685052Y-6025528D02*
G75*
G02*
X22755329Y-5960670I45051J21688D01*
G01*
X22690000Y-6187784D02*
G75*
G02*
X22685052Y-6209472I-49999J0D01*
G01*
X22755329Y-6274330D02*
G75*
G02*
X22685052Y-6209472I-25226J43170D01*
G01*
X22755329Y-6274330D02*
G75*
G02*
X22780555Y-6267500I25226J-43171D01*
G01*
X22780555Y-5967500D02*
G75*
G02*
X22755329Y-5960670I0J50001D01*
G01*
X22939445Y-6267500D02*
G75*
G02*
X22964671Y-6274330I0J-50001D01*
G01*
X22964671Y-5960670D02*
G75*
G02*
X22939445Y-5967500I-25226J43171D01*
G01*
X22964671Y-5960670D02*
G75*
G02*
X23034948Y-6025528I25226J-43170D01*
G01*
X23030000Y-6047216D02*
G75*
G02*
X23034948Y-6025528I50035J-8D01*
G01*
X23034948Y-6209472D02*
G75*
G02*
X22964671Y-6274330I-45051J-21688D01*
G01*
X23034948Y-6209472D02*
G75*
G02*
X23029999Y-6187784I45102J21702D01*
G01*
X13641250Y-11762216D02*
X13641250Y-11902784D01*
X13731805Y-11982500D02*
X13890695Y-11982500D01*
X13890695Y-11682500D02*
X13731805Y-11682500D01*
X13981250Y-11902784D02*
X13981250Y-11762216D01*
X13636302Y-11740528D02*
G75*
G02*
X13641250Y-11762216I-45051J-21688D01*
G01*
X13636302Y-11740528D02*
G75*
G02*
X13706579Y-11675670I45051J21688D01*
G01*
X13641250Y-11902784D02*
G75*
G02*
X13636302Y-11924472I-49999J0D01*
G01*
X13706579Y-11989330D02*
G75*
G02*
X13636302Y-11924472I-25226J43170D01*
G01*
X13706579Y-11989330D02*
G75*
G02*
X13731805Y-11982500I25226J-43171D01*
G01*
X13731805Y-11682500D02*
G75*
G02*
X13706579Y-11675670I0J50001D01*
G01*
X13890695Y-11982500D02*
G75*
G02*
X13915921Y-11989330I0J-50001D01*
G01*
X13915921Y-11675670D02*
G75*
G02*
X13890695Y-11682500I-25226J43171D01*
G01*
X13915921Y-11675670D02*
G75*
G02*
X13986198Y-11740528I25226J-43170D01*
G01*
X13981250Y-11762216D02*
G75*
G02*
X13986198Y-11740528I50035J-8D01*
G01*
X13986198Y-11924472D02*
G75*
G02*
X13915921Y-11989330I-45051J-21688D01*
G01*
X13986198Y-11924472D02*
G75*
G02*
X13981249Y-11902784I45102J21702D01*
G01*
X9831250Y-11762216D02*
X9831250Y-11902784D01*
X9921805Y-11982500D02*
X10080695Y-11982500D01*
X10080695Y-11682500D02*
X9921805Y-11682500D01*
X10171250Y-11902784D02*
X10171250Y-11762216D01*
X9826302Y-11740528D02*
G75*
G02*
X9831250Y-11762216I-45051J-21688D01*
G01*
X9826302Y-11740528D02*
G75*
G02*
X9896579Y-11675670I45051J21688D01*
G01*
X9831250Y-11902784D02*
G75*
G02*
X9826302Y-11924472I-49999J0D01*
G01*
X9896579Y-11989330D02*
G75*
G02*
X9826302Y-11924472I-25226J43170D01*
G01*
X9896579Y-11989330D02*
G75*
G02*
X9921805Y-11982500I25226J-43171D01*
G01*
X9921805Y-11682500D02*
G75*
G02*
X9896579Y-11675670I0J50001D01*
G01*
X10080695Y-11982500D02*
G75*
G02*
X10105921Y-11989330I0J-50001D01*
G01*
X10105921Y-11675670D02*
G75*
G02*
X10080695Y-11682500I-25226J43171D01*
G01*
X10105921Y-11675670D02*
G75*
G02*
X10176198Y-11740528I25226J-43170D01*
G01*
X10171250Y-11762216D02*
G75*
G02*
X10176198Y-11740528I50035J-8D01*
G01*
X10176198Y-11924472D02*
G75*
G02*
X10105921Y-11989330I-45051J-21688D01*
G01*
X10176198Y-11924472D02*
G75*
G02*
X10171249Y-11902784I45102J21702D01*
G01*
X32691250Y-6047216D02*
X32691250Y-6187784D01*
X32781805Y-6267500D02*
X32940695Y-6267500D01*
X32940695Y-5967500D02*
X32781805Y-5967500D01*
X33031250Y-6187784D02*
X33031250Y-6047216D01*
X32686302Y-6025528D02*
G75*
G02*
X32691250Y-6047216I-45051J-21688D01*
G01*
X32686302Y-6025528D02*
G75*
G02*
X32756579Y-5960670I45051J21688D01*
G01*
X32691250Y-6187784D02*
G75*
G02*
X32686302Y-6209472I-49999J0D01*
G01*
X32756579Y-6274330D02*
G75*
G02*
X32686302Y-6209472I-25226J43170D01*
G01*
X32756579Y-6274330D02*
G75*
G02*
X32781805Y-6267500I25226J-43171D01*
G01*
X32781805Y-5967500D02*
G75*
G02*
X32756579Y-5960670I0J50001D01*
G01*
X32940695Y-6267500D02*
G75*
G02*
X32965921Y-6274330I0J-50001D01*
G01*
X32965921Y-5960670D02*
G75*
G02*
X32940695Y-5967500I-25226J43171D01*
G01*
X32965921Y-5960670D02*
G75*
G02*
X33036198Y-6025528I25226J-43170D01*
G01*
X33031250Y-6047216D02*
G75*
G02*
X33036198Y-6025528I50035J-8D01*
G01*
X33036198Y-6209472D02*
G75*
G02*
X32965921Y-6274330I-45051J-21688D01*
G01*
X33036198Y-6209472D02*
G75*
G02*
X33031249Y-6187784I45102J21702D01*
G01*
X22928125Y-13667216D02*
X22928125Y-13807784D01*
X23018680Y-13887500D02*
X23177570Y-13887500D01*
X23177570Y-13587500D02*
X23018680Y-13587500D01*
X23268125Y-13807784D02*
X23268125Y-13667216D01*
X22923177Y-13645528D02*
G75*
G02*
X22928125Y-13667216I-45051J-21688D01*
G01*
X22923177Y-13645528D02*
G75*
G02*
X22993454Y-13580670I45051J21688D01*
G01*
X22928125Y-13807784D02*
G75*
G02*
X22923177Y-13829472I-49999J0D01*
G01*
X22993454Y-13894330D02*
G75*
G02*
X22923177Y-13829472I-25226J43170D01*
G01*
X22993454Y-13894330D02*
G75*
G02*
X23018680Y-13887500I25226J-43171D01*
G01*
X23018680Y-13587500D02*
G75*
G02*
X22993454Y-13580670I0J50001D01*
G01*
X23177570Y-13887500D02*
G75*
G02*
X23202796Y-13894330I0J-50001D01*
G01*
X23202796Y-13580670D02*
G75*
G02*
X23177570Y-13587500I-25226J43171D01*
G01*
X23202796Y-13580670D02*
G75*
G02*
X23273073Y-13645528I25226J-43170D01*
G01*
X23268125Y-13667216D02*
G75*
G02*
X23273073Y-13645528I50035J-8D01*
G01*
X23273073Y-13829472D02*
G75*
G02*
X23202796Y-13894330I-45051J-21688D01*
G01*
X23273073Y-13829472D02*
G75*
G02*
X23268124Y-13807784I45102J21702D01*
G01*
X16975000Y-6047216D02*
X16975000Y-6187784D01*
X17065555Y-6267500D02*
X17224445Y-6267500D01*
X17224445Y-5967500D02*
X17065555Y-5967500D01*
X17315000Y-6187784D02*
X17315000Y-6047216D01*
X16970052Y-6025528D02*
G75*
G02*
X16975000Y-6047216I-45051J-21688D01*
G01*
X16970052Y-6025528D02*
G75*
G02*
X17040329Y-5960670I45051J21688D01*
G01*
X16975000Y-6187784D02*
G75*
G02*
X16970052Y-6209472I-49999J0D01*
G01*
X17040329Y-6274330D02*
G75*
G02*
X16970052Y-6209472I-25226J43170D01*
G01*
X17040329Y-6274330D02*
G75*
G02*
X17065555Y-6267500I25226J-43171D01*
G01*
X17065555Y-5967500D02*
G75*
G02*
X17040329Y-5960670I0J50001D01*
G01*
X17224445Y-6267500D02*
G75*
G02*
X17249671Y-6274330I0J-50001D01*
G01*
X17249671Y-5960670D02*
G75*
G02*
X17224445Y-5967500I-25226J43171D01*
G01*
X17249671Y-5960670D02*
G75*
G02*
X17319948Y-6025528I25226J-43170D01*
G01*
X17315000Y-6047216D02*
G75*
G02*
X17319948Y-6025528I50035J-8D01*
G01*
X17319948Y-6209472D02*
G75*
G02*
X17249671Y-6274330I-45051J-21688D01*
G01*
X17319948Y-6209472D02*
G75*
G02*
X17314999Y-6187784I45102J21702D01*
G01*
X32691250Y-7952216D02*
X32691250Y-8092784D01*
X32781805Y-8172500D02*
X32940695Y-8172500D01*
X32940695Y-7872500D02*
X32781805Y-7872500D01*
X33031250Y-8092784D02*
X33031250Y-7952216D01*
X32686302Y-7930528D02*
G75*
G02*
X32691250Y-7952216I-45051J-21688D01*
G01*
X32686302Y-7930528D02*
G75*
G02*
X32756579Y-7865670I45051J21688D01*
G01*
X32691250Y-8092784D02*
G75*
G02*
X32686302Y-8114472I-49999J0D01*
G01*
X32756579Y-8179330D02*
G75*
G02*
X32686302Y-8114472I-25226J43170D01*
G01*
X32756579Y-8179330D02*
G75*
G02*
X32781805Y-8172500I25226J-43171D01*
G01*
X32781805Y-7872500D02*
G75*
G02*
X32756579Y-7865670I0J50001D01*
G01*
X32940695Y-8172500D02*
G75*
G02*
X32965921Y-8179330I0J-50001D01*
G01*
X32965921Y-7865670D02*
G75*
G02*
X32940695Y-7872500I-25226J43171D01*
G01*
X32965921Y-7865670D02*
G75*
G02*
X33036198Y-7930528I25226J-43170D01*
G01*
X33031250Y-7952216D02*
G75*
G02*
X33036198Y-7930528I50035J-8D01*
G01*
X33036198Y-8114472D02*
G75*
G02*
X32965921Y-8179330I-45051J-21688D01*
G01*
X33036198Y-8114472D02*
G75*
G02*
X33031249Y-8092784I45102J21702D01*
G01*
X16022500Y-7952216D02*
X16022500Y-8092784D01*
X16113055Y-8172500D02*
X16271945Y-8172500D01*
X16271945Y-7872500D02*
X16113055Y-7872500D01*
X16362500Y-8092784D02*
X16362500Y-7952216D01*
X16017552Y-7930528D02*
G75*
G02*
X16022500Y-7952216I-45051J-21688D01*
G01*
X16017552Y-7930528D02*
G75*
G02*
X16087829Y-7865670I45051J21688D01*
G01*
X16022500Y-8092784D02*
G75*
G02*
X16017552Y-8114472I-49999J0D01*
G01*
X16087829Y-8179330D02*
G75*
G02*
X16017552Y-8114472I-25226J43170D01*
G01*
X16087829Y-8179330D02*
G75*
G02*
X16113055Y-8172500I25226J-43171D01*
G01*
X16113055Y-7872500D02*
G75*
G02*
X16087829Y-7865670I0J50001D01*
G01*
X16271945Y-8172500D02*
G75*
G02*
X16297171Y-8179330I0J-50001D01*
G01*
X16297171Y-7865670D02*
G75*
G02*
X16271945Y-7872500I-25226J43171D01*
G01*
X16297171Y-7865670D02*
G75*
G02*
X16367448Y-7930528I25226J-43170D01*
G01*
X16362500Y-7952216D02*
G75*
G02*
X16367448Y-7930528I50035J-8D01*
G01*
X16367448Y-8114472D02*
G75*
G02*
X16297171Y-8179330I-45051J-21688D01*
G01*
X16367448Y-8114472D02*
G75*
G02*
X16362499Y-8092784I45102J21702D01*
G01*
X6497500Y-7952216D02*
X6497500Y-8092784D01*
X6588055Y-8172500D02*
X6746945Y-8172500D01*
X6746945Y-7872500D02*
X6588055Y-7872500D01*
X6837500Y-8092784D02*
X6837500Y-7952216D01*
X6492552Y-7930528D02*
G75*
G02*
X6497500Y-7952216I-45051J-21688D01*
G01*
X6492552Y-7930528D02*
G75*
G02*
X6562829Y-7865670I45051J21688D01*
G01*
X6497500Y-8092784D02*
G75*
G02*
X6492552Y-8114472I-49999J0D01*
G01*
X6562829Y-8179330D02*
G75*
G02*
X6492552Y-8114472I-25226J43170D01*
G01*
X6562829Y-8179330D02*
G75*
G02*
X6588055Y-8172500I25226J-43171D01*
G01*
X6588055Y-7872500D02*
G75*
G02*
X6562829Y-7865670I0J50001D01*
G01*
X6746945Y-8172500D02*
G75*
G02*
X6772171Y-8179330I0J-50001D01*
G01*
X6772171Y-7865670D02*
G75*
G02*
X6746945Y-7872500I-25226J43171D01*
G01*
X6772171Y-7865670D02*
G75*
G02*
X6842448Y-7930528I25226J-43170D01*
G01*
X6837500Y-7952216D02*
G75*
G02*
X6842448Y-7930528I50035J-8D01*
G01*
X6842448Y-8114472D02*
G75*
G02*
X6772171Y-8179330I-45051J-21688D01*
G01*
X6842448Y-8114472D02*
G75*
G02*
X6837499Y-8092784I45102J21702D01*
G01*
X26023750Y-9857216D02*
X26023750Y-9997784D01*
X26114305Y-10077500D02*
X26273195Y-10077500D01*
X26273195Y-9777500D02*
X26114305Y-9777500D01*
X26363750Y-9997784D02*
X26363750Y-9857216D01*
X26018802Y-9835528D02*
G75*
G02*
X26023750Y-9857216I-45051J-21688D01*
G01*
X26018802Y-9835528D02*
G75*
G02*
X26089079Y-9770670I45051J21688D01*
G01*
X26023750Y-9997784D02*
G75*
G02*
X26018802Y-10019472I-49999J0D01*
G01*
X26089079Y-10084330D02*
G75*
G02*
X26018802Y-10019472I-25226J43170D01*
G01*
X26089079Y-10084330D02*
G75*
G02*
X26114305Y-10077500I25226J-43171D01*
G01*
X26114305Y-9777500D02*
G75*
G02*
X26089079Y-9770670I0J50001D01*
G01*
X26273195Y-10077500D02*
G75*
G02*
X26298421Y-10084330I0J-50001D01*
G01*
X26298421Y-9770670D02*
G75*
G02*
X26273195Y-9777500I-25226J43171D01*
G01*
X26298421Y-9770670D02*
G75*
G02*
X26368698Y-9835528I25226J-43170D01*
G01*
X26363750Y-9857216D02*
G75*
G02*
X26368698Y-9835528I50035J-8D01*
G01*
X26368698Y-10019472D02*
G75*
G02*
X26298421Y-10084330I-45051J-21688D01*
G01*
X26368698Y-10019472D02*
G75*
G02*
X26363749Y-9997784I45102J21702D01*
G01*
X13165000Y-6047216D02*
X13165000Y-6187784D01*
X13255555Y-6267500D02*
X13414445Y-6267500D01*
X13414445Y-5967500D02*
X13255555Y-5967500D01*
X13505000Y-6187784D02*
X13505000Y-6047216D01*
X13160052Y-6025528D02*
G75*
G02*
X13165000Y-6047216I-45051J-21688D01*
G01*
X13160052Y-6025528D02*
G75*
G02*
X13230329Y-5960670I45051J21688D01*
G01*
X13165000Y-6187784D02*
G75*
G02*
X13160052Y-6209472I-49999J0D01*
G01*
X13230329Y-6274330D02*
G75*
G02*
X13160052Y-6209472I-25226J43170D01*
G01*
X13230329Y-6274330D02*
G75*
G02*
X13255555Y-6267500I25226J-43171D01*
G01*
X13255555Y-5967500D02*
G75*
G02*
X13230329Y-5960670I0J50001D01*
G01*
X13414445Y-6267500D02*
G75*
G02*
X13439671Y-6274330I0J-50001D01*
G01*
X13439671Y-5960670D02*
G75*
G02*
X13414445Y-5967500I-25226J43171D01*
G01*
X13439671Y-5960670D02*
G75*
G02*
X13509948Y-6025528I25226J-43170D01*
G01*
X13505000Y-6047216D02*
G75*
G02*
X13509948Y-6025528I50035J-8D01*
G01*
X13509948Y-6209472D02*
G75*
G02*
X13439671Y-6274330I-45051J-21688D01*
G01*
X13509948Y-6209472D02*
G75*
G02*
X13504999Y-6187784I45102J21702D01*
G01*
X25071250Y-11762216D02*
X25071250Y-11902784D01*
X25161805Y-11982500D02*
X25320695Y-11982500D01*
X25320695Y-11682500D02*
X25161805Y-11682500D01*
X25411250Y-11902784D02*
X25411250Y-11762216D01*
X25066302Y-11740528D02*
G75*
G02*
X25071250Y-11762216I-45051J-21688D01*
G01*
X25066302Y-11740528D02*
G75*
G02*
X25136579Y-11675670I45051J21688D01*
G01*
X25071250Y-11902784D02*
G75*
G02*
X25066302Y-11924472I-49999J0D01*
G01*
X25136579Y-11989330D02*
G75*
G02*
X25066302Y-11924472I-25226J43170D01*
G01*
X25136579Y-11989330D02*
G75*
G02*
X25161805Y-11982500I25226J-43171D01*
G01*
X25161805Y-11682500D02*
G75*
G02*
X25136579Y-11675670I0J50001D01*
G01*
X25320695Y-11982500D02*
G75*
G02*
X25345921Y-11989330I0J-50001D01*
G01*
X25345921Y-11675670D02*
G75*
G02*
X25320695Y-11682500I-25226J43171D01*
G01*
X25345921Y-11675670D02*
G75*
G02*
X25416198Y-11740528I25226J-43170D01*
G01*
X25411250Y-11762216D02*
G75*
G02*
X25416198Y-11740528I50035J-8D01*
G01*
X25416198Y-11924472D02*
G75*
G02*
X25345921Y-11989330I-45051J-21688D01*
G01*
X25416198Y-11924472D02*
G75*
G02*
X25411249Y-11902784I45102J21702D01*
G01*
D12*
D11*
X5518876Y-2446576D02*
X5583876Y-2511576D01*
X5583876Y-2446576D02*
X5518876Y-2511576D01*
X6096876Y-2446576D02*
X6161876Y-2511576D01*
X6161876Y-2446576D02*
X6096876Y-2511576D01*
D13*
X3389500Y-3810000D02*
G75*
G02*
X3214500Y-3810000I-87500J0D01*
G01*
X3214500Y-3810000D02*
G75*
G02*
X3389500Y-3810000I87500J0D01*
G01*
X3389500Y-6667500D02*
G75*
G02*
X3214500Y-6667500I-87500J0D01*
G01*
X3214500Y-6667500D02*
G75*
G02*
X3389500Y-6667500I87500J0D01*
G01*
X3627625Y-14287500D02*
G75*
G02*
X3452625Y-14287500I-87500J0D01*
G01*
X3452625Y-14287500D02*
G75*
G02*
X3627625Y-14287500I87500J0D01*
G01*
X3865750Y-8572500D02*
G75*
G02*
X3690750Y-8572500I-87500J0D01*
G01*
X3690750Y-8572500D02*
G75*
G02*
X3865750Y-8572500I87500J0D01*
G01*
X4103875Y-10477500D02*
G75*
G02*
X3928875Y-10477500I-87500J0D01*
G01*
X3928875Y-10477500D02*
G75*
G02*
X4103875Y-10477500I87500J0D01*
G01*
X4405500Y-3810000D02*
G75*
G02*
X4230500Y-3810000I-87500J0D01*
G01*
X4230500Y-3810000D02*
G75*
G02*
X4405500Y-3810000I87500J0D01*
G01*
X4405500Y-6667500D02*
G75*
G02*
X4230500Y-6667500I-87500J0D01*
G01*
X4230500Y-6667500D02*
G75*
G02*
X4405500Y-6667500I87500J0D01*
G01*
X4580125Y-12382500D02*
G75*
G02*
X4405125Y-12382500I-87500J0D01*
G01*
X4405125Y-12382500D02*
G75*
G02*
X4580125Y-12382500I87500J0D01*
G01*
X4643625Y-14287500D02*
G75*
G02*
X4468625Y-14287500I-87500J0D01*
G01*
X4468625Y-14287500D02*
G75*
G02*
X4643625Y-14287500I87500J0D01*
G01*
X4881750Y-8572500D02*
G75*
G02*
X4706750Y-8572500I-87500J0D01*
G01*
X4706750Y-8572500D02*
G75*
G02*
X4881750Y-8572500I87500J0D01*
G01*
X5119875Y-10477500D02*
G75*
G02*
X4944875Y-10477500I-87500J0D01*
G01*
X4944875Y-10477500D02*
G75*
G02*
X5119875Y-10477500I87500J0D01*
G01*
X5294500Y-6667500D02*
G75*
G02*
X5119500Y-6667500I-87500J0D01*
G01*
X5119500Y-6667500D02*
G75*
G02*
X5294500Y-6667500I87500J0D01*
G01*
X5596125Y-12382500D02*
G75*
G02*
X5421125Y-12382500I-87500J0D01*
G01*
X5421125Y-12382500D02*
G75*
G02*
X5596125Y-12382500I87500J0D01*
G01*
X6008875Y-14287500D02*
G75*
G02*
X5833875Y-14287500I-87500J0D01*
G01*
X5833875Y-14287500D02*
G75*
G02*
X6008875Y-14287500I87500J0D01*
G01*
X6247000Y-8572500D02*
G75*
G02*
X6072000Y-8572500I-87500J0D01*
G01*
X6072000Y-8572500D02*
G75*
G02*
X6247000Y-8572500I87500J0D01*
G01*
X6310500Y-6667500D02*
G75*
G02*
X6135500Y-6667500I-87500J0D01*
G01*
X6135500Y-6667500D02*
G75*
G02*
X6310500Y-6667500I87500J0D01*
G01*
X6723250Y-10477500D02*
G75*
G02*
X6548250Y-10477500I-87500J0D01*
G01*
X6548250Y-10477500D02*
G75*
G02*
X6723250Y-10477500I87500J0D01*
G01*
X7024875Y-14287500D02*
G75*
G02*
X6849875Y-14287500I-87500J0D01*
G01*
X6849875Y-14287500D02*
G75*
G02*
X7024875Y-14287500I87500J0D01*
G01*
X7199500Y-3810000D02*
G75*
G02*
X7024500Y-3810000I-87500J0D01*
G01*
X7024500Y-3810000D02*
G75*
G02*
X7199500Y-3810000I87500J0D01*
G01*
X7199500Y-6667500D02*
G75*
G02*
X7024500Y-6667500I-87500J0D01*
G01*
X7024500Y-6667500D02*
G75*
G02*
X7199500Y-6667500I87500J0D01*
G01*
X7263000Y-8572500D02*
G75*
G02*
X7088000Y-8572500I-87500J0D01*
G01*
X7088000Y-8572500D02*
G75*
G02*
X7263000Y-8572500I87500J0D01*
G01*
X7675750Y-12382500D02*
G75*
G02*
X7500750Y-12382500I-87500J0D01*
G01*
X7500750Y-12382500D02*
G75*
G02*
X7675750Y-12382500I87500J0D01*
G01*
X7739250Y-10477500D02*
G75*
G02*
X7564250Y-10477500I-87500J0D01*
G01*
X7564250Y-10477500D02*
G75*
G02*
X7739250Y-10477500I87500J0D01*
G01*
X8152000Y-8572500D02*
G75*
G02*
X7977000Y-8572500I-87500J0D01*
G01*
X7977000Y-8572500D02*
G75*
G02*
X8152000Y-8572500I87500J0D01*
G01*
X8215500Y-3810000D02*
G75*
G02*
X8040500Y-3810000I-87500J0D01*
G01*
X8040500Y-3810000D02*
G75*
G02*
X8215500Y-3810000I87500J0D01*
G01*
X8215500Y-6667500D02*
G75*
G02*
X8040500Y-6667500I-87500J0D01*
G01*
X8040500Y-6667500D02*
G75*
G02*
X8215500Y-6667500I87500J0D01*
G01*
X8390125Y-14287500D02*
G75*
G02*
X8215125Y-14287500I-87500J0D01*
G01*
X8215125Y-14287500D02*
G75*
G02*
X8390125Y-14287500I87500J0D01*
G01*
X8628250Y-10477500D02*
G75*
G02*
X8453250Y-10477500I-87500J0D01*
G01*
X8453250Y-10477500D02*
G75*
G02*
X8628250Y-10477500I87500J0D01*
G01*
X8691750Y-12382500D02*
G75*
G02*
X8516750Y-12382500I-87500J0D01*
G01*
X8516750Y-12382500D02*
G75*
G02*
X8691750Y-12382500I87500J0D01*
G01*
X9104500Y-3810000D02*
G75*
G02*
X8929500Y-3810000I-87500J0D01*
G01*
X8929500Y-3810000D02*
G75*
G02*
X9104500Y-3810000I87500J0D01*
G01*
X9104500Y-6667500D02*
G75*
G02*
X8929500Y-6667500I-87500J0D01*
G01*
X8929500Y-6667500D02*
G75*
G02*
X9104500Y-6667500I87500J0D01*
G01*
X9168000Y-8572500D02*
G75*
G02*
X8993000Y-8572500I-87500J0D01*
G01*
X8993000Y-8572500D02*
G75*
G02*
X9168000Y-8572500I87500J0D01*
G01*
X9406125Y-14287500D02*
G75*
G02*
X9231125Y-14287500I-87500J0D01*
G01*
X9231125Y-14287500D02*
G75*
G02*
X9406125Y-14287500I87500J0D01*
G01*
X9580750Y-12382500D02*
G75*
G02*
X9405750Y-12382500I-87500J0D01*
G01*
X9405750Y-12382500D02*
G75*
G02*
X9580750Y-12382500I87500J0D01*
G01*
X9644250Y-10477500D02*
G75*
G02*
X9469250Y-10477500I-87500J0D01*
G01*
X9469250Y-10477500D02*
G75*
G02*
X9644250Y-10477500I87500J0D01*
G01*
X10057000Y-8572500D02*
G75*
G02*
X9882000Y-8572500I-87500J0D01*
G01*
X9882000Y-8572500D02*
G75*
G02*
X10057000Y-8572500I87500J0D01*
G01*
X10120500Y-3810000D02*
G75*
G02*
X9945500Y-3810000I-87500J0D01*
G01*
X9945500Y-3810000D02*
G75*
G02*
X10120500Y-3810000I87500J0D01*
G01*
X10120500Y-6667500D02*
G75*
G02*
X9945500Y-6667500I-87500J0D01*
G01*
X9945500Y-6667500D02*
G75*
G02*
X10120500Y-6667500I87500J0D01*
G01*
X10533250Y-10477500D02*
G75*
G02*
X10358250Y-10477500I-87500J0D01*
G01*
X10358250Y-10477500D02*
G75*
G02*
X10533250Y-10477500I87500J0D01*
G01*
X10596750Y-12382500D02*
G75*
G02*
X10421750Y-12382500I-87500J0D01*
G01*
X10421750Y-12382500D02*
G75*
G02*
X10596750Y-12382500I87500J0D01*
G01*
X11009500Y-3810000D02*
G75*
G02*
X10834500Y-3810000I-87500J0D01*
G01*
X10834500Y-3810000D02*
G75*
G02*
X11009500Y-3810000I87500J0D01*
G01*
X11009500Y-6667500D02*
G75*
G02*
X10834500Y-6667500I-87500J0D01*
G01*
X10834500Y-6667500D02*
G75*
G02*
X11009500Y-6667500I87500J0D01*
G01*
X11073000Y-8572500D02*
G75*
G02*
X10898000Y-8572500I-87500J0D01*
G01*
X10898000Y-8572500D02*
G75*
G02*
X11073000Y-8572500I87500J0D01*
G01*
X11485750Y-12382500D02*
G75*
G02*
X11310750Y-12382500I-87500J0D01*
G01*
X11310750Y-12382500D02*
G75*
G02*
X11485750Y-12382500I87500J0D01*
G01*
X11549250Y-10477500D02*
G75*
G02*
X11374250Y-10477500I-87500J0D01*
G01*
X11374250Y-10477500D02*
G75*
G02*
X11549250Y-10477500I87500J0D01*
G01*
X11962000Y-8572500D02*
G75*
G02*
X11787000Y-8572500I-87500J0D01*
G01*
X11787000Y-8572500D02*
G75*
G02*
X11962000Y-8572500I87500J0D01*
G01*
X12025500Y-3810000D02*
G75*
G02*
X11850500Y-3810000I-87500J0D01*
G01*
X11850500Y-3810000D02*
G75*
G02*
X12025500Y-3810000I87500J0D01*
G01*
X12025500Y-6667500D02*
G75*
G02*
X11850500Y-6667500I-87500J0D01*
G01*
X11850500Y-6667500D02*
G75*
G02*
X12025500Y-6667500I87500J0D01*
G01*
X12438250Y-10477500D02*
G75*
G02*
X12263250Y-10477500I-87500J0D01*
G01*
X12263250Y-10477500D02*
G75*
G02*
X12438250Y-10477500I87500J0D01*
G01*
X12501750Y-12382500D02*
G75*
G02*
X12326750Y-12382500I-87500J0D01*
G01*
X12326750Y-12382500D02*
G75*
G02*
X12501750Y-12382500I87500J0D01*
G01*
X12914500Y-3810000D02*
G75*
G02*
X12739500Y-3810000I-87500J0D01*
G01*
X12739500Y-3810000D02*
G75*
G02*
X12914500Y-3810000I87500J0D01*
G01*
X12914500Y-6667500D02*
G75*
G02*
X12739500Y-6667500I-87500J0D01*
G01*
X12739500Y-6667500D02*
G75*
G02*
X12914500Y-6667500I87500J0D01*
G01*
X12978000Y-8572500D02*
G75*
G02*
X12803000Y-8572500I-87500J0D01*
G01*
X12803000Y-8572500D02*
G75*
G02*
X12978000Y-8572500I87500J0D01*
G01*
X13390750Y-12382500D02*
G75*
G02*
X13215750Y-12382500I-87500J0D01*
G01*
X13215750Y-12382500D02*
G75*
G02*
X13390750Y-12382500I87500J0D01*
G01*
X13454250Y-10477500D02*
G75*
G02*
X13279250Y-10477500I-87500J0D01*
G01*
X13279250Y-10477500D02*
G75*
G02*
X13454250Y-10477500I87500J0D01*
G01*
X13867000Y-8572500D02*
G75*
G02*
X13692000Y-8572500I-87500J0D01*
G01*
X13692000Y-8572500D02*
G75*
G02*
X13867000Y-8572500I87500J0D01*
G01*
X13930500Y-3810000D02*
G75*
G02*
X13755500Y-3810000I-87500J0D01*
G01*
X13755500Y-3810000D02*
G75*
G02*
X13930500Y-3810000I87500J0D01*
G01*
X13930500Y-6667500D02*
G75*
G02*
X13755500Y-6667500I-87500J0D01*
G01*
X13755500Y-6667500D02*
G75*
G02*
X13930500Y-6667500I87500J0D01*
G01*
X14343250Y-10477500D02*
G75*
G02*
X14168250Y-10477500I-87500J0D01*
G01*
X14168250Y-10477500D02*
G75*
G02*
X14343250Y-10477500I87500J0D01*
G01*
X14406750Y-12382500D02*
G75*
G02*
X14231750Y-12382500I-87500J0D01*
G01*
X14231750Y-12382500D02*
G75*
G02*
X14406750Y-12382500I87500J0D01*
G01*
X14819500Y-6667500D02*
G75*
G02*
X14644500Y-6667500I-87500J0D01*
G01*
X14644500Y-6667500D02*
G75*
G02*
X14819500Y-6667500I87500J0D01*
G01*
X14883000Y-8572500D02*
G75*
G02*
X14708000Y-8572500I-87500J0D01*
G01*
X14708000Y-8572500D02*
G75*
G02*
X14883000Y-8572500I87500J0D01*
G01*
X15295750Y-12382500D02*
G75*
G02*
X15120750Y-12382500I-87500J0D01*
G01*
X15120750Y-12382500D02*
G75*
G02*
X15295750Y-12382500I87500J0D01*
G01*
X15359250Y-10477500D02*
G75*
G02*
X15184250Y-10477500I-87500J0D01*
G01*
X15184250Y-10477500D02*
G75*
G02*
X15359250Y-10477500I87500J0D01*
G01*
X15533875Y-14287500D02*
G75*
G02*
X15358875Y-14287500I-87500J0D01*
G01*
X15358875Y-14287500D02*
G75*
G02*
X15533875Y-14287500I87500J0D01*
G01*
X15772000Y-3810000D02*
G75*
G02*
X15597000Y-3810000I-87500J0D01*
G01*
X15597000Y-3810000D02*
G75*
G02*
X15772000Y-3810000I87500J0D01*
G01*
X15772000Y-8572500D02*
G75*
G02*
X15597000Y-8572500I-87500J0D01*
G01*
X15597000Y-8572500D02*
G75*
G02*
X15772000Y-8572500I87500J0D01*
G01*
X15835500Y-6667500D02*
G75*
G02*
X15660500Y-6667500I-87500J0D01*
G01*
X15660500Y-6667500D02*
G75*
G02*
X15835500Y-6667500I87500J0D01*
G01*
X16248250Y-10477500D02*
G75*
G02*
X16073250Y-10477500I-87500J0D01*
G01*
X16073250Y-10477500D02*
G75*
G02*
X16248250Y-10477500I87500J0D01*
G01*
X16311750Y-12382500D02*
G75*
G02*
X16136750Y-12382500I-87500J0D01*
G01*
X16136750Y-12382500D02*
G75*
G02*
X16311750Y-12382500I87500J0D01*
G01*
X16549875Y-14287500D02*
G75*
G02*
X16374875Y-14287500I-87500J0D01*
G01*
X16374875Y-14287500D02*
G75*
G02*
X16549875Y-14287500I87500J0D01*
G01*
X16724500Y-6667500D02*
G75*
G02*
X16549500Y-6667500I-87500J0D01*
G01*
X16549500Y-6667500D02*
G75*
G02*
X16724500Y-6667500I87500J0D01*
G01*
X16788000Y-3810000D02*
G75*
G02*
X16613000Y-3810000I-87500J0D01*
G01*
X16613000Y-3810000D02*
G75*
G02*
X16788000Y-3810000I87500J0D01*
G01*
X16788000Y-8572500D02*
G75*
G02*
X16613000Y-8572500I-87500J0D01*
G01*
X16613000Y-8572500D02*
G75*
G02*
X16788000Y-8572500I87500J0D01*
G01*
X17200750Y-12382500D02*
G75*
G02*
X17025750Y-12382500I-87500J0D01*
G01*
X17025750Y-12382500D02*
G75*
G02*
X17200750Y-12382500I87500J0D01*
G01*
X17264250Y-10477500D02*
G75*
G02*
X17089250Y-10477500I-87500J0D01*
G01*
X17089250Y-10477500D02*
G75*
G02*
X17264250Y-10477500I87500J0D01*
G01*
X17677000Y-3810000D02*
G75*
G02*
X17502000Y-3810000I-87500J0D01*
G01*
X17502000Y-3810000D02*
G75*
G02*
X17677000Y-3810000I87500J0D01*
G01*
X17677000Y-8572500D02*
G75*
G02*
X17502000Y-8572500I-87500J0D01*
G01*
X17502000Y-8572500D02*
G75*
G02*
X17677000Y-8572500I87500J0D01*
G01*
X17740500Y-6667500D02*
G75*
G02*
X17565500Y-6667500I-87500J0D01*
G01*
X17565500Y-6667500D02*
G75*
G02*
X17740500Y-6667500I87500J0D01*
G01*
X18153250Y-10477500D02*
G75*
G02*
X17978250Y-10477500I-87500J0D01*
G01*
X17978250Y-10477500D02*
G75*
G02*
X18153250Y-10477500I87500J0D01*
G01*
X18216750Y-12382500D02*
G75*
G02*
X18041750Y-12382500I-87500J0D01*
G01*
X18041750Y-12382500D02*
G75*
G02*
X18216750Y-12382500I87500J0D01*
G01*
X18629500Y-6667500D02*
G75*
G02*
X18454500Y-6667500I-87500J0D01*
G01*
X18454500Y-6667500D02*
G75*
G02*
X18629500Y-6667500I87500J0D01*
G01*
X18693000Y-3810000D02*
G75*
G02*
X18518000Y-3810000I-87500J0D01*
G01*
X18518000Y-3810000D02*
G75*
G02*
X18693000Y-3810000I87500J0D01*
G01*
X18693000Y-8572500D02*
G75*
G02*
X18518000Y-8572500I-87500J0D01*
G01*
X18518000Y-8572500D02*
G75*
G02*
X18693000Y-8572500I87500J0D01*
G01*
X19105750Y-12382500D02*
G75*
G02*
X18930750Y-12382500I-87500J0D01*
G01*
X18930750Y-12382500D02*
G75*
G02*
X19105750Y-12382500I87500J0D01*
G01*
X19169250Y-10477500D02*
G75*
G02*
X18994250Y-10477500I-87500J0D01*
G01*
X18994250Y-10477500D02*
G75*
G02*
X19169250Y-10477500I87500J0D01*
G01*
X19582000Y-3810000D02*
G75*
G02*
X19407000Y-3810000I-87500J0D01*
G01*
X19407000Y-3810000D02*
G75*
G02*
X19582000Y-3810000I87500J0D01*
G01*
X19582000Y-8572500D02*
G75*
G02*
X19407000Y-8572500I-87500J0D01*
G01*
X19407000Y-8572500D02*
G75*
G02*
X19582000Y-8572500I87500J0D01*
G01*
X19645500Y-6667500D02*
G75*
G02*
X19470500Y-6667500I-87500J0D01*
G01*
X19470500Y-6667500D02*
G75*
G02*
X19645500Y-6667500I87500J0D01*
G01*
X20058250Y-10477500D02*
G75*
G02*
X19883250Y-10477500I-87500J0D01*
G01*
X19883250Y-10477500D02*
G75*
G02*
X20058250Y-10477500I87500J0D01*
G01*
X20121750Y-12382500D02*
G75*
G02*
X19946750Y-12382500I-87500J0D01*
G01*
X19946750Y-12382500D02*
G75*
G02*
X20121750Y-12382500I87500J0D01*
G01*
X20534500Y-6667500D02*
G75*
G02*
X20359500Y-6667500I-87500J0D01*
G01*
X20359500Y-6667500D02*
G75*
G02*
X20534500Y-6667500I87500J0D01*
G01*
X20598000Y-3810000D02*
G75*
G02*
X20423000Y-3810000I-87500J0D01*
G01*
X20423000Y-3810000D02*
G75*
G02*
X20598000Y-3810000I87500J0D01*
G01*
X20598000Y-8572500D02*
G75*
G02*
X20423000Y-8572500I-87500J0D01*
G01*
X20423000Y-8572500D02*
G75*
G02*
X20598000Y-8572500I87500J0D01*
G01*
X21010750Y-12382500D02*
G75*
G02*
X20835750Y-12382500I-87500J0D01*
G01*
X20835750Y-12382500D02*
G75*
G02*
X21010750Y-12382500I87500J0D01*
G01*
X21074250Y-10477500D02*
G75*
G02*
X20899250Y-10477500I-87500J0D01*
G01*
X20899250Y-10477500D02*
G75*
G02*
X21074250Y-10477500I87500J0D01*
G01*
X21487000Y-3810000D02*
G75*
G02*
X21312000Y-3810000I-87500J0D01*
G01*
X21312000Y-3810000D02*
G75*
G02*
X21487000Y-3810000I87500J0D01*
G01*
X21487000Y-8572500D02*
G75*
G02*
X21312000Y-8572500I-87500J0D01*
G01*
X21312000Y-8572500D02*
G75*
G02*
X21487000Y-8572500I87500J0D01*
G01*
X21550500Y-6667500D02*
G75*
G02*
X21375500Y-6667500I-87500J0D01*
G01*
X21375500Y-6667500D02*
G75*
G02*
X21550500Y-6667500I87500J0D01*
G01*
X21963250Y-10477500D02*
G75*
G02*
X21788250Y-10477500I-87500J0D01*
G01*
X21788250Y-10477500D02*
G75*
G02*
X21963250Y-10477500I87500J0D01*
G01*
X22026750Y-12382500D02*
G75*
G02*
X21851750Y-12382500I-87500J0D01*
G01*
X21851750Y-12382500D02*
G75*
G02*
X22026750Y-12382500I87500J0D01*
G01*
X22439500Y-6667500D02*
G75*
G02*
X22264500Y-6667500I-87500J0D01*
G01*
X22264500Y-6667500D02*
G75*
G02*
X22439500Y-6667500I87500J0D01*
G01*
X22503000Y-3810000D02*
G75*
G02*
X22328000Y-3810000I-87500J0D01*
G01*
X22328000Y-3810000D02*
G75*
G02*
X22503000Y-3810000I87500J0D01*
G01*
X22503000Y-8572500D02*
G75*
G02*
X22328000Y-8572500I-87500J0D01*
G01*
X22328000Y-8572500D02*
G75*
G02*
X22503000Y-8572500I87500J0D01*
G01*
X22677625Y-14287500D02*
G75*
G02*
X22502625Y-14287500I-87500J0D01*
G01*
X22502625Y-14287500D02*
G75*
G02*
X22677625Y-14287500I87500J0D01*
G01*
X22915750Y-12382500D02*
G75*
G02*
X22740750Y-12382500I-87500J0D01*
G01*
X22740750Y-12382500D02*
G75*
G02*
X22915750Y-12382500I87500J0D01*
G01*
X22979250Y-10477500D02*
G75*
G02*
X22804250Y-10477500I-87500J0D01*
G01*
X22804250Y-10477500D02*
G75*
G02*
X22979250Y-10477500I87500J0D01*
G01*
X23392000Y-8572500D02*
G75*
G02*
X23217000Y-8572500I-87500J0D01*
G01*
X23217000Y-8572500D02*
G75*
G02*
X23392000Y-8572500I87500J0D01*
G01*
X23455500Y-6667500D02*
G75*
G02*
X23280500Y-6667500I-87500J0D01*
G01*
X23280500Y-6667500D02*
G75*
G02*
X23455500Y-6667500I87500J0D01*
G01*
X23693625Y-14287500D02*
G75*
G02*
X23518625Y-14287500I-87500J0D01*
G01*
X23518625Y-14287500D02*
G75*
G02*
X23693625Y-14287500I87500J0D01*
G01*
X23868250Y-10477500D02*
G75*
G02*
X23693250Y-10477500I-87500J0D01*
G01*
X23693250Y-10477500D02*
G75*
G02*
X23868250Y-10477500I87500J0D01*
G01*
X23931750Y-12382500D02*
G75*
G02*
X23756750Y-12382500I-87500J0D01*
G01*
X23756750Y-12382500D02*
G75*
G02*
X23931750Y-12382500I87500J0D01*
G01*
X24344500Y-3810000D02*
G75*
G02*
X24169500Y-3810000I-87500J0D01*
G01*
X24169500Y-3810000D02*
G75*
G02*
X24344500Y-3810000I87500J0D01*
G01*
X24344500Y-6667500D02*
G75*
G02*
X24169500Y-6667500I-87500J0D01*
G01*
X24169500Y-6667500D02*
G75*
G02*
X24344500Y-6667500I87500J0D01*
G01*
X24408000Y-8572500D02*
G75*
G02*
X24233000Y-8572500I-87500J0D01*
G01*
X24233000Y-8572500D02*
G75*
G02*
X24408000Y-8572500I87500J0D01*
G01*
X24820750Y-12382500D02*
G75*
G02*
X24645750Y-12382500I-87500J0D01*
G01*
X24645750Y-12382500D02*
G75*
G02*
X24820750Y-12382500I87500J0D01*
G01*
X24884250Y-10477500D02*
G75*
G02*
X24709250Y-10477500I-87500J0D01*
G01*
X24709250Y-10477500D02*
G75*
G02*
X24884250Y-10477500I87500J0D01*
G01*
X25058875Y-14287500D02*
G75*
G02*
X24883875Y-14287500I-87500J0D01*
G01*
X24883875Y-14287500D02*
G75*
G02*
X25058875Y-14287500I87500J0D01*
G01*
X25297000Y-8572500D02*
G75*
G02*
X25122000Y-8572500I-87500J0D01*
G01*
X25122000Y-8572500D02*
G75*
G02*
X25297000Y-8572500I87500J0D01*
G01*
X25360500Y-3810000D02*
G75*
G02*
X25185500Y-3810000I-87500J0D01*
G01*
X25185500Y-3810000D02*
G75*
G02*
X25360500Y-3810000I87500J0D01*
G01*
X25360500Y-6667500D02*
G75*
G02*
X25185500Y-6667500I-87500J0D01*
G01*
X25185500Y-6667500D02*
G75*
G02*
X25360500Y-6667500I87500J0D01*
G01*
X25773250Y-10477500D02*
G75*
G02*
X25598250Y-10477500I-87500J0D01*
G01*
X25598250Y-10477500D02*
G75*
G02*
X25773250Y-10477500I87500J0D01*
G01*
X25836750Y-12382500D02*
G75*
G02*
X25661750Y-12382500I-87500J0D01*
G01*
X25661750Y-12382500D02*
G75*
G02*
X25836750Y-12382500I87500J0D01*
G01*
X26074875Y-14287500D02*
G75*
G02*
X25899875Y-14287500I-87500J0D01*
G01*
X25899875Y-14287500D02*
G75*
G02*
X26074875Y-14287500I87500J0D01*
G01*
X26249500Y-3810000D02*
G75*
G02*
X26074500Y-3810000I-87500J0D01*
G01*
X26074500Y-3810000D02*
G75*
G02*
X26249500Y-3810000I87500J0D01*
G01*
X26249500Y-6667500D02*
G75*
G02*
X26074500Y-6667500I-87500J0D01*
G01*
X26074500Y-6667500D02*
G75*
G02*
X26249500Y-6667500I87500J0D01*
G01*
X26313000Y-8572500D02*
G75*
G02*
X26138000Y-8572500I-87500J0D01*
G01*
X26138000Y-8572500D02*
G75*
G02*
X26313000Y-8572500I87500J0D01*
G01*
X26789250Y-10477500D02*
G75*
G02*
X26614250Y-10477500I-87500J0D01*
G01*
X26614250Y-10477500D02*
G75*
G02*
X26789250Y-10477500I87500J0D01*
G01*
X27202000Y-8572500D02*
G75*
G02*
X27027000Y-8572500I-87500J0D01*
G01*
X27027000Y-8572500D02*
G75*
G02*
X27202000Y-8572500I87500J0D01*
G01*
X27265500Y-3810000D02*
G75*
G02*
X27090500Y-3810000I-87500J0D01*
G01*
X27090500Y-3810000D02*
G75*
G02*
X27265500Y-3810000I87500J0D01*
G01*
X27265500Y-6667500D02*
G75*
G02*
X27090500Y-6667500I-87500J0D01*
G01*
X27090500Y-6667500D02*
G75*
G02*
X27265500Y-6667500I87500J0D01*
G01*
X27440125Y-14287500D02*
G75*
G02*
X27265125Y-14287500I-87500J0D01*
G01*
X27265125Y-14287500D02*
G75*
G02*
X27440125Y-14287500I87500J0D01*
G01*
X28154500Y-3810000D02*
G75*
G02*
X27979500Y-3810000I-87500J0D01*
G01*
X27979500Y-3810000D02*
G75*
G02*
X28154500Y-3810000I87500J0D01*
G01*
X28218000Y-8572500D02*
G75*
G02*
X28043000Y-8572500I-87500J0D01*
G01*
X28043000Y-8572500D02*
G75*
G02*
X28218000Y-8572500I87500J0D01*
G01*
X28392625Y-12382500D02*
G75*
G02*
X28217625Y-12382500I-87500J0D01*
G01*
X28217625Y-12382500D02*
G75*
G02*
X28392625Y-12382500I87500J0D01*
G01*
X28456125Y-14287500D02*
G75*
G02*
X28281125Y-14287500I-87500J0D01*
G01*
X28281125Y-14287500D02*
G75*
G02*
X28456125Y-14287500I87500J0D01*
G01*
X28868875Y-10477500D02*
G75*
G02*
X28693875Y-10477500I-87500J0D01*
G01*
X28693875Y-10477500D02*
G75*
G02*
X28868875Y-10477500I87500J0D01*
G01*
X29107000Y-6667500D02*
G75*
G02*
X28932000Y-6667500I-87500J0D01*
G01*
X28932000Y-6667500D02*
G75*
G02*
X29107000Y-6667500I87500J0D01*
G01*
X29170500Y-3810000D02*
G75*
G02*
X28995500Y-3810000I-87500J0D01*
G01*
X28995500Y-3810000D02*
G75*
G02*
X29170500Y-3810000I87500J0D01*
G01*
X29408625Y-12382500D02*
G75*
G02*
X29233625Y-12382500I-87500J0D01*
G01*
X29233625Y-12382500D02*
G75*
G02*
X29408625Y-12382500I87500J0D01*
G01*
X29583250Y-8572500D02*
G75*
G02*
X29408250Y-8572500I-87500J0D01*
G01*
X29408250Y-8572500D02*
G75*
G02*
X29583250Y-8572500I87500J0D01*
G01*
X29821375Y-14287500D02*
G75*
G02*
X29646375Y-14287500I-87500J0D01*
G01*
X29646375Y-14287500D02*
G75*
G02*
X29821375Y-14287500I87500J0D01*
G01*
X29884875Y-10477500D02*
G75*
G02*
X29709875Y-10477500I-87500J0D01*
G01*
X29709875Y-10477500D02*
G75*
G02*
X29884875Y-10477500I87500J0D01*
G01*
X30059500Y-3810000D02*
G75*
G02*
X29884500Y-3810000I-87500J0D01*
G01*
X29884500Y-3810000D02*
G75*
G02*
X30059500Y-3810000I87500J0D01*
G01*
X30123000Y-6667500D02*
G75*
G02*
X29948000Y-6667500I-87500J0D01*
G01*
X29948000Y-6667500D02*
G75*
G02*
X30123000Y-6667500I87500J0D01*
G01*
X30599250Y-8572500D02*
G75*
G02*
X30424250Y-8572500I-87500J0D01*
G01*
X30424250Y-8572500D02*
G75*
G02*
X30599250Y-8572500I87500J0D01*
G01*
X30837375Y-14287500D02*
G75*
G02*
X30662375Y-14287500I-87500J0D01*
G01*
X30662375Y-14287500D02*
G75*
G02*
X30837375Y-14287500I87500J0D01*
G01*
X31075500Y-3810000D02*
G75*
G02*
X30900500Y-3810000I-87500J0D01*
G01*
X30900500Y-3810000D02*
G75*
G02*
X31075500Y-3810000I87500J0D01*
G01*
X32440750Y-3810000D02*
G75*
G02*
X32265750Y-3810000I-87500J0D01*
G01*
X32265750Y-3810000D02*
G75*
G02*
X32440750Y-3810000I87500J0D01*
G01*
X32440750Y-6667500D02*
G75*
G02*
X32265750Y-6667500I-87500J0D01*
G01*
X32265750Y-6667500D02*
G75*
G02*
X32440750Y-6667500I87500J0D01*
G01*
X32440750Y-8572500D02*
G75*
G02*
X32265750Y-8572500I-87500J0D01*
G01*
X32265750Y-8572500D02*
G75*
G02*
X32440750Y-8572500I87500J0D01*
G01*
X32440750Y-14287500D02*
G75*
G02*
X32265750Y-14287500I-87500J0D01*
G01*
X32265750Y-14287500D02*
G75*
G02*
X32440750Y-14287500I87500J0D01*
G01*
X33456750Y-3810000D02*
G75*
G02*
X33281750Y-3810000I-87500J0D01*
G01*
X33281750Y-3810000D02*
G75*
G02*
X33456750Y-3810000I87500J0D01*
G01*
X33456750Y-6667500D02*
G75*
G02*
X33281750Y-6667500I-87500J0D01*
G01*
X33281750Y-6667500D02*
G75*
G02*
X33456750Y-6667500I87500J0D01*
G01*
X33456750Y-8572500D02*
G75*
G02*
X33281750Y-8572500I-87500J0D01*
G01*
X33281750Y-8572500D02*
G75*
G02*
X33456750Y-8572500I87500J0D01*
G01*
X33456750Y-14287500D02*
G75*
G02*
X33281750Y-14287500I-87500J0D01*
G01*
X33281750Y-14287500D02*
G75*
G02*
X33456750Y-14287500I87500J0D01*
G01*
X34345750Y-3810000D02*
G75*
G02*
X34170750Y-3810000I-87500J0D01*
G01*
X34170750Y-3810000D02*
G75*
G02*
X34345750Y-3810000I87500J0D01*
G01*
X34345750Y-6667500D02*
G75*
G02*
X34170750Y-6667500I-87500J0D01*
G01*
X34170750Y-6667500D02*
G75*
G02*
X34345750Y-6667500I87500J0D01*
G01*
X34345750Y-8572500D02*
G75*
G02*
X34170750Y-8572500I-87500J0D01*
G01*
X34170750Y-8572500D02*
G75*
G02*
X34345750Y-8572500I87500J0D01*
G01*
X34345750Y-12382500D02*
G75*
G02*
X34170750Y-12382500I-87500J0D01*
G01*
X34170750Y-12382500D02*
G75*
G02*
X34345750Y-12382500I87500J0D01*
G01*
X34345750Y-14287500D02*
G75*
G02*
X34170750Y-14287500I-87500J0D01*
G01*
X34170750Y-14287500D02*
G75*
G02*
X34345750Y-14287500I87500J0D01*
G01*
X35361750Y-3810000D02*
G75*
G02*
X35186750Y-3810000I-87500J0D01*
G01*
X35186750Y-3810000D02*
G75*
G02*
X35361750Y-3810000I87500J0D01*
G01*
X35361750Y-6667500D02*
G75*
G02*
X35186750Y-6667500I-87500J0D01*
G01*
X35186750Y-6667500D02*
G75*
G02*
X35361750Y-6667500I87500J0D01*
G01*
X35361750Y-8572500D02*
G75*
G02*
X35186750Y-8572500I-87500J0D01*
G01*
X35186750Y-8572500D02*
G75*
G02*
X35361750Y-8572500I87500J0D01*
G01*
X35361750Y-12382500D02*
G75*
G02*
X35186750Y-12382500I-87500J0D01*
G01*
X35186750Y-12382500D02*
G75*
G02*
X35361750Y-12382500I87500J0D01*
G01*
X35361750Y-14287500D02*
G75*
G02*
X35186750Y-14287500I-87500J0D01*
G01*
X35186750Y-14287500D02*
G75*
G02*
X35361750Y-14287500I87500J0D01*
G01*
X36250750Y-3810000D02*
G75*
G02*
X36075750Y-3810000I-87500J0D01*
G01*
X36075750Y-3810000D02*
G75*
G02*
X36250750Y-3810000I87500J0D01*
G01*
X36250750Y-6667500D02*
G75*
G02*
X36075750Y-6667500I-87500J0D01*
G01*
X36075750Y-6667500D02*
G75*
G02*
X36250750Y-6667500I87500J0D01*
G01*
X36250750Y-8572500D02*
G75*
G02*
X36075750Y-8572500I-87500J0D01*
G01*
X36075750Y-8572500D02*
G75*
G02*
X36250750Y-8572500I87500J0D01*
G01*
X36250750Y-14287500D02*
G75*
G02*
X36075750Y-14287500I-87500J0D01*
G01*
X36075750Y-14287500D02*
G75*
G02*
X36250750Y-14287500I87500J0D01*
G01*
X37266750Y-3810000D02*
G75*
G02*
X37091750Y-3810000I-87500J0D01*
G01*
X37091750Y-3810000D02*
G75*
G02*
X37266750Y-3810000I87500J0D01*
G01*
X37266750Y-6667500D02*
G75*
G02*
X37091750Y-6667500I-87500J0D01*
G01*
X37091750Y-6667500D02*
G75*
G02*
X37266750Y-6667500I87500J0D01*
G01*
X37266750Y-8572500D02*
G75*
G02*
X37091750Y-8572500I-87500J0D01*
G01*
X37091750Y-8572500D02*
G75*
G02*
X37266750Y-8572500I87500J0D01*
G01*
X37266750Y-14287500D02*
G75*
G02*
X37091750Y-14287500I-87500J0D01*
G01*
X37091750Y-14287500D02*
G75*
G02*
X37266750Y-14287500I87500J0D01*
G01*
D14*
X3810000Y-3610610D02*
X3810000Y-4009390D01*
X3610610Y-3810000D02*
X4009390Y-3810000D01*
X3810000Y-6468110D02*
X3810000Y-6866890D01*
X3610610Y-6667500D02*
X4009390Y-6667500D01*
X3816350Y-11357610D02*
X3816350Y-11756390D01*
X3616960Y-11557000D02*
X4015740Y-11557000D01*
X4048125Y-14088110D02*
X4048125Y-14486890D01*
X3848735Y-14287500D02*
X4247515Y-14287500D01*
X4286250Y-8373110D02*
X4286250Y-8771890D01*
X4086860Y-8572500D02*
X4485640Y-8572500D01*
X4524375Y-10278110D02*
X4524375Y-10676890D01*
X4324985Y-10477500D02*
X4723765Y-10477500D01*
X5000625Y-12183110D02*
X5000625Y-12581890D01*
X4801235Y-12382500D02*
X5200015Y-12382500D01*
X5715000Y-6468110D02*
X5715000Y-6866890D01*
X5515610Y-6667500D02*
X5914390Y-6667500D01*
X6197600Y-11357610D02*
X6197600Y-11756390D01*
X5998210Y-11557000D02*
X6396990Y-11557000D01*
X6429375Y-14088110D02*
X6429375Y-14486890D01*
X6229985Y-14287500D02*
X6628765Y-14287500D01*
X6667500Y-8373110D02*
X6667500Y-8771890D01*
X6468110Y-8572500D02*
X6866890Y-8572500D01*
X7143750Y-10278110D02*
X7143750Y-10676890D01*
X6944360Y-10477500D02*
X7343140Y-10477500D01*
X7620000Y-3610610D02*
X7620000Y-4009390D01*
X7420610Y-3810000D02*
X7819390Y-3810000D01*
X7620000Y-6468110D02*
X7620000Y-6866890D01*
X7420610Y-6667500D02*
X7819390Y-6667500D01*
X8096250Y-12183110D02*
X8096250Y-12581890D01*
X7896860Y-12382500D02*
X8295640Y-12382500D01*
X8572500Y-8373110D02*
X8572500Y-8771890D01*
X8373110Y-8572500D02*
X8771890Y-8572500D01*
X8810625Y-14088110D02*
X8810625Y-14486890D01*
X8611235Y-14287500D02*
X9010015Y-14287500D01*
X9048750Y-10278110D02*
X9048750Y-10676890D01*
X8849360Y-10477500D02*
X9248140Y-10477500D01*
X9525000Y-3610610D02*
X9525000Y-4009390D01*
X9325610Y-3810000D02*
X9724390Y-3810000D01*
X9525000Y-6468110D02*
X9525000Y-6866890D01*
X9325610Y-6667500D02*
X9724390Y-6667500D01*
X10001250Y-12183110D02*
X10001250Y-12581890D01*
X9801860Y-12382500D02*
X10200640Y-12382500D01*
X10477500Y-8373110D02*
X10477500Y-8771890D01*
X10278110Y-8572500D02*
X10676890Y-8572500D01*
X10950575Y-13262915D02*
X10950575Y-13661695D01*
X10751185Y-13462305D02*
X11149965Y-13462305D01*
X10953750Y-10278110D02*
X10953750Y-10676890D01*
X10754360Y-10477500D02*
X11153140Y-10477500D01*
X11430000Y-3610610D02*
X11430000Y-4009390D01*
X11230610Y-3810000D02*
X11629390Y-3810000D01*
X11430000Y-6468110D02*
X11430000Y-6866890D01*
X11230610Y-6667500D02*
X11629390Y-6667500D01*
X11906250Y-12183110D02*
X11906250Y-12581890D01*
X11706860Y-12382500D02*
X12105640Y-12382500D01*
X12382500Y-8373110D02*
X12382500Y-8771890D01*
X12183110Y-8572500D02*
X12581890Y-8572500D01*
X12858750Y-10278110D02*
X12858750Y-10676890D01*
X12659360Y-10477500D02*
X13058140Y-10477500D01*
X13335000Y-3610610D02*
X13335000Y-4009390D01*
X13135610Y-3810000D02*
X13534390Y-3810000D01*
X13335000Y-6468110D02*
X13335000Y-6866890D01*
X13135610Y-6667500D02*
X13534390Y-6667500D01*
X13811250Y-12183110D02*
X13811250Y-12581890D01*
X13611860Y-12382500D02*
X14010640Y-12382500D01*
X14287500Y-8373110D02*
X14287500Y-8771890D01*
X14088110Y-8572500D02*
X14486890Y-8572500D01*
X14763750Y-10278110D02*
X14763750Y-10676890D01*
X14564360Y-10477500D02*
X14963140Y-10477500D01*
X15240000Y-6468110D02*
X15240000Y-6866890D01*
X15040610Y-6667500D02*
X15439390Y-6667500D01*
X15716250Y-12183110D02*
X15716250Y-12581890D01*
X15516860Y-12382500D02*
X15915640Y-12382500D01*
X15954375Y-14088110D02*
X15954375Y-14486890D01*
X15754985Y-14287500D02*
X16153765Y-14287500D01*
X16192500Y-3610610D02*
X16192500Y-4009390D01*
X15993110Y-3810000D02*
X16391890Y-3810000D01*
X16192500Y-8373110D02*
X16192500Y-8771890D01*
X15993110Y-8572500D02*
X16391890Y-8572500D01*
X16668750Y-10278110D02*
X16668750Y-10676890D01*
X16469360Y-10477500D02*
X16868140Y-10477500D01*
X17145000Y-6468110D02*
X17145000Y-6866890D01*
X16945610Y-6667500D02*
X17344390Y-6667500D01*
X17621250Y-12183110D02*
X17621250Y-12581890D01*
X17421860Y-12382500D02*
X17820640Y-12382500D01*
X18097500Y-3610610D02*
X18097500Y-4009390D01*
X17898110Y-3810000D02*
X18296890Y-3810000D01*
X18097500Y-8373110D02*
X18097500Y-8771890D01*
X17898110Y-8572500D02*
X18296890Y-8572500D01*
X18573750Y-10278110D02*
X18573750Y-10676890D01*
X18374360Y-10477500D02*
X18773140Y-10477500D01*
X19050000Y-6468110D02*
X19050000Y-6866890D01*
X18850610Y-6667500D02*
X19249390Y-6667500D01*
X19526250Y-12183110D02*
X19526250Y-12581890D01*
X19326860Y-12382500D02*
X19725640Y-12382500D01*
X20002500Y-3610610D02*
X20002500Y-4009390D01*
X19803110Y-3810000D02*
X20201890Y-3810000D01*
X20002500Y-8373110D02*
X20002500Y-8771890D01*
X19803110Y-8572500D02*
X20201890Y-8572500D01*
X20478750Y-10278110D02*
X20478750Y-10676890D01*
X20279360Y-10477500D02*
X20678140Y-10477500D01*
X20951825Y-13262915D02*
X20951825Y-13661695D01*
X20752435Y-13462305D02*
X21151215Y-13462305D01*
X20955000Y-6468110D02*
X20955000Y-6866890D01*
X20755610Y-6667500D02*
X21154390Y-6667500D01*
X21431250Y-12183110D02*
X21431250Y-12581890D01*
X21231860Y-12382500D02*
X21630640Y-12382500D01*
X21907500Y-3610610D02*
X21907500Y-4009390D01*
X21708110Y-3810000D02*
X22106890Y-3810000D01*
X21907500Y-8373110D02*
X21907500Y-8771890D01*
X21708110Y-8572500D02*
X22106890Y-8572500D01*
X22383750Y-10278110D02*
X22383750Y-10676890D01*
X22184360Y-10477500D02*
X22583140Y-10477500D01*
X22860000Y-6468110D02*
X22860000Y-6866890D01*
X22660610Y-6667500D02*
X23059390Y-6667500D01*
X23098125Y-14088110D02*
X23098125Y-14486890D01*
X22898735Y-14287500D02*
X23297515Y-14287500D01*
X23336250Y-12183110D02*
X23336250Y-12581890D01*
X23136860Y-12382500D02*
X23535640Y-12382500D01*
X23812500Y-8373110D02*
X23812500Y-8771890D01*
X23613110Y-8572500D02*
X24011890Y-8572500D01*
X24288750Y-10278110D02*
X24288750Y-10676890D01*
X24089360Y-10477500D02*
X24488140Y-10477500D01*
X24765000Y-3610610D02*
X24765000Y-4009390D01*
X24565610Y-3810000D02*
X24964390Y-3810000D01*
X24765000Y-6468110D02*
X24765000Y-6866890D01*
X24565610Y-6667500D02*
X24964390Y-6667500D01*
X25241250Y-12183110D02*
X25241250Y-12581890D01*
X25041860Y-12382500D02*
X25440640Y-12382500D01*
X25479375Y-14088110D02*
X25479375Y-14486890D01*
X25279985Y-14287500D02*
X25678765Y-14287500D01*
X25717500Y-8373110D02*
X25717500Y-8771890D01*
X25518110Y-8572500D02*
X25916890Y-8572500D01*
X26193750Y-10278110D02*
X26193750Y-10676890D01*
X25994360Y-10477500D02*
X26393140Y-10477500D01*
X26670000Y-3610610D02*
X26670000Y-4009390D01*
X26470610Y-3810000D02*
X26869390Y-3810000D01*
X26670000Y-6468110D02*
X26670000Y-6866890D01*
X26470610Y-6667500D02*
X26869390Y-6667500D01*
X27622500Y-8373110D02*
X27622500Y-8771890D01*
X27423110Y-8572500D02*
X27821890Y-8572500D01*
X27622500Y-11357610D02*
X27622500Y-11756390D01*
X27423110Y-11557000D02*
X27821890Y-11557000D01*
X27860625Y-14088110D02*
X27860625Y-14486890D01*
X27661235Y-14287500D02*
X28060015Y-14287500D01*
X28098750Y-9452610D02*
X28098750Y-9851390D01*
X27899360Y-9652000D02*
X28298140Y-9652000D01*
X28336875Y-5642610D02*
X28336875Y-6041390D01*
X28137485Y-5842000D02*
X28536265Y-5842000D01*
X28575000Y-3610610D02*
X28575000Y-4009390D01*
X28375610Y-3810000D02*
X28774390Y-3810000D01*
X28813125Y-12183110D02*
X28813125Y-12581890D01*
X28613735Y-12382500D02*
X29012515Y-12382500D01*
X29289375Y-10278110D02*
X29289375Y-10676890D01*
X29089985Y-10477500D02*
X29488765Y-10477500D01*
X29527500Y-6468110D02*
X29527500Y-6866890D01*
X29328110Y-6667500D02*
X29726890Y-6667500D01*
X30003750Y-8373110D02*
X30003750Y-8771890D01*
X29804360Y-8572500D02*
X30203140Y-8572500D01*
X30003750Y-11357610D02*
X30003750Y-11756390D01*
X29804360Y-11557000D02*
X30203140Y-11557000D01*
X30241875Y-14088110D02*
X30241875Y-14486890D01*
X30042485Y-14287500D02*
X30441265Y-14287500D01*
X30480000Y-3610610D02*
X30480000Y-4009390D01*
X30280610Y-3810000D02*
X30679390Y-3810000D01*
X30480000Y-9452610D02*
X30480000Y-9851390D01*
X30280610Y-9652000D02*
X30679390Y-9652000D01*
X30718125Y-5642610D02*
X30718125Y-6041390D01*
X30518735Y-5842000D02*
X30917515Y-5842000D01*
X32861250Y-3610610D02*
X32861250Y-4009390D01*
X32661860Y-3810000D02*
X33060640Y-3810000D01*
X32861250Y-6468110D02*
X32861250Y-6866890D01*
X32661860Y-6667500D02*
X33060640Y-6667500D01*
X32861250Y-8373110D02*
X32861250Y-8771890D01*
X32661860Y-8572500D02*
X33060640Y-8572500D01*
X32861250Y-14088110D02*
X32861250Y-14486890D01*
X32661860Y-14287500D02*
X33060640Y-14287500D01*
X34766250Y-3610610D02*
X34766250Y-4009390D01*
X34566860Y-3810000D02*
X34965640Y-3810000D01*
X34766250Y-6468110D02*
X34766250Y-6866890D01*
X34566860Y-6667500D02*
X34965640Y-6667500D01*
X34766250Y-8373110D02*
X34766250Y-8771890D01*
X34566860Y-8572500D02*
X34965640Y-8572500D01*
X34766250Y-12183110D02*
X34766250Y-12581890D01*
X34566860Y-12382500D02*
X34965640Y-12382500D01*
X34766250Y-14088110D02*
X34766250Y-14486890D01*
X34566860Y-14287500D02*
X34965640Y-14287500D01*
X36671250Y-3610610D02*
X36671250Y-4009390D01*
X36471860Y-3810000D02*
X36870640Y-3810000D01*
X36671250Y-6468110D02*
X36671250Y-6866890D01*
X36471860Y-6667500D02*
X36870640Y-6667500D01*
X36671250Y-8373110D02*
X36671250Y-8771890D01*
X36471860Y-8572500D02*
X36870640Y-8572500D01*
X36671250Y-14088110D02*
X36671250Y-14486890D01*
X36471860Y-14287500D02*
X36870640Y-14287500D01*
D12*
X3093204Y-15666484D02*
X3093204Y-15466484D01*
X3093204Y-15466484D02*
X3140823Y-15466484D01*
X3140823Y-15466484D02*
X3169394Y-15476008D01*
X3169394Y-15476008D02*
X3188442Y-15495055D01*
X3188442Y-15495055D02*
X3197966Y-15514103D01*
X3197966Y-15514103D02*
X3207489Y-15552198D01*
X3207489Y-15552198D02*
X3207489Y-15580770D01*
X3207489Y-15580770D02*
X3197966Y-15618865D01*
X3197966Y-15618865D02*
X3188442Y-15637913D01*
X3188442Y-15637913D02*
X3169394Y-15656960D01*
X3169394Y-15656960D02*
X3140823Y-15666484D01*
X3140823Y-15666484D02*
X3093204Y-15666484D01*
X3293204Y-15666484D02*
X3293204Y-15533151D01*
X3293204Y-15571246D02*
X3302727Y-15552198D01*
X3302727Y-15552198D02*
X3312251Y-15542674D01*
X3312251Y-15542674D02*
X3331299Y-15533151D01*
X3331299Y-15533151D02*
X3350347Y-15533151D01*
X3417013Y-15666484D02*
X3417013Y-15533151D01*
X3417013Y-15466484D02*
X3407489Y-15476008D01*
X3407489Y-15476008D02*
X3417013Y-15485532D01*
X3417013Y-15485532D02*
X3426537Y-15476008D01*
X3426537Y-15476008D02*
X3417013Y-15466484D01*
X3417013Y-15466484D02*
X3417013Y-15485532D01*
X3540823Y-15666484D02*
X3521775Y-15656960D01*
X3521775Y-15656960D02*
X3512251Y-15637913D01*
X3512251Y-15637913D02*
X3512251Y-15466484D01*
X3645585Y-15666484D02*
X3626537Y-15656960D01*
X3626537Y-15656960D02*
X3617013Y-15637913D01*
X3617013Y-15637913D02*
X3617013Y-15466484D01*
X3874156Y-15666484D02*
X3874156Y-15466484D01*
X3874156Y-15466484D02*
X3940823Y-15609341D01*
X3940823Y-15609341D02*
X4007489Y-15466484D01*
X4007489Y-15466484D02*
X4007489Y-15666484D01*
X4188442Y-15666484D02*
X4188442Y-15561722D01*
X4188442Y-15561722D02*
X4178918Y-15542674D01*
X4178918Y-15542674D02*
X4159870Y-15533151D01*
X4159870Y-15533151D02*
X4121775Y-15533151D01*
X4121775Y-15533151D02*
X4102727Y-15542674D01*
X4188442Y-15656960D02*
X4169394Y-15666484D01*
X4169394Y-15666484D02*
X4121775Y-15666484D01*
X4121775Y-15666484D02*
X4102727Y-15656960D01*
X4102727Y-15656960D02*
X4093204Y-15637913D01*
X4093204Y-15637913D02*
X4093204Y-15618865D01*
X4093204Y-15618865D02*
X4102727Y-15599817D01*
X4102727Y-15599817D02*
X4121775Y-15590294D01*
X4121775Y-15590294D02*
X4169394Y-15590294D01*
X4169394Y-15590294D02*
X4188442Y-15580770D01*
X4283680Y-15533151D02*
X4283680Y-15733151D01*
X4283680Y-15542674D02*
X4302728Y-15533151D01*
X4302728Y-15533151D02*
X4340823Y-15533151D01*
X4340823Y-15533151D02*
X4359870Y-15542674D01*
X4359870Y-15542674D02*
X4369394Y-15552198D01*
X4369394Y-15552198D02*
X4378918Y-15571246D01*
X4378918Y-15571246D02*
X4378918Y-15628389D01*
X4378918Y-15628389D02*
X4369394Y-15647436D01*
X4369394Y-15647436D02*
X4359870Y-15656960D01*
X4359870Y-15656960D02*
X4340823Y-15666484D01*
X4340823Y-15666484D02*
X4302728Y-15666484D01*
X4302728Y-15666484D02*
X4283680Y-15656960D01*
X4464632Y-15647436D02*
X4474156Y-15656960D01*
X4474156Y-15656960D02*
X4464632Y-15666484D01*
X4464632Y-15666484D02*
X4455109Y-15656960D01*
X4455109Y-15656960D02*
X4464632Y-15647436D01*
X4464632Y-15647436D02*
X4464632Y-15666484D01*
X4464632Y-15542674D02*
X4474156Y-15552198D01*
X4474156Y-15552198D02*
X4464632Y-15561722D01*
X4464632Y-15561722D02*
X4455109Y-15552198D01*
X4455109Y-15552198D02*
X4464632Y-15542674D01*
X4464632Y-15542674D02*
X4464632Y-15561722D01*
D11*
X2767427Y-15962500D02*
X2832427Y-16027500D01*
X2832427Y-15962500D02*
X2767427Y-16027500D01*
D12*
X3131299Y-15886484D02*
X3150347Y-15886484D01*
X3150347Y-15886484D02*
X3169394Y-15896008D01*
X3169394Y-15896008D02*
X3178918Y-15905532D01*
X3178918Y-15905532D02*
X3188442Y-15924579D01*
X3188442Y-15924579D02*
X3197966Y-15962674D01*
X3197966Y-15962674D02*
X3197966Y-16010294D01*
X3197966Y-16010294D02*
X3188442Y-16048389D01*
X3188442Y-16048389D02*
X3178918Y-16067436D01*
X3178918Y-16067436D02*
X3169394Y-16076960D01*
X3169394Y-16076960D02*
X3150347Y-16086484D01*
X3150347Y-16086484D02*
X3131299Y-16086484D01*
X3131299Y-16086484D02*
X3112251Y-16076960D01*
X3112251Y-16076960D02*
X3102727Y-16067436D01*
X3102727Y-16067436D02*
X3093204Y-16048389D01*
X3093204Y-16048389D02*
X3083680Y-16010294D01*
X3083680Y-16010294D02*
X3083680Y-15962674D01*
X3083680Y-15962674D02*
X3093204Y-15924579D01*
X3093204Y-15924579D02*
X3102727Y-15905532D01*
X3102727Y-15905532D02*
X3112251Y-15896008D01*
X3112251Y-15896008D02*
X3131299Y-15886484D01*
X3283680Y-16067436D02*
X3293204Y-16076960D01*
X3293204Y-16076960D02*
X3283680Y-16086484D01*
X3283680Y-16086484D02*
X3274156Y-16076960D01*
X3274156Y-16076960D02*
X3283680Y-16067436D01*
X3283680Y-16067436D02*
X3283680Y-16086484D01*
X3464632Y-15886484D02*
X3426537Y-15886484D01*
X3426537Y-15886484D02*
X3407489Y-15896008D01*
X3407489Y-15896008D02*
X3397966Y-15905532D01*
X3397966Y-15905532D02*
X3378918Y-15934103D01*
X3378918Y-15934103D02*
X3369394Y-15972198D01*
X3369394Y-15972198D02*
X3369394Y-16048389D01*
X3369394Y-16048389D02*
X3378918Y-16067436D01*
X3378918Y-16067436D02*
X3388442Y-16076960D01*
X3388442Y-16076960D02*
X3407489Y-16086484D01*
X3407489Y-16086484D02*
X3445585Y-16086484D01*
X3445585Y-16086484D02*
X3464632Y-16076960D01*
X3464632Y-16076960D02*
X3474156Y-16067436D01*
X3474156Y-16067436D02*
X3483680Y-16048389D01*
X3483680Y-16048389D02*
X3483680Y-16000770D01*
X3483680Y-16000770D02*
X3474156Y-15981722D01*
X3474156Y-15981722D02*
X3464632Y-15972198D01*
X3464632Y-15972198D02*
X3445585Y-15962674D01*
X3445585Y-15962674D02*
X3407489Y-15962674D01*
X3407489Y-15962674D02*
X3388442Y-15972198D01*
X3388442Y-15972198D02*
X3378918Y-15981722D01*
X3378918Y-15981722D02*
X3369394Y-16000770D01*
X3664632Y-15886484D02*
X3569394Y-15886484D01*
X3569394Y-15886484D02*
X3559870Y-15981722D01*
X3559870Y-15981722D02*
X3569394Y-15972198D01*
X3569394Y-15972198D02*
X3588442Y-15962674D01*
X3588442Y-15962674D02*
X3636061Y-15962674D01*
X3636061Y-15962674D02*
X3655108Y-15972198D01*
X3655108Y-15972198D02*
X3664632Y-15981722D01*
X3664632Y-15981722D02*
X3674156Y-16000770D01*
X3674156Y-16000770D02*
X3674156Y-16048389D01*
X3674156Y-16048389D02*
X3664632Y-16067436D01*
X3664632Y-16067436D02*
X3655108Y-16076960D01*
X3655108Y-16076960D02*
X3636061Y-16086484D01*
X3636061Y-16086484D02*
X3588442Y-16086484D01*
X3588442Y-16086484D02*
X3569394Y-16076960D01*
X3569394Y-16076960D02*
X3559870Y-16067436D01*
X3797966Y-15886484D02*
X3817013Y-15886484D01*
X3817013Y-15886484D02*
X3836061Y-15896008D01*
X3836061Y-15896008D02*
X3845585Y-15905532D01*
X3845585Y-15905532D02*
X3855108Y-15924579D01*
X3855108Y-15924579D02*
X3864632Y-15962674D01*
X3864632Y-15962674D02*
X3864632Y-16010294D01*
X3864632Y-16010294D02*
X3855108Y-16048389D01*
X3855108Y-16048389D02*
X3845585Y-16067436D01*
X3845585Y-16067436D02*
X3836061Y-16076960D01*
X3836061Y-16076960D02*
X3817013Y-16086484D01*
X3817013Y-16086484D02*
X3797966Y-16086484D01*
X3797966Y-16086484D02*
X3778918Y-16076960D01*
X3778918Y-16076960D02*
X3769394Y-16067436D01*
X3769394Y-16067436D02*
X3759870Y-16048389D01*
X3759870Y-16048389D02*
X3750347Y-16010294D01*
X3750347Y-16010294D02*
X3750347Y-15962674D01*
X3750347Y-15962674D02*
X3759870Y-15924579D01*
X3759870Y-15924579D02*
X3769394Y-15905532D01*
X3769394Y-15905532D02*
X3778918Y-15896008D01*
X3778918Y-15896008D02*
X3797966Y-15886484D01*
X3950347Y-16086484D02*
X3950347Y-15953151D01*
X3950347Y-15972198D02*
X3959870Y-15962674D01*
X3959870Y-15962674D02*
X3978918Y-15953151D01*
X3978918Y-15953151D02*
X4007489Y-15953151D01*
X4007489Y-15953151D02*
X4026537Y-15962674D01*
X4026537Y-15962674D02*
X4036061Y-15981722D01*
X4036061Y-15981722D02*
X4036061Y-16086484D01*
X4036061Y-15981722D02*
X4045585Y-15962674D01*
X4045585Y-15962674D02*
X4064632Y-15953151D01*
X4064632Y-15953151D02*
X4093204Y-15953151D01*
X4093204Y-15953151D02*
X4112251Y-15962674D01*
X4112251Y-15962674D02*
X4121775Y-15981722D01*
X4121775Y-15981722D02*
X4121775Y-16086484D01*
X4217013Y-16086484D02*
X4217013Y-15953151D01*
X4217013Y-15972198D02*
X4226537Y-15962674D01*
X4226537Y-15962674D02*
X4245585Y-15953151D01*
X4245585Y-15953151D02*
X4274156Y-15953151D01*
X4274156Y-15953151D02*
X4293204Y-15962674D01*
X4293204Y-15962674D02*
X4302728Y-15981722D01*
X4302728Y-15981722D02*
X4302728Y-16086484D01*
X4302728Y-15981722D02*
X4312251Y-15962674D01*
X4312251Y-15962674D02*
X4331299Y-15953151D01*
X4331299Y-15953151D02*
X4359870Y-15953151D01*
X4359870Y-15953151D02*
X4378918Y-15962674D01*
X4378918Y-15962674D02*
X4388442Y-15981722D01*
X4388442Y-15981722D02*
X4388442Y-16086484D01*
X4778918Y-15876960D02*
X4607490Y-16134103D01*
X5036061Y-15886484D02*
X5055109Y-15886484D01*
X5055109Y-15886484D02*
X5074156Y-15896008D01*
X5074156Y-15896008D02*
X5083680Y-15905532D01*
X5083680Y-15905532D02*
X5093204Y-15924579D01*
X5093204Y-15924579D02*
X5102728Y-15962674D01*
X5102728Y-15962674D02*
X5102728Y-16010294D01*
X5102728Y-16010294D02*
X5093204Y-16048389D01*
X5093204Y-16048389D02*
X5083680Y-16067436D01*
X5083680Y-16067436D02*
X5074156Y-16076960D01*
X5074156Y-16076960D02*
X5055109Y-16086484D01*
X5055109Y-16086484D02*
X5036061Y-16086484D01*
X5036061Y-16086484D02*
X5017013Y-16076960D01*
X5017013Y-16076960D02*
X5007490Y-16067436D01*
X5007490Y-16067436D02*
X4997966Y-16048389D01*
X4997966Y-16048389D02*
X4988442Y-16010294D01*
X4988442Y-16010294D02*
X4988442Y-15962674D01*
X4988442Y-15962674D02*
X4997966Y-15924579D01*
X4997966Y-15924579D02*
X5007490Y-15905532D01*
X5007490Y-15905532D02*
X5017013Y-15896008D01*
X5017013Y-15896008D02*
X5036061Y-15886484D01*
X5188442Y-16067436D02*
X5197966Y-16076960D01*
X5197966Y-16076960D02*
X5188442Y-16086484D01*
X5188442Y-16086484D02*
X5178918Y-16076960D01*
X5178918Y-16076960D02*
X5188442Y-16067436D01*
X5188442Y-16067436D02*
X5188442Y-16086484D01*
X5321775Y-15886484D02*
X5340823Y-15886484D01*
X5340823Y-15886484D02*
X5359871Y-15896008D01*
X5359871Y-15896008D02*
X5369394Y-15905532D01*
X5369394Y-15905532D02*
X5378918Y-15924579D01*
X5378918Y-15924579D02*
X5388442Y-15962674D01*
X5388442Y-15962674D02*
X5388442Y-16010294D01*
X5388442Y-16010294D02*
X5378918Y-16048389D01*
X5378918Y-16048389D02*
X5369394Y-16067436D01*
X5369394Y-16067436D02*
X5359871Y-16076960D01*
X5359871Y-16076960D02*
X5340823Y-16086484D01*
X5340823Y-16086484D02*
X5321775Y-16086484D01*
X5321775Y-16086484D02*
X5302728Y-16076960D01*
X5302728Y-16076960D02*
X5293204Y-16067436D01*
X5293204Y-16067436D02*
X5283680Y-16048389D01*
X5283680Y-16048389D02*
X5274156Y-16010294D01*
X5274156Y-16010294D02*
X5274156Y-15962674D01*
X5274156Y-15962674D02*
X5283680Y-15924579D01*
X5283680Y-15924579D02*
X5293204Y-15905532D01*
X5293204Y-15905532D02*
X5302728Y-15896008D01*
X5302728Y-15896008D02*
X5321775Y-15886484D01*
X5464633Y-15905532D02*
X5474156Y-15896008D01*
X5474156Y-15896008D02*
X5493204Y-15886484D01*
X5493204Y-15886484D02*
X5540823Y-15886484D01*
X5540823Y-15886484D02*
X5559871Y-15896008D01*
X5559871Y-15896008D02*
X5569394Y-15905532D01*
X5569394Y-15905532D02*
X5578918Y-15924579D01*
X5578918Y-15924579D02*
X5578918Y-15943627D01*
X5578918Y-15943627D02*
X5569394Y-15972198D01*
X5569394Y-15972198D02*
X5455109Y-16086484D01*
X5455109Y-16086484D02*
X5578918Y-16086484D01*
X5759871Y-15886484D02*
X5664632Y-15886484D01*
X5664632Y-15886484D02*
X5655109Y-15981722D01*
X5655109Y-15981722D02*
X5664632Y-15972198D01*
X5664632Y-15972198D02*
X5683680Y-15962674D01*
X5683680Y-15962674D02*
X5731299Y-15962674D01*
X5731299Y-15962674D02*
X5750347Y-15972198D01*
X5750347Y-15972198D02*
X5759871Y-15981722D01*
X5759871Y-15981722D02*
X5769394Y-16000770D01*
X5769394Y-16000770D02*
X5769394Y-16048389D01*
X5769394Y-16048389D02*
X5759871Y-16067436D01*
X5759871Y-16067436D02*
X5750347Y-16076960D01*
X5750347Y-16076960D02*
X5731299Y-16086484D01*
X5731299Y-16086484D02*
X5683680Y-16086484D01*
X5683680Y-16086484D02*
X5664632Y-16076960D01*
X5664632Y-16076960D02*
X5655109Y-16067436D01*
X5940823Y-15886484D02*
X5902728Y-15886484D01*
X5902728Y-15886484D02*
X5883680Y-15896008D01*
X5883680Y-15896008D02*
X5874156Y-15905532D01*
X5874156Y-15905532D02*
X5855109Y-15934103D01*
X5855109Y-15934103D02*
X5845585Y-15972198D01*
X5845585Y-15972198D02*
X5845585Y-16048389D01*
X5845585Y-16048389D02*
X5855109Y-16067436D01*
X5855109Y-16067436D02*
X5864632Y-16076960D01*
X5864632Y-16076960D02*
X5883680Y-16086484D01*
X5883680Y-16086484D02*
X5921775Y-16086484D01*
X5921775Y-16086484D02*
X5940823Y-16076960D01*
X5940823Y-16076960D02*
X5950347Y-16067436D01*
X5950347Y-16067436D02*
X5959871Y-16048389D01*
X5959871Y-16048389D02*
X5959871Y-16000770D01*
X5959871Y-16000770D02*
X5950347Y-15981722D01*
X5950347Y-15981722D02*
X5940823Y-15972198D01*
X5940823Y-15972198D02*
X5921775Y-15962674D01*
X5921775Y-15962674D02*
X5883680Y-15962674D01*
X5883680Y-15962674D02*
X5864632Y-15972198D01*
X5864632Y-15972198D02*
X5855109Y-15981722D01*
X5855109Y-15981722D02*
X5845585Y-16000770D01*
X6036061Y-15886484D02*
X6036061Y-15924579D01*
X6112252Y-15886484D02*
X6112252Y-15924579D01*
X6407490Y-16162674D02*
X6397966Y-16153151D01*
X6397966Y-16153151D02*
X6378918Y-16124579D01*
X6378918Y-16124579D02*
X6369394Y-16105532D01*
X6369394Y-16105532D02*
X6359871Y-16076960D01*
X6359871Y-16076960D02*
X6350347Y-16029341D01*
X6350347Y-16029341D02*
X6350347Y-15991246D01*
X6350347Y-15991246D02*
X6359871Y-15943627D01*
X6359871Y-15943627D02*
X6369394Y-15915055D01*
X6369394Y-15915055D02*
X6378918Y-15896008D01*
X6378918Y-15896008D02*
X6397966Y-15867436D01*
X6397966Y-15867436D02*
X6407490Y-15857913D01*
X6474156Y-15905532D02*
X6483680Y-15896008D01*
X6483680Y-15896008D02*
X6502728Y-15886484D01*
X6502728Y-15886484D02*
X6550347Y-15886484D01*
X6550347Y-15886484D02*
X6569394Y-15896008D01*
X6569394Y-15896008D02*
X6578918Y-15905532D01*
X6578918Y-15905532D02*
X6588442Y-15924579D01*
X6588442Y-15924579D02*
X6588442Y-15943627D01*
X6588442Y-15943627D02*
X6578918Y-15972198D01*
X6578918Y-15972198D02*
X6464633Y-16086484D01*
X6464633Y-16086484D02*
X6588442Y-16086484D01*
X6826537Y-16086484D02*
X6826537Y-15886484D01*
X6912252Y-16086484D02*
X6912252Y-15981722D01*
X6912252Y-15981722D02*
X6902728Y-15962674D01*
X6902728Y-15962674D02*
X6883680Y-15953151D01*
X6883680Y-15953151D02*
X6855109Y-15953151D01*
X6855109Y-15953151D02*
X6836061Y-15962674D01*
X6836061Y-15962674D02*
X6826537Y-15972198D01*
X7036061Y-16086484D02*
X7017014Y-16076960D01*
X7017014Y-16076960D02*
X7007490Y-16067436D01*
X7007490Y-16067436D02*
X6997966Y-16048389D01*
X6997966Y-16048389D02*
X6997966Y-15991246D01*
X6997966Y-15991246D02*
X7007490Y-15972198D01*
X7007490Y-15972198D02*
X7017014Y-15962674D01*
X7017014Y-15962674D02*
X7036061Y-15953151D01*
X7036061Y-15953151D02*
X7064633Y-15953151D01*
X7064633Y-15953151D02*
X7083680Y-15962674D01*
X7083680Y-15962674D02*
X7093204Y-15972198D01*
X7093204Y-15972198D02*
X7102728Y-15991246D01*
X7102728Y-15991246D02*
X7102728Y-16048389D01*
X7102728Y-16048389D02*
X7093204Y-16067436D01*
X7093204Y-16067436D02*
X7083680Y-16076960D01*
X7083680Y-16076960D02*
X7064633Y-16086484D01*
X7064633Y-16086484D02*
X7036061Y-16086484D01*
X7217014Y-16086484D02*
X7197966Y-16076960D01*
X7197966Y-16076960D02*
X7188442Y-16057913D01*
X7188442Y-16057913D02*
X7188442Y-15886484D01*
X7369395Y-16076960D02*
X7350347Y-16086484D01*
X7350347Y-16086484D02*
X7312252Y-16086484D01*
X7312252Y-16086484D02*
X7293204Y-16076960D01*
X7293204Y-16076960D02*
X7283680Y-16057913D01*
X7283680Y-16057913D02*
X7283680Y-15981722D01*
X7283680Y-15981722D02*
X7293204Y-15962674D01*
X7293204Y-15962674D02*
X7312252Y-15953151D01*
X7312252Y-15953151D02*
X7350347Y-15953151D01*
X7350347Y-15953151D02*
X7369395Y-15962674D01*
X7369395Y-15962674D02*
X7378918Y-15981722D01*
X7378918Y-15981722D02*
X7378918Y-16000770D01*
X7378918Y-16000770D02*
X7283680Y-16019817D01*
X7455109Y-16076960D02*
X7474156Y-16086484D01*
X7474156Y-16086484D02*
X7512252Y-16086484D01*
X7512252Y-16086484D02*
X7531299Y-16076960D01*
X7531299Y-16076960D02*
X7540823Y-16057913D01*
X7540823Y-16057913D02*
X7540823Y-16048389D01*
X7540823Y-16048389D02*
X7531299Y-16029341D01*
X7531299Y-16029341D02*
X7512252Y-16019817D01*
X7512252Y-16019817D02*
X7483680Y-16019817D01*
X7483680Y-16019817D02*
X7464633Y-16010294D01*
X7464633Y-16010294D02*
X7455109Y-15991246D01*
X7455109Y-15991246D02*
X7455109Y-15981722D01*
X7455109Y-15981722D02*
X7464633Y-15962674D01*
X7464633Y-15962674D02*
X7483680Y-15953151D01*
X7483680Y-15953151D02*
X7512252Y-15953151D01*
X7512252Y-15953151D02*
X7531299Y-15962674D01*
X7607490Y-16162674D02*
X7617014Y-16153151D01*
X7617014Y-16153151D02*
X7636061Y-16124579D01*
X7636061Y-16124579D02*
X7645585Y-16105532D01*
X7645585Y-16105532D02*
X7655109Y-16076960D01*
X7655109Y-16076960D02*
X7664633Y-16029341D01*
X7664633Y-16029341D02*
X7664633Y-15991246D01*
X7664633Y-15991246D02*
X7655109Y-15943627D01*
X7655109Y-15943627D02*
X7645585Y-15915055D01*
X7645585Y-15915055D02*
X7636061Y-15896008D01*
X7636061Y-15896008D02*
X7617014Y-15867436D01*
X7617014Y-15867436D02*
X7607490Y-15857913D01*
X7969395Y-16162674D02*
X7959871Y-16153151D01*
X7959871Y-16153151D02*
X7940823Y-16124579D01*
X7940823Y-16124579D02*
X7931299Y-16105532D01*
X7931299Y-16105532D02*
X7921776Y-16076960D01*
X7921776Y-16076960D02*
X7912252Y-16029341D01*
X7912252Y-16029341D02*
X7912252Y-15991246D01*
X7912252Y-15991246D02*
X7921776Y-15943627D01*
X7921776Y-15943627D02*
X7931299Y-15915055D01*
X7931299Y-15915055D02*
X7940823Y-15896008D01*
X7940823Y-15896008D02*
X7959871Y-15867436D01*
X7959871Y-15867436D02*
X7969395Y-15857913D01*
X8045585Y-15953151D02*
X8045585Y-16086484D01*
X8045585Y-15972198D02*
X8055109Y-15962674D01*
X8055109Y-15962674D02*
X8074156Y-15953151D01*
X8074156Y-15953151D02*
X8102728Y-15953151D01*
X8102728Y-15953151D02*
X8121776Y-15962674D01*
X8121776Y-15962674D02*
X8131299Y-15981722D01*
X8131299Y-15981722D02*
X8131299Y-16086484D01*
X8255109Y-16086484D02*
X8236061Y-16076960D01*
X8236061Y-16076960D02*
X8226537Y-16067436D01*
X8226537Y-16067436D02*
X8217014Y-16048389D01*
X8217014Y-16048389D02*
X8217014Y-15991246D01*
X8217014Y-15991246D02*
X8226537Y-15972198D01*
X8226537Y-15972198D02*
X8236061Y-15962674D01*
X8236061Y-15962674D02*
X8255109Y-15953151D01*
X8255109Y-15953151D02*
X8283680Y-15953151D01*
X8283680Y-15953151D02*
X8302728Y-15962674D01*
X8302728Y-15962674D02*
X8312252Y-15972198D01*
X8312252Y-15972198D02*
X8321776Y-15991246D01*
X8321776Y-15991246D02*
X8321776Y-16048389D01*
X8321776Y-16048389D02*
X8312252Y-16067436D01*
X8312252Y-16067436D02*
X8302728Y-16076960D01*
X8302728Y-16076960D02*
X8283680Y-16086484D01*
X8283680Y-16086484D02*
X8255109Y-16086484D01*
X8378918Y-15953151D02*
X8455109Y-15953151D01*
X8407490Y-15886484D02*
X8407490Y-16057913D01*
X8407490Y-16057913D02*
X8417014Y-16076960D01*
X8417014Y-16076960D02*
X8436061Y-16086484D01*
X8436061Y-16086484D02*
X8455109Y-16086484D01*
X8674157Y-15953151D02*
X8674157Y-16153151D01*
X8674157Y-15962674D02*
X8693204Y-15953151D01*
X8693204Y-15953151D02*
X8731300Y-15953151D01*
X8731300Y-15953151D02*
X8750347Y-15962674D01*
X8750347Y-15962674D02*
X8759871Y-15972198D01*
X8759871Y-15972198D02*
X8769395Y-15991246D01*
X8769395Y-15991246D02*
X8769395Y-16048389D01*
X8769395Y-16048389D02*
X8759871Y-16067436D01*
X8759871Y-16067436D02*
X8750347Y-16076960D01*
X8750347Y-16076960D02*
X8731300Y-16086484D01*
X8731300Y-16086484D02*
X8693204Y-16086484D01*
X8693204Y-16086484D02*
X8674157Y-16076960D01*
X8883680Y-16086484D02*
X8864633Y-16076960D01*
X8864633Y-16076960D02*
X8855109Y-16057913D01*
X8855109Y-16057913D02*
X8855109Y-15886484D01*
X9045585Y-16086484D02*
X9045585Y-15981722D01*
X9045585Y-15981722D02*
X9036061Y-15962674D01*
X9036061Y-15962674D02*
X9017014Y-15953151D01*
X9017014Y-15953151D02*
X8978919Y-15953151D01*
X8978919Y-15953151D02*
X8959871Y-15962674D01*
X9045585Y-16076960D02*
X9026538Y-16086484D01*
X9026538Y-16086484D02*
X8978919Y-16086484D01*
X8978919Y-16086484D02*
X8959871Y-16076960D01*
X8959871Y-16076960D02*
X8950347Y-16057913D01*
X8950347Y-16057913D02*
X8950347Y-16038865D01*
X8950347Y-16038865D02*
X8959871Y-16019817D01*
X8959871Y-16019817D02*
X8978919Y-16010294D01*
X8978919Y-16010294D02*
X9026538Y-16010294D01*
X9026538Y-16010294D02*
X9045585Y-16000770D01*
X9112252Y-15953151D02*
X9188442Y-15953151D01*
X9140823Y-15886484D02*
X9140823Y-16057913D01*
X9140823Y-16057913D02*
X9150347Y-16076960D01*
X9150347Y-16076960D02*
X9169395Y-16086484D01*
X9169395Y-16086484D02*
X9188442Y-16086484D01*
X9331300Y-16076960D02*
X9312252Y-16086484D01*
X9312252Y-16086484D02*
X9274157Y-16086484D01*
X9274157Y-16086484D02*
X9255109Y-16076960D01*
X9255109Y-16076960D02*
X9245585Y-16057913D01*
X9245585Y-16057913D02*
X9245585Y-15981722D01*
X9245585Y-15981722D02*
X9255109Y-15962674D01*
X9255109Y-15962674D02*
X9274157Y-15953151D01*
X9274157Y-15953151D02*
X9312252Y-15953151D01*
X9312252Y-15953151D02*
X9331300Y-15962674D01*
X9331300Y-15962674D02*
X9340823Y-15981722D01*
X9340823Y-15981722D02*
X9340823Y-16000770D01*
X9340823Y-16000770D02*
X9245585Y-16019817D01*
X9512252Y-16086484D02*
X9512252Y-15886484D01*
X9512252Y-16076960D02*
X9493204Y-16086484D01*
X9493204Y-16086484D02*
X9455109Y-16086484D01*
X9455109Y-16086484D02*
X9436061Y-16076960D01*
X9436061Y-16076960D02*
X9426538Y-16067436D01*
X9426538Y-16067436D02*
X9417014Y-16048389D01*
X9417014Y-16048389D02*
X9417014Y-15991246D01*
X9417014Y-15991246D02*
X9426538Y-15972198D01*
X9426538Y-15972198D02*
X9436061Y-15962674D01*
X9436061Y-15962674D02*
X9455109Y-15953151D01*
X9455109Y-15953151D02*
X9493204Y-15953151D01*
X9493204Y-15953151D02*
X9512252Y-15962674D01*
X9588442Y-16162674D02*
X9597966Y-16153151D01*
X9597966Y-16153151D02*
X9617014Y-16124579D01*
X9617014Y-16124579D02*
X9626538Y-16105532D01*
X9626538Y-16105532D02*
X9636061Y-16076960D01*
X9636061Y-16076960D02*
X9645585Y-16029341D01*
X9645585Y-16029341D02*
X9645585Y-15991246D01*
X9645585Y-15991246D02*
X9636061Y-15943627D01*
X9636061Y-15943627D02*
X9626538Y-15915055D01*
X9626538Y-15915055D02*
X9617014Y-15896008D01*
X9617014Y-15896008D02*
X9597966Y-15867436D01*
X9597966Y-15867436D02*
X9588442Y-15857913D01*
D13*
X2832427Y-16259000D02*
G75*
G02*
X2657427Y-16259000I-87500J0D01*
G01*
X2657427Y-16259000D02*
G75*
G02*
X2832427Y-16259000I87500J0D01*
G01*
D12*
X3197966Y-16350484D02*
X3083680Y-16350484D01*
X3140823Y-16350484D02*
X3140823Y-16150484D01*
X3140823Y-16150484D02*
X3121775Y-16179055D01*
X3121775Y-16179055D02*
X3102727Y-16198103D01*
X3102727Y-16198103D02*
X3083680Y-16207627D01*
X3283680Y-16331436D02*
X3293204Y-16340960D01*
X3293204Y-16340960D02*
X3283680Y-16350484D01*
X3283680Y-16350484D02*
X3274156Y-16340960D01*
X3274156Y-16340960D02*
X3283680Y-16331436D01*
X3283680Y-16331436D02*
X3283680Y-16350484D01*
X3359870Y-16150484D02*
X3493204Y-16150484D01*
X3493204Y-16150484D02*
X3407489Y-16350484D01*
X3664632Y-16150484D02*
X3569394Y-16150484D01*
X3569394Y-16150484D02*
X3559870Y-16245722D01*
X3559870Y-16245722D02*
X3569394Y-16236198D01*
X3569394Y-16236198D02*
X3588442Y-16226674D01*
X3588442Y-16226674D02*
X3636061Y-16226674D01*
X3636061Y-16226674D02*
X3655108Y-16236198D01*
X3655108Y-16236198D02*
X3664632Y-16245722D01*
X3664632Y-16245722D02*
X3674156Y-16264770D01*
X3674156Y-16264770D02*
X3674156Y-16312389D01*
X3674156Y-16312389D02*
X3664632Y-16331436D01*
X3664632Y-16331436D02*
X3655108Y-16340960D01*
X3655108Y-16340960D02*
X3636061Y-16350484D01*
X3636061Y-16350484D02*
X3588442Y-16350484D01*
X3588442Y-16350484D02*
X3569394Y-16340960D01*
X3569394Y-16340960D02*
X3559870Y-16331436D01*
X3797966Y-16150484D02*
X3817013Y-16150484D01*
X3817013Y-16150484D02*
X3836061Y-16160008D01*
X3836061Y-16160008D02*
X3845585Y-16169532D01*
X3845585Y-16169532D02*
X3855108Y-16188579D01*
X3855108Y-16188579D02*
X3864632Y-16226674D01*
X3864632Y-16226674D02*
X3864632Y-16274294D01*
X3864632Y-16274294D02*
X3855108Y-16312389D01*
X3855108Y-16312389D02*
X3845585Y-16331436D01*
X3845585Y-16331436D02*
X3836061Y-16340960D01*
X3836061Y-16340960D02*
X3817013Y-16350484D01*
X3817013Y-16350484D02*
X3797966Y-16350484D01*
X3797966Y-16350484D02*
X3778918Y-16340960D01*
X3778918Y-16340960D02*
X3769394Y-16331436D01*
X3769394Y-16331436D02*
X3759870Y-16312389D01*
X3759870Y-16312389D02*
X3750347Y-16274294D01*
X3750347Y-16274294D02*
X3750347Y-16226674D01*
X3750347Y-16226674D02*
X3759870Y-16188579D01*
X3759870Y-16188579D02*
X3769394Y-16169532D01*
X3769394Y-16169532D02*
X3778918Y-16160008D01*
X3778918Y-16160008D02*
X3797966Y-16150484D01*
X3950347Y-16350484D02*
X3950347Y-16217151D01*
X3950347Y-16236198D02*
X3959870Y-16226674D01*
X3959870Y-16226674D02*
X3978918Y-16217151D01*
X3978918Y-16217151D02*
X4007489Y-16217151D01*
X4007489Y-16217151D02*
X4026537Y-16226674D01*
X4026537Y-16226674D02*
X4036061Y-16245722D01*
X4036061Y-16245722D02*
X4036061Y-16350484D01*
X4036061Y-16245722D02*
X4045585Y-16226674D01*
X4045585Y-16226674D02*
X4064632Y-16217151D01*
X4064632Y-16217151D02*
X4093204Y-16217151D01*
X4093204Y-16217151D02*
X4112251Y-16226674D01*
X4112251Y-16226674D02*
X4121775Y-16245722D01*
X4121775Y-16245722D02*
X4121775Y-16350484D01*
X4217013Y-16350484D02*
X4217013Y-16217151D01*
X4217013Y-16236198D02*
X4226537Y-16226674D01*
X4226537Y-16226674D02*
X4245585Y-16217151D01*
X4245585Y-16217151D02*
X4274156Y-16217151D01*
X4274156Y-16217151D02*
X4293204Y-16226674D01*
X4293204Y-16226674D02*
X4302728Y-16245722D01*
X4302728Y-16245722D02*
X4302728Y-16350484D01*
X4302728Y-16245722D02*
X4312251Y-16226674D01*
X4312251Y-16226674D02*
X4331299Y-16217151D01*
X4331299Y-16217151D02*
X4359870Y-16217151D01*
X4359870Y-16217151D02*
X4378918Y-16226674D01*
X4378918Y-16226674D02*
X4388442Y-16245722D01*
X4388442Y-16245722D02*
X4388442Y-16350484D01*
X4778918Y-16140960D02*
X4607490Y-16398103D01*
X5036061Y-16150484D02*
X5055109Y-16150484D01*
X5055109Y-16150484D02*
X5074156Y-16160008D01*
X5074156Y-16160008D02*
X5083680Y-16169532D01*
X5083680Y-16169532D02*
X5093204Y-16188579D01*
X5093204Y-16188579D02*
X5102728Y-16226674D01*
X5102728Y-16226674D02*
X5102728Y-16274294D01*
X5102728Y-16274294D02*
X5093204Y-16312389D01*
X5093204Y-16312389D02*
X5083680Y-16331436D01*
X5083680Y-16331436D02*
X5074156Y-16340960D01*
X5074156Y-16340960D02*
X5055109Y-16350484D01*
X5055109Y-16350484D02*
X5036061Y-16350484D01*
X5036061Y-16350484D02*
X5017013Y-16340960D01*
X5017013Y-16340960D02*
X5007490Y-16331436D01*
X5007490Y-16331436D02*
X4997966Y-16312389D01*
X4997966Y-16312389D02*
X4988442Y-16274294D01*
X4988442Y-16274294D02*
X4988442Y-16226674D01*
X4988442Y-16226674D02*
X4997966Y-16188579D01*
X4997966Y-16188579D02*
X5007490Y-16169532D01*
X5007490Y-16169532D02*
X5017013Y-16160008D01*
X5017013Y-16160008D02*
X5036061Y-16150484D01*
X5188442Y-16331436D02*
X5197966Y-16340960D01*
X5197966Y-16340960D02*
X5188442Y-16350484D01*
X5188442Y-16350484D02*
X5178918Y-16340960D01*
X5178918Y-16340960D02*
X5188442Y-16331436D01*
X5188442Y-16331436D02*
X5188442Y-16350484D01*
X5321775Y-16150484D02*
X5340823Y-16150484D01*
X5340823Y-16150484D02*
X5359871Y-16160008D01*
X5359871Y-16160008D02*
X5369394Y-16169532D01*
X5369394Y-16169532D02*
X5378918Y-16188579D01*
X5378918Y-16188579D02*
X5388442Y-16226674D01*
X5388442Y-16226674D02*
X5388442Y-16274294D01*
X5388442Y-16274294D02*
X5378918Y-16312389D01*
X5378918Y-16312389D02*
X5369394Y-16331436D01*
X5369394Y-16331436D02*
X5359871Y-16340960D01*
X5359871Y-16340960D02*
X5340823Y-16350484D01*
X5340823Y-16350484D02*
X5321775Y-16350484D01*
X5321775Y-16350484D02*
X5302728Y-16340960D01*
X5302728Y-16340960D02*
X5293204Y-16331436D01*
X5293204Y-16331436D02*
X5283680Y-16312389D01*
X5283680Y-16312389D02*
X5274156Y-16274294D01*
X5274156Y-16274294D02*
X5274156Y-16226674D01*
X5274156Y-16226674D02*
X5283680Y-16188579D01*
X5283680Y-16188579D02*
X5293204Y-16169532D01*
X5293204Y-16169532D02*
X5302728Y-16160008D01*
X5302728Y-16160008D02*
X5321775Y-16150484D01*
X5559871Y-16150484D02*
X5521775Y-16150484D01*
X5521775Y-16150484D02*
X5502728Y-16160008D01*
X5502728Y-16160008D02*
X5493204Y-16169532D01*
X5493204Y-16169532D02*
X5474156Y-16198103D01*
X5474156Y-16198103D02*
X5464633Y-16236198D01*
X5464633Y-16236198D02*
X5464633Y-16312389D01*
X5464633Y-16312389D02*
X5474156Y-16331436D01*
X5474156Y-16331436D02*
X5483680Y-16340960D01*
X5483680Y-16340960D02*
X5502728Y-16350484D01*
X5502728Y-16350484D02*
X5540823Y-16350484D01*
X5540823Y-16350484D02*
X5559871Y-16340960D01*
X5559871Y-16340960D02*
X5569394Y-16331436D01*
X5569394Y-16331436D02*
X5578918Y-16312389D01*
X5578918Y-16312389D02*
X5578918Y-16264770D01*
X5578918Y-16264770D02*
X5569394Y-16245722D01*
X5569394Y-16245722D02*
X5559871Y-16236198D01*
X5559871Y-16236198D02*
X5540823Y-16226674D01*
X5540823Y-16226674D02*
X5502728Y-16226674D01*
X5502728Y-16226674D02*
X5483680Y-16236198D01*
X5483680Y-16236198D02*
X5474156Y-16245722D01*
X5474156Y-16245722D02*
X5464633Y-16264770D01*
X5693204Y-16236198D02*
X5674156Y-16226674D01*
X5674156Y-16226674D02*
X5664632Y-16217151D01*
X5664632Y-16217151D02*
X5655109Y-16198103D01*
X5655109Y-16198103D02*
X5655109Y-16188579D01*
X5655109Y-16188579D02*
X5664632Y-16169532D01*
X5664632Y-16169532D02*
X5674156Y-16160008D01*
X5674156Y-16160008D02*
X5693204Y-16150484D01*
X5693204Y-16150484D02*
X5731299Y-16150484D01*
X5731299Y-16150484D02*
X5750347Y-16160008D01*
X5750347Y-16160008D02*
X5759871Y-16169532D01*
X5759871Y-16169532D02*
X5769394Y-16188579D01*
X5769394Y-16188579D02*
X5769394Y-16198103D01*
X5769394Y-16198103D02*
X5759871Y-16217151D01*
X5759871Y-16217151D02*
X5750347Y-16226674D01*
X5750347Y-16226674D02*
X5731299Y-16236198D01*
X5731299Y-16236198D02*
X5693204Y-16236198D01*
X5693204Y-16236198D02*
X5674156Y-16245722D01*
X5674156Y-16245722D02*
X5664632Y-16255246D01*
X5664632Y-16255246D02*
X5655109Y-16274294D01*
X5655109Y-16274294D02*
X5655109Y-16312389D01*
X5655109Y-16312389D02*
X5664632Y-16331436D01*
X5664632Y-16331436D02*
X5674156Y-16340960D01*
X5674156Y-16340960D02*
X5693204Y-16350484D01*
X5693204Y-16350484D02*
X5731299Y-16350484D01*
X5731299Y-16350484D02*
X5750347Y-16340960D01*
X5750347Y-16340960D02*
X5759871Y-16331436D01*
X5759871Y-16331436D02*
X5769394Y-16312389D01*
X5769394Y-16312389D02*
X5769394Y-16274294D01*
X5769394Y-16274294D02*
X5759871Y-16255246D01*
X5759871Y-16255246D02*
X5750347Y-16245722D01*
X5750347Y-16245722D02*
X5731299Y-16236198D01*
X5864632Y-16350484D02*
X5902728Y-16350484D01*
X5902728Y-16350484D02*
X5921775Y-16340960D01*
X5921775Y-16340960D02*
X5931299Y-16331436D01*
X5931299Y-16331436D02*
X5950347Y-16302865D01*
X5950347Y-16302865D02*
X5959871Y-16264770D01*
X5959871Y-16264770D02*
X5959871Y-16188579D01*
X5959871Y-16188579D02*
X5950347Y-16169532D01*
X5950347Y-16169532D02*
X5940823Y-16160008D01*
X5940823Y-16160008D02*
X5921775Y-16150484D01*
X5921775Y-16150484D02*
X5883680Y-16150484D01*
X5883680Y-16150484D02*
X5864632Y-16160008D01*
X5864632Y-16160008D02*
X5855109Y-16169532D01*
X5855109Y-16169532D02*
X5845585Y-16188579D01*
X5845585Y-16188579D02*
X5845585Y-16236198D01*
X5845585Y-16236198D02*
X5855109Y-16255246D01*
X5855109Y-16255246D02*
X5864632Y-16264770D01*
X5864632Y-16264770D02*
X5883680Y-16274294D01*
X5883680Y-16274294D02*
X5921775Y-16274294D01*
X5921775Y-16274294D02*
X5940823Y-16264770D01*
X5940823Y-16264770D02*
X5950347Y-16255246D01*
X5950347Y-16255246D02*
X5959871Y-16236198D01*
X6036061Y-16150484D02*
X6036061Y-16188579D01*
X6112252Y-16150484D02*
X6112252Y-16188579D01*
X6407490Y-16426674D02*
X6397966Y-16417151D01*
X6397966Y-16417151D02*
X6378918Y-16388579D01*
X6378918Y-16388579D02*
X6369394Y-16369532D01*
X6369394Y-16369532D02*
X6359871Y-16340960D01*
X6359871Y-16340960D02*
X6350347Y-16293341D01*
X6350347Y-16293341D02*
X6350347Y-16255246D01*
X6350347Y-16255246D02*
X6359871Y-16207627D01*
X6359871Y-16207627D02*
X6369394Y-16179055D01*
X6369394Y-16179055D02*
X6378918Y-16160008D01*
X6378918Y-16160008D02*
X6397966Y-16131436D01*
X6397966Y-16131436D02*
X6407490Y-16121913D01*
X6588442Y-16350484D02*
X6474156Y-16350484D01*
X6531299Y-16350484D02*
X6531299Y-16150484D01*
X6531299Y-16150484D02*
X6512252Y-16179055D01*
X6512252Y-16179055D02*
X6493204Y-16198103D01*
X6493204Y-16198103D02*
X6474156Y-16207627D01*
X6655109Y-16150484D02*
X6788442Y-16150484D01*
X6788442Y-16150484D02*
X6702728Y-16350484D01*
X6950347Y-16217151D02*
X6950347Y-16350484D01*
X6902728Y-16140960D02*
X6855109Y-16283817D01*
X6855109Y-16283817D02*
X6978918Y-16283817D01*
X7207490Y-16350484D02*
X7207490Y-16150484D01*
X7293204Y-16350484D02*
X7293204Y-16245722D01*
X7293204Y-16245722D02*
X7283680Y-16226674D01*
X7283680Y-16226674D02*
X7264633Y-16217151D01*
X7264633Y-16217151D02*
X7236061Y-16217151D01*
X7236061Y-16217151D02*
X7217014Y-16226674D01*
X7217014Y-16226674D02*
X7207490Y-16236198D01*
X7417014Y-16350484D02*
X7397966Y-16340960D01*
X7397966Y-16340960D02*
X7388442Y-16331436D01*
X7388442Y-16331436D02*
X7378918Y-16312389D01*
X7378918Y-16312389D02*
X7378918Y-16255246D01*
X7378918Y-16255246D02*
X7388442Y-16236198D01*
X7388442Y-16236198D02*
X7397966Y-16226674D01*
X7397966Y-16226674D02*
X7417014Y-16217151D01*
X7417014Y-16217151D02*
X7445585Y-16217151D01*
X7445585Y-16217151D02*
X7464633Y-16226674D01*
X7464633Y-16226674D02*
X7474156Y-16236198D01*
X7474156Y-16236198D02*
X7483680Y-16255246D01*
X7483680Y-16255246D02*
X7483680Y-16312389D01*
X7483680Y-16312389D02*
X7474156Y-16331436D01*
X7474156Y-16331436D02*
X7464633Y-16340960D01*
X7464633Y-16340960D02*
X7445585Y-16350484D01*
X7445585Y-16350484D02*
X7417014Y-16350484D01*
X7597966Y-16350484D02*
X7578918Y-16340960D01*
X7578918Y-16340960D02*
X7569395Y-16321913D01*
X7569395Y-16321913D02*
X7569395Y-16150484D01*
X7750347Y-16340960D02*
X7731299Y-16350484D01*
X7731299Y-16350484D02*
X7693204Y-16350484D01*
X7693204Y-16350484D02*
X7674156Y-16340960D01*
X7674156Y-16340960D02*
X7664633Y-16321913D01*
X7664633Y-16321913D02*
X7664633Y-16245722D01*
X7664633Y-16245722D02*
X7674156Y-16226674D01*
X7674156Y-16226674D02*
X7693204Y-16217151D01*
X7693204Y-16217151D02*
X7731299Y-16217151D01*
X7731299Y-16217151D02*
X7750347Y-16226674D01*
X7750347Y-16226674D02*
X7759871Y-16245722D01*
X7759871Y-16245722D02*
X7759871Y-16264770D01*
X7759871Y-16264770D02*
X7664633Y-16283817D01*
X7836061Y-16340960D02*
X7855109Y-16350484D01*
X7855109Y-16350484D02*
X7893204Y-16350484D01*
X7893204Y-16350484D02*
X7912252Y-16340960D01*
X7912252Y-16340960D02*
X7921776Y-16321913D01*
X7921776Y-16321913D02*
X7921776Y-16312389D01*
X7921776Y-16312389D02*
X7912252Y-16293341D01*
X7912252Y-16293341D02*
X7893204Y-16283817D01*
X7893204Y-16283817D02*
X7864633Y-16283817D01*
X7864633Y-16283817D02*
X7845585Y-16274294D01*
X7845585Y-16274294D02*
X7836061Y-16255246D01*
X7836061Y-16255246D02*
X7836061Y-16245722D01*
X7836061Y-16245722D02*
X7845585Y-16226674D01*
X7845585Y-16226674D02*
X7864633Y-16217151D01*
X7864633Y-16217151D02*
X7893204Y-16217151D01*
X7893204Y-16217151D02*
X7912252Y-16226674D01*
X7988442Y-16426674D02*
X7997966Y-16417151D01*
X7997966Y-16417151D02*
X8017014Y-16388579D01*
X8017014Y-16388579D02*
X8026537Y-16369532D01*
X8026537Y-16369532D02*
X8036061Y-16340960D01*
X8036061Y-16340960D02*
X8045585Y-16293341D01*
X8045585Y-16293341D02*
X8045585Y-16255246D01*
X8045585Y-16255246D02*
X8036061Y-16207627D01*
X8036061Y-16207627D02*
X8026537Y-16179055D01*
X8026537Y-16179055D02*
X8017014Y-16160008D01*
X8017014Y-16160008D02*
X7997966Y-16131436D01*
X7997966Y-16131436D02*
X7988442Y-16121913D01*
X8350347Y-16426674D02*
X8340823Y-16417151D01*
X8340823Y-16417151D02*
X8321776Y-16388579D01*
X8321776Y-16388579D02*
X8312252Y-16369532D01*
X8312252Y-16369532D02*
X8302728Y-16340960D01*
X8302728Y-16340960D02*
X8293204Y-16293341D01*
X8293204Y-16293341D02*
X8293204Y-16255246D01*
X8293204Y-16255246D02*
X8302728Y-16207627D01*
X8302728Y-16207627D02*
X8312252Y-16179055D01*
X8312252Y-16179055D02*
X8321776Y-16160008D01*
X8321776Y-16160008D02*
X8340823Y-16131436D01*
X8340823Y-16131436D02*
X8350347Y-16121913D01*
X8426538Y-16217151D02*
X8426538Y-16350484D01*
X8426538Y-16236198D02*
X8436061Y-16226674D01*
X8436061Y-16226674D02*
X8455109Y-16217151D01*
X8455109Y-16217151D02*
X8483680Y-16217151D01*
X8483680Y-16217151D02*
X8502728Y-16226674D01*
X8502728Y-16226674D02*
X8512252Y-16245722D01*
X8512252Y-16245722D02*
X8512252Y-16350484D01*
X8636061Y-16350484D02*
X8617014Y-16340960D01*
X8617014Y-16340960D02*
X8607490Y-16331436D01*
X8607490Y-16331436D02*
X8597966Y-16312389D01*
X8597966Y-16312389D02*
X8597966Y-16255246D01*
X8597966Y-16255246D02*
X8607490Y-16236198D01*
X8607490Y-16236198D02*
X8617014Y-16226674D01*
X8617014Y-16226674D02*
X8636061Y-16217151D01*
X8636061Y-16217151D02*
X8664633Y-16217151D01*
X8664633Y-16217151D02*
X8683680Y-16226674D01*
X8683680Y-16226674D02*
X8693204Y-16236198D01*
X8693204Y-16236198D02*
X8702728Y-16255246D01*
X8702728Y-16255246D02*
X8702728Y-16312389D01*
X8702728Y-16312389D02*
X8693204Y-16331436D01*
X8693204Y-16331436D02*
X8683680Y-16340960D01*
X8683680Y-16340960D02*
X8664633Y-16350484D01*
X8664633Y-16350484D02*
X8636061Y-16350484D01*
X8759871Y-16217151D02*
X8836061Y-16217151D01*
X8788442Y-16150484D02*
X8788442Y-16321913D01*
X8788442Y-16321913D02*
X8797966Y-16340960D01*
X8797966Y-16340960D02*
X8817014Y-16350484D01*
X8817014Y-16350484D02*
X8836061Y-16350484D01*
X9055109Y-16217151D02*
X9055109Y-16417151D01*
X9055109Y-16226674D02*
X9074157Y-16217151D01*
X9074157Y-16217151D02*
X9112252Y-16217151D01*
X9112252Y-16217151D02*
X9131300Y-16226674D01*
X9131300Y-16226674D02*
X9140823Y-16236198D01*
X9140823Y-16236198D02*
X9150347Y-16255246D01*
X9150347Y-16255246D02*
X9150347Y-16312389D01*
X9150347Y-16312389D02*
X9140823Y-16331436D01*
X9140823Y-16331436D02*
X9131300Y-16340960D01*
X9131300Y-16340960D02*
X9112252Y-16350484D01*
X9112252Y-16350484D02*
X9074157Y-16350484D01*
X9074157Y-16350484D02*
X9055109Y-16340960D01*
X9264633Y-16350484D02*
X9245585Y-16340960D01*
X9245585Y-16340960D02*
X9236061Y-16321913D01*
X9236061Y-16321913D02*
X9236061Y-16150484D01*
X9426538Y-16350484D02*
X9426538Y-16245722D01*
X9426538Y-16245722D02*
X9417014Y-16226674D01*
X9417014Y-16226674D02*
X9397966Y-16217151D01*
X9397966Y-16217151D02*
X9359871Y-16217151D01*
X9359871Y-16217151D02*
X9340823Y-16226674D01*
X9426538Y-16340960D02*
X9407490Y-16350484D01*
X9407490Y-16350484D02*
X9359871Y-16350484D01*
X9359871Y-16350484D02*
X9340823Y-16340960D01*
X9340823Y-16340960D02*
X9331300Y-16321913D01*
X9331300Y-16321913D02*
X9331300Y-16302865D01*
X9331300Y-16302865D02*
X9340823Y-16283817D01*
X9340823Y-16283817D02*
X9359871Y-16274294D01*
X9359871Y-16274294D02*
X9407490Y-16274294D01*
X9407490Y-16274294D02*
X9426538Y-16264770D01*
X9493204Y-16217151D02*
X9569395Y-16217151D01*
X9521776Y-16150484D02*
X9521776Y-16321913D01*
X9521776Y-16321913D02*
X9531300Y-16340960D01*
X9531300Y-16340960D02*
X9550347Y-16350484D01*
X9550347Y-16350484D02*
X9569395Y-16350484D01*
X9712252Y-16340960D02*
X9693204Y-16350484D01*
X9693204Y-16350484D02*
X9655109Y-16350484D01*
X9655109Y-16350484D02*
X9636061Y-16340960D01*
X9636061Y-16340960D02*
X9626538Y-16321913D01*
X9626538Y-16321913D02*
X9626538Y-16245722D01*
X9626538Y-16245722D02*
X9636061Y-16226674D01*
X9636061Y-16226674D02*
X9655109Y-16217151D01*
X9655109Y-16217151D02*
X9693204Y-16217151D01*
X9693204Y-16217151D02*
X9712252Y-16226674D01*
X9712252Y-16226674D02*
X9721776Y-16245722D01*
X9721776Y-16245722D02*
X9721776Y-16264770D01*
X9721776Y-16264770D02*
X9626538Y-16283817D01*
X9893204Y-16350484D02*
X9893204Y-16150484D01*
X9893204Y-16340960D02*
X9874157Y-16350484D01*
X9874157Y-16350484D02*
X9836061Y-16350484D01*
X9836061Y-16350484D02*
X9817014Y-16340960D01*
X9817014Y-16340960D02*
X9807490Y-16331436D01*
X9807490Y-16331436D02*
X9797966Y-16312389D01*
X9797966Y-16312389D02*
X9797966Y-16255246D01*
X9797966Y-16255246D02*
X9807490Y-16236198D01*
X9807490Y-16236198D02*
X9817014Y-16226674D01*
X9817014Y-16226674D02*
X9836061Y-16217151D01*
X9836061Y-16217151D02*
X9874157Y-16217151D01*
X9874157Y-16217151D02*
X9893204Y-16226674D01*
X9969395Y-16426674D02*
X9978919Y-16417151D01*
X9978919Y-16417151D02*
X9997966Y-16388579D01*
X9997966Y-16388579D02*
X10007490Y-16369532D01*
X10007490Y-16369532D02*
X10017014Y-16340960D01*
X10017014Y-16340960D02*
X10026538Y-16293341D01*
X10026538Y-16293341D02*
X10026538Y-16255246D01*
X10026538Y-16255246D02*
X10017014Y-16207627D01*
X10017014Y-16207627D02*
X10007490Y-16179055D01*
X10007490Y-16179055D02*
X9997966Y-16160008D01*
X9997966Y-16160008D02*
X9978919Y-16131436D01*
X9978919Y-16131436D02*
X9969395Y-16121913D01*
X2732427Y-16454000D02*
X2732427Y-16654000D01*
X2632427Y-16554000D02*
X2832427Y-16554000D01*
X3074156Y-16445484D02*
X3197966Y-16445484D01*
X3197966Y-16445484D02*
X3131299Y-16521674D01*
X3131299Y-16521674D02*
X3159870Y-16521674D01*
X3159870Y-16521674D02*
X3178918Y-16531198D01*
X3178918Y-16531198D02*
X3188442Y-16540722D01*
X3188442Y-16540722D02*
X3197966Y-16559770D01*
X3197966Y-16559770D02*
X3197966Y-16607389D01*
X3197966Y-16607389D02*
X3188442Y-16626436D01*
X3188442Y-16626436D02*
X3178918Y-16635960D01*
X3178918Y-16635960D02*
X3159870Y-16645484D01*
X3159870Y-16645484D02*
X3102727Y-16645484D01*
X3102727Y-16645484D02*
X3083680Y-16635960D01*
X3083680Y-16635960D02*
X3074156Y-16626436D01*
X3283680Y-16626436D02*
X3293204Y-16635960D01*
X3293204Y-16635960D02*
X3283680Y-16645484D01*
X3283680Y-16645484D02*
X3274156Y-16635960D01*
X3274156Y-16635960D02*
X3283680Y-16626436D01*
X3283680Y-16626436D02*
X3283680Y-16645484D01*
X3388442Y-16645484D02*
X3426537Y-16645484D01*
X3426537Y-16645484D02*
X3445585Y-16635960D01*
X3445585Y-16635960D02*
X3455108Y-16626436D01*
X3455108Y-16626436D02*
X3474156Y-16597865D01*
X3474156Y-16597865D02*
X3483680Y-16559770D01*
X3483680Y-16559770D02*
X3483680Y-16483579D01*
X3483680Y-16483579D02*
X3474156Y-16464532D01*
X3474156Y-16464532D02*
X3464632Y-16455008D01*
X3464632Y-16455008D02*
X3445585Y-16445484D01*
X3445585Y-16445484D02*
X3407489Y-16445484D01*
X3407489Y-16445484D02*
X3388442Y-16455008D01*
X3388442Y-16455008D02*
X3378918Y-16464532D01*
X3378918Y-16464532D02*
X3369394Y-16483579D01*
X3369394Y-16483579D02*
X3369394Y-16531198D01*
X3369394Y-16531198D02*
X3378918Y-16550246D01*
X3378918Y-16550246D02*
X3388442Y-16559770D01*
X3388442Y-16559770D02*
X3407489Y-16569294D01*
X3407489Y-16569294D02*
X3445585Y-16569294D01*
X3445585Y-16569294D02*
X3464632Y-16559770D01*
X3464632Y-16559770D02*
X3474156Y-16550246D01*
X3474156Y-16550246D02*
X3483680Y-16531198D01*
X3597966Y-16531198D02*
X3578918Y-16521674D01*
X3578918Y-16521674D02*
X3569394Y-16512151D01*
X3569394Y-16512151D02*
X3559870Y-16493103D01*
X3559870Y-16493103D02*
X3559870Y-16483579D01*
X3559870Y-16483579D02*
X3569394Y-16464532D01*
X3569394Y-16464532D02*
X3578918Y-16455008D01*
X3578918Y-16455008D02*
X3597966Y-16445484D01*
X3597966Y-16445484D02*
X3636061Y-16445484D01*
X3636061Y-16445484D02*
X3655108Y-16455008D01*
X3655108Y-16455008D02*
X3664632Y-16464532D01*
X3664632Y-16464532D02*
X3674156Y-16483579D01*
X3674156Y-16483579D02*
X3674156Y-16493103D01*
X3674156Y-16493103D02*
X3664632Y-16512151D01*
X3664632Y-16512151D02*
X3655108Y-16521674D01*
X3655108Y-16521674D02*
X3636061Y-16531198D01*
X3636061Y-16531198D02*
X3597966Y-16531198D01*
X3597966Y-16531198D02*
X3578918Y-16540722D01*
X3578918Y-16540722D02*
X3569394Y-16550246D01*
X3569394Y-16550246D02*
X3559870Y-16569294D01*
X3559870Y-16569294D02*
X3559870Y-16607389D01*
X3559870Y-16607389D02*
X3569394Y-16626436D01*
X3569394Y-16626436D02*
X3578918Y-16635960D01*
X3578918Y-16635960D02*
X3597966Y-16645484D01*
X3597966Y-16645484D02*
X3636061Y-16645484D01*
X3636061Y-16645484D02*
X3655108Y-16635960D01*
X3655108Y-16635960D02*
X3664632Y-16626436D01*
X3664632Y-16626436D02*
X3674156Y-16607389D01*
X3674156Y-16607389D02*
X3674156Y-16569294D01*
X3674156Y-16569294D02*
X3664632Y-16550246D01*
X3664632Y-16550246D02*
X3655108Y-16540722D01*
X3655108Y-16540722D02*
X3636061Y-16531198D01*
X3788442Y-16531198D02*
X3769394Y-16521674D01*
X3769394Y-16521674D02*
X3759870Y-16512151D01*
X3759870Y-16512151D02*
X3750347Y-16493103D01*
X3750347Y-16493103D02*
X3750347Y-16483579D01*
X3750347Y-16483579D02*
X3759870Y-16464532D01*
X3759870Y-16464532D02*
X3769394Y-16455008D01*
X3769394Y-16455008D02*
X3788442Y-16445484D01*
X3788442Y-16445484D02*
X3826537Y-16445484D01*
X3826537Y-16445484D02*
X3845585Y-16455008D01*
X3845585Y-16455008D02*
X3855108Y-16464532D01*
X3855108Y-16464532D02*
X3864632Y-16483579D01*
X3864632Y-16483579D02*
X3864632Y-16493103D01*
X3864632Y-16493103D02*
X3855108Y-16512151D01*
X3855108Y-16512151D02*
X3845585Y-16521674D01*
X3845585Y-16521674D02*
X3826537Y-16531198D01*
X3826537Y-16531198D02*
X3788442Y-16531198D01*
X3788442Y-16531198D02*
X3769394Y-16540722D01*
X3769394Y-16540722D02*
X3759870Y-16550246D01*
X3759870Y-16550246D02*
X3750347Y-16569294D01*
X3750347Y-16569294D02*
X3750347Y-16607389D01*
X3750347Y-16607389D02*
X3759870Y-16626436D01*
X3759870Y-16626436D02*
X3769394Y-16635960D01*
X3769394Y-16635960D02*
X3788442Y-16645484D01*
X3788442Y-16645484D02*
X3826537Y-16645484D01*
X3826537Y-16645484D02*
X3845585Y-16635960D01*
X3845585Y-16635960D02*
X3855108Y-16626436D01*
X3855108Y-16626436D02*
X3864632Y-16607389D01*
X3864632Y-16607389D02*
X3864632Y-16569294D01*
X3864632Y-16569294D02*
X3855108Y-16550246D01*
X3855108Y-16550246D02*
X3845585Y-16540722D01*
X3845585Y-16540722D02*
X3826537Y-16531198D01*
X3950347Y-16645484D02*
X3950347Y-16512151D01*
X3950347Y-16531198D02*
X3959870Y-16521674D01*
X3959870Y-16521674D02*
X3978918Y-16512151D01*
X3978918Y-16512151D02*
X4007489Y-16512151D01*
X4007489Y-16512151D02*
X4026537Y-16521674D01*
X4026537Y-16521674D02*
X4036061Y-16540722D01*
X4036061Y-16540722D02*
X4036061Y-16645484D01*
X4036061Y-16540722D02*
X4045585Y-16521674D01*
X4045585Y-16521674D02*
X4064632Y-16512151D01*
X4064632Y-16512151D02*
X4093204Y-16512151D01*
X4093204Y-16512151D02*
X4112251Y-16521674D01*
X4112251Y-16521674D02*
X4121775Y-16540722D01*
X4121775Y-16540722D02*
X4121775Y-16645484D01*
X4217013Y-16645484D02*
X4217013Y-16512151D01*
X4217013Y-16531198D02*
X4226537Y-16521674D01*
X4226537Y-16521674D02*
X4245585Y-16512151D01*
X4245585Y-16512151D02*
X4274156Y-16512151D01*
X4274156Y-16512151D02*
X4293204Y-16521674D01*
X4293204Y-16521674D02*
X4302728Y-16540722D01*
X4302728Y-16540722D02*
X4302728Y-16645484D01*
X4302728Y-16540722D02*
X4312251Y-16521674D01*
X4312251Y-16521674D02*
X4331299Y-16512151D01*
X4331299Y-16512151D02*
X4359870Y-16512151D01*
X4359870Y-16512151D02*
X4378918Y-16521674D01*
X4378918Y-16521674D02*
X4388442Y-16540722D01*
X4388442Y-16540722D02*
X4388442Y-16645484D01*
X4778918Y-16435960D02*
X4607490Y-16693103D01*
X5036061Y-16445484D02*
X5055109Y-16445484D01*
X5055109Y-16445484D02*
X5074156Y-16455008D01*
X5074156Y-16455008D02*
X5083680Y-16464532D01*
X5083680Y-16464532D02*
X5093204Y-16483579D01*
X5093204Y-16483579D02*
X5102728Y-16521674D01*
X5102728Y-16521674D02*
X5102728Y-16569294D01*
X5102728Y-16569294D02*
X5093204Y-16607389D01*
X5093204Y-16607389D02*
X5083680Y-16626436D01*
X5083680Y-16626436D02*
X5074156Y-16635960D01*
X5074156Y-16635960D02*
X5055109Y-16645484D01*
X5055109Y-16645484D02*
X5036061Y-16645484D01*
X5036061Y-16645484D02*
X5017013Y-16635960D01*
X5017013Y-16635960D02*
X5007490Y-16626436D01*
X5007490Y-16626436D02*
X4997966Y-16607389D01*
X4997966Y-16607389D02*
X4988442Y-16569294D01*
X4988442Y-16569294D02*
X4988442Y-16521674D01*
X4988442Y-16521674D02*
X4997966Y-16483579D01*
X4997966Y-16483579D02*
X5007490Y-16464532D01*
X5007490Y-16464532D02*
X5017013Y-16455008D01*
X5017013Y-16455008D02*
X5036061Y-16445484D01*
X5188442Y-16626436D02*
X5197966Y-16635960D01*
X5197966Y-16635960D02*
X5188442Y-16645484D01*
X5188442Y-16645484D02*
X5178918Y-16635960D01*
X5178918Y-16635960D02*
X5188442Y-16626436D01*
X5188442Y-16626436D02*
X5188442Y-16645484D01*
X5388442Y-16645484D02*
X5274156Y-16645484D01*
X5331299Y-16645484D02*
X5331299Y-16445484D01*
X5331299Y-16445484D02*
X5312252Y-16474055D01*
X5312252Y-16474055D02*
X5293204Y-16493103D01*
X5293204Y-16493103D02*
X5274156Y-16502627D01*
X5569394Y-16445484D02*
X5474156Y-16445484D01*
X5474156Y-16445484D02*
X5464633Y-16540722D01*
X5464633Y-16540722D02*
X5474156Y-16531198D01*
X5474156Y-16531198D02*
X5493204Y-16521674D01*
X5493204Y-16521674D02*
X5540823Y-16521674D01*
X5540823Y-16521674D02*
X5559871Y-16531198D01*
X5559871Y-16531198D02*
X5569394Y-16540722D01*
X5569394Y-16540722D02*
X5578918Y-16559770D01*
X5578918Y-16559770D02*
X5578918Y-16607389D01*
X5578918Y-16607389D02*
X5569394Y-16626436D01*
X5569394Y-16626436D02*
X5559871Y-16635960D01*
X5559871Y-16635960D02*
X5540823Y-16645484D01*
X5540823Y-16645484D02*
X5493204Y-16645484D01*
X5493204Y-16645484D02*
X5474156Y-16635960D01*
X5474156Y-16635960D02*
X5464633Y-16626436D01*
X5645585Y-16445484D02*
X5778918Y-16445484D01*
X5778918Y-16445484D02*
X5693204Y-16645484D01*
X5893204Y-16445484D02*
X5912252Y-16445484D01*
X5912252Y-16445484D02*
X5931299Y-16455008D01*
X5931299Y-16455008D02*
X5940823Y-16464532D01*
X5940823Y-16464532D02*
X5950347Y-16483579D01*
X5950347Y-16483579D02*
X5959871Y-16521674D01*
X5959871Y-16521674D02*
X5959871Y-16569294D01*
X5959871Y-16569294D02*
X5950347Y-16607389D01*
X5950347Y-16607389D02*
X5940823Y-16626436D01*
X5940823Y-16626436D02*
X5931299Y-16635960D01*
X5931299Y-16635960D02*
X5912252Y-16645484D01*
X5912252Y-16645484D02*
X5893204Y-16645484D01*
X5893204Y-16645484D02*
X5874156Y-16635960D01*
X5874156Y-16635960D02*
X5864632Y-16626436D01*
X5864632Y-16626436D02*
X5855109Y-16607389D01*
X5855109Y-16607389D02*
X5845585Y-16569294D01*
X5845585Y-16569294D02*
X5845585Y-16521674D01*
X5845585Y-16521674D02*
X5855109Y-16483579D01*
X5855109Y-16483579D02*
X5864632Y-16464532D01*
X5864632Y-16464532D02*
X5874156Y-16455008D01*
X5874156Y-16455008D02*
X5893204Y-16445484D01*
X6036061Y-16445484D02*
X6036061Y-16483579D01*
X6112252Y-16445484D02*
X6112252Y-16483579D01*
X6407490Y-16721674D02*
X6397966Y-16712151D01*
X6397966Y-16712151D02*
X6378918Y-16683579D01*
X6378918Y-16683579D02*
X6369394Y-16664532D01*
X6369394Y-16664532D02*
X6359871Y-16635960D01*
X6359871Y-16635960D02*
X6350347Y-16588341D01*
X6350347Y-16588341D02*
X6350347Y-16550246D01*
X6350347Y-16550246D02*
X6359871Y-16502627D01*
X6359871Y-16502627D02*
X6369394Y-16474055D01*
X6369394Y-16474055D02*
X6378918Y-16455008D01*
X6378918Y-16455008D02*
X6397966Y-16426436D01*
X6397966Y-16426436D02*
X6407490Y-16416913D01*
X6493204Y-16645484D02*
X6531299Y-16645484D01*
X6531299Y-16645484D02*
X6550347Y-16635960D01*
X6550347Y-16635960D02*
X6559871Y-16626436D01*
X6559871Y-16626436D02*
X6578918Y-16597865D01*
X6578918Y-16597865D02*
X6588442Y-16559770D01*
X6588442Y-16559770D02*
X6588442Y-16483579D01*
X6588442Y-16483579D02*
X6578918Y-16464532D01*
X6578918Y-16464532D02*
X6569394Y-16455008D01*
X6569394Y-16455008D02*
X6550347Y-16445484D01*
X6550347Y-16445484D02*
X6512252Y-16445484D01*
X6512252Y-16445484D02*
X6493204Y-16455008D01*
X6493204Y-16455008D02*
X6483680Y-16464532D01*
X6483680Y-16464532D02*
X6474156Y-16483579D01*
X6474156Y-16483579D02*
X6474156Y-16531198D01*
X6474156Y-16531198D02*
X6483680Y-16550246D01*
X6483680Y-16550246D02*
X6493204Y-16559770D01*
X6493204Y-16559770D02*
X6512252Y-16569294D01*
X6512252Y-16569294D02*
X6550347Y-16569294D01*
X6550347Y-16569294D02*
X6569394Y-16559770D01*
X6569394Y-16559770D02*
X6578918Y-16550246D01*
X6578918Y-16550246D02*
X6588442Y-16531198D01*
X6655109Y-16445484D02*
X6788442Y-16445484D01*
X6788442Y-16445484D02*
X6702728Y-16645484D01*
X7017014Y-16645484D02*
X7017014Y-16445484D01*
X7102728Y-16645484D02*
X7102728Y-16540722D01*
X7102728Y-16540722D02*
X7093204Y-16521674D01*
X7093204Y-16521674D02*
X7074156Y-16512151D01*
X7074156Y-16512151D02*
X7045585Y-16512151D01*
X7045585Y-16512151D02*
X7026537Y-16521674D01*
X7026537Y-16521674D02*
X7017014Y-16531198D01*
X7226537Y-16645484D02*
X7207490Y-16635960D01*
X7207490Y-16635960D02*
X7197966Y-16626436D01*
X7197966Y-16626436D02*
X7188442Y-16607389D01*
X7188442Y-16607389D02*
X7188442Y-16550246D01*
X7188442Y-16550246D02*
X7197966Y-16531198D01*
X7197966Y-16531198D02*
X7207490Y-16521674D01*
X7207490Y-16521674D02*
X7226537Y-16512151D01*
X7226537Y-16512151D02*
X7255109Y-16512151D01*
X7255109Y-16512151D02*
X7274156Y-16521674D01*
X7274156Y-16521674D02*
X7283680Y-16531198D01*
X7283680Y-16531198D02*
X7293204Y-16550246D01*
X7293204Y-16550246D02*
X7293204Y-16607389D01*
X7293204Y-16607389D02*
X7283680Y-16626436D01*
X7283680Y-16626436D02*
X7274156Y-16635960D01*
X7274156Y-16635960D02*
X7255109Y-16645484D01*
X7255109Y-16645484D02*
X7226537Y-16645484D01*
X7407490Y-16645484D02*
X7388442Y-16635960D01*
X7388442Y-16635960D02*
X7378918Y-16616913D01*
X7378918Y-16616913D02*
X7378918Y-16445484D01*
X7559871Y-16635960D02*
X7540823Y-16645484D01*
X7540823Y-16645484D02*
X7502728Y-16645484D01*
X7502728Y-16645484D02*
X7483680Y-16635960D01*
X7483680Y-16635960D02*
X7474156Y-16616913D01*
X7474156Y-16616913D02*
X7474156Y-16540722D01*
X7474156Y-16540722D02*
X7483680Y-16521674D01*
X7483680Y-16521674D02*
X7502728Y-16512151D01*
X7502728Y-16512151D02*
X7540823Y-16512151D01*
X7540823Y-16512151D02*
X7559871Y-16521674D01*
X7559871Y-16521674D02*
X7569395Y-16540722D01*
X7569395Y-16540722D02*
X7569395Y-16559770D01*
X7569395Y-16559770D02*
X7474156Y-16578817D01*
X7645585Y-16635960D02*
X7664633Y-16645484D01*
X7664633Y-16645484D02*
X7702728Y-16645484D01*
X7702728Y-16645484D02*
X7721776Y-16635960D01*
X7721776Y-16635960D02*
X7731299Y-16616913D01*
X7731299Y-16616913D02*
X7731299Y-16607389D01*
X7731299Y-16607389D02*
X7721776Y-16588341D01*
X7721776Y-16588341D02*
X7702728Y-16578817D01*
X7702728Y-16578817D02*
X7674156Y-16578817D01*
X7674156Y-16578817D02*
X7655109Y-16569294D01*
X7655109Y-16569294D02*
X7645585Y-16550246D01*
X7645585Y-16550246D02*
X7645585Y-16540722D01*
X7645585Y-16540722D02*
X7655109Y-16521674D01*
X7655109Y-16521674D02*
X7674156Y-16512151D01*
X7674156Y-16512151D02*
X7702728Y-16512151D01*
X7702728Y-16512151D02*
X7721776Y-16521674D01*
X7797966Y-16721674D02*
X7807490Y-16712151D01*
X7807490Y-16712151D02*
X7826537Y-16683579D01*
X7826537Y-16683579D02*
X7836061Y-16664532D01*
X7836061Y-16664532D02*
X7845585Y-16635960D01*
X7845585Y-16635960D02*
X7855109Y-16588341D01*
X7855109Y-16588341D02*
X7855109Y-16550246D01*
X7855109Y-16550246D02*
X7845585Y-16502627D01*
X7845585Y-16502627D02*
X7836061Y-16474055D01*
X7836061Y-16474055D02*
X7826537Y-16455008D01*
X7826537Y-16455008D02*
X7807490Y-16426436D01*
X7807490Y-16426436D02*
X7797966Y-16416913D01*
X8159871Y-16721674D02*
X8150347Y-16712151D01*
X8150347Y-16712151D02*
X8131299Y-16683579D01*
X8131299Y-16683579D02*
X8121776Y-16664532D01*
X8121776Y-16664532D02*
X8112252Y-16635960D01*
X8112252Y-16635960D02*
X8102728Y-16588341D01*
X8102728Y-16588341D02*
X8102728Y-16550246D01*
X8102728Y-16550246D02*
X8112252Y-16502627D01*
X8112252Y-16502627D02*
X8121776Y-16474055D01*
X8121776Y-16474055D02*
X8131299Y-16455008D01*
X8131299Y-16455008D02*
X8150347Y-16426436D01*
X8150347Y-16426436D02*
X8159871Y-16416913D01*
X8236061Y-16512151D02*
X8236061Y-16645484D01*
X8236061Y-16531198D02*
X8245585Y-16521674D01*
X8245585Y-16521674D02*
X8264633Y-16512151D01*
X8264633Y-16512151D02*
X8293204Y-16512151D01*
X8293204Y-16512151D02*
X8312252Y-16521674D01*
X8312252Y-16521674D02*
X8321776Y-16540722D01*
X8321776Y-16540722D02*
X8321776Y-16645484D01*
X8445585Y-16645484D02*
X8426538Y-16635960D01*
X8426538Y-16635960D02*
X8417014Y-16626436D01*
X8417014Y-16626436D02*
X8407490Y-16607389D01*
X8407490Y-16607389D02*
X8407490Y-16550246D01*
X8407490Y-16550246D02*
X8417014Y-16531198D01*
X8417014Y-16531198D02*
X8426538Y-16521674D01*
X8426538Y-16521674D02*
X8445585Y-16512151D01*
X8445585Y-16512151D02*
X8474157Y-16512151D01*
X8474157Y-16512151D02*
X8493204Y-16521674D01*
X8493204Y-16521674D02*
X8502728Y-16531198D01*
X8502728Y-16531198D02*
X8512252Y-16550246D01*
X8512252Y-16550246D02*
X8512252Y-16607389D01*
X8512252Y-16607389D02*
X8502728Y-16626436D01*
X8502728Y-16626436D02*
X8493204Y-16635960D01*
X8493204Y-16635960D02*
X8474157Y-16645484D01*
X8474157Y-16645484D02*
X8445585Y-16645484D01*
X8569395Y-16512151D02*
X8645585Y-16512151D01*
X8597966Y-16445484D02*
X8597966Y-16616913D01*
X8597966Y-16616913D02*
X8607490Y-16635960D01*
X8607490Y-16635960D02*
X8626538Y-16645484D01*
X8626538Y-16645484D02*
X8645585Y-16645484D01*
X8864633Y-16512151D02*
X8864633Y-16712151D01*
X8864633Y-16521674D02*
X8883680Y-16512151D01*
X8883680Y-16512151D02*
X8921776Y-16512151D01*
X8921776Y-16512151D02*
X8940823Y-16521674D01*
X8940823Y-16521674D02*
X8950347Y-16531198D01*
X8950347Y-16531198D02*
X8959871Y-16550246D01*
X8959871Y-16550246D02*
X8959871Y-16607389D01*
X8959871Y-16607389D02*
X8950347Y-16626436D01*
X8950347Y-16626436D02*
X8940823Y-16635960D01*
X8940823Y-16635960D02*
X8921776Y-16645484D01*
X8921776Y-16645484D02*
X8883680Y-16645484D01*
X8883680Y-16645484D02*
X8864633Y-16635960D01*
X9074157Y-16645484D02*
X9055109Y-16635960D01*
X9055109Y-16635960D02*
X9045585Y-16616913D01*
X9045585Y-16616913D02*
X9045585Y-16445484D01*
X9236061Y-16645484D02*
X9236061Y-16540722D01*
X9236061Y-16540722D02*
X9226538Y-16521674D01*
X9226538Y-16521674D02*
X9207490Y-16512151D01*
X9207490Y-16512151D02*
X9169395Y-16512151D01*
X9169395Y-16512151D02*
X9150347Y-16521674D01*
X9236061Y-16635960D02*
X9217014Y-16645484D01*
X9217014Y-16645484D02*
X9169395Y-16645484D01*
X9169395Y-16645484D02*
X9150347Y-16635960D01*
X9150347Y-16635960D02*
X9140823Y-16616913D01*
X9140823Y-16616913D02*
X9140823Y-16597865D01*
X9140823Y-16597865D02*
X9150347Y-16578817D01*
X9150347Y-16578817D02*
X9169395Y-16569294D01*
X9169395Y-16569294D02*
X9217014Y-16569294D01*
X9217014Y-16569294D02*
X9236061Y-16559770D01*
X9302728Y-16512151D02*
X9378919Y-16512151D01*
X9331300Y-16445484D02*
X9331300Y-16616913D01*
X9331300Y-16616913D02*
X9340823Y-16635960D01*
X9340823Y-16635960D02*
X9359871Y-16645484D01*
X9359871Y-16645484D02*
X9378919Y-16645484D01*
X9521776Y-16635960D02*
X9502728Y-16645484D01*
X9502728Y-16645484D02*
X9464633Y-16645484D01*
X9464633Y-16645484D02*
X9445585Y-16635960D01*
X9445585Y-16635960D02*
X9436061Y-16616913D01*
X9436061Y-16616913D02*
X9436061Y-16540722D01*
X9436061Y-16540722D02*
X9445585Y-16521674D01*
X9445585Y-16521674D02*
X9464633Y-16512151D01*
X9464633Y-16512151D02*
X9502728Y-16512151D01*
X9502728Y-16512151D02*
X9521776Y-16521674D01*
X9521776Y-16521674D02*
X9531300Y-16540722D01*
X9531300Y-16540722D02*
X9531300Y-16559770D01*
X9531300Y-16559770D02*
X9436061Y-16578817D01*
X9702728Y-16645484D02*
X9702728Y-16445484D01*
X9702728Y-16635960D02*
X9683681Y-16645484D01*
X9683681Y-16645484D02*
X9645585Y-16645484D01*
X9645585Y-16645484D02*
X9626538Y-16635960D01*
X9626538Y-16635960D02*
X9617014Y-16626436D01*
X9617014Y-16626436D02*
X9607490Y-16607389D01*
X9607490Y-16607389D02*
X9607490Y-16550246D01*
X9607490Y-16550246D02*
X9617014Y-16531198D01*
X9617014Y-16531198D02*
X9626538Y-16521674D01*
X9626538Y-16521674D02*
X9645585Y-16512151D01*
X9645585Y-16512151D02*
X9683681Y-16512151D01*
X9683681Y-16512151D02*
X9702728Y-16521674D01*
X9778919Y-16721674D02*
X9788442Y-16712151D01*
X9788442Y-16712151D02*
X9807490Y-16683579D01*
X9807490Y-16683579D02*
X9817014Y-16664532D01*
X9817014Y-16664532D02*
X9826538Y-16635960D01*
X9826538Y-16635960D02*
X9836061Y-16588341D01*
X9836061Y-16588341D02*
X9836061Y-16550246D01*
X9836061Y-16550246D02*
X9826538Y-16502627D01*
X9826538Y-16502627D02*
X9817014Y-16474055D01*
X9817014Y-16474055D02*
X9807490Y-16455008D01*
X9807490Y-16455008D02*
X9788442Y-16426436D01*
X9788442Y-16426436D02*
X9778919Y-16416913D01*
M02*
